%TF.GenerationSoftware,KiCad,Pcbnew,10.0.6*%
%TF.CreationDate,2026-09-08T15:26:31+05:30*%
%TF.ProjectId,lna_fm_98mhz,6c6e615f-666d-45f3-9938-6d687a2e6b69,rev?*%
%TF.SameCoordinates,Original*%
%TF.FileFunction,Copper,L1,Top*%
%TF.FilePolarity,Positive*%
%FSLAX46Y46*%
G04 Gerber Fmt 4.6, Leading zero omitted, Abs format (unit mm)*
G04 Created by KiCad (PCBNEW 10.0.6) date 2026-09-08 15:26:31*
%MOMM*%
%LPD*%
G01*
G04 APERTURE LIST*
G04 Aperture macros list*
%AMRoundRect*
0 Rectangle with rounded corners*
0 $1 Rounding radius*
0 $2 $3 $4 $5 $6 $7 $8 $9 X,Y pos of 4 corners*
0 Add a 4 corners polygon primitive as box body*
4,1,4,$2,$3,$4,$5,$6,$7,$8,$9,$2,$3,0*
0 Add four circle primitives for the rounded corners*
1,1,$1+$1,$2,$3*
1,1,$1+$1,$4,$5*
1,1,$1+$1,$6,$7*
1,1,$1+$1,$8,$9*
0 Add four rect primitives between the rounded corners*
20,1,$1+$1,$2,$3,$4,$5,0*
20,1,$1+$1,$4,$5,$6,$7,0*
20,1,$1+$1,$6,$7,$8,$9,0*
20,1,$1+$1,$8,$9,$2,$3,0*%
%AMFreePoly0*
4,1,23,0.500000,-0.750000,0.000000,-0.750000,0.000000,-0.745722,-0.065263,-0.745722,-0.191342,-0.711940,-0.304381,-0.646677,-0.396677,-0.554381,-0.461940,-0.441342,-0.495722,-0.315263,-0.495722,-0.250000,-0.500000,-0.250000,-0.500000,0.250000,-0.495722,0.250000,-0.495722,0.315263,-0.461940,0.441342,-0.396677,0.554381,-0.304381,0.646677,-0.191342,0.711940,-0.065263,0.745722,0.000000,0.745722,
0.000000,0.750000,0.500000,0.750000,0.500000,-0.750000,0.500000,-0.750000,$1*%
%AMFreePoly1*
4,1,23,0.000000,0.745722,0.065263,0.745722,0.191342,0.711940,0.304381,0.646677,0.396677,0.554381,0.461940,0.441342,0.495722,0.315263,0.495722,0.250000,0.500000,0.250000,0.500000,-0.250000,0.495722,-0.250000,0.495722,-0.315263,0.461940,-0.441342,0.396677,-0.554381,0.304381,-0.646677,0.191342,-0.711940,0.065263,-0.745722,0.000000,-0.745722,0.000000,-0.750000,-0.500000,-0.750000,
-0.500000,0.750000,0.000000,0.750000,0.000000,0.745722,0.000000,0.745722,$1*%
G04 Aperture macros list end*
%TA.AperFunction,SMDPad,CuDef*%
%ADD10RoundRect,0.225000X-0.225000X-0.375000X0.225000X-0.375000X0.225000X0.375000X-0.225000X0.375000X0*%
%TD*%
%TA.AperFunction,SMDPad,CuDef*%
%ADD11RoundRect,0.250000X-0.475000X0.250000X-0.475000X-0.250000X0.475000X-0.250000X0.475000X0.250000X0*%
%TD*%
%TA.AperFunction,SMDPad,CuDef*%
%ADD12RoundRect,0.200000X0.275000X-0.200000X0.275000X0.200000X-0.275000X0.200000X-0.275000X-0.200000X0*%
%TD*%
%TA.AperFunction,ComponentPad*%
%ADD13C,4.400000*%
%TD*%
%TA.AperFunction,SMDPad,CuDef*%
%ADD14RoundRect,0.250000X-0.250000X-0.475000X0.250000X-0.475000X0.250000X0.475000X-0.250000X0.475000X0*%
%TD*%
%TA.AperFunction,SMDPad,CuDef*%
%ADD15RoundRect,0.218750X-0.256250X0.218750X-0.256250X-0.218750X0.256250X-0.218750X0.256250X0.218750X0*%
%TD*%
%TA.AperFunction,SMDPad,CuDef*%
%ADD16RoundRect,0.200000X-0.275000X0.200000X-0.275000X-0.200000X0.275000X-0.200000X0.275000X0.200000X0*%
%TD*%
%TA.AperFunction,SMDPad,CuDef*%
%ADD17RoundRect,0.250000X0.475000X-0.250000X0.475000X0.250000X-0.475000X0.250000X-0.475000X-0.250000X0*%
%TD*%
%TA.AperFunction,SMDPad,CuDef*%
%ADD18RoundRect,0.250000X1.350000X-0.385000X1.350000X0.385000X-1.350000X0.385000X-1.350000X-0.385000X0*%
%TD*%
%TA.AperFunction,SMDPad,CuDef*%
%ADD19RoundRect,0.250000X1.600000X-0.425000X1.600000X0.425000X-1.600000X0.425000X-1.600000X-0.425000X0*%
%TD*%
%TA.AperFunction,SMDPad,CuDef*%
%ADD20RoundRect,0.250000X-1.350000X0.385000X-1.350000X-0.385000X1.350000X-0.385000X1.350000X0.385000X0*%
%TD*%
%TA.AperFunction,SMDPad,CuDef*%
%ADD21RoundRect,0.250000X-1.600000X0.425000X-1.600000X-0.425000X1.600000X-0.425000X1.600000X0.425000X0*%
%TD*%
%TA.AperFunction,SMDPad,CuDef*%
%ADD22RoundRect,0.150000X-0.587500X-0.150000X0.587500X-0.150000X0.587500X0.150000X-0.587500X0.150000X0*%
%TD*%
%TA.AperFunction,SMDPad,CuDef*%
%ADD23RoundRect,0.218750X-0.218750X-0.256250X0.218750X-0.256250X0.218750X0.256250X-0.218750X0.256250X0*%
%TD*%
%TA.AperFunction,SMDPad,CuDef*%
%ADD24RoundRect,0.243750X-0.243750X-0.456250X0.243750X-0.456250X0.243750X0.456250X-0.243750X0.456250X0*%
%TD*%
%TA.AperFunction,ComponentPad*%
%ADD25R,1.700000X1.700000*%
%TD*%
%TA.AperFunction,ComponentPad*%
%ADD26C,1.700000*%
%TD*%
%TA.AperFunction,SMDPad,CuDef*%
%ADD27RoundRect,0.225000X-0.250000X0.225000X-0.250000X-0.225000X0.250000X-0.225000X0.250000X0.225000X0*%
%TD*%
%TA.AperFunction,SMDPad,CuDef*%
%ADD28RoundRect,0.218750X0.256250X-0.218750X0.256250X0.218750X-0.256250X0.218750X-0.256250X-0.218750X0*%
%TD*%
%TA.AperFunction,SMDPad,CuDef*%
%ADD29FreePoly0,180.000000*%
%TD*%
%TA.AperFunction,SMDPad,CuDef*%
%ADD30FreePoly1,180.000000*%
%TD*%
%TA.AperFunction,ViaPad*%
%ADD31C,0.600000*%
%TD*%
%TA.AperFunction,Conductor*%
%ADD32C,0.400000*%
%TD*%
%TA.AperFunction,Conductor*%
%ADD33C,0.600000*%
%TD*%
%TA.AperFunction,Conductor*%
%ADD34C,0.500000*%
%TD*%
%TA.AperFunction,Conductor*%
%ADD35C,1.500000*%
%TD*%
%TA.AperFunction,Conductor*%
%ADD36C,0.350000*%
%TD*%
G04 APERTURE END LIST*
D10*
%TO.P,D1,1*%
%TO.N,VCC*%
X11350000Y-3200000D03*
%TO.P,D1,2*%
%TO.N,/BAT_IN*%
X14650000Y-3200000D03*
%TD*%
D11*
%TO.P,C6,1*%
%TO.N,/COLLECTOR*%
X19000000Y-17050000D03*
%TO.P,C6,2*%
%TO.N,GND*%
X19000000Y-18950000D03*
%TD*%
D10*
%TO.P,D2,1*%
%TO.N,VCC*%
X24350000Y-2400000D03*
%TO.P,D2,2*%
%TO.N,/BIAS_TEE_DC*%
X27650000Y-2400000D03*
%TD*%
D12*
%TO.P,R4,1*%
%TO.N,VCC*%
X8950000Y-5625000D03*
%TO.P,R4,2*%
%TO.N,Net-(D3-Pad2)*%
X8950000Y-3975000D03*
%TD*%
D13*
%TO.P,H2,1*%
%TO.N,GND*%
X31500000Y-2500000D03*
%TD*%
D14*
%TO.P,C1,1*%
%TO.N,/RF_IN_50R*%
X9550000Y-15450000D03*
%TO.P,C1,2*%
%TO.N,/EMITTER*%
X11450000Y-15450000D03*
%TD*%
D15*
%TO.P,L1,1*%
%TO.N,/RF_IN_50R*%
X7800000Y-16212500D03*
%TO.P,L1,2*%
%TO.N,GND*%
X7800000Y-17787500D03*
%TD*%
D16*
%TO.P,R3,1*%
%TO.N,Net-(L2-Pad2)*%
X13000000Y-22675000D03*
%TO.P,R3,2*%
%TO.N,GND*%
X13000000Y-24325000D03*
%TD*%
D17*
%TO.P,C3,1*%
%TO.N,/BASE*%
X14562000Y-12000000D03*
%TO.P,C3,2*%
%TO.N,GND*%
X14562000Y-10100000D03*
%TD*%
D18*
%TO.P,J2,1*%
%TO.N,/RF_OUT_50R*%
X31900000Y-14500000D03*
D19*
%TO.P,J2,2*%
%TO.N,GND*%
X31650000Y-11675000D03*
X31650000Y-17325000D03*
%TD*%
D20*
%TO.P,J1,1*%
%TO.N,/RF_IN_50R*%
X2100000Y-14500000D03*
D21*
%TO.P,J1,2*%
%TO.N,GND*%
X2350000Y-17325000D03*
X2350000Y-11675000D03*
%TD*%
D22*
%TO.P,Q1,1*%
%TO.N,/BASE*%
X14562500Y-13550000D03*
%TO.P,Q1,2*%
%TO.N,/EMITTER*%
X14562500Y-15450000D03*
%TO.P,Q1,3*%
%TO.N,/COLLECTOR*%
X16437500Y-14500000D03*
%TD*%
D23*
%TO.P,L4,1*%
%TO.N,/RF_OUT_50R*%
X24212500Y-11500000D03*
%TO.P,L4,2*%
%TO.N,/BIAS_TEE_DC*%
X25787500Y-11500000D03*
%TD*%
D17*
%TO.P,C9,1*%
%TO.N,/BIAS_TEE_DC*%
X26500000Y-9550000D03*
%TO.P,C9,2*%
%TO.N,GND*%
X26500000Y-7650000D03*
%TD*%
D13*
%TO.P,H1,1*%
%TO.N,GND*%
X2500000Y-2500000D03*
%TD*%
%TO.P,H4,1*%
%TO.N,GND*%
X31500000Y-26500000D03*
%TD*%
D24*
%TO.P,D3,1*%
%TO.N,GND*%
X7062500Y-1800000D03*
%TO.P,D3,2*%
%TO.N,Net-(D3-Pad2)*%
X8937500Y-1800000D03*
%TD*%
D17*
%TO.P,C4,1*%
%TO.N,/BASE*%
X12200000Y-12000000D03*
%TO.P,C4,2*%
%TO.N,GND*%
X12200000Y-10100000D03*
%TD*%
D13*
%TO.P,H3,1*%
%TO.N,GND*%
X2500000Y-26500000D03*
%TD*%
D25*
%TO.P,J3,1*%
%TO.N,/BAT_IN*%
X19000000Y-3200000D03*
D26*
%TO.P,J3,2*%
%TO.N,GND*%
X21540000Y-3200000D03*
%TD*%
D15*
%TO.P,L2,1*%
%TO.N,/EMITTER*%
X13000000Y-18712500D03*
%TO.P,L2,2*%
%TO.N,Net-(L2-Pad2)*%
X13000000Y-20287500D03*
%TD*%
D14*
%TO.P,C7,1*%
%TO.N,/COLLECTOR*%
X21050000Y-14500000D03*
%TO.P,C7,2*%
%TO.N,/RF_OUT_50R*%
X22950000Y-14500000D03*
%TD*%
D27*
%TO.P,C12,1*%
%TO.N,VCC*%
X15500000Y-6225000D03*
%TO.P,C12,2*%
%TO.N,GND*%
X15500000Y-7775000D03*
%TD*%
D28*
%TO.P,L3,1*%
%TO.N,/COLLECTOR*%
X19000000Y-12012500D03*
%TO.P,L3,2*%
%TO.N,VCC*%
X19000000Y-10437500D03*
%TD*%
D27*
%TO.P,C2,1*%
%TO.N,/RF_IN_50R*%
X5800000Y-16225000D03*
%TO.P,C2,2*%
%TO.N,GND*%
X5800000Y-17775000D03*
%TD*%
D29*
%TO.P,JP1,1*%
%TO.N,/BIAS_TEE_DC*%
X26650000Y-5000000D03*
D30*
%TO.P,JP1,2*%
%TO.N,VCC*%
X25350000Y-5000000D03*
%TD*%
D12*
%TO.P,R1,1*%
%TO.N,/BASE*%
X6200000Y-12050000D03*
%TO.P,R1,2*%
%TO.N,VCC*%
X6200000Y-10400000D03*
%TD*%
D17*
%TO.P,C5,1*%
%TO.N,/BASE*%
X9800000Y-12000000D03*
%TO.P,C5,2*%
%TO.N,GND*%
X9800000Y-10100000D03*
%TD*%
%TO.P,C10,1*%
%TO.N,/BIAS_TEE_DC*%
X24000000Y-9550000D03*
%TO.P,C10,2*%
%TO.N,GND*%
X24000000Y-7650000D03*
%TD*%
D11*
%TO.P,C11,1*%
%TO.N,VCC*%
X13000000Y-6050000D03*
%TO.P,C11,2*%
%TO.N,GND*%
X13000000Y-7950000D03*
%TD*%
D12*
%TO.P,R2,1*%
%TO.N,/BASE*%
X7800000Y-12050000D03*
%TO.P,R2,2*%
%TO.N,GND*%
X7800000Y-10400000D03*
%TD*%
D31*
%TO.N,GND*%
X6000000Y-27000000D03*
X25250000Y-7650000D03*
X21000000Y-12000000D03*
X9800000Y-8500000D03*
X1500000Y-6000000D03*
X2000000Y-17000000D03*
X12200000Y-8500000D03*
X13000000Y-26000000D03*
X23000000Y-27000000D03*
X29500000Y-27000000D03*
X28500000Y-12000000D03*
X1500000Y-20000000D03*
X32500000Y-20000000D03*
X21000000Y-17000000D03*
X7800000Y-19500000D03*
X1500000Y-23000000D03*
X19000000Y-20500000D03*
X1500000Y-9000000D03*
X26000000Y-17000000D03*
X15500000Y-27000000D03*
X16500000Y-17000000D03*
X32500000Y-23000000D03*
X4000000Y-1000000D03*
X19000000Y-27000000D03*
X4000000Y-17000000D03*
X10000000Y-27000000D03*
X15500000Y-9500000D03*
X2000000Y-12000000D03*
X5800000Y-19500000D03*
X5500000Y-1800000D03*
X23500000Y-17000000D03*
X14562000Y-8500000D03*
X16500000Y-12000000D03*
X32500000Y-9000000D03*
X13000000Y-1000000D03*
X13000000Y-9500000D03*
X26500000Y-27000000D03*
X9800000Y-17500000D03*
X28500000Y-17000000D03*
X7800000Y-8500000D03*
X22500000Y-12000000D03*
%TD*%
%TO.N,GND*%
D32*
X19000000Y-18950000D02*
X19000000Y-20500000D01*
X15500000Y-7775000D02*
X15500000Y-9500000D01*
X14562000Y-10100000D02*
X14562000Y-8500000D01*
X12200000Y-10100000D02*
X12200000Y-8500000D01*
X13000000Y-7950000D02*
X13000000Y-9500000D01*
X24000000Y-7650000D02*
X26500000Y-7650000D01*
X5800000Y-17775000D02*
X5800000Y-19500000D01*
X13000000Y-24325000D02*
X13000000Y-26000000D01*
X7800000Y-17787500D02*
X7800000Y-19500000D01*
X9800000Y-10100000D02*
X9800000Y-8500000D01*
X7800000Y-10400000D02*
X7800000Y-8500000D01*
X7062500Y-1800000D02*
X5500000Y-1800000D01*
%TO.N,VCC*%
D33*
X11350000Y-3200000D02*
X11350000Y-6000000D01*
D34*
X6200000Y-6000000D02*
X24350000Y-6000000D01*
D32*
X24350000Y-5000000D02*
X25350000Y-5000000D01*
X8950000Y-5625000D02*
X8950000Y-6000000D01*
X6200000Y-10400000D02*
X6200000Y-6000000D01*
D34*
X13000000Y-6050000D02*
X13000000Y-6000000D01*
X19000000Y-10437500D02*
X19000000Y-6000000D01*
X24350000Y-6000000D02*
X24350000Y-2400000D01*
X15500000Y-6225000D02*
X15500000Y-6000000D01*
%TO.N,/RF_IN_50R*%
D33*
X5800000Y-14500000D02*
X5800000Y-16225000D01*
X7800000Y-14500000D02*
X8750000Y-15450000D01*
D35*
X2100000Y-14500000D02*
X7800000Y-14500000D01*
D33*
X8750000Y-15450000D02*
X9550000Y-15450000D01*
X7800000Y-14500000D02*
X7800000Y-16212499D01*
%TO.N,/RF_OUT_50R*%
D34*
X24212500Y-14500000D02*
X24212500Y-11500000D01*
D35*
X22950000Y-14500000D02*
X31900000Y-14500000D01*
%TO.N,/EMITTER*%
D32*
X13000000Y-15450000D02*
X13000000Y-18712500D01*
D34*
X11450000Y-15450000D02*
X14562500Y-15450000D01*
%TO.N,/BASE*%
X14562500Y-13550000D02*
X14562500Y-12000000D01*
D32*
X6200000Y-12000000D02*
X14562500Y-12000000D01*
%TO.N,/COLLECTOR*%
D34*
X19000000Y-14500000D02*
X19000000Y-12012500D01*
X19000000Y-14500000D02*
X19000000Y-17050000D01*
X16437500Y-14500000D02*
X21050000Y-14500000D01*
%TO.N,/BIAS_TEE_DC*%
D32*
X24000000Y-9550000D02*
X26500000Y-9550000D01*
X27650000Y-9550000D02*
X27650000Y-2400000D01*
X26650000Y-5000000D02*
X27650000Y-5000000D01*
X26500000Y-9550000D02*
X27650000Y-9550000D01*
X25787500Y-11500000D02*
X25787500Y-9550000D01*
%TO.N,/BAT_IN*%
D33*
X19000000Y-3200000D02*
X14650000Y-3200000D01*
%TO.N,Net-(L2-Pad2)*%
D32*
X13000000Y-20287500D02*
X13000000Y-22675000D01*
%TO.N,Net-(D3-Pad2)*%
D36*
X8950000Y-3975000D02*
X8937500Y-1800000D01*
%TD*%
%TA.AperFunction,Conductor*%
%TO.N,GND*%
G36*
X18208691Y-15269407D02*
G01*
X18244655Y-15318907D01*
X18249500Y-15349500D01*
X18249500Y-16032894D01*
X18230593Y-16091085D01*
X18202473Y-16117155D01*
X18056345Y-16207287D01*
X17932285Y-16331347D01*
X17840187Y-16480663D01*
X17785000Y-16647205D01*
X17774500Y-16749983D01*
X17774500Y-17350016D01*
X17784999Y-17452788D01*
X17785000Y-17452795D01*
X17785001Y-17452797D01*
X17808926Y-17524999D01*
X17840187Y-17619336D01*
X17932285Y-17768652D01*
X17932286Y-17768653D01*
X17932288Y-17768656D01*
X18056344Y-17892712D01*
X18056346Y-17892713D01*
X18056347Y-17892714D01*
X18094152Y-17916032D01*
X18133753Y-17962673D01*
X18138377Y-18023683D01*
X18106257Y-18075759D01*
X18094154Y-18084553D01*
X18056659Y-18107680D01*
X17932680Y-18231659D01*
X17840643Y-18380875D01*
X17785493Y-18547306D01*
X17775000Y-18650012D01*
X17775000Y-18699999D01*
X17775001Y-18700000D01*
X20224998Y-18700000D01*
X20224999Y-18699999D01*
X20224999Y-18650013D01*
X20214507Y-18547312D01*
X20214504Y-18547300D01*
X20159356Y-18380875D01*
X20067319Y-18231659D01*
X19943339Y-18107679D01*
X19905846Y-18084553D01*
X19866245Y-18037912D01*
X19861622Y-17976902D01*
X19893743Y-17924826D01*
X19905838Y-17916037D01*
X19943656Y-17892712D01*
X20067712Y-17768656D01*
X20159814Y-17619334D01*
X20214999Y-17452797D01*
X20225500Y-17350009D01*
X20225499Y-16749992D01*
X20225499Y-16749991D01*
X20225499Y-16749983D01*
X20215000Y-16647211D01*
X20214999Y-16647209D01*
X20214999Y-16647203D01*
X20159814Y-16480666D01*
X20067712Y-16331344D01*
X19943656Y-16207288D01*
X19799028Y-16118081D01*
X19797527Y-16117155D01*
X19757926Y-16070514D01*
X19750500Y-16032894D01*
X19750500Y-15349500D01*
X19769407Y-15291309D01*
X19818907Y-15255345D01*
X19849500Y-15250500D01*
X20032895Y-15250500D01*
X20091086Y-15269407D01*
X20117156Y-15297528D01*
X20207285Y-15443652D01*
X20207286Y-15443653D01*
X20207288Y-15443656D01*
X20331344Y-15567712D01*
X20331346Y-15567713D01*
X20331347Y-15567714D01*
X20334752Y-15569814D01*
X20480666Y-15659814D01*
X20647203Y-15714999D01*
X20749991Y-15725500D01*
X21350008Y-15725499D01*
X21350016Y-15725499D01*
X21452788Y-15715000D01*
X21452788Y-15714999D01*
X21452797Y-15714999D01*
X21619334Y-15659814D01*
X21768656Y-15567712D01*
X21892712Y-15443656D01*
X21915667Y-15406438D01*
X21962306Y-15366837D01*
X22023316Y-15362212D01*
X22069932Y-15388406D01*
X22070302Y-15388776D01*
X22084558Y-15406807D01*
X22107284Y-15443651D01*
X22107286Y-15443653D01*
X22107288Y-15443656D01*
X22231344Y-15567712D01*
X22231346Y-15567713D01*
X22231347Y-15567714D01*
X22234752Y-15569814D01*
X22380666Y-15659814D01*
X22547203Y-15714999D01*
X22649991Y-15725500D01*
X22685945Y-15725499D01*
X22701430Y-15726717D01*
X22770159Y-15737603D01*
X22851581Y-15750500D01*
X22851583Y-15750500D01*
X31998420Y-15750500D01*
X32192821Y-15719710D01*
X32192822Y-15719709D01*
X32192826Y-15719709D01*
X32380025Y-15658884D01*
X32404744Y-15646288D01*
X32449688Y-15635499D01*
X33300016Y-15635499D01*
X33402788Y-15625000D01*
X33402788Y-15624999D01*
X33402797Y-15624999D01*
X33569334Y-15569814D01*
X33718656Y-15477712D01*
X33830498Y-15365869D01*
X33885013Y-15338094D01*
X33945445Y-15347665D01*
X33988710Y-15390930D01*
X33999500Y-15435875D01*
X33999500Y-28900500D01*
X33980593Y-28958691D01*
X33931093Y-28994655D01*
X33900500Y-28999500D01*
X99500Y-28999500D01*
X41309Y-28980593D01*
X5345Y-28931093D01*
X500Y-28900500D01*
X500Y-24575001D01*
X12025001Y-24575001D01*
X12025001Y-24581582D01*
X12031408Y-24652103D01*
X12031410Y-24652109D01*
X12081979Y-24814392D01*
X12081982Y-24814400D01*
X12169924Y-24959872D01*
X12290127Y-25080075D01*
X12435599Y-25168017D01*
X12435607Y-25168020D01*
X12597889Y-25218589D01*
X12597895Y-25218591D01*
X12668424Y-25224999D01*
X12749999Y-25224998D01*
X12750000Y-25224998D01*
X12750000Y-24575001D01*
X13250000Y-24575001D01*
X13250000Y-25224998D01*
X13250001Y-25224999D01*
X13331566Y-25224999D01*
X13331582Y-25224998D01*
X13402103Y-25218591D01*
X13402109Y-25218589D01*
X13564392Y-25168020D01*
X13564400Y-25168017D01*
X13709872Y-25080075D01*
X13830075Y-24959872D01*
X13918017Y-24814400D01*
X13918020Y-24814392D01*
X13968589Y-24652110D01*
X13968591Y-24652104D01*
X13974999Y-24581581D01*
X13975000Y-24581568D01*
X13975000Y-24575001D01*
X13974999Y-24575000D01*
X13250001Y-24575000D01*
X13250000Y-24575001D01*
X12750000Y-24575001D01*
X12749999Y-24575000D01*
X12025002Y-24575000D01*
X12025001Y-24575001D01*
X500Y-24575001D01*
X500Y-18025001D01*
X4825001Y-18025001D01*
X4825001Y-18048322D01*
X4835142Y-18147597D01*
X4835145Y-18147609D01*
X4888454Y-18308487D01*
X4977425Y-18452729D01*
X5097270Y-18572574D01*
X5241512Y-18661545D01*
X5402396Y-18714856D01*
X5501677Y-18724999D01*
X5550000Y-18724998D01*
X5550000Y-18025001D01*
X6050000Y-18025001D01*
X6050000Y-18724998D01*
X6050001Y-18724999D01*
X6098322Y-18724999D01*
X6197597Y-18714857D01*
X6197609Y-18714854D01*
X6358487Y-18661545D01*
X6502729Y-18572574D01*
X6622574Y-18452729D01*
X6714575Y-18303576D01*
X6717185Y-18305186D01*
X6750275Y-18269189D01*
X6810251Y-18257085D01*
X6865887Y-18282546D01*
X6884213Y-18307578D01*
X6884880Y-18307167D01*
X6976112Y-18455077D01*
X7094922Y-18573887D01*
X7237924Y-18662092D01*
X7397419Y-18714943D01*
X7495849Y-18724999D01*
X7549999Y-18724998D01*
X7550000Y-18724998D01*
X7550000Y-18037501D01*
X8050000Y-18037501D01*
X8050000Y-18724998D01*
X8050001Y-18724999D01*
X8104150Y-18724999D01*
X8202574Y-18714944D01*
X8202586Y-18714941D01*
X8362075Y-18662092D01*
X8505077Y-18573887D01*
X8623887Y-18455077D01*
X8712092Y-18312075D01*
X8764943Y-18152580D01*
X8775000Y-18054151D01*
X8775000Y-18037501D01*
X8774999Y-18037500D01*
X8050001Y-18037500D01*
X8050000Y-18037501D01*
X7550000Y-18037501D01*
X7549999Y-18037500D01*
X6773507Y-18037500D01*
X6735035Y-18025000D01*
X6050001Y-18025000D01*
X6050000Y-18025001D01*
X5550000Y-18025001D01*
X5549999Y-18025000D01*
X4825002Y-18025000D01*
X4825001Y-18025001D01*
X500Y-18025001D01*
X500Y-15435875D01*
X19407Y-15377684D01*
X68907Y-15341720D01*
X130093Y-15341720D01*
X169501Y-15365869D01*
X281344Y-15477712D01*
X430666Y-15569814D01*
X597203Y-15624999D01*
X699991Y-15635500D01*
X1550312Y-15635499D01*
X1595255Y-15646288D01*
X1619975Y-15658884D01*
X1807174Y-15719709D01*
X1807175Y-15719709D01*
X1807178Y-15719710D01*
X2001580Y-15750500D01*
X2001583Y-15750500D01*
X4735421Y-15750500D01*
X4793612Y-15769407D01*
X4829576Y-15818907D01*
X4833908Y-15859562D01*
X4824500Y-15951647D01*
X4824500Y-16498352D01*
X4834649Y-16597699D01*
X4834650Y-16597706D01*
X4834651Y-16597708D01*
X4838663Y-16609814D01*
X4887998Y-16758700D01*
X4932514Y-16830870D01*
X4977032Y-16903044D01*
X5004339Y-16930351D01*
X5032115Y-16984866D01*
X5022544Y-17045298D01*
X5004339Y-17070355D01*
X4977430Y-17097264D01*
X4977425Y-17097270D01*
X4888454Y-17241512D01*
X4835143Y-17402396D01*
X4825000Y-17501676D01*
X4825000Y-17524999D01*
X4825001Y-17525000D01*
X6826493Y-17525000D01*
X6864965Y-17537500D01*
X8774998Y-17537500D01*
X8774999Y-17537499D01*
X8774999Y-17520849D01*
X8764944Y-17422425D01*
X8764941Y-17422413D01*
X8712092Y-17262924D01*
X8623887Y-17119922D01*
X8574322Y-17070357D01*
X8546545Y-17015840D01*
X8556116Y-16955408D01*
X8574319Y-16930352D01*
X8624281Y-16880391D01*
X8712549Y-16737287D01*
X8753738Y-16612985D01*
X8789989Y-16563696D01*
X8848289Y-16545128D01*
X8899685Y-16559865D01*
X8980666Y-16609814D01*
X9147203Y-16664999D01*
X9249991Y-16675500D01*
X9850008Y-16675499D01*
X9850016Y-16675499D01*
X9952788Y-16665000D01*
X9952788Y-16664999D01*
X9952797Y-16664999D01*
X10119334Y-16609814D01*
X10268656Y-16517712D01*
X10392712Y-16393656D01*
X10415739Y-16356322D01*
X10462380Y-16316722D01*
X10523390Y-16312098D01*
X10575466Y-16344218D01*
X10584261Y-16356323D01*
X10607285Y-16393652D01*
X10607286Y-16393653D01*
X10607288Y-16393656D01*
X10731344Y-16517712D01*
X10880666Y-16609814D01*
X11047203Y-16664999D01*
X11149991Y-16675500D01*
X11750008Y-16675499D01*
X11750016Y-16675499D01*
X11852788Y-16665000D01*
X11852788Y-16664999D01*
X11852797Y-16664999D01*
X12019334Y-16609814D01*
X12148528Y-16530127D01*
X12207981Y-16515671D01*
X12264576Y-16538921D01*
X12296697Y-16590997D01*
X12299500Y-16614388D01*
X12299500Y-17879821D01*
X12280593Y-17938012D01*
X12270509Y-17949818D01*
X12175719Y-18044609D01*
X12162425Y-18066160D01*
X12087454Y-18187706D01*
X12087450Y-18187714D01*
X12034563Y-18347317D01*
X12024500Y-18445818D01*
X12024500Y-18979181D01*
X12034563Y-19077682D01*
X12087450Y-19237285D01*
X12087454Y-19237293D01*
X12095284Y-19249987D01*
X12175719Y-19380391D01*
X12225326Y-19429998D01*
X12253102Y-19484513D01*
X12243531Y-19544945D01*
X12225327Y-19570000D01*
X12175719Y-19619609D01*
X12175718Y-19619610D01*
X12175718Y-19619611D01*
X12087454Y-19762706D01*
X12087450Y-19762714D01*
X12034563Y-19922317D01*
X12024500Y-20020818D01*
X12024500Y-20554181D01*
X12034563Y-20652682D01*
X12087450Y-20812285D01*
X12087454Y-20812293D01*
X12127330Y-20876942D01*
X12175719Y-20955391D01*
X12270505Y-21050177D01*
X12298281Y-21104692D01*
X12299500Y-21120179D01*
X12299500Y-21868836D01*
X12280593Y-21927027D01*
X12270509Y-21938833D01*
X12169528Y-22039815D01*
X12169527Y-22039816D01*
X12081522Y-22185392D01*
X12081521Y-22185394D01*
X12030913Y-22347805D01*
X12024500Y-22418379D01*
X12024500Y-22931620D01*
X12030913Y-23002194D01*
X12081521Y-23164605D01*
X12081522Y-23164607D01*
X12146914Y-23272777D01*
X12169528Y-23310185D01*
X12289695Y-23430352D01*
X12317471Y-23484867D01*
X12307900Y-23545299D01*
X12289694Y-23570358D01*
X12169924Y-23690127D01*
X12081982Y-23835599D01*
X12081979Y-23835607D01*
X12031410Y-23997889D01*
X12031408Y-23997895D01*
X12025000Y-24068418D01*
X12025000Y-24074999D01*
X12025001Y-24075000D01*
X13974998Y-24075000D01*
X13974999Y-24074999D01*
X13974999Y-24068433D01*
X13974998Y-24068417D01*
X13968591Y-23997896D01*
X13968589Y-23997890D01*
X13918020Y-23835607D01*
X13918017Y-23835599D01*
X13830075Y-23690127D01*
X13710306Y-23570358D01*
X13682529Y-23515841D01*
X13692100Y-23455409D01*
X13710303Y-23430353D01*
X13830472Y-23310185D01*
X13918478Y-23164606D01*
X13969086Y-23002196D01*
X13975500Y-22931616D01*
X13975500Y-22418384D01*
X13969086Y-22347804D01*
X13918478Y-22185394D01*
X13830472Y-22039815D01*
X13729494Y-21938837D01*
X13701719Y-21884323D01*
X13700500Y-21868836D01*
X13700500Y-21120179D01*
X13719407Y-21061988D01*
X13729490Y-21050181D01*
X13824281Y-20955391D01*
X13912549Y-20812287D01*
X13965436Y-20652685D01*
X13968455Y-20623131D01*
X13975500Y-20554181D01*
X13975500Y-20020818D01*
X13965436Y-19922317D01*
X13965436Y-19922315D01*
X13912549Y-19762713D01*
X13824281Y-19619609D01*
X13774673Y-19570001D01*
X13746898Y-19515487D01*
X13756469Y-19455055D01*
X13774672Y-19429999D01*
X13824281Y-19380391D01*
X13912549Y-19237287D01*
X13924904Y-19200001D01*
X17775001Y-19200001D01*
X17775001Y-19249986D01*
X17785492Y-19352687D01*
X17785495Y-19352699D01*
X17840643Y-19519124D01*
X17932680Y-19668340D01*
X18056659Y-19792319D01*
X18205875Y-19884356D01*
X18372306Y-19939506D01*
X18475013Y-19949999D01*
X18749998Y-19949999D01*
X18750000Y-19949998D01*
X18750000Y-19200001D01*
X19250000Y-19200001D01*
X19250000Y-19949998D01*
X19250001Y-19949999D01*
X19524986Y-19949999D01*
X19627687Y-19939507D01*
X19627699Y-19939504D01*
X19794124Y-19884356D01*
X19943340Y-19792319D01*
X20067319Y-19668340D01*
X20159356Y-19519124D01*
X20214506Y-19352693D01*
X20225000Y-19249987D01*
X20225000Y-19200001D01*
X20224999Y-19200000D01*
X19250001Y-19200000D01*
X19250000Y-19200001D01*
X18750000Y-19200001D01*
X18749999Y-19200000D01*
X17775002Y-19200000D01*
X17775001Y-19200001D01*
X13924904Y-19200001D01*
X13965436Y-19077685D01*
X13968455Y-19048131D01*
X13975500Y-18979181D01*
X13975500Y-18445818D01*
X13965436Y-18347317D01*
X13965436Y-18347315D01*
X13912549Y-18187713D01*
X13824281Y-18044609D01*
X13729494Y-17949822D01*
X13701719Y-17895308D01*
X13700500Y-17879821D01*
X13700500Y-16329502D01*
X13719407Y-16271311D01*
X13768907Y-16235347D01*
X13827117Y-16234433D01*
X13872431Y-16247598D01*
X13909306Y-16250500D01*
X13909311Y-16250500D01*
X15215689Y-16250500D01*
X15215694Y-16250500D01*
X15252569Y-16247598D01*
X15410398Y-16201744D01*
X15551865Y-16118081D01*
X15668081Y-16001865D01*
X15751744Y-15860398D01*
X15797598Y-15702569D01*
X15800500Y-15665694D01*
X15800500Y-15399500D01*
X15819407Y-15341309D01*
X15868907Y-15305345D01*
X15899500Y-15300500D01*
X17090689Y-15300500D01*
X17090694Y-15300500D01*
X17127569Y-15297598D01*
X17232294Y-15267172D01*
X17276151Y-15254431D01*
X17303771Y-15250500D01*
X18150500Y-15250500D01*
X18208691Y-15269407D01*
G37*
%TD.AperFunction*%
%TA.AperFunction,Conductor*%
G36*
X33958691Y-19407D02*
G01*
X33994655Y-68907D01*
X33999500Y-99500D01*
X33999500Y-13564125D01*
X33980593Y-13622316D01*
X33931093Y-13658280D01*
X33869907Y-13658280D01*
X33830498Y-13634130D01*
X33718656Y-13522288D01*
X33718653Y-13522286D01*
X33718652Y-13522285D01*
X33569336Y-13430187D01*
X33569335Y-13430186D01*
X33569334Y-13430186D01*
X33402797Y-13375001D01*
X33402794Y-13375000D01*
X33300017Y-13364500D01*
X33300009Y-13364500D01*
X32449687Y-13364500D01*
X32404742Y-13353710D01*
X32380025Y-13341116D01*
X32192821Y-13280289D01*
X31998420Y-13249500D01*
X31998417Y-13249500D01*
X25062000Y-13249500D01*
X25003809Y-13230593D01*
X24967845Y-13181093D01*
X24963000Y-13150500D01*
X24963000Y-12404937D01*
X24981907Y-12346746D01*
X25031407Y-12310782D01*
X25092593Y-12310782D01*
X25114065Y-12322286D01*
X25114702Y-12321254D01*
X25262706Y-12412545D01*
X25262708Y-12412546D01*
X25262713Y-12412549D01*
X25422315Y-12465436D01*
X25442017Y-12467448D01*
X25520818Y-12475500D01*
X25520826Y-12475500D01*
X26054182Y-12475500D01*
X26125818Y-12468180D01*
X26152685Y-12465436D01*
X26312287Y-12412549D01*
X26455391Y-12324281D01*
X26574281Y-12205391D01*
X26662549Y-12062287D01*
X26715436Y-11902685D01*
X26718455Y-11873131D01*
X26725500Y-11804181D01*
X26725500Y-11195818D01*
X26715436Y-11097317D01*
X26715436Y-11097315D01*
X26662549Y-10937713D01*
X26574281Y-10794609D01*
X26550315Y-10770643D01*
X26516996Y-10737323D01*
X26489219Y-10682806D01*
X26488000Y-10667320D01*
X26488000Y-10649499D01*
X26506907Y-10591308D01*
X26556407Y-10555344D01*
X26587000Y-10550499D01*
X27025016Y-10550499D01*
X27127788Y-10540000D01*
X27127788Y-10539999D01*
X27127797Y-10539999D01*
X27294334Y-10484814D01*
X27443656Y-10392712D01*
X27556873Y-10279494D01*
X27611388Y-10251719D01*
X27626875Y-10250500D01*
X27718992Y-10250500D01*
X27718993Y-10250500D01*
X27854328Y-10223580D01*
X27981811Y-10170775D01*
X28096542Y-10094114D01*
X28194114Y-9996542D01*
X28270775Y-9881811D01*
X28323580Y-9754328D01*
X28350500Y-9618993D01*
X28350500Y-3366519D01*
X28369407Y-3308328D01*
X28379490Y-3296521D01*
X28447968Y-3228044D01*
X28537003Y-3083697D01*
X28590349Y-2922708D01*
X28600500Y-2823345D01*
X28600499Y-1976656D01*
X28600499Y-1976655D01*
X28600499Y-1976647D01*
X28590350Y-1877300D01*
X28590349Y-1877298D01*
X28590349Y-1877292D01*
X28537003Y-1716303D01*
X28447968Y-1571956D01*
X28328044Y-1452032D01*
X28296935Y-1432843D01*
X28183700Y-1362998D01*
X28022705Y-1309650D01*
X27923352Y-1299500D01*
X27376647Y-1299500D01*
X27277300Y-1309649D01*
X27277288Y-1309652D01*
X27116299Y-1362998D01*
X26971958Y-1452031D01*
X26971957Y-1452031D01*
X26852031Y-1571957D01*
X26852031Y-1571958D01*
X26762998Y-1716299D01*
X26709650Y-1877294D01*
X26699500Y-1976647D01*
X26699500Y-2823352D01*
X26709649Y-2922699D01*
X26709652Y-2922711D01*
X26762998Y-3083700D01*
X26807514Y-3155870D01*
X26852032Y-3228044D01*
X26920505Y-3296517D01*
X26948281Y-3351032D01*
X26949500Y-3366519D01*
X26949500Y-3662376D01*
X26930593Y-3720567D01*
X26881093Y-3756531D01*
X26837578Y-3760529D01*
X26715826Y-3744500D01*
X26150000Y-3744500D01*
X26078060Y-3749645D01*
X26078056Y-3749645D01*
X26078052Y-3749647D01*
X26035519Y-3762135D01*
X25993540Y-3765137D01*
X25850005Y-3744500D01*
X25850000Y-3744500D01*
X25284174Y-3744500D01*
X25284172Y-3744500D01*
X25212422Y-3753946D01*
X25152261Y-3742796D01*
X25110144Y-3698413D01*
X25100500Y-3655793D01*
X25100500Y-3316519D01*
X25119407Y-3258328D01*
X25129490Y-3246521D01*
X25147968Y-3228044D01*
X25237003Y-3083697D01*
X25290349Y-2922708D01*
X25300500Y-2823345D01*
X25300499Y-1976656D01*
X25300499Y-1976655D01*
X25300499Y-1976647D01*
X25290350Y-1877300D01*
X25290349Y-1877298D01*
X25290349Y-1877292D01*
X25237003Y-1716303D01*
X25147968Y-1571956D01*
X25028044Y-1452032D01*
X24996935Y-1432843D01*
X24883700Y-1362998D01*
X24722705Y-1309650D01*
X24623352Y-1299500D01*
X24076647Y-1299500D01*
X23977300Y-1309649D01*
X23977288Y-1309652D01*
X23816299Y-1362998D01*
X23671958Y-1452031D01*
X23671957Y-1452031D01*
X23552031Y-1571957D01*
X23552031Y-1571958D01*
X23462998Y-1716299D01*
X23409650Y-1877294D01*
X23399500Y-1976647D01*
X23399500Y-2823352D01*
X23409649Y-2922699D01*
X23409652Y-2922711D01*
X23462998Y-3083700D01*
X23507514Y-3155870D01*
X23552032Y-3228044D01*
X23570505Y-3246517D01*
X23598281Y-3301032D01*
X23599500Y-3316519D01*
X23599500Y-5150500D01*
X23580593Y-5208691D01*
X23531093Y-5244655D01*
X23500500Y-5249500D01*
X14026875Y-5249500D01*
X13968684Y-5230593D01*
X13956877Y-5220509D01*
X13943656Y-5207288D01*
X13943653Y-5207286D01*
X13943652Y-5207285D01*
X13794336Y-5115187D01*
X13794335Y-5115186D01*
X13794334Y-5115186D01*
X13627797Y-5060001D01*
X13627794Y-5060000D01*
X13525016Y-5049500D01*
X12474983Y-5049500D01*
X12372211Y-5059999D01*
X12372199Y-5060002D01*
X12280640Y-5090342D01*
X12219456Y-5090698D01*
X12169747Y-5055023D01*
X12150502Y-4996943D01*
X12150500Y-4996367D01*
X12150500Y-4052015D01*
X12165240Y-4000042D01*
X12237001Y-3883700D01*
X12237000Y-3883700D01*
X12237003Y-3883697D01*
X12290349Y-3722708D01*
X12300500Y-3623345D01*
X12300499Y-2776656D01*
X12300499Y-2776655D01*
X12300499Y-2776647D01*
X13699500Y-2776647D01*
X13699500Y-3623352D01*
X13709649Y-3722699D01*
X13709652Y-3722711D01*
X13762998Y-3883700D01*
X13807514Y-3955870D01*
X13852032Y-4028044D01*
X13971956Y-4147968D01*
X14054085Y-4198626D01*
X14116299Y-4237001D01*
X14116300Y-4237001D01*
X14116303Y-4237003D01*
X14277292Y-4290349D01*
X14376655Y-4300500D01*
X14923344Y-4300499D01*
X14923352Y-4300499D01*
X15022699Y-4290350D01*
X15022699Y-4290349D01*
X15022708Y-4290349D01*
X15183697Y-4237003D01*
X15328044Y-4147968D01*
X15446517Y-4029494D01*
X15501032Y-4001719D01*
X15516519Y-4000500D01*
X17550501Y-4000500D01*
X17608692Y-4019407D01*
X17644656Y-4068907D01*
X17648827Y-4095248D01*
X17649359Y-4095220D01*
X17649501Y-4097870D01*
X17655908Y-4157480D01*
X17655909Y-4157485D01*
X17706202Y-4292329D01*
X17792450Y-4407541D01*
X17792454Y-4407546D01*
X17792457Y-4407548D01*
X17792458Y-4407549D01*
X17907670Y-4493797D01*
X18042511Y-4544089D01*
X18042512Y-4544089D01*
X18042517Y-4544091D01*
X18102127Y-4550500D01*
X19897872Y-4550499D01*
X19957483Y-4544091D01*
X20024907Y-4518943D01*
X20092329Y-4493797D01*
X20092329Y-4493796D01*
X20092331Y-4493796D01*
X20207546Y-4407546D01*
X20293796Y-4292331D01*
X20344091Y-4157483D01*
X20350500Y-4097873D01*
X20350499Y-2302128D01*
X20344091Y-2242517D01*
X20344089Y-2242511D01*
X20293797Y-2107670D01*
X20207549Y-1992458D01*
X20207548Y-1992457D01*
X20207546Y-1992454D01*
X20186443Y-1976656D01*
X20092329Y-1906202D01*
X19957488Y-1855910D01*
X19957483Y-1855909D01*
X19957481Y-1855908D01*
X19957477Y-1855908D01*
X19926249Y-1852550D01*
X19897873Y-1849500D01*
X19897870Y-1849500D01*
X18102133Y-1849500D01*
X18102129Y-1849500D01*
X18102128Y-1849501D01*
X18094949Y-1850272D01*
X18042519Y-1855908D01*
X18042514Y-1855909D01*
X17907670Y-1906202D01*
X17792458Y-1992450D01*
X17792450Y-1992458D01*
X17706202Y-2107670D01*
X17655910Y-2242511D01*
X17655908Y-2242522D01*
X17649499Y-2302130D01*
X17649358Y-2304777D01*
X17648131Y-2304711D01*
X17630593Y-2358691D01*
X17581093Y-2394655D01*
X17550500Y-2399500D01*
X15516519Y-2399500D01*
X15458328Y-2380593D01*
X15446521Y-2370509D01*
X15328044Y-2252032D01*
X15296935Y-2232843D01*
X15183700Y-2162998D01*
X15022705Y-2109650D01*
X14923352Y-2099500D01*
X14376647Y-2099500D01*
X14277300Y-2109649D01*
X14277288Y-2109652D01*
X14116299Y-2162998D01*
X13971958Y-2252031D01*
X13971957Y-2252031D01*
X13852031Y-2371957D01*
X13852031Y-2371958D01*
X13762998Y-2516299D01*
X13709650Y-2677294D01*
X13699500Y-2776647D01*
X12300499Y-2776647D01*
X12300498Y-2776646D01*
X12290350Y-2677300D01*
X12290349Y-2677298D01*
X12290349Y-2677292D01*
X12237003Y-2516303D01*
X12147968Y-2371956D01*
X12028044Y-2252032D01*
X11996935Y-2232843D01*
X11883700Y-2162998D01*
X11722705Y-2109650D01*
X11623352Y-2099500D01*
X11076647Y-2099500D01*
X10977300Y-2109649D01*
X10977288Y-2109652D01*
X10816299Y-2162998D01*
X10671958Y-2252031D01*
X10671957Y-2252031D01*
X10552031Y-2371957D01*
X10552031Y-2371958D01*
X10462998Y-2516299D01*
X10409650Y-2677294D01*
X10399500Y-2776647D01*
X10399500Y-3623352D01*
X10409649Y-3722699D01*
X10409652Y-3722711D01*
X10462998Y-3883700D01*
X10534760Y-4000042D01*
X10549500Y-4052015D01*
X10549500Y-5150500D01*
X10530593Y-5208691D01*
X10481093Y-5244655D01*
X10450500Y-5249500D01*
X9976880Y-5249500D01*
X9918689Y-5230593D01*
X9882725Y-5181093D01*
X9882362Y-5179952D01*
X9868478Y-5135394D01*
X9780472Y-4989815D01*
X9660658Y-4870001D01*
X9632883Y-4815487D01*
X9642454Y-4755055D01*
X9660657Y-4729999D01*
X9780472Y-4610185D01*
X9868478Y-4464606D01*
X9919086Y-4302196D01*
X9925500Y-4231616D01*
X9925500Y-3718384D01*
X9919086Y-3647804D01*
X9868478Y-3485394D01*
X9780472Y-3339815D01*
X9660185Y-3219528D01*
X9660182Y-3219526D01*
X9658659Y-3218333D01*
X9657981Y-3217325D01*
X9655950Y-3215294D01*
X9656347Y-3214896D01*
X9624513Y-3167562D01*
X9620717Y-3140971D01*
X9619847Y-2989593D01*
X9619402Y-2912202D01*
X9637974Y-2853906D01*
X9648391Y-2841637D01*
X9769026Y-2721003D01*
X9860362Y-2572925D01*
X9915087Y-2407775D01*
X9918895Y-2370504D01*
X9925500Y-2305855D01*
X9925500Y-1294144D01*
X9917169Y-1212610D01*
X9915087Y-1192225D01*
X9860362Y-1027075D01*
X9769026Y-878997D01*
X9646003Y-755974D01*
X9614090Y-736289D01*
X9497928Y-664639D01*
X9332772Y-609912D01*
X9230856Y-599500D01*
X9230848Y-599500D01*
X8644152Y-599500D01*
X8644144Y-599500D01*
X8542227Y-609912D01*
X8377071Y-664639D01*
X8228998Y-755973D01*
X8105974Y-878997D01*
X8083966Y-914678D01*
X8037325Y-954278D01*
X7976314Y-958901D01*
X7924238Y-926779D01*
X7915445Y-914676D01*
X7893633Y-879313D01*
X7770688Y-756368D01*
X7622712Y-665095D01*
X7457670Y-610406D01*
X7355816Y-600000D01*
X7312501Y-600000D01*
X7312500Y-600001D01*
X7312500Y-2999999D01*
X7312501Y-3000000D01*
X7355816Y-3000000D01*
X7457670Y-2989593D01*
X7622712Y-2934904D01*
X7770688Y-2843631D01*
X7893633Y-2720686D01*
X7915445Y-2685324D01*
X7962086Y-2645722D01*
X8023096Y-2641099D01*
X8075172Y-2673219D01*
X8083963Y-2685318D01*
X8105974Y-2721003D01*
X8228997Y-2844026D01*
X8228999Y-2844027D01*
X8229004Y-2844032D01*
X8230849Y-2845491D01*
X8231618Y-2846646D01*
X8233075Y-2848103D01*
X8232783Y-2848394D01*
X8264765Y-2896415D01*
X8268440Y-2922576D01*
X8269736Y-3148027D01*
X8251164Y-3206325D01*
X8240742Y-3218599D01*
X8119530Y-3339812D01*
X8119528Y-3339815D01*
X8031522Y-3485392D01*
X8031521Y-3485394D01*
X7980913Y-3647805D01*
X7974500Y-3718379D01*
X7974500Y-4231620D01*
X7980913Y-4302194D01*
X8031521Y-4464605D01*
X8031522Y-4464607D01*
X8083446Y-4550498D01*
X8119528Y-4610185D01*
X8239341Y-4729998D01*
X8267117Y-4784513D01*
X8257546Y-4844945D01*
X8239342Y-4870000D01*
X8119528Y-4989815D01*
X8119527Y-4989816D01*
X8031522Y-5135392D01*
X8031522Y-5135394D01*
X8017638Y-5179952D01*
X7982275Y-5229883D01*
X7924317Y-5249493D01*
X7923120Y-5249500D01*
X6126081Y-5249500D01*
X5981085Y-5278342D01*
X5844506Y-5334915D01*
X5721585Y-5417048D01*
X5617048Y-5521585D01*
X5534915Y-5644506D01*
X5478342Y-5781085D01*
X5449500Y-5926081D01*
X5449500Y-6073918D01*
X5478342Y-6218914D01*
X5491964Y-6251800D01*
X5499500Y-6289685D01*
X5499500Y-9593836D01*
X5480593Y-9652027D01*
X5470509Y-9663833D01*
X5409520Y-9724823D01*
X5369527Y-9764816D01*
X5281522Y-9910392D01*
X5281521Y-9910394D01*
X5230913Y-10072805D01*
X5224500Y-10143379D01*
X5224500Y-10656620D01*
X5230913Y-10727194D01*
X5281521Y-10889605D01*
X5281522Y-10889607D01*
X5310604Y-10937713D01*
X5369528Y-11035185D01*
X5489341Y-11154998D01*
X5517117Y-11209513D01*
X5507546Y-11269945D01*
X5489342Y-11295000D01*
X5369528Y-11414815D01*
X5369527Y-11414816D01*
X5281522Y-11560392D01*
X5281521Y-11560394D01*
X5230913Y-11722805D01*
X5224500Y-11793379D01*
X5224500Y-12306620D01*
X5230913Y-12377194D01*
X5281521Y-12539605D01*
X5281522Y-12539607D01*
X5299493Y-12569334D01*
X5369528Y-12685185D01*
X5489815Y-12805472D01*
X5597986Y-12870864D01*
X5620800Y-12884656D01*
X5635394Y-12893478D01*
X5797804Y-12944086D01*
X5868384Y-12950500D01*
X5868389Y-12950500D01*
X6531611Y-12950500D01*
X6531616Y-12950500D01*
X6602196Y-12944086D01*
X6764606Y-12893478D01*
X6910185Y-12805472D01*
X6929998Y-12785658D01*
X6984513Y-12757883D01*
X7044945Y-12767454D01*
X7070000Y-12785657D01*
X7089815Y-12805472D01*
X7197986Y-12870864D01*
X7220800Y-12884656D01*
X7235394Y-12893478D01*
X7397804Y-12944086D01*
X7468384Y-12950500D01*
X7468389Y-12950500D01*
X8131611Y-12950500D01*
X8131616Y-12950500D01*
X8202196Y-12944086D01*
X8364606Y-12893478D01*
X8510185Y-12805472D01*
X8561485Y-12754172D01*
X8586162Y-12729496D01*
X8640679Y-12701719D01*
X8656165Y-12700500D01*
X8673125Y-12700500D01*
X8731316Y-12719407D01*
X8743122Y-12729490D01*
X8856344Y-12842712D01*
X8856346Y-12842713D01*
X8856347Y-12842714D01*
X8919909Y-12881919D01*
X9005666Y-12934814D01*
X9172203Y-12989999D01*
X9274991Y-13000500D01*
X10325008Y-13000499D01*
X10325016Y-13000499D01*
X10427788Y-12990000D01*
X10427788Y-12989999D01*
X10427797Y-12989999D01*
X10594334Y-12934814D01*
X10743656Y-12842712D01*
X10856873Y-12729494D01*
X10911388Y-12701719D01*
X10926875Y-12700500D01*
X11073125Y-12700500D01*
X11131316Y-12719407D01*
X11143122Y-12729490D01*
X11256344Y-12842712D01*
X11256346Y-12842713D01*
X11256347Y-12842714D01*
X11319909Y-12881919D01*
X11405666Y-12934814D01*
X11572203Y-12989999D01*
X11674991Y-13000500D01*
X12725008Y-13000499D01*
X12725016Y-13000499D01*
X12827788Y-12990000D01*
X12827788Y-12989999D01*
X12827797Y-12989999D01*
X12994334Y-12934814D01*
X13143656Y-12842712D01*
X13256873Y-12729494D01*
X13311388Y-12701719D01*
X13326875Y-12700500D01*
X13435125Y-12700500D01*
X13493316Y-12719407D01*
X13505122Y-12729490D01*
X13545341Y-12769709D01*
X13573117Y-12824224D01*
X13563546Y-12884656D01*
X13545342Y-12909711D01*
X13465057Y-12989997D01*
X13456918Y-12998136D01*
X13373256Y-13139602D01*
X13327403Y-13297427D01*
X13327401Y-13297434D01*
X13324500Y-13334311D01*
X13324500Y-13765688D01*
X13327401Y-13802565D01*
X13327401Y-13802568D01*
X13327402Y-13802569D01*
X13373256Y-13960398D01*
X13456919Y-14101865D01*
X13573135Y-14218081D01*
X13714602Y-14301744D01*
X13872431Y-14347598D01*
X13909306Y-14350500D01*
X15100500Y-14350500D01*
X15158691Y-14369407D01*
X15194655Y-14418907D01*
X15199500Y-14449500D01*
X15199500Y-14550500D01*
X15180593Y-14608691D01*
X15131093Y-14644655D01*
X15100500Y-14649500D01*
X13909306Y-14649500D01*
X13896773Y-14650486D01*
X13872434Y-14652401D01*
X13872427Y-14652403D01*
X13723849Y-14695569D01*
X13696229Y-14699500D01*
X12467105Y-14699500D01*
X12408914Y-14680593D01*
X12382844Y-14652472D01*
X12292714Y-14506347D01*
X12292713Y-14506346D01*
X12292712Y-14506344D01*
X12168656Y-14382288D01*
X12168653Y-14382286D01*
X12168652Y-14382285D01*
X12019336Y-14290187D01*
X12019335Y-14290186D01*
X12019334Y-14290186D01*
X11852797Y-14235001D01*
X11852794Y-14235000D01*
X11750016Y-14224500D01*
X11149983Y-14224500D01*
X11047211Y-14234999D01*
X11047199Y-14235002D01*
X10880663Y-14290187D01*
X10731347Y-14382285D01*
X10607287Y-14506345D01*
X10584261Y-14543677D01*
X10537619Y-14583278D01*
X10476609Y-14587901D01*
X10424533Y-14555780D01*
X10415739Y-14543677D01*
X10392712Y-14506344D01*
X10268656Y-14382288D01*
X10268653Y-14382286D01*
X10268652Y-14382285D01*
X10119336Y-14290187D01*
X10119335Y-14290186D01*
X10119334Y-14290186D01*
X9952797Y-14235001D01*
X9952794Y-14235000D01*
X9850016Y-14224500D01*
X9249983Y-14224500D01*
X9147211Y-14234999D01*
X9147201Y-14235001D01*
X9134785Y-14239116D01*
X9073600Y-14239470D01*
X9023893Y-14203794D01*
X9009494Y-14175736D01*
X8958884Y-14019975D01*
X8869524Y-13844595D01*
X8753828Y-13685354D01*
X8614646Y-13546172D01*
X8455405Y-13430476D01*
X8455404Y-13430475D01*
X8455402Y-13430474D01*
X8280025Y-13341116D01*
X8092821Y-13280289D01*
X7898420Y-13249500D01*
X7898417Y-13249500D01*
X2001583Y-13249500D01*
X2001580Y-13249500D01*
X1807178Y-13280289D01*
X1619976Y-13341115D01*
X1595252Y-13353712D01*
X1550311Y-13364500D01*
X699983Y-13364500D01*
X597211Y-13374999D01*
X597199Y-13375002D01*
X430663Y-13430187D01*
X281347Y-13522285D01*
X281344Y-13522287D01*
X281344Y-13522288D01*
X169501Y-13634130D01*
X114987Y-13661906D01*
X54555Y-13652335D01*
X11290Y-13609070D01*
X500Y-13564125D01*
X500Y-2050001D01*
X6075000Y-2050001D01*
X6075000Y-2305816D01*
X6085406Y-2407670D01*
X6140095Y-2572712D01*
X6231368Y-2720688D01*
X6354311Y-2843631D01*
X6502287Y-2934904D01*
X6667329Y-2989593D01*
X6769184Y-3000000D01*
X6812499Y-3000000D01*
X6812500Y-2999999D01*
X6812500Y-2050001D01*
X6812499Y-2050000D01*
X6075001Y-2050000D01*
X6075000Y-2050001D01*
X500Y-2050001D01*
X500Y-1294183D01*
X6075000Y-1294183D01*
X6075000Y-1549999D01*
X6075001Y-1550000D01*
X6812499Y-1550000D01*
X6812500Y-1549999D01*
X6812500Y-600001D01*
X6812499Y-600000D01*
X6769184Y-600000D01*
X6667329Y-610406D01*
X6502287Y-665095D01*
X6354311Y-756368D01*
X6231368Y-879311D01*
X6140095Y-1027287D01*
X6085406Y-1192329D01*
X6075000Y-1294183D01*
X500Y-1294183D01*
X500Y-99500D01*
X19407Y-41309D01*
X68907Y-5345D01*
X99500Y-500D01*
X33900500Y-500D01*
X33958691Y-19407D01*
G37*
%TD.AperFunction*%
%TA.AperFunction,Conductor*%
G36*
X11088253Y-6758035D02*
G01*
X11116503Y-6769737D01*
X11271158Y-6800500D01*
X11271159Y-6800500D01*
X11428841Y-6800500D01*
X11428842Y-6800500D01*
X11583497Y-6769737D01*
X11611746Y-6758035D01*
X11649631Y-6750500D01*
X11873125Y-6750500D01*
X11931316Y-6769407D01*
X11943122Y-6779490D01*
X12056344Y-6892712D01*
X12056346Y-6892713D01*
X12056347Y-6892714D01*
X12094152Y-6916032D01*
X12133753Y-6962673D01*
X12138377Y-7023683D01*
X12106257Y-7075759D01*
X12094154Y-7084553D01*
X12056659Y-7107680D01*
X11932680Y-7231659D01*
X11840643Y-7380875D01*
X11785493Y-7547306D01*
X11775000Y-7650012D01*
X11775000Y-7699999D01*
X11775001Y-7700000D01*
X14224998Y-7700000D01*
X14224999Y-7699999D01*
X14224999Y-7650013D01*
X14214507Y-7547312D01*
X14214504Y-7547300D01*
X14159356Y-7380875D01*
X14067319Y-7231659D01*
X13943339Y-7107679D01*
X13905846Y-7084553D01*
X13866245Y-7037912D01*
X13861622Y-6976902D01*
X13893743Y-6924826D01*
X13905838Y-6916037D01*
X13943656Y-6892712D01*
X14056873Y-6779494D01*
X14111388Y-6751719D01*
X14126875Y-6750500D01*
X14527687Y-6750500D01*
X14585878Y-6769407D01*
X14611947Y-6797527D01*
X14670660Y-6892714D01*
X14677032Y-6903044D01*
X14704339Y-6930351D01*
X14732115Y-6984866D01*
X14722544Y-7045298D01*
X14704339Y-7070355D01*
X14677430Y-7097264D01*
X14677425Y-7097270D01*
X14588454Y-7241512D01*
X14535143Y-7402396D01*
X14525000Y-7501676D01*
X14525000Y-7524999D01*
X14525001Y-7525000D01*
X16474998Y-7525000D01*
X16474999Y-7524999D01*
X16474999Y-7501677D01*
X16464857Y-7402402D01*
X16464854Y-7402390D01*
X16411545Y-7241512D01*
X16322574Y-7097270D01*
X16295661Y-7070357D01*
X16267884Y-7015840D01*
X16277455Y-6955408D01*
X16295663Y-6930349D01*
X16322968Y-6903044D01*
X16374865Y-6818907D01*
X16388053Y-6797527D01*
X16434694Y-6757926D01*
X16472313Y-6750500D01*
X18150500Y-6750500D01*
X18208691Y-6769407D01*
X18244655Y-6818907D01*
X18249500Y-6849500D01*
X18249500Y-9654820D01*
X18230593Y-9713011D01*
X18220504Y-9724823D01*
X18175722Y-9769605D01*
X18175718Y-9769611D01*
X18087454Y-9912706D01*
X18087450Y-9912714D01*
X18034563Y-10072317D01*
X18024500Y-10170818D01*
X18024500Y-10704181D01*
X18034563Y-10802682D01*
X18087450Y-10962285D01*
X18087454Y-10962293D01*
X18126944Y-11026315D01*
X18175719Y-11105391D01*
X18225326Y-11154998D01*
X18253102Y-11209513D01*
X18243531Y-11269945D01*
X18225327Y-11295000D01*
X18175719Y-11344609D01*
X18175718Y-11344610D01*
X18175718Y-11344611D01*
X18087454Y-11487706D01*
X18087450Y-11487714D01*
X18034563Y-11647317D01*
X18024500Y-11745818D01*
X18024500Y-12279181D01*
X18034563Y-12377682D01*
X18087450Y-12537285D01*
X18087454Y-12537293D01*
X18107218Y-12569334D01*
X18175719Y-12680391D01*
X18220505Y-12725177D01*
X18248281Y-12779692D01*
X18249500Y-12795179D01*
X18249500Y-13650500D01*
X18230593Y-13708691D01*
X18181093Y-13744655D01*
X18150500Y-13749500D01*
X17303771Y-13749500D01*
X17276151Y-13745569D01*
X17149216Y-13708691D01*
X17127569Y-13702402D01*
X17127568Y-13702401D01*
X17127565Y-13702401D01*
X17104140Y-13700558D01*
X17090694Y-13699500D01*
X17090689Y-13699500D01*
X15899500Y-13699500D01*
X15841309Y-13680593D01*
X15805345Y-13631093D01*
X15800500Y-13600500D01*
X15800500Y-13334311D01*
X15797598Y-13297434D01*
X15797598Y-13297431D01*
X15751744Y-13139602D01*
X15668081Y-12998135D01*
X15579158Y-12909212D01*
X15551383Y-12854698D01*
X15560954Y-12794266D01*
X15579157Y-12769210D01*
X15629712Y-12718656D01*
X15721814Y-12569334D01*
X15776999Y-12402797D01*
X15787500Y-12300009D01*
X15787499Y-11699992D01*
X15787499Y-11699983D01*
X15777000Y-11597211D01*
X15776999Y-11597209D01*
X15776999Y-11597203D01*
X15721814Y-11430666D01*
X15629712Y-11281344D01*
X15505656Y-11157288D01*
X15505653Y-11157286D01*
X15505652Y-11157285D01*
X15467847Y-11133967D01*
X15428245Y-11087326D01*
X15423622Y-11026315D01*
X15455743Y-10974239D01*
X15467847Y-10965445D01*
X15505340Y-10942319D01*
X15629319Y-10818340D01*
X15721356Y-10669124D01*
X15776506Y-10502693D01*
X15787000Y-10399987D01*
X15787000Y-10350001D01*
X15786999Y-10350000D01*
X9899000Y-10350000D01*
X9840809Y-10331093D01*
X9804845Y-10281593D01*
X9800000Y-10251000D01*
X9800000Y-10100001D01*
X9799999Y-10100000D01*
X9649000Y-10100000D01*
X9590809Y-10081093D01*
X9554845Y-10031593D01*
X9550000Y-10001000D01*
X9550000Y-9100001D01*
X10050000Y-9100001D01*
X10050000Y-9849999D01*
X10050001Y-9850000D01*
X11949999Y-9850000D01*
X11950000Y-9849999D01*
X11950000Y-9100001D01*
X11949999Y-9100000D01*
X11675013Y-9100000D01*
X11572312Y-9110492D01*
X11572300Y-9110495D01*
X11405875Y-9165643D01*
X11256659Y-9257680D01*
X11132679Y-9381660D01*
X11084260Y-9460160D01*
X11037619Y-9499761D01*
X10976609Y-9504384D01*
X10924533Y-9472263D01*
X10915740Y-9460160D01*
X10867320Y-9381660D01*
X10743340Y-9257680D01*
X10594124Y-9165643D01*
X10427693Y-9110493D01*
X10324987Y-9100000D01*
X10050001Y-9100000D01*
X10050000Y-9100001D01*
X9550000Y-9100001D01*
X9549999Y-9100000D01*
X9275013Y-9100000D01*
X9172312Y-9110492D01*
X9172300Y-9110495D01*
X9005875Y-9165643D01*
X8856659Y-9257680D01*
X8732680Y-9381659D01*
X8640643Y-9530874D01*
X8626357Y-9573989D01*
X8590105Y-9623278D01*
X8531805Y-9641846D01*
X8481165Y-9627570D01*
X8364400Y-9556982D01*
X8364392Y-9556979D01*
X8202110Y-9506410D01*
X8202104Y-9506408D01*
X8131581Y-9500000D01*
X8050001Y-9500000D01*
X8050000Y-9500001D01*
X8050000Y-10301000D01*
X8031093Y-10359191D01*
X7981593Y-10395155D01*
X7951000Y-10400000D01*
X7649000Y-10400000D01*
X7590809Y-10381093D01*
X7554845Y-10331593D01*
X7550000Y-10301000D01*
X7550000Y-9500001D01*
X7549998Y-9499999D01*
X7468434Y-9500000D01*
X7468417Y-9500001D01*
X7397896Y-9506408D01*
X7397890Y-9506410D01*
X7235607Y-9556979D01*
X7235599Y-9556982D01*
X7090126Y-9644925D01*
X7090123Y-9644927D01*
X7070356Y-9664694D01*
X7015839Y-9692470D01*
X6955407Y-9682898D01*
X6930350Y-9664693D01*
X6929496Y-9663839D01*
X6901719Y-9609322D01*
X6900500Y-9593835D01*
X6900500Y-8200001D01*
X11775001Y-8200001D01*
X11775001Y-8249986D01*
X11785492Y-8352687D01*
X11785495Y-8352699D01*
X11840643Y-8519124D01*
X11932680Y-8668340D01*
X12056659Y-8792319D01*
X12205875Y-8884356D01*
X12372303Y-8939505D01*
X12381151Y-8940409D01*
X12437121Y-8965130D01*
X12467870Y-9018027D01*
X12461655Y-9078896D01*
X12450000Y-9095908D01*
X12450000Y-9849999D01*
X12450001Y-9850000D01*
X14311999Y-9850000D01*
X14312000Y-9849999D01*
X14312000Y-9100001D01*
X14812000Y-9100001D01*
X14812000Y-9849999D01*
X14812001Y-9850000D01*
X15786998Y-9850000D01*
X15786999Y-9849999D01*
X15786999Y-9800013D01*
X15776507Y-9697312D01*
X15776504Y-9697300D01*
X15721356Y-9530875D01*
X15629319Y-9381659D01*
X15505340Y-9257680D01*
X15356124Y-9165643D01*
X15189693Y-9110493D01*
X15086987Y-9100000D01*
X14812001Y-9100000D01*
X14812000Y-9100001D01*
X14312000Y-9100001D01*
X14311999Y-9100000D01*
X14037013Y-9100000D01*
X13934312Y-9110492D01*
X13934300Y-9110495D01*
X13767875Y-9165643D01*
X13618659Y-9257680D01*
X13494682Y-9381657D01*
X13465261Y-9429357D01*
X13418620Y-9468958D01*
X13357609Y-9473581D01*
X13305533Y-9441460D01*
X13296739Y-9429357D01*
X13267317Y-9381657D01*
X13143340Y-9257680D01*
X12994124Y-9165643D01*
X12827693Y-9110493D01*
X12818841Y-9109589D01*
X12762873Y-9084866D01*
X12732127Y-9031967D01*
X12738345Y-8971098D01*
X12750000Y-8954087D01*
X12750000Y-8200001D01*
X13250000Y-8200001D01*
X13250000Y-8949998D01*
X13250001Y-8949999D01*
X13524986Y-8949999D01*
X13627687Y-8939507D01*
X13627699Y-8939504D01*
X13794124Y-8884356D01*
X13943340Y-8792319D01*
X14067319Y-8668340D01*
X14159356Y-8519124D01*
X14214506Y-8352693D01*
X14225000Y-8249987D01*
X14225000Y-8200001D01*
X14224999Y-8200000D01*
X13250001Y-8200000D01*
X13250000Y-8200001D01*
X12750000Y-8200001D01*
X12749999Y-8200000D01*
X11775002Y-8200000D01*
X11775001Y-8200001D01*
X6900500Y-8200001D01*
X6900500Y-8025001D01*
X14525001Y-8025001D01*
X14525001Y-8048322D01*
X14535142Y-8147597D01*
X14535145Y-8147609D01*
X14588454Y-8308487D01*
X14677425Y-8452729D01*
X14797270Y-8572574D01*
X14941512Y-8661545D01*
X15102396Y-8714856D01*
X15201677Y-8724999D01*
X15250000Y-8724998D01*
X15250000Y-8025001D01*
X15750000Y-8025001D01*
X15750000Y-8724998D01*
X15750001Y-8724999D01*
X15798322Y-8724999D01*
X15897597Y-8714857D01*
X15897609Y-8714854D01*
X16058487Y-8661545D01*
X16202729Y-8572574D01*
X16322574Y-8452729D01*
X16411545Y-8308487D01*
X16464856Y-8147603D01*
X16475000Y-8048323D01*
X16475000Y-8025001D01*
X16474999Y-8025000D01*
X15750001Y-8025000D01*
X15750000Y-8025001D01*
X15250000Y-8025001D01*
X15249999Y-8025000D01*
X14525002Y-8025000D01*
X14525001Y-8025001D01*
X6900500Y-8025001D01*
X6900500Y-6849500D01*
X6919407Y-6791309D01*
X6968907Y-6755345D01*
X6999500Y-6750500D01*
X11050369Y-6750500D01*
X11088253Y-6758035D01*
G37*
%TD.AperFunction*%
%TA.AperFunction,Conductor*%
G36*
X26149995Y-6255500D02*
G01*
X26150000Y-6255500D01*
X26715824Y-6255500D01*
X26715826Y-6255500D01*
X26837580Y-6239470D01*
X26897738Y-6250620D01*
X26939856Y-6295002D01*
X26949500Y-6337623D01*
X26949500Y-8450500D01*
X26930593Y-8508691D01*
X26881093Y-8544655D01*
X26850500Y-8549500D01*
X25974983Y-8549500D01*
X25872211Y-8559999D01*
X25872199Y-8560002D01*
X25705663Y-8615187D01*
X25556347Y-8707285D01*
X25556344Y-8707287D01*
X25556344Y-8707288D01*
X25443126Y-8820505D01*
X25388612Y-8848281D01*
X25373125Y-8849500D01*
X25126875Y-8849500D01*
X25068684Y-8830593D01*
X25056877Y-8820509D01*
X24943656Y-8707288D01*
X24943653Y-8707286D01*
X24943652Y-8707285D01*
X24794336Y-8615187D01*
X24794335Y-8615186D01*
X24794334Y-8615186D01*
X24627797Y-8560001D01*
X24627794Y-8560000D01*
X24525016Y-8549500D01*
X23474983Y-8549500D01*
X23372211Y-8559999D01*
X23372199Y-8560002D01*
X23205663Y-8615187D01*
X23056347Y-8707285D01*
X22932285Y-8831347D01*
X22840187Y-8980663D01*
X22785000Y-9147205D01*
X22774500Y-9249983D01*
X22774500Y-9850016D01*
X22784999Y-9952788D01*
X22785000Y-9952795D01*
X22785001Y-9952797D01*
X22833779Y-10100000D01*
X22840187Y-10119336D01*
X22932285Y-10268652D01*
X22932286Y-10268653D01*
X22932288Y-10268656D01*
X23056344Y-10392712D01*
X23205666Y-10484814D01*
X23372203Y-10539999D01*
X23409104Y-10543768D01*
X23444508Y-10547386D01*
X23500476Y-10572109D01*
X23531223Y-10625008D01*
X23525005Y-10685876D01*
X23504451Y-10715876D01*
X23425722Y-10794605D01*
X23425720Y-10794608D01*
X23425719Y-10794609D01*
X23420738Y-10802685D01*
X23337454Y-10937706D01*
X23337450Y-10937714D01*
X23284563Y-11097317D01*
X23274500Y-11195818D01*
X23274500Y-11804181D01*
X23284563Y-11902682D01*
X23337450Y-12062285D01*
X23337454Y-12062293D01*
X23377330Y-12126942D01*
X23425719Y-12205391D01*
X23433005Y-12212677D01*
X23460781Y-12267192D01*
X23462000Y-12282679D01*
X23462000Y-13150500D01*
X23443093Y-13208691D01*
X23393593Y-13244655D01*
X23363000Y-13249500D01*
X22851579Y-13249500D01*
X22701426Y-13273281D01*
X22685943Y-13274500D01*
X22649985Y-13274500D01*
X22649982Y-13274501D01*
X22547211Y-13284999D01*
X22547199Y-13285002D01*
X22380663Y-13340187D01*
X22231347Y-13432285D01*
X22107286Y-13556346D01*
X22084559Y-13593192D01*
X22070303Y-13611222D01*
X22069932Y-13611593D01*
X22015415Y-13639370D01*
X21954983Y-13629799D01*
X21915668Y-13593561D01*
X21892712Y-13556344D01*
X21768656Y-13432288D01*
X21768653Y-13432286D01*
X21768652Y-13432285D01*
X21619336Y-13340187D01*
X21619335Y-13340186D01*
X21619334Y-13340186D01*
X21452797Y-13285001D01*
X21452794Y-13285000D01*
X21350016Y-13274500D01*
X20749983Y-13274500D01*
X20647211Y-13284999D01*
X20647199Y-13285002D01*
X20480663Y-13340187D01*
X20331347Y-13432285D01*
X20207285Y-13556347D01*
X20117156Y-13702472D01*
X20070515Y-13742074D01*
X20032895Y-13749500D01*
X19849500Y-13749500D01*
X19791309Y-13730593D01*
X19755345Y-13681093D01*
X19750500Y-13650500D01*
X19750500Y-12795179D01*
X19769407Y-12736988D01*
X19779490Y-12725181D01*
X19824281Y-12680391D01*
X19912549Y-12537287D01*
X19965436Y-12377685D01*
X19972271Y-12310782D01*
X19975500Y-12279181D01*
X19975500Y-11745818D01*
X19965436Y-11647317D01*
X19965436Y-11647315D01*
X19912549Y-11487713D01*
X19824281Y-11344609D01*
X19774673Y-11295001D01*
X19746898Y-11240487D01*
X19756469Y-11180055D01*
X19774672Y-11154999D01*
X19824281Y-11105391D01*
X19912549Y-10962287D01*
X19965436Y-10802685D01*
X19969946Y-10758538D01*
X19975500Y-10704181D01*
X19975500Y-10170818D01*
X19965436Y-10072317D01*
X19965436Y-10072315D01*
X19912549Y-9912713D01*
X19911117Y-9910392D01*
X19893485Y-9881806D01*
X19824281Y-9769609D01*
X19808999Y-9754327D01*
X19779496Y-9724823D01*
X19751719Y-9670306D01*
X19750500Y-9654820D01*
X19750500Y-6849500D01*
X19769407Y-6791309D01*
X19818907Y-6755345D01*
X19849500Y-6750500D01*
X24423917Y-6750500D01*
X24423918Y-6750500D01*
X24568913Y-6721658D01*
X24705495Y-6665084D01*
X24828416Y-6582951D01*
X24932951Y-6478416D01*
X25015084Y-6355495D01*
X25039374Y-6296852D01*
X25079110Y-6250327D01*
X25138604Y-6236043D01*
X25150070Y-6238110D01*
X25150164Y-6237643D01*
X25153317Y-6238269D01*
X25153338Y-6238275D01*
X25284174Y-6255500D01*
X25284175Y-6255500D01*
X25849998Y-6255500D01*
X25850000Y-6255500D01*
X25921940Y-6250355D01*
X25964476Y-6237864D01*
X26006457Y-6234862D01*
X26149995Y-6255500D01*
G37*
%TD.AperFunction*%
%TD*%
M02*
