%TF.GenerationSoftware,KiCad,Pcbnew,10.0.6*%
%TF.CreationDate,2026-09-08T15:26:31+05:30*%
%TF.ProjectId,lna_fm_98mhz,6c6e615f-666d-45f3-9938-6d687a2e6b69,rev?*%
%TF.SameCoordinates,Original*%
%TF.FileFunction,Legend,Top*%
%TF.FilePolarity,Positive*%
%FSLAX46Y46*%
G04 Gerber Fmt 4.6, Leading zero omitted, Abs format (unit mm)*
G04 Created by KiCad (PCBNEW 10.0.6) date 2026-09-08 15:26:31*
%MOMM*%
%LPD*%
G01*
G04 APERTURE LIST*
%ADD10C,0.130000*%
%ADD11C,0.150000*%
%ADD12C,0.120000*%
G04 APERTURE END LIST*
D10*
X2614286Y-22363335D02*
X2614286Y-21563335D01*
X2995238Y-22363335D02*
X2995238Y-21563335D01*
X2995238Y-21563335D02*
X3452381Y-22363335D01*
X3452381Y-22363335D02*
X3452381Y-21563335D01*
X4823809Y-21563335D02*
X4442857Y-21563335D01*
X4442857Y-21563335D02*
X4404761Y-21944287D01*
X4404761Y-21944287D02*
X4442857Y-21906192D01*
X4442857Y-21906192D02*
X4519047Y-21868097D01*
X4519047Y-21868097D02*
X4709523Y-21868097D01*
X4709523Y-21868097D02*
X4785714Y-21906192D01*
X4785714Y-21906192D02*
X4823809Y-21944287D01*
X4823809Y-21944287D02*
X4861904Y-22020478D01*
X4861904Y-22020478D02*
X4861904Y-22210954D01*
X4861904Y-22210954D02*
X4823809Y-22287144D01*
X4823809Y-22287144D02*
X4785714Y-22325240D01*
X4785714Y-22325240D02*
X4709523Y-22363335D01*
X4709523Y-22363335D02*
X4519047Y-22363335D01*
X4519047Y-22363335D02*
X4442857Y-22325240D01*
X4442857Y-22325240D02*
X4404761Y-22287144D01*
X5357143Y-21563335D02*
X5433333Y-21563335D01*
X5433333Y-21563335D02*
X5509524Y-21601430D01*
X5509524Y-21601430D02*
X5547619Y-21639525D01*
X5547619Y-21639525D02*
X5585714Y-21715716D01*
X5585714Y-21715716D02*
X5623809Y-21868097D01*
X5623809Y-21868097D02*
X5623809Y-22058573D01*
X5623809Y-22058573D02*
X5585714Y-22210954D01*
X5585714Y-22210954D02*
X5547619Y-22287144D01*
X5547619Y-22287144D02*
X5509524Y-22325240D01*
X5509524Y-22325240D02*
X5433333Y-22363335D01*
X5433333Y-22363335D02*
X5357143Y-22363335D01*
X5357143Y-22363335D02*
X5280952Y-22325240D01*
X5280952Y-22325240D02*
X5242857Y-22287144D01*
X5242857Y-22287144D02*
X5204762Y-22210954D01*
X5204762Y-22210954D02*
X5166666Y-22058573D01*
X5166666Y-22058573D02*
X5166666Y-21868097D01*
X5166666Y-21868097D02*
X5204762Y-21715716D01*
X5204762Y-21715716D02*
X5242857Y-21639525D01*
X5242857Y-21639525D02*
X5280952Y-21601430D01*
X5280952Y-21601430D02*
X5357143Y-21563335D01*
X6423810Y-22363335D02*
X6157143Y-21982382D01*
X5966667Y-22363335D02*
X5966667Y-21563335D01*
X5966667Y-21563335D02*
X6271429Y-21563335D01*
X6271429Y-21563335D02*
X6347619Y-21601430D01*
X6347619Y-21601430D02*
X6385714Y-21639525D01*
X6385714Y-21639525D02*
X6423810Y-21715716D01*
X6423810Y-21715716D02*
X6423810Y-21830001D01*
X6423810Y-21830001D02*
X6385714Y-21906192D01*
X6385714Y-21906192D02*
X6347619Y-21944287D01*
X6347619Y-21944287D02*
X6271429Y-21982382D01*
X6271429Y-21982382D02*
X5966667Y-21982382D01*
X17425238Y-1258573D02*
X18034762Y-1258573D01*
X17730000Y-1563335D02*
X17730000Y-953811D01*
X17139523Y-5744287D02*
X17253809Y-5782382D01*
X17253809Y-5782382D02*
X17291904Y-5820478D01*
X17291904Y-5820478D02*
X17330000Y-5896668D01*
X17330000Y-5896668D02*
X17330000Y-6010954D01*
X17330000Y-6010954D02*
X17291904Y-6087144D01*
X17291904Y-6087144D02*
X17253809Y-6125240D01*
X17253809Y-6125240D02*
X17177619Y-6163335D01*
X17177619Y-6163335D02*
X16872857Y-6163335D01*
X16872857Y-6163335D02*
X16872857Y-5363335D01*
X16872857Y-5363335D02*
X17139523Y-5363335D01*
X17139523Y-5363335D02*
X17215714Y-5401430D01*
X17215714Y-5401430D02*
X17253809Y-5439525D01*
X17253809Y-5439525D02*
X17291904Y-5515716D01*
X17291904Y-5515716D02*
X17291904Y-5591906D01*
X17291904Y-5591906D02*
X17253809Y-5668097D01*
X17253809Y-5668097D02*
X17215714Y-5706192D01*
X17215714Y-5706192D02*
X17139523Y-5744287D01*
X17139523Y-5744287D02*
X16872857Y-5744287D01*
X17634761Y-5934763D02*
X18015714Y-5934763D01*
X17558571Y-6163335D02*
X17825238Y-5363335D01*
X17825238Y-5363335D02*
X18091904Y-6163335D01*
X18244285Y-5363335D02*
X18701428Y-5363335D01*
X18472856Y-6163335D02*
X18472856Y-5363335D01*
X19965238Y-1258573D02*
X20574762Y-1258573D01*
X19660476Y-5401430D02*
X19584286Y-5363335D01*
X19584286Y-5363335D02*
X19470000Y-5363335D01*
X19470000Y-5363335D02*
X19355714Y-5401430D01*
X19355714Y-5401430D02*
X19279524Y-5477620D01*
X19279524Y-5477620D02*
X19241429Y-5553811D01*
X19241429Y-5553811D02*
X19203333Y-5706192D01*
X19203333Y-5706192D02*
X19203333Y-5820478D01*
X19203333Y-5820478D02*
X19241429Y-5972859D01*
X19241429Y-5972859D02*
X19279524Y-6049049D01*
X19279524Y-6049049D02*
X19355714Y-6125240D01*
X19355714Y-6125240D02*
X19470000Y-6163335D01*
X19470000Y-6163335D02*
X19546191Y-6163335D01*
X19546191Y-6163335D02*
X19660476Y-6125240D01*
X19660476Y-6125240D02*
X19698572Y-6087144D01*
X19698572Y-6087144D02*
X19698572Y-5820478D01*
X19698572Y-5820478D02*
X19546191Y-5820478D01*
X20041429Y-6163335D02*
X20041429Y-5363335D01*
X20041429Y-5363335D02*
X20498572Y-6163335D01*
X20498572Y-6163335D02*
X20498572Y-5363335D01*
X20879524Y-6163335D02*
X20879524Y-5363335D01*
X20879524Y-5363335D02*
X21070000Y-5363335D01*
X21070000Y-5363335D02*
X21184286Y-5401430D01*
X21184286Y-5401430D02*
X21260476Y-5477620D01*
X21260476Y-5477620D02*
X21298571Y-5553811D01*
X21298571Y-5553811D02*
X21336667Y-5706192D01*
X21336667Y-5706192D02*
X21336667Y-5820478D01*
X21336667Y-5820478D02*
X21298571Y-5972859D01*
X21298571Y-5972859D02*
X21260476Y-6049049D01*
X21260476Y-6049049D02*
X21184286Y-6125240D01*
X21184286Y-6125240D02*
X21070000Y-6163335D01*
X21070000Y-6163335D02*
X20879524Y-6163335D01*
X21119047Y-27144287D02*
X21233333Y-27182382D01*
X21233333Y-27182382D02*
X21271428Y-27220478D01*
X21271428Y-27220478D02*
X21309524Y-27296668D01*
X21309524Y-27296668D02*
X21309524Y-27410954D01*
X21309524Y-27410954D02*
X21271428Y-27487144D01*
X21271428Y-27487144D02*
X21233333Y-27525240D01*
X21233333Y-27525240D02*
X21157143Y-27563335D01*
X21157143Y-27563335D02*
X20852381Y-27563335D01*
X20852381Y-27563335D02*
X20852381Y-26763335D01*
X20852381Y-26763335D02*
X21119047Y-26763335D01*
X21119047Y-26763335D02*
X21195238Y-26801430D01*
X21195238Y-26801430D02*
X21233333Y-26839525D01*
X21233333Y-26839525D02*
X21271428Y-26915716D01*
X21271428Y-26915716D02*
X21271428Y-26991906D01*
X21271428Y-26991906D02*
X21233333Y-27068097D01*
X21233333Y-27068097D02*
X21195238Y-27106192D01*
X21195238Y-27106192D02*
X21119047Y-27144287D01*
X21119047Y-27144287D02*
X20852381Y-27144287D01*
X21652381Y-27563335D02*
X21652381Y-26763335D01*
X21995237Y-27334763D02*
X22376190Y-27334763D01*
X21919047Y-27563335D02*
X22185714Y-26763335D01*
X22185714Y-26763335D02*
X22452380Y-27563335D01*
X22680951Y-27525240D02*
X22795237Y-27563335D01*
X22795237Y-27563335D02*
X22985713Y-27563335D01*
X22985713Y-27563335D02*
X23061904Y-27525240D01*
X23061904Y-27525240D02*
X23099999Y-27487144D01*
X23099999Y-27487144D02*
X23138094Y-27410954D01*
X23138094Y-27410954D02*
X23138094Y-27334763D01*
X23138094Y-27334763D02*
X23099999Y-27258573D01*
X23099999Y-27258573D02*
X23061904Y-27220478D01*
X23061904Y-27220478D02*
X22985713Y-27182382D01*
X22985713Y-27182382D02*
X22833332Y-27144287D01*
X22833332Y-27144287D02*
X22757142Y-27106192D01*
X22757142Y-27106192D02*
X22719047Y-27068097D01*
X22719047Y-27068097D02*
X22680951Y-26991906D01*
X22680951Y-26991906D02*
X22680951Y-26915716D01*
X22680951Y-26915716D02*
X22719047Y-26839525D01*
X22719047Y-26839525D02*
X22757142Y-26801430D01*
X22757142Y-26801430D02*
X22833332Y-26763335D01*
X22833332Y-26763335D02*
X23023809Y-26763335D01*
X23023809Y-26763335D02*
X23138094Y-26801430D01*
X23480952Y-27258573D02*
X24090476Y-27258573D01*
X24357142Y-26763335D02*
X24814285Y-26763335D01*
X24585713Y-27563335D02*
X24585713Y-26763335D01*
X25080952Y-27144287D02*
X25347618Y-27144287D01*
X25461904Y-27563335D02*
X25080952Y-27563335D01*
X25080952Y-27563335D02*
X25080952Y-26763335D01*
X25080952Y-26763335D02*
X25461904Y-26763335D01*
X25804762Y-27144287D02*
X26071428Y-27144287D01*
X26185714Y-27563335D02*
X25804762Y-27563335D01*
X25804762Y-27563335D02*
X25804762Y-26763335D01*
X25804762Y-26763335D02*
X26185714Y-26763335D01*
X27233333Y-20063335D02*
X27385714Y-20063335D01*
X27385714Y-20063335D02*
X27461904Y-20101430D01*
X27461904Y-20101430D02*
X27538095Y-20177620D01*
X27538095Y-20177620D02*
X27576190Y-20330001D01*
X27576190Y-20330001D02*
X27576190Y-20596668D01*
X27576190Y-20596668D02*
X27538095Y-20749049D01*
X27538095Y-20749049D02*
X27461904Y-20825240D01*
X27461904Y-20825240D02*
X27385714Y-20863335D01*
X27385714Y-20863335D02*
X27233333Y-20863335D01*
X27233333Y-20863335D02*
X27157142Y-20825240D01*
X27157142Y-20825240D02*
X27080952Y-20749049D01*
X27080952Y-20749049D02*
X27042856Y-20596668D01*
X27042856Y-20596668D02*
X27042856Y-20330001D01*
X27042856Y-20330001D02*
X27080952Y-20177620D01*
X27080952Y-20177620D02*
X27157142Y-20101430D01*
X27157142Y-20101430D02*
X27233333Y-20063335D01*
X27919047Y-20063335D02*
X27919047Y-20710954D01*
X27919047Y-20710954D02*
X27957142Y-20787144D01*
X27957142Y-20787144D02*
X27995237Y-20825240D01*
X27995237Y-20825240D02*
X28071428Y-20863335D01*
X28071428Y-20863335D02*
X28223809Y-20863335D01*
X28223809Y-20863335D02*
X28299999Y-20825240D01*
X28299999Y-20825240D02*
X28338094Y-20787144D01*
X28338094Y-20787144D02*
X28376190Y-20710954D01*
X28376190Y-20710954D02*
X28376190Y-20063335D01*
X28642856Y-20063335D02*
X29099999Y-20063335D01*
X28871427Y-20863335D02*
X28871427Y-20063335D01*
X30357142Y-20063335D02*
X29976190Y-20063335D01*
X29976190Y-20063335D02*
X29938094Y-20444287D01*
X29938094Y-20444287D02*
X29976190Y-20406192D01*
X29976190Y-20406192D02*
X30052380Y-20368097D01*
X30052380Y-20368097D02*
X30242856Y-20368097D01*
X30242856Y-20368097D02*
X30319047Y-20406192D01*
X30319047Y-20406192D02*
X30357142Y-20444287D01*
X30357142Y-20444287D02*
X30395237Y-20520478D01*
X30395237Y-20520478D02*
X30395237Y-20710954D01*
X30395237Y-20710954D02*
X30357142Y-20787144D01*
X30357142Y-20787144D02*
X30319047Y-20825240D01*
X30319047Y-20825240D02*
X30242856Y-20863335D01*
X30242856Y-20863335D02*
X30052380Y-20863335D01*
X30052380Y-20863335D02*
X29976190Y-20825240D01*
X29976190Y-20825240D02*
X29938094Y-20787144D01*
X30890476Y-20063335D02*
X30966666Y-20063335D01*
X30966666Y-20063335D02*
X31042857Y-20101430D01*
X31042857Y-20101430D02*
X31080952Y-20139525D01*
X31080952Y-20139525D02*
X31119047Y-20215716D01*
X31119047Y-20215716D02*
X31157142Y-20368097D01*
X31157142Y-20368097D02*
X31157142Y-20558573D01*
X31157142Y-20558573D02*
X31119047Y-20710954D01*
X31119047Y-20710954D02*
X31080952Y-20787144D01*
X31080952Y-20787144D02*
X31042857Y-20825240D01*
X31042857Y-20825240D02*
X30966666Y-20863335D01*
X30966666Y-20863335D02*
X30890476Y-20863335D01*
X30890476Y-20863335D02*
X30814285Y-20825240D01*
X30814285Y-20825240D02*
X30776190Y-20787144D01*
X30776190Y-20787144D02*
X30738095Y-20710954D01*
X30738095Y-20710954D02*
X30699999Y-20558573D01*
X30699999Y-20558573D02*
X30699999Y-20368097D01*
X30699999Y-20368097D02*
X30738095Y-20215716D01*
X30738095Y-20215716D02*
X30776190Y-20139525D01*
X30776190Y-20139525D02*
X30814285Y-20101430D01*
X30814285Y-20101430D02*
X30890476Y-20063335D01*
X31957143Y-20863335D02*
X31690476Y-20482382D01*
X31500000Y-20863335D02*
X31500000Y-20063335D01*
X31500000Y-20063335D02*
X31804762Y-20063335D01*
X31804762Y-20063335D02*
X31880952Y-20101430D01*
X31880952Y-20101430D02*
X31919047Y-20139525D01*
X31919047Y-20139525D02*
X31957143Y-20215716D01*
X31957143Y-20215716D02*
X31957143Y-20330001D01*
X31957143Y-20330001D02*
X31919047Y-20406192D01*
X31919047Y-20406192D02*
X31880952Y-20444287D01*
X31880952Y-20444287D02*
X31804762Y-20482382D01*
X31804762Y-20482382D02*
X31500000Y-20482382D01*
X18622617Y-26186467D02*
X18622617Y-25336467D01*
X18622617Y-25336467D02*
X18905951Y-25943610D01*
X18905951Y-25943610D02*
X19189284Y-25336467D01*
X19189284Y-25336467D02*
X19189284Y-26186467D01*
X19594046Y-26186467D02*
X19594046Y-25336467D01*
X19594046Y-25336467D02*
X19877380Y-25943610D01*
X19877380Y-25943610D02*
X20160713Y-25336467D01*
X20160713Y-25336467D02*
X20160713Y-26186467D01*
X20848809Y-25741229D02*
X20970237Y-25781705D01*
X20970237Y-25781705D02*
X21010714Y-25822181D01*
X21010714Y-25822181D02*
X21051190Y-25903133D01*
X21051190Y-25903133D02*
X21051190Y-26024562D01*
X21051190Y-26024562D02*
X21010714Y-26105514D01*
X21010714Y-26105514D02*
X20970237Y-26145991D01*
X20970237Y-26145991D02*
X20889285Y-26186467D01*
X20889285Y-26186467D02*
X20565475Y-26186467D01*
X20565475Y-26186467D02*
X20565475Y-25336467D01*
X20565475Y-25336467D02*
X20848809Y-25336467D01*
X20848809Y-25336467D02*
X20929761Y-25376943D01*
X20929761Y-25376943D02*
X20970237Y-25417419D01*
X20970237Y-25417419D02*
X21010714Y-25498371D01*
X21010714Y-25498371D02*
X21010714Y-25579324D01*
X21010714Y-25579324D02*
X20970237Y-25660276D01*
X20970237Y-25660276D02*
X20929761Y-25700752D01*
X20929761Y-25700752D02*
X20848809Y-25741229D01*
X20848809Y-25741229D02*
X20565475Y-25741229D01*
X21294047Y-25336467D02*
X21779761Y-25336467D01*
X21536904Y-26186467D02*
X21536904Y-25336467D01*
X22467856Y-25336467D02*
X22063094Y-25336467D01*
X22063094Y-25336467D02*
X22022618Y-25741229D01*
X22022618Y-25741229D02*
X22063094Y-25700752D01*
X22063094Y-25700752D02*
X22144047Y-25660276D01*
X22144047Y-25660276D02*
X22346428Y-25660276D01*
X22346428Y-25660276D02*
X22427380Y-25700752D01*
X22427380Y-25700752D02*
X22467856Y-25741229D01*
X22467856Y-25741229D02*
X22508333Y-25822181D01*
X22508333Y-25822181D02*
X22508333Y-26024562D01*
X22508333Y-26024562D02*
X22467856Y-26105514D01*
X22467856Y-26105514D02*
X22427380Y-26145991D01*
X22427380Y-26145991D02*
X22346428Y-26186467D01*
X22346428Y-26186467D02*
X22144047Y-26186467D01*
X22144047Y-26186467D02*
X22063094Y-26145991D01*
X22063094Y-26145991D02*
X22022618Y-26105514D01*
X23317857Y-26186467D02*
X22832142Y-26186467D01*
X23074999Y-26186467D02*
X23074999Y-25336467D01*
X23074999Y-25336467D02*
X22994047Y-25457895D01*
X22994047Y-25457895D02*
X22913095Y-25538848D01*
X22913095Y-25538848D02*
X22832142Y-25579324D01*
X23601190Y-25336467D02*
X24167857Y-25336467D01*
X24167857Y-25336467D02*
X23803571Y-26186467D01*
X24532143Y-26186467D02*
X24694047Y-26186467D01*
X24694047Y-26186467D02*
X24775000Y-26145991D01*
X24775000Y-26145991D02*
X24815476Y-26105514D01*
X24815476Y-26105514D02*
X24896428Y-25984086D01*
X24896428Y-25984086D02*
X24936905Y-25822181D01*
X24936905Y-25822181D02*
X24936905Y-25498371D01*
X24936905Y-25498371D02*
X24896428Y-25417419D01*
X24896428Y-25417419D02*
X24855952Y-25376943D01*
X24855952Y-25376943D02*
X24775000Y-25336467D01*
X24775000Y-25336467D02*
X24613095Y-25336467D01*
X24613095Y-25336467D02*
X24532143Y-25376943D01*
X24532143Y-25376943D02*
X24491666Y-25417419D01*
X24491666Y-25417419D02*
X24451190Y-25498371D01*
X24451190Y-25498371D02*
X24451190Y-25700752D01*
X24451190Y-25700752D02*
X24491666Y-25781705D01*
X24491666Y-25781705D02*
X24532143Y-25822181D01*
X24532143Y-25822181D02*
X24613095Y-25862657D01*
X24613095Y-25862657D02*
X24775000Y-25862657D01*
X24775000Y-25862657D02*
X24855952Y-25822181D01*
X24855952Y-25822181D02*
X24896428Y-25781705D01*
X24896428Y-25781705D02*
X24936905Y-25700752D01*
X26191667Y-26510276D02*
X26151190Y-26469800D01*
X26151190Y-26469800D02*
X26070238Y-26348371D01*
X26070238Y-26348371D02*
X26029762Y-26267419D01*
X26029762Y-26267419D02*
X25989286Y-26145991D01*
X25989286Y-26145991D02*
X25948809Y-25943610D01*
X25948809Y-25943610D02*
X25948809Y-25781705D01*
X25948809Y-25781705D02*
X25989286Y-25579324D01*
X25989286Y-25579324D02*
X26029762Y-25457895D01*
X26029762Y-25457895D02*
X26070238Y-25376943D01*
X26070238Y-25376943D02*
X26151190Y-25255514D01*
X26151190Y-25255514D02*
X26191667Y-25215038D01*
X27001191Y-26105514D02*
X26960715Y-26145991D01*
X26960715Y-26145991D02*
X26839286Y-26186467D01*
X26839286Y-26186467D02*
X26758334Y-26186467D01*
X26758334Y-26186467D02*
X26636905Y-26145991D01*
X26636905Y-26145991D02*
X26555953Y-26065038D01*
X26555953Y-26065038D02*
X26515476Y-25984086D01*
X26515476Y-25984086D02*
X26475000Y-25822181D01*
X26475000Y-25822181D02*
X26475000Y-25700752D01*
X26475000Y-25700752D02*
X26515476Y-25538848D01*
X26515476Y-25538848D02*
X26555953Y-25457895D01*
X26555953Y-25457895D02*
X26636905Y-25376943D01*
X26636905Y-25376943D02*
X26758334Y-25336467D01*
X26758334Y-25336467D02*
X26839286Y-25336467D01*
X26839286Y-25336467D02*
X26960715Y-25376943D01*
X26960715Y-25376943D02*
X27001191Y-25417419D01*
X27648810Y-25741229D02*
X27770238Y-25781705D01*
X27770238Y-25781705D02*
X27810715Y-25822181D01*
X27810715Y-25822181D02*
X27851191Y-25903133D01*
X27851191Y-25903133D02*
X27851191Y-26024562D01*
X27851191Y-26024562D02*
X27810715Y-26105514D01*
X27810715Y-26105514D02*
X27770238Y-26145991D01*
X27770238Y-26145991D02*
X27689286Y-26186467D01*
X27689286Y-26186467D02*
X27365476Y-26186467D01*
X27365476Y-26186467D02*
X27365476Y-25336467D01*
X27365476Y-25336467D02*
X27648810Y-25336467D01*
X27648810Y-25336467D02*
X27729762Y-25376943D01*
X27729762Y-25376943D02*
X27770238Y-25417419D01*
X27770238Y-25417419D02*
X27810715Y-25498371D01*
X27810715Y-25498371D02*
X27810715Y-25579324D01*
X27810715Y-25579324D02*
X27770238Y-25660276D01*
X27770238Y-25660276D02*
X27729762Y-25700752D01*
X27729762Y-25700752D02*
X27648810Y-25741229D01*
X27648810Y-25741229D02*
X27365476Y-25741229D01*
X28134524Y-26510276D02*
X28175000Y-26469800D01*
X28175000Y-26469800D02*
X28255953Y-26348371D01*
X28255953Y-26348371D02*
X28296429Y-26267419D01*
X28296429Y-26267419D02*
X28336905Y-26145991D01*
X28336905Y-26145991D02*
X28377381Y-25943610D01*
X28377381Y-25943610D02*
X28377381Y-25781705D01*
X28377381Y-25781705D02*
X28336905Y-25579324D01*
X28336905Y-25579324D02*
X28296429Y-25457895D01*
X28296429Y-25457895D02*
X28255953Y-25376943D01*
X28255953Y-25376943D02*
X28175000Y-25255514D01*
X28175000Y-25255514D02*
X28134524Y-25215038D01*
D11*
X18214285Y-24654819D02*
X18404761Y-24654819D01*
X18404761Y-24654819D02*
X18499999Y-24607200D01*
X18499999Y-24607200D02*
X18547618Y-24559580D01*
X18547618Y-24559580D02*
X18642856Y-24416723D01*
X18642856Y-24416723D02*
X18690475Y-24226247D01*
X18690475Y-24226247D02*
X18690475Y-23845295D01*
X18690475Y-23845295D02*
X18642856Y-23750057D01*
X18642856Y-23750057D02*
X18595237Y-23702438D01*
X18595237Y-23702438D02*
X18499999Y-23654819D01*
X18499999Y-23654819D02*
X18309523Y-23654819D01*
X18309523Y-23654819D02*
X18214285Y-23702438D01*
X18214285Y-23702438D02*
X18166666Y-23750057D01*
X18166666Y-23750057D02*
X18119047Y-23845295D01*
X18119047Y-23845295D02*
X18119047Y-24083390D01*
X18119047Y-24083390D02*
X18166666Y-24178628D01*
X18166666Y-24178628D02*
X18214285Y-24226247D01*
X18214285Y-24226247D02*
X18309523Y-24273866D01*
X18309523Y-24273866D02*
X18499999Y-24273866D01*
X18499999Y-24273866D02*
X18595237Y-24226247D01*
X18595237Y-24226247D02*
X18642856Y-24178628D01*
X18642856Y-24178628D02*
X18690475Y-24083390D01*
X19261904Y-24083390D02*
X19166666Y-24035771D01*
X19166666Y-24035771D02*
X19119047Y-23988152D01*
X19119047Y-23988152D02*
X19071428Y-23892914D01*
X19071428Y-23892914D02*
X19071428Y-23845295D01*
X19071428Y-23845295D02*
X19119047Y-23750057D01*
X19119047Y-23750057D02*
X19166666Y-23702438D01*
X19166666Y-23702438D02*
X19261904Y-23654819D01*
X19261904Y-23654819D02*
X19452380Y-23654819D01*
X19452380Y-23654819D02*
X19547618Y-23702438D01*
X19547618Y-23702438D02*
X19595237Y-23750057D01*
X19595237Y-23750057D02*
X19642856Y-23845295D01*
X19642856Y-23845295D02*
X19642856Y-23892914D01*
X19642856Y-23892914D02*
X19595237Y-23988152D01*
X19595237Y-23988152D02*
X19547618Y-24035771D01*
X19547618Y-24035771D02*
X19452380Y-24083390D01*
X19452380Y-24083390D02*
X19261904Y-24083390D01*
X19261904Y-24083390D02*
X19166666Y-24131009D01*
X19166666Y-24131009D02*
X19119047Y-24178628D01*
X19119047Y-24178628D02*
X19071428Y-24273866D01*
X19071428Y-24273866D02*
X19071428Y-24464342D01*
X19071428Y-24464342D02*
X19119047Y-24559580D01*
X19119047Y-24559580D02*
X19166666Y-24607200D01*
X19166666Y-24607200D02*
X19261904Y-24654819D01*
X19261904Y-24654819D02*
X19452380Y-24654819D01*
X19452380Y-24654819D02*
X19547618Y-24607200D01*
X19547618Y-24607200D02*
X19595237Y-24559580D01*
X19595237Y-24559580D02*
X19642856Y-24464342D01*
X19642856Y-24464342D02*
X19642856Y-24273866D01*
X19642856Y-24273866D02*
X19595237Y-24178628D01*
X19595237Y-24178628D02*
X19547618Y-24131009D01*
X19547618Y-24131009D02*
X19452380Y-24083390D01*
X20071428Y-24654819D02*
X20071428Y-23654819D01*
X20071428Y-23654819D02*
X20404761Y-24369104D01*
X20404761Y-24369104D02*
X20738094Y-23654819D01*
X20738094Y-23654819D02*
X20738094Y-24654819D01*
X21214285Y-24654819D02*
X21214285Y-23654819D01*
X21214285Y-24131009D02*
X21785713Y-24131009D01*
X21785713Y-24654819D02*
X21785713Y-23654819D01*
X22166666Y-23988152D02*
X22690475Y-23988152D01*
X22690475Y-23988152D02*
X22166666Y-24654819D01*
X22166666Y-24654819D02*
X22690475Y-24654819D01*
X24166666Y-24131009D02*
X23833333Y-24131009D01*
X23833333Y-24654819D02*
X23833333Y-23654819D01*
X23833333Y-23654819D02*
X24309523Y-23654819D01*
X24690476Y-24654819D02*
X24690476Y-23654819D01*
X24690476Y-23654819D02*
X25023809Y-24369104D01*
X25023809Y-24369104D02*
X25357142Y-23654819D01*
X25357142Y-23654819D02*
X25357142Y-24654819D01*
X27071428Y-24654819D02*
X26595238Y-24654819D01*
X26595238Y-24654819D02*
X26595238Y-23654819D01*
X27404762Y-24654819D02*
X27404762Y-23654819D01*
X27404762Y-23654819D02*
X27976190Y-24654819D01*
X27976190Y-24654819D02*
X27976190Y-23654819D01*
X28404762Y-24369104D02*
X28880952Y-24369104D01*
X28309524Y-24654819D02*
X28642857Y-23654819D01*
X28642857Y-23654819D02*
X28976190Y-24654819D01*
D10*
X12409524Y-1363335D02*
X12409524Y-563335D01*
X12409524Y-563335D02*
X12600000Y-563335D01*
X12600000Y-563335D02*
X12714286Y-601430D01*
X12714286Y-601430D02*
X12790476Y-677620D01*
X12790476Y-677620D02*
X12828571Y-753811D01*
X12828571Y-753811D02*
X12866667Y-906192D01*
X12866667Y-906192D02*
X12866667Y-1020478D01*
X12866667Y-1020478D02*
X12828571Y-1172859D01*
X12828571Y-1172859D02*
X12790476Y-1249049D01*
X12790476Y-1249049D02*
X12714286Y-1325240D01*
X12714286Y-1325240D02*
X12600000Y-1363335D01*
X12600000Y-1363335D02*
X12409524Y-1363335D01*
X13628571Y-1363335D02*
X13171428Y-1363335D01*
X13400000Y-1363335D02*
X13400000Y-563335D01*
X13400000Y-563335D02*
X13323809Y-677620D01*
X13323809Y-677620D02*
X13247619Y-753811D01*
X13247619Y-753811D02*
X13171428Y-791906D01*
X21087144Y-18133332D02*
X21125240Y-18171428D01*
X21125240Y-18171428D02*
X21163335Y-18285713D01*
X21163335Y-18285713D02*
X21163335Y-18361904D01*
X21163335Y-18361904D02*
X21125240Y-18476190D01*
X21125240Y-18476190D02*
X21049049Y-18552380D01*
X21049049Y-18552380D02*
X20972859Y-18590475D01*
X20972859Y-18590475D02*
X20820478Y-18628571D01*
X20820478Y-18628571D02*
X20706192Y-18628571D01*
X20706192Y-18628571D02*
X20553811Y-18590475D01*
X20553811Y-18590475D02*
X20477620Y-18552380D01*
X20477620Y-18552380D02*
X20401430Y-18476190D01*
X20401430Y-18476190D02*
X20363335Y-18361904D01*
X20363335Y-18361904D02*
X20363335Y-18285713D01*
X20363335Y-18285713D02*
X20401430Y-18171428D01*
X20401430Y-18171428D02*
X20439525Y-18133332D01*
X20363335Y-17447618D02*
X20363335Y-17599999D01*
X20363335Y-17599999D02*
X20401430Y-17676190D01*
X20401430Y-17676190D02*
X20439525Y-17714285D01*
X20439525Y-17714285D02*
X20553811Y-17790475D01*
X20553811Y-17790475D02*
X20706192Y-17828571D01*
X20706192Y-17828571D02*
X21010954Y-17828571D01*
X21010954Y-17828571D02*
X21087144Y-17790475D01*
X21087144Y-17790475D02*
X21125240Y-17752380D01*
X21125240Y-17752380D02*
X21163335Y-17676190D01*
X21163335Y-17676190D02*
X21163335Y-17523809D01*
X21163335Y-17523809D02*
X21125240Y-17447618D01*
X21125240Y-17447618D02*
X21087144Y-17409523D01*
X21087144Y-17409523D02*
X21010954Y-17371428D01*
X21010954Y-17371428D02*
X20820478Y-17371428D01*
X20820478Y-17371428D02*
X20744287Y-17409523D01*
X20744287Y-17409523D02*
X20706192Y-17447618D01*
X20706192Y-17447618D02*
X20668097Y-17523809D01*
X20668097Y-17523809D02*
X20668097Y-17676190D01*
X20668097Y-17676190D02*
X20706192Y-17752380D01*
X20706192Y-17752380D02*
X20744287Y-17790475D01*
X20744287Y-17790475D02*
X20820478Y-17828571D01*
X25409524Y-1063335D02*
X25409524Y-263335D01*
X25409524Y-263335D02*
X25600000Y-263335D01*
X25600000Y-263335D02*
X25714286Y-301430D01*
X25714286Y-301430D02*
X25790476Y-377620D01*
X25790476Y-377620D02*
X25828571Y-453811D01*
X25828571Y-453811D02*
X25866667Y-606192D01*
X25866667Y-606192D02*
X25866667Y-720478D01*
X25866667Y-720478D02*
X25828571Y-872859D01*
X25828571Y-872859D02*
X25790476Y-949049D01*
X25790476Y-949049D02*
X25714286Y-1025240D01*
X25714286Y-1025240D02*
X25600000Y-1063335D01*
X25600000Y-1063335D02*
X25409524Y-1063335D01*
X26171428Y-339525D02*
X26209524Y-301430D01*
X26209524Y-301430D02*
X26285714Y-263335D01*
X26285714Y-263335D02*
X26476190Y-263335D01*
X26476190Y-263335D02*
X26552381Y-301430D01*
X26552381Y-301430D02*
X26590476Y-339525D01*
X26590476Y-339525D02*
X26628571Y-415716D01*
X26628571Y-415716D02*
X26628571Y-491906D01*
X26628571Y-491906D02*
X26590476Y-606192D01*
X26590476Y-606192D02*
X26133333Y-1063335D01*
X26133333Y-1063335D02*
X26628571Y-1063335D01*
X7763335Y-4933332D02*
X7382382Y-5199999D01*
X7763335Y-5390475D02*
X6963335Y-5390475D01*
X6963335Y-5390475D02*
X6963335Y-5085713D01*
X6963335Y-5085713D02*
X7001430Y-5009523D01*
X7001430Y-5009523D02*
X7039525Y-4971428D01*
X7039525Y-4971428D02*
X7115716Y-4933332D01*
X7115716Y-4933332D02*
X7230001Y-4933332D01*
X7230001Y-4933332D02*
X7306192Y-4971428D01*
X7306192Y-4971428D02*
X7344287Y-5009523D01*
X7344287Y-5009523D02*
X7382382Y-5085713D01*
X7382382Y-5085713D02*
X7382382Y-5390475D01*
X7230001Y-4247618D02*
X7763335Y-4247618D01*
X6925240Y-4438094D02*
X7496668Y-4628571D01*
X7496668Y-4628571D02*
X7496668Y-4133332D01*
X10366667Y-14287144D02*
X10328571Y-14325240D01*
X10328571Y-14325240D02*
X10214286Y-14363335D01*
X10214286Y-14363335D02*
X10138095Y-14363335D01*
X10138095Y-14363335D02*
X10023809Y-14325240D01*
X10023809Y-14325240D02*
X9947619Y-14249049D01*
X9947619Y-14249049D02*
X9909524Y-14172859D01*
X9909524Y-14172859D02*
X9871428Y-14020478D01*
X9871428Y-14020478D02*
X9871428Y-13906192D01*
X9871428Y-13906192D02*
X9909524Y-13753811D01*
X9909524Y-13753811D02*
X9947619Y-13677620D01*
X9947619Y-13677620D02*
X10023809Y-13601430D01*
X10023809Y-13601430D02*
X10138095Y-13563335D01*
X10138095Y-13563335D02*
X10214286Y-13563335D01*
X10214286Y-13563335D02*
X10328571Y-13601430D01*
X10328571Y-13601430D02*
X10366667Y-13639525D01*
X11128571Y-14363335D02*
X10671428Y-14363335D01*
X10900000Y-14363335D02*
X10900000Y-13563335D01*
X10900000Y-13563335D02*
X10823809Y-13677620D01*
X10823809Y-13677620D02*
X10747619Y-13753811D01*
X10747619Y-13753811D02*
X10671428Y-13791906D01*
X9563335Y-17133333D02*
X9563335Y-17514285D01*
X9563335Y-17514285D02*
X8763335Y-17514285D01*
X9563335Y-16447619D02*
X9563335Y-16904762D01*
X9563335Y-16676190D02*
X8763335Y-16676190D01*
X8763335Y-16676190D02*
X8877620Y-16752381D01*
X8877620Y-16752381D02*
X8953811Y-16828571D01*
X8953811Y-16828571D02*
X8991906Y-16904762D01*
X11963335Y-23633332D02*
X11582382Y-23899999D01*
X11963335Y-24090475D02*
X11163335Y-24090475D01*
X11163335Y-24090475D02*
X11163335Y-23785713D01*
X11163335Y-23785713D02*
X11201430Y-23709523D01*
X11201430Y-23709523D02*
X11239525Y-23671428D01*
X11239525Y-23671428D02*
X11315716Y-23633332D01*
X11315716Y-23633332D02*
X11430001Y-23633332D01*
X11430001Y-23633332D02*
X11506192Y-23671428D01*
X11506192Y-23671428D02*
X11544287Y-23709523D01*
X11544287Y-23709523D02*
X11582382Y-23785713D01*
X11582382Y-23785713D02*
X11582382Y-24090475D01*
X11163335Y-23366666D02*
X11163335Y-22871428D01*
X11163335Y-22871428D02*
X11468097Y-23138094D01*
X11468097Y-23138094D02*
X11468097Y-23023809D01*
X11468097Y-23023809D02*
X11506192Y-22947618D01*
X11506192Y-22947618D02*
X11544287Y-22909523D01*
X11544287Y-22909523D02*
X11620478Y-22871428D01*
X11620478Y-22871428D02*
X11810954Y-22871428D01*
X11810954Y-22871428D02*
X11887144Y-22909523D01*
X11887144Y-22909523D02*
X11925240Y-22947618D01*
X11925240Y-22947618D02*
X11963335Y-23023809D01*
X11963335Y-23023809D02*
X11963335Y-23252380D01*
X11963335Y-23252380D02*
X11925240Y-23328571D01*
X11925240Y-23328571D02*
X11887144Y-23366666D01*
X16287144Y-11183332D02*
X16325240Y-11221428D01*
X16325240Y-11221428D02*
X16363335Y-11335713D01*
X16363335Y-11335713D02*
X16363335Y-11411904D01*
X16363335Y-11411904D02*
X16325240Y-11526190D01*
X16325240Y-11526190D02*
X16249049Y-11602380D01*
X16249049Y-11602380D02*
X16172859Y-11640475D01*
X16172859Y-11640475D02*
X16020478Y-11678571D01*
X16020478Y-11678571D02*
X15906192Y-11678571D01*
X15906192Y-11678571D02*
X15753811Y-11640475D01*
X15753811Y-11640475D02*
X15677620Y-11602380D01*
X15677620Y-11602380D02*
X15601430Y-11526190D01*
X15601430Y-11526190D02*
X15563335Y-11411904D01*
X15563335Y-11411904D02*
X15563335Y-11335713D01*
X15563335Y-11335713D02*
X15601430Y-11221428D01*
X15601430Y-11221428D02*
X15639525Y-11183332D01*
X15563335Y-10916666D02*
X15563335Y-10421428D01*
X15563335Y-10421428D02*
X15868097Y-10688094D01*
X15868097Y-10688094D02*
X15868097Y-10573809D01*
X15868097Y-10573809D02*
X15906192Y-10497618D01*
X15906192Y-10497618D02*
X15944287Y-10459523D01*
X15944287Y-10459523D02*
X16020478Y-10421428D01*
X16020478Y-10421428D02*
X16210954Y-10421428D01*
X16210954Y-10421428D02*
X16287144Y-10459523D01*
X16287144Y-10459523D02*
X16325240Y-10497618D01*
X16325240Y-10497618D02*
X16363335Y-10573809D01*
X16363335Y-10573809D02*
X16363335Y-10802380D01*
X16363335Y-10802380D02*
X16325240Y-10878571D01*
X16325240Y-10878571D02*
X16287144Y-10916666D01*
X17423809Y-16439525D02*
X17347619Y-16401430D01*
X17347619Y-16401430D02*
X17271428Y-16325240D01*
X17271428Y-16325240D02*
X17157142Y-16210954D01*
X17157142Y-16210954D02*
X17080952Y-16172859D01*
X17080952Y-16172859D02*
X17004761Y-16172859D01*
X17042857Y-16363335D02*
X16966666Y-16325240D01*
X16966666Y-16325240D02*
X16890476Y-16249049D01*
X16890476Y-16249049D02*
X16852380Y-16096668D01*
X16852380Y-16096668D02*
X16852380Y-15830001D01*
X16852380Y-15830001D02*
X16890476Y-15677620D01*
X16890476Y-15677620D02*
X16966666Y-15601430D01*
X16966666Y-15601430D02*
X17042857Y-15563335D01*
X17042857Y-15563335D02*
X17195238Y-15563335D01*
X17195238Y-15563335D02*
X17271428Y-15601430D01*
X17271428Y-15601430D02*
X17347619Y-15677620D01*
X17347619Y-15677620D02*
X17385714Y-15830001D01*
X17385714Y-15830001D02*
X17385714Y-16096668D01*
X17385714Y-16096668D02*
X17347619Y-16249049D01*
X17347619Y-16249049D02*
X17271428Y-16325240D01*
X17271428Y-16325240D02*
X17195238Y-16363335D01*
X17195238Y-16363335D02*
X17042857Y-16363335D01*
X18147618Y-16363335D02*
X17690475Y-16363335D01*
X17919047Y-16363335D02*
X17919047Y-15563335D01*
X17919047Y-15563335D02*
X17842856Y-15677620D01*
X17842856Y-15677620D02*
X17766666Y-15753811D01*
X17766666Y-15753811D02*
X17690475Y-15791906D01*
X27866666Y-11863335D02*
X27485714Y-11863335D01*
X27485714Y-11863335D02*
X27485714Y-11063335D01*
X28476190Y-11330001D02*
X28476190Y-11863335D01*
X28285714Y-11025240D02*
X28095237Y-11596668D01*
X28095237Y-11596668D02*
X28590476Y-11596668D01*
X28487144Y-8733332D02*
X28525240Y-8771428D01*
X28525240Y-8771428D02*
X28563335Y-8885713D01*
X28563335Y-8885713D02*
X28563335Y-8961904D01*
X28563335Y-8961904D02*
X28525240Y-9076190D01*
X28525240Y-9076190D02*
X28449049Y-9152380D01*
X28449049Y-9152380D02*
X28372859Y-9190475D01*
X28372859Y-9190475D02*
X28220478Y-9228571D01*
X28220478Y-9228571D02*
X28106192Y-9228571D01*
X28106192Y-9228571D02*
X27953811Y-9190475D01*
X27953811Y-9190475D02*
X27877620Y-9152380D01*
X27877620Y-9152380D02*
X27801430Y-9076190D01*
X27801430Y-9076190D02*
X27763335Y-8961904D01*
X27763335Y-8961904D02*
X27763335Y-8885713D01*
X27763335Y-8885713D02*
X27801430Y-8771428D01*
X27801430Y-8771428D02*
X27839525Y-8733332D01*
X28563335Y-8352380D02*
X28563335Y-8199999D01*
X28563335Y-8199999D02*
X28525240Y-8123809D01*
X28525240Y-8123809D02*
X28487144Y-8085713D01*
X28487144Y-8085713D02*
X28372859Y-8009523D01*
X28372859Y-8009523D02*
X28220478Y-7971428D01*
X28220478Y-7971428D02*
X27915716Y-7971428D01*
X27915716Y-7971428D02*
X27839525Y-8009523D01*
X27839525Y-8009523D02*
X27801430Y-8047618D01*
X27801430Y-8047618D02*
X27763335Y-8123809D01*
X27763335Y-8123809D02*
X27763335Y-8276190D01*
X27763335Y-8276190D02*
X27801430Y-8352380D01*
X27801430Y-8352380D02*
X27839525Y-8390475D01*
X27839525Y-8390475D02*
X27915716Y-8428571D01*
X27915716Y-8428571D02*
X28106192Y-8428571D01*
X28106192Y-8428571D02*
X28182382Y-8390475D01*
X28182382Y-8390475D02*
X28220478Y-8352380D01*
X28220478Y-8352380D02*
X28258573Y-8276190D01*
X28258573Y-8276190D02*
X28258573Y-8123809D01*
X28258573Y-8123809D02*
X28220478Y-8047618D01*
X28220478Y-8047618D02*
X28182382Y-8009523D01*
X28182382Y-8009523D02*
X28106192Y-7971428D01*
X5209524Y-4163335D02*
X5209524Y-3363335D01*
X5209524Y-3363335D02*
X5400000Y-3363335D01*
X5400000Y-3363335D02*
X5514286Y-3401430D01*
X5514286Y-3401430D02*
X5590476Y-3477620D01*
X5590476Y-3477620D02*
X5628571Y-3553811D01*
X5628571Y-3553811D02*
X5666667Y-3706192D01*
X5666667Y-3706192D02*
X5666667Y-3820478D01*
X5666667Y-3820478D02*
X5628571Y-3972859D01*
X5628571Y-3972859D02*
X5590476Y-4049049D01*
X5590476Y-4049049D02*
X5514286Y-4125240D01*
X5514286Y-4125240D02*
X5400000Y-4163335D01*
X5400000Y-4163335D02*
X5209524Y-4163335D01*
X5933333Y-3363335D02*
X6428571Y-3363335D01*
X6428571Y-3363335D02*
X6161905Y-3668097D01*
X6161905Y-3668097D02*
X6276190Y-3668097D01*
X6276190Y-3668097D02*
X6352381Y-3706192D01*
X6352381Y-3706192D02*
X6390476Y-3744287D01*
X6390476Y-3744287D02*
X6428571Y-3820478D01*
X6428571Y-3820478D02*
X6428571Y-4010954D01*
X6428571Y-4010954D02*
X6390476Y-4087144D01*
X6390476Y-4087144D02*
X6352381Y-4125240D01*
X6352381Y-4125240D02*
X6276190Y-4163335D01*
X6276190Y-4163335D02*
X6047619Y-4163335D01*
X6047619Y-4163335D02*
X5971428Y-4125240D01*
X5971428Y-4125240D02*
X5933333Y-4087144D01*
X12487144Y-13633332D02*
X12525240Y-13671428D01*
X12525240Y-13671428D02*
X12563335Y-13785713D01*
X12563335Y-13785713D02*
X12563335Y-13861904D01*
X12563335Y-13861904D02*
X12525240Y-13976190D01*
X12525240Y-13976190D02*
X12449049Y-14052380D01*
X12449049Y-14052380D02*
X12372859Y-14090475D01*
X12372859Y-14090475D02*
X12220478Y-14128571D01*
X12220478Y-14128571D02*
X12106192Y-14128571D01*
X12106192Y-14128571D02*
X11953811Y-14090475D01*
X11953811Y-14090475D02*
X11877620Y-14052380D01*
X11877620Y-14052380D02*
X11801430Y-13976190D01*
X11801430Y-13976190D02*
X11763335Y-13861904D01*
X11763335Y-13861904D02*
X11763335Y-13785713D01*
X11763335Y-13785713D02*
X11801430Y-13671428D01*
X11801430Y-13671428D02*
X11839525Y-13633332D01*
X12030001Y-12947618D02*
X12563335Y-12947618D01*
X11725240Y-13138094D02*
X12296668Y-13328571D01*
X12296668Y-13328571D02*
X12296668Y-12833332D01*
X11963335Y-19633333D02*
X11963335Y-20014285D01*
X11963335Y-20014285D02*
X11163335Y-20014285D01*
X11239525Y-19404762D02*
X11201430Y-19366666D01*
X11201430Y-19366666D02*
X11163335Y-19290476D01*
X11163335Y-19290476D02*
X11163335Y-19100000D01*
X11163335Y-19100000D02*
X11201430Y-19023809D01*
X11201430Y-19023809D02*
X11239525Y-18985714D01*
X11239525Y-18985714D02*
X11315716Y-18947619D01*
X11315716Y-18947619D02*
X11391906Y-18947619D01*
X11391906Y-18947619D02*
X11506192Y-18985714D01*
X11506192Y-18985714D02*
X11963335Y-19442857D01*
X11963335Y-19442857D02*
X11963335Y-18947619D01*
X21866667Y-16487144D02*
X21828571Y-16525240D01*
X21828571Y-16525240D02*
X21714286Y-16563335D01*
X21714286Y-16563335D02*
X21638095Y-16563335D01*
X21638095Y-16563335D02*
X21523809Y-16525240D01*
X21523809Y-16525240D02*
X21447619Y-16449049D01*
X21447619Y-16449049D02*
X21409524Y-16372859D01*
X21409524Y-16372859D02*
X21371428Y-16220478D01*
X21371428Y-16220478D02*
X21371428Y-16106192D01*
X21371428Y-16106192D02*
X21409524Y-15953811D01*
X21409524Y-15953811D02*
X21447619Y-15877620D01*
X21447619Y-15877620D02*
X21523809Y-15801430D01*
X21523809Y-15801430D02*
X21638095Y-15763335D01*
X21638095Y-15763335D02*
X21714286Y-15763335D01*
X21714286Y-15763335D02*
X21828571Y-15801430D01*
X21828571Y-15801430D02*
X21866667Y-15839525D01*
X22133333Y-15763335D02*
X22666667Y-15763335D01*
X22666667Y-15763335D02*
X22323809Y-16563335D01*
X17787144Y-9014285D02*
X17825240Y-9052381D01*
X17825240Y-9052381D02*
X17863335Y-9166666D01*
X17863335Y-9166666D02*
X17863335Y-9242857D01*
X17863335Y-9242857D02*
X17825240Y-9357143D01*
X17825240Y-9357143D02*
X17749049Y-9433333D01*
X17749049Y-9433333D02*
X17672859Y-9471428D01*
X17672859Y-9471428D02*
X17520478Y-9509524D01*
X17520478Y-9509524D02*
X17406192Y-9509524D01*
X17406192Y-9509524D02*
X17253811Y-9471428D01*
X17253811Y-9471428D02*
X17177620Y-9433333D01*
X17177620Y-9433333D02*
X17101430Y-9357143D01*
X17101430Y-9357143D02*
X17063335Y-9242857D01*
X17063335Y-9242857D02*
X17063335Y-9166666D01*
X17063335Y-9166666D02*
X17101430Y-9052381D01*
X17101430Y-9052381D02*
X17139525Y-9014285D01*
X17863335Y-8252381D02*
X17863335Y-8709524D01*
X17863335Y-8480952D02*
X17063335Y-8480952D01*
X17063335Y-8480952D02*
X17177620Y-8557143D01*
X17177620Y-8557143D02*
X17253811Y-8633333D01*
X17253811Y-8633333D02*
X17291906Y-8709524D01*
X17139525Y-7947619D02*
X17101430Y-7909523D01*
X17101430Y-7909523D02*
X17063335Y-7833333D01*
X17063335Y-7833333D02*
X17063335Y-7642857D01*
X17063335Y-7642857D02*
X17101430Y-7566666D01*
X17101430Y-7566666D02*
X17139525Y-7528571D01*
X17139525Y-7528571D02*
X17215716Y-7490476D01*
X17215716Y-7490476D02*
X17291906Y-7490476D01*
X17291906Y-7490476D02*
X17406192Y-7528571D01*
X17406192Y-7528571D02*
X17863335Y-7985714D01*
X17863335Y-7985714D02*
X17863335Y-7490476D01*
X20863335Y-11333333D02*
X20863335Y-11714285D01*
X20863335Y-11714285D02*
X20063335Y-11714285D01*
X20063335Y-11142857D02*
X20063335Y-10647619D01*
X20063335Y-10647619D02*
X20368097Y-10914285D01*
X20368097Y-10914285D02*
X20368097Y-10800000D01*
X20368097Y-10800000D02*
X20406192Y-10723809D01*
X20406192Y-10723809D02*
X20444287Y-10685714D01*
X20444287Y-10685714D02*
X20520478Y-10647619D01*
X20520478Y-10647619D02*
X20710954Y-10647619D01*
X20710954Y-10647619D02*
X20787144Y-10685714D01*
X20787144Y-10685714D02*
X20825240Y-10723809D01*
X20825240Y-10723809D02*
X20863335Y-10800000D01*
X20863335Y-10800000D02*
X20863335Y-11028571D01*
X20863335Y-11028571D02*
X20825240Y-11104762D01*
X20825240Y-11104762D02*
X20787144Y-11142857D01*
X6087144Y-19633332D02*
X6125240Y-19671428D01*
X6125240Y-19671428D02*
X6163335Y-19785713D01*
X6163335Y-19785713D02*
X6163335Y-19861904D01*
X6163335Y-19861904D02*
X6125240Y-19976190D01*
X6125240Y-19976190D02*
X6049049Y-20052380D01*
X6049049Y-20052380D02*
X5972859Y-20090475D01*
X5972859Y-20090475D02*
X5820478Y-20128571D01*
X5820478Y-20128571D02*
X5706192Y-20128571D01*
X5706192Y-20128571D02*
X5553811Y-20090475D01*
X5553811Y-20090475D02*
X5477620Y-20052380D01*
X5477620Y-20052380D02*
X5401430Y-19976190D01*
X5401430Y-19976190D02*
X5363335Y-19861904D01*
X5363335Y-19861904D02*
X5363335Y-19785713D01*
X5363335Y-19785713D02*
X5401430Y-19671428D01*
X5401430Y-19671428D02*
X5439525Y-19633332D01*
X5439525Y-19328571D02*
X5401430Y-19290475D01*
X5401430Y-19290475D02*
X5363335Y-19214285D01*
X5363335Y-19214285D02*
X5363335Y-19023809D01*
X5363335Y-19023809D02*
X5401430Y-18947618D01*
X5401430Y-18947618D02*
X5439525Y-18909523D01*
X5439525Y-18909523D02*
X5515716Y-18871428D01*
X5515716Y-18871428D02*
X5591906Y-18871428D01*
X5591906Y-18871428D02*
X5706192Y-18909523D01*
X5706192Y-18909523D02*
X6163335Y-19366666D01*
X6163335Y-19366666D02*
X6163335Y-18871428D01*
X28833333Y-4563335D02*
X28833333Y-5134763D01*
X28833333Y-5134763D02*
X28795238Y-5249049D01*
X28795238Y-5249049D02*
X28719047Y-5325240D01*
X28719047Y-5325240D02*
X28604762Y-5363335D01*
X28604762Y-5363335D02*
X28528571Y-5363335D01*
X29214286Y-5363335D02*
X29214286Y-4563335D01*
X29214286Y-4563335D02*
X29519048Y-4563335D01*
X29519048Y-4563335D02*
X29595238Y-4601430D01*
X29595238Y-4601430D02*
X29633333Y-4639525D01*
X29633333Y-4639525D02*
X29671429Y-4715716D01*
X29671429Y-4715716D02*
X29671429Y-4830001D01*
X29671429Y-4830001D02*
X29633333Y-4906192D01*
X29633333Y-4906192D02*
X29595238Y-4944287D01*
X29595238Y-4944287D02*
X29519048Y-4982382D01*
X29519048Y-4982382D02*
X29214286Y-4982382D01*
X30433333Y-5363335D02*
X29976190Y-5363335D01*
X30204762Y-5363335D02*
X30204762Y-4563335D01*
X30204762Y-4563335D02*
X30128571Y-4677620D01*
X30128571Y-4677620D02*
X30052381Y-4753811D01*
X30052381Y-4753811D02*
X29976190Y-4791906D01*
X5363335Y-11333332D02*
X4982382Y-11599999D01*
X5363335Y-11790475D02*
X4563335Y-11790475D01*
X4563335Y-11790475D02*
X4563335Y-11485713D01*
X4563335Y-11485713D02*
X4601430Y-11409523D01*
X4601430Y-11409523D02*
X4639525Y-11371428D01*
X4639525Y-11371428D02*
X4715716Y-11333332D01*
X4715716Y-11333332D02*
X4830001Y-11333332D01*
X4830001Y-11333332D02*
X4906192Y-11371428D01*
X4906192Y-11371428D02*
X4944287Y-11409523D01*
X4944287Y-11409523D02*
X4982382Y-11485713D01*
X4982382Y-11485713D02*
X4982382Y-11790475D01*
X5363335Y-10571428D02*
X5363335Y-11028571D01*
X5363335Y-10799999D02*
X4563335Y-10799999D01*
X4563335Y-10799999D02*
X4677620Y-10876190D01*
X4677620Y-10876190D02*
X4753811Y-10952380D01*
X4753811Y-10952380D02*
X4791906Y-11028571D01*
X10087144Y-8333331D02*
X10125240Y-8371427D01*
X10125240Y-8371427D02*
X10163335Y-8485712D01*
X10163335Y-8485712D02*
X10163335Y-8561903D01*
X10163335Y-8561903D02*
X10125240Y-8676189D01*
X10125240Y-8676189D02*
X10049049Y-8752379D01*
X10049049Y-8752379D02*
X9972859Y-8790474D01*
X9972859Y-8790474D02*
X9820478Y-8828570D01*
X9820478Y-8828570D02*
X9706192Y-8828570D01*
X9706192Y-8828570D02*
X9553811Y-8790474D01*
X9553811Y-8790474D02*
X9477620Y-8752379D01*
X9477620Y-8752379D02*
X9401430Y-8676189D01*
X9401430Y-8676189D02*
X9363335Y-8561903D01*
X9363335Y-8561903D02*
X9363335Y-8485712D01*
X9363335Y-8485712D02*
X9401430Y-8371427D01*
X9401430Y-8371427D02*
X9439525Y-8333331D01*
X9363335Y-7609522D02*
X9363335Y-7990474D01*
X9363335Y-7990474D02*
X9744287Y-8028570D01*
X9744287Y-8028570D02*
X9706192Y-7990474D01*
X9706192Y-7990474D02*
X9668097Y-7914284D01*
X9668097Y-7914284D02*
X9668097Y-7723808D01*
X9668097Y-7723808D02*
X9706192Y-7647617D01*
X9706192Y-7647617D02*
X9744287Y-7609522D01*
X9744287Y-7609522D02*
X9820478Y-7571427D01*
X9820478Y-7571427D02*
X10010954Y-7571427D01*
X10010954Y-7571427D02*
X10087144Y-7609522D01*
X10087144Y-7609522D02*
X10125240Y-7647617D01*
X10125240Y-7647617D02*
X10163335Y-7723808D01*
X10163335Y-7723808D02*
X10163335Y-7914284D01*
X10163335Y-7914284D02*
X10125240Y-7990474D01*
X10125240Y-7990474D02*
X10087144Y-8028570D01*
X22487144Y-9114285D02*
X22525240Y-9152381D01*
X22525240Y-9152381D02*
X22563335Y-9266666D01*
X22563335Y-9266666D02*
X22563335Y-9342857D01*
X22563335Y-9342857D02*
X22525240Y-9457143D01*
X22525240Y-9457143D02*
X22449049Y-9533333D01*
X22449049Y-9533333D02*
X22372859Y-9571428D01*
X22372859Y-9571428D02*
X22220478Y-9609524D01*
X22220478Y-9609524D02*
X22106192Y-9609524D01*
X22106192Y-9609524D02*
X21953811Y-9571428D01*
X21953811Y-9571428D02*
X21877620Y-9533333D01*
X21877620Y-9533333D02*
X21801430Y-9457143D01*
X21801430Y-9457143D02*
X21763335Y-9342857D01*
X21763335Y-9342857D02*
X21763335Y-9266666D01*
X21763335Y-9266666D02*
X21801430Y-9152381D01*
X21801430Y-9152381D02*
X21839525Y-9114285D01*
X22563335Y-8352381D02*
X22563335Y-8809524D01*
X22563335Y-8580952D02*
X21763335Y-8580952D01*
X21763335Y-8580952D02*
X21877620Y-8657143D01*
X21877620Y-8657143D02*
X21953811Y-8733333D01*
X21953811Y-8733333D02*
X21991906Y-8809524D01*
X21763335Y-7857142D02*
X21763335Y-7780952D01*
X21763335Y-7780952D02*
X21801430Y-7704761D01*
X21801430Y-7704761D02*
X21839525Y-7666666D01*
X21839525Y-7666666D02*
X21915716Y-7628571D01*
X21915716Y-7628571D02*
X22068097Y-7590476D01*
X22068097Y-7590476D02*
X22258573Y-7590476D01*
X22258573Y-7590476D02*
X22410954Y-7628571D01*
X22410954Y-7628571D02*
X22487144Y-7666666D01*
X22487144Y-7666666D02*
X22525240Y-7704761D01*
X22525240Y-7704761D02*
X22563335Y-7780952D01*
X22563335Y-7780952D02*
X22563335Y-7857142D01*
X22563335Y-7857142D02*
X22525240Y-7933333D01*
X22525240Y-7933333D02*
X22487144Y-7971428D01*
X22487144Y-7971428D02*
X22410954Y-8009523D01*
X22410954Y-8009523D02*
X22258573Y-8047619D01*
X22258573Y-8047619D02*
X22068097Y-8047619D01*
X22068097Y-8047619D02*
X21915716Y-8009523D01*
X21915716Y-8009523D02*
X21839525Y-7971428D01*
X21839525Y-7971428D02*
X21801430Y-7933333D01*
X21801430Y-7933333D02*
X21763335Y-7857142D01*
X11687144Y-7514285D02*
X11725240Y-7552381D01*
X11725240Y-7552381D02*
X11763335Y-7666666D01*
X11763335Y-7666666D02*
X11763335Y-7742857D01*
X11763335Y-7742857D02*
X11725240Y-7857143D01*
X11725240Y-7857143D02*
X11649049Y-7933333D01*
X11649049Y-7933333D02*
X11572859Y-7971428D01*
X11572859Y-7971428D02*
X11420478Y-8009524D01*
X11420478Y-8009524D02*
X11306192Y-8009524D01*
X11306192Y-8009524D02*
X11153811Y-7971428D01*
X11153811Y-7971428D02*
X11077620Y-7933333D01*
X11077620Y-7933333D02*
X11001430Y-7857143D01*
X11001430Y-7857143D02*
X10963335Y-7742857D01*
X10963335Y-7742857D02*
X10963335Y-7666666D01*
X10963335Y-7666666D02*
X11001430Y-7552381D01*
X11001430Y-7552381D02*
X11039525Y-7514285D01*
X11763335Y-6752381D02*
X11763335Y-7209524D01*
X11763335Y-6980952D02*
X10963335Y-6980952D01*
X10963335Y-6980952D02*
X11077620Y-7057143D01*
X11077620Y-7057143D02*
X11153811Y-7133333D01*
X11153811Y-7133333D02*
X11191906Y-7209524D01*
X11763335Y-5990476D02*
X11763335Y-6447619D01*
X11763335Y-6219047D02*
X10963335Y-6219047D01*
X10963335Y-6219047D02*
X11077620Y-6295238D01*
X11077620Y-6295238D02*
X11153811Y-6371428D01*
X11153811Y-6371428D02*
X11191906Y-6447619D01*
X8163335Y-13633332D02*
X7782382Y-13899999D01*
X8163335Y-14090475D02*
X7363335Y-14090475D01*
X7363335Y-14090475D02*
X7363335Y-13785713D01*
X7363335Y-13785713D02*
X7401430Y-13709523D01*
X7401430Y-13709523D02*
X7439525Y-13671428D01*
X7439525Y-13671428D02*
X7515716Y-13633332D01*
X7515716Y-13633332D02*
X7630001Y-13633332D01*
X7630001Y-13633332D02*
X7706192Y-13671428D01*
X7706192Y-13671428D02*
X7744287Y-13709523D01*
X7744287Y-13709523D02*
X7782382Y-13785713D01*
X7782382Y-13785713D02*
X7782382Y-14090475D01*
X7439525Y-13328571D02*
X7401430Y-13290475D01*
X7401430Y-13290475D02*
X7363335Y-13214285D01*
X7363335Y-13214285D02*
X7363335Y-13023809D01*
X7363335Y-13023809D02*
X7401430Y-12947618D01*
X7401430Y-12947618D02*
X7439525Y-12909523D01*
X7439525Y-12909523D02*
X7515716Y-12871428D01*
X7515716Y-12871428D02*
X7591906Y-12871428D01*
X7591906Y-12871428D02*
X7706192Y-12909523D01*
X7706192Y-12909523D02*
X8163335Y-13366666D01*
X8163335Y-13366666D02*
X8163335Y-12871428D01*
%TO.C,D1*%
D12*
X10640000Y-2200000D02*
X10640000Y-4200000D01*
X10640000Y-2200000D02*
X14650000Y-2200000D01*
X10640000Y-4200000D02*
X14650000Y-4200000D01*
%TO.C,C6*%
X18265000Y-17738748D02*
X18265000Y-18261252D01*
X19735000Y-17738748D02*
X19735000Y-18261252D01*
%TO.C,D2*%
X23640000Y-1400000D02*
X23640000Y-3400000D01*
X23640000Y-1400000D02*
X27650000Y-1400000D01*
X23640000Y-3400000D02*
X27650000Y-3400000D01*
%TO.C,R4*%
X8427500Y-5037258D02*
X8427500Y-4562742D01*
X9472500Y-5037258D02*
X9472500Y-4562742D01*
%TO.C,C1*%
X10238748Y-14715000D02*
X10761252Y-14715000D01*
X10238748Y-16185000D02*
X10761252Y-16185000D01*
%TO.C,L1*%
X7290000Y-16837221D02*
X7290000Y-17162779D01*
X8310000Y-16837221D02*
X8310000Y-17162779D01*
%TO.C,R3*%
X12477500Y-23262742D02*
X12477500Y-23737258D01*
X13522500Y-23262742D02*
X13522500Y-23737258D01*
%TO.C,C3*%
X13827000Y-11311252D02*
X13827000Y-10788748D01*
X15297000Y-11311252D02*
X15297000Y-10788748D01*
%TO.C,J2*%
X29140000Y-14250000D02*
X29140000Y-14750000D01*
X29140000Y-14750000D02*
X29640000Y-14500000D01*
X29640000Y-14500000D02*
X29140000Y-14250000D01*
X30190000Y-13660000D02*
X30190000Y-12550000D01*
X30190000Y-16450000D02*
X30190000Y-15340000D01*
X33440000Y-13660000D02*
X33440000Y-12550000D01*
X33440000Y-16450000D02*
X33440000Y-15340000D01*
%TO.C,J1*%
X560000Y-12550000D02*
X560000Y-13660000D01*
X560000Y-15340000D02*
X560000Y-16450000D01*
X3810000Y-12550000D02*
X3810000Y-13660000D01*
X3810000Y-15340000D02*
X3810000Y-16450000D01*
X4360000Y-14500000D02*
X4860000Y-14750000D01*
X4860000Y-14250000D02*
X4360000Y-14500000D01*
X4860000Y-14750000D02*
X4860000Y-14250000D01*
%TO.C,Q1*%
X14740000Y-12940000D02*
X16260000Y-12940000D01*
X14740000Y-12990000D02*
X14740000Y-12940000D01*
X14740000Y-14890000D02*
X14740000Y-14110000D01*
X14740000Y-16060000D02*
X14740000Y-16010000D01*
X16260000Y-12940000D02*
X16260000Y-13940000D01*
X16260000Y-15060000D02*
X16260000Y-16060000D01*
X16260000Y-16060000D02*
X14740000Y-16060000D01*
X14200000Y-14120000D02*
X14440000Y-14450000D01*
X13960000Y-14450000D01*
X14200000Y-14120000D01*
G36*
X14440000Y-14450000D02*
G01*
X13960000Y-14450000D01*
X14200000Y-14120000D01*
X14440000Y-14450000D01*
G37*
%TO.C,L4*%
X24837221Y-10990000D02*
X25162779Y-10990000D01*
X24837221Y-12010000D02*
X25162779Y-12010000D01*
%TO.C,C9*%
X25765000Y-8861252D02*
X25765000Y-8338748D01*
X27235000Y-8861252D02*
X27235000Y-8338748D01*
%TO.C,D3*%
X6315000Y-840000D02*
X6315000Y-2760000D01*
X6315000Y-2760000D02*
X9000000Y-2760000D01*
X9000000Y-840000D02*
X6315000Y-840000D01*
%TO.C,C4*%
X11465000Y-11311252D02*
X11465000Y-10788748D01*
X12935000Y-11311252D02*
X12935000Y-10788748D01*
%TO.C,J3*%
X17620000Y-4580000D02*
X17620000Y-3200000D01*
X19000000Y-4580000D02*
X17620000Y-4580000D01*
X20270000Y-1820000D02*
X22920000Y-1820000D01*
X20270000Y-4580000D02*
X20270000Y-1820000D01*
X20270000Y-4580000D02*
X22920000Y-4580000D01*
X22920000Y-4580000D02*
X22920000Y-1820000D01*
%TO.C,L2*%
X12490000Y-19337221D02*
X12490000Y-19662779D01*
X13510000Y-19337221D02*
X13510000Y-19662779D01*
%TO.C,C7*%
X21738748Y-13765000D02*
X22261252Y-13765000D01*
X21738748Y-15235000D02*
X22261252Y-15235000D01*
%TO.C,C12*%
X14990000Y-6859420D02*
X14990000Y-7140580D01*
X16010000Y-6859420D02*
X16010000Y-7140580D01*
%TO.C,L3*%
X18490000Y-11387779D02*
X18490000Y-11062221D01*
X19510000Y-11387779D02*
X19510000Y-11062221D01*
%TO.C,C2*%
X5290000Y-16859420D02*
X5290000Y-17140580D01*
X6310000Y-16859420D02*
X6310000Y-17140580D01*
%TO.C,JP1*%
X24600000Y-5300000D02*
X24600000Y-4700000D01*
X25300000Y-4000000D02*
X26700000Y-4000000D01*
X26700000Y-6000000D02*
X25300000Y-6000000D01*
X27400000Y-4700000D02*
X27400000Y-5300000D01*
X24600000Y-4700000D02*
G75*
G02*
X25300000Y-4000000I700000J0D01*
G01*
X25300000Y-6000000D02*
G75*
G02*
X24600000Y-5300000I0J700000D01*
G01*
X26700000Y-4000000D02*
G75*
G02*
X27400000Y-4700000I1J-699999D01*
G01*
X27400000Y-5300000D02*
G75*
G02*
X26700000Y-6000000I-699999J-1D01*
G01*
%TO.C,R1*%
X5677500Y-11462258D02*
X5677500Y-10987742D01*
X6722500Y-11462258D02*
X6722500Y-10987742D01*
%TO.C,C5*%
X9065000Y-11311252D02*
X9065000Y-10788748D01*
X10535000Y-11311252D02*
X10535000Y-10788748D01*
%TO.C,C10*%
X23265000Y-8861252D02*
X23265000Y-8338748D01*
X24735000Y-8861252D02*
X24735000Y-8338748D01*
%TO.C,C11*%
X12265000Y-6738748D02*
X12265000Y-7261252D01*
X13735000Y-6738748D02*
X13735000Y-7261252D01*
%TO.C,R2*%
X7277500Y-11462258D02*
X7277500Y-10987742D01*
X8322500Y-11462258D02*
X8322500Y-10987742D01*
%TD*%
M02*
