%TF.GenerationSoftware,KiCad,Pcbnew,10.0.6*%
%TF.CreationDate,2026-09-08T15:26:31+05:30*%
%TF.ProjectId,lna_fm_98mhz,6c6e615f-666d-45f3-9938-6d687a2e6b69,rev?*%
%TF.SameCoordinates,Original*%
%TF.FileFunction,Soldermask,Top*%
%TF.FilePolarity,Negative*%
%FSLAX46Y46*%
G04 Gerber Fmt 4.6, Leading zero omitted, Abs format (unit mm)*
G04 Created by KiCad (PCBNEW 10.0.6) date 2026-09-08 15:26:31*
%MOMM*%
%LPD*%
G01*
G04 APERTURE LIST*
G04 Aperture macros list*
%AMRoundRect*
0 Rectangle with rounded corners*
0 $1 Rounding radius*
0 $2 $3 $4 $5 $6 $7 $8 $9 X,Y pos of 4 corners*
0 Add a 4 corners polygon primitive as box body*
4,1,4,$2,$3,$4,$5,$6,$7,$8,$9,$2,$3,0*
0 Add four circle primitives for the rounded corners*
1,1,$1+$1,$2,$3*
1,1,$1+$1,$4,$5*
1,1,$1+$1,$6,$7*
1,1,$1+$1,$8,$9*
0 Add four rect primitives between the rounded corners*
20,1,$1+$1,$2,$3,$4,$5,0*
20,1,$1+$1,$4,$5,$6,$7,0*
20,1,$1+$1,$6,$7,$8,$9,0*
20,1,$1+$1,$8,$9,$2,$3,0*%
%AMFreePoly0*
4,1,23,0.500000,-0.750000,0.000000,-0.750000,0.000000,-0.745722,-0.065263,-0.745722,-0.191342,-0.711940,-0.304381,-0.646677,-0.396677,-0.554381,-0.461940,-0.441342,-0.495722,-0.315263,-0.495722,-0.250000,-0.500000,-0.250000,-0.500000,0.250000,-0.495722,0.250000,-0.495722,0.315263,-0.461940,0.441342,-0.396677,0.554381,-0.304381,0.646677,-0.191342,0.711940,-0.065263,0.745722,0.000000,0.745722,
0.000000,0.750000,0.500000,0.750000,0.500000,-0.750000,0.500000,-0.750000,$1*%
%AMFreePoly1*
4,1,23,0.000000,0.745722,0.065263,0.745722,0.191342,0.711940,0.304381,0.646677,0.396677,0.554381,0.461940,0.441342,0.495722,0.315263,0.495722,0.250000,0.500000,0.250000,0.500000,-0.250000,0.495722,-0.250000,0.495722,-0.315263,0.461940,-0.441342,0.396677,-0.554381,0.304381,-0.646677,0.191342,-0.711940,0.065263,-0.745722,0.000000,-0.745722,0.000000,-0.750000,-0.500000,-0.750000,
-0.500000,0.750000,0.000000,0.750000,0.000000,0.745722,0.000000,0.745722,$1*%
G04 Aperture macros list end*
%ADD10RoundRect,0.225000X-0.225000X-0.375000X0.225000X-0.375000X0.225000X0.375000X-0.225000X0.375000X0*%
%ADD11RoundRect,0.250000X-0.475000X0.250000X-0.475000X-0.250000X0.475000X-0.250000X0.475000X0.250000X0*%
%ADD12RoundRect,0.200000X0.275000X-0.200000X0.275000X0.200000X-0.275000X0.200000X-0.275000X-0.200000X0*%
%ADD13C,4.400000*%
%ADD14RoundRect,0.250000X-0.250000X-0.475000X0.250000X-0.475000X0.250000X0.475000X-0.250000X0.475000X0*%
%ADD15RoundRect,0.218750X-0.256250X0.218750X-0.256250X-0.218750X0.256250X-0.218750X0.256250X0.218750X0*%
%ADD16RoundRect,0.200000X-0.275000X0.200000X-0.275000X-0.200000X0.275000X-0.200000X0.275000X0.200000X0*%
%ADD17RoundRect,0.250000X0.475000X-0.250000X0.475000X0.250000X-0.475000X0.250000X-0.475000X-0.250000X0*%
%ADD18RoundRect,0.250000X1.350000X-0.385000X1.350000X0.385000X-1.350000X0.385000X-1.350000X-0.385000X0*%
%ADD19RoundRect,0.250000X1.600000X-0.425000X1.600000X0.425000X-1.600000X0.425000X-1.600000X-0.425000X0*%
%ADD20RoundRect,0.250000X-1.350000X0.385000X-1.350000X-0.385000X1.350000X-0.385000X1.350000X0.385000X0*%
%ADD21RoundRect,0.250000X-1.600000X0.425000X-1.600000X-0.425000X1.600000X-0.425000X1.600000X0.425000X0*%
%ADD22RoundRect,0.150000X-0.587500X-0.150000X0.587500X-0.150000X0.587500X0.150000X-0.587500X0.150000X0*%
%ADD23RoundRect,0.218750X-0.218750X-0.256250X0.218750X-0.256250X0.218750X0.256250X-0.218750X0.256250X0*%
%ADD24RoundRect,0.243750X-0.243750X-0.456250X0.243750X-0.456250X0.243750X0.456250X-0.243750X0.456250X0*%
%ADD25R,1.700000X1.700000*%
%ADD26C,1.700000*%
%ADD27RoundRect,0.225000X-0.250000X0.225000X-0.250000X-0.225000X0.250000X-0.225000X0.250000X0.225000X0*%
%ADD28RoundRect,0.218750X0.256250X-0.218750X0.256250X0.218750X-0.256250X0.218750X-0.256250X-0.218750X0*%
%ADD29FreePoly0,180.000000*%
%ADD30FreePoly1,180.000000*%
G04 APERTURE END LIST*
%TO.C,JP1*%
G36*
X25850000Y-4250000D02*
G01*
X26150000Y-4250000D01*
X26150000Y-5750000D01*
X25850000Y-5750000D01*
X25850000Y-4250000D01*
G37*
%TD*%
D10*
%TO.C,D1*%
X11350000Y-3200000D03*
X14650000Y-3200000D03*
%TD*%
D11*
%TO.C,C6*%
X19000000Y-17050000D03*
X19000000Y-18950000D03*
%TD*%
D10*
%TO.C,D2*%
X24350000Y-2400000D03*
X27650000Y-2400000D03*
%TD*%
D12*
%TO.C,R4*%
X8950000Y-5625000D03*
X8950000Y-3975000D03*
%TD*%
D13*
%TO.C,H2*%
X31500000Y-2500000D03*
%TD*%
D14*
%TO.C,C1*%
X9550000Y-15450000D03*
X11450000Y-15450000D03*
%TD*%
D15*
%TO.C,L1*%
X7800000Y-16212500D03*
X7800000Y-17787500D03*
%TD*%
D16*
%TO.C,R3*%
X13000000Y-22675000D03*
X13000000Y-24325000D03*
%TD*%
D17*
%TO.C,C3*%
X14562000Y-12000000D03*
X14562000Y-10100000D03*
%TD*%
D18*
%TO.C,J2*%
X31900000Y-14500000D03*
D19*
X31650000Y-11675000D03*
X31650000Y-17325000D03*
%TD*%
D20*
%TO.C,J1*%
X2100000Y-14500000D03*
D21*
X2350000Y-17325000D03*
X2350000Y-11675000D03*
%TD*%
D22*
%TO.C,Q1*%
X14562500Y-13550000D03*
X14562500Y-15450000D03*
X16437500Y-14500000D03*
%TD*%
D23*
%TO.C,L4*%
X24212500Y-11500000D03*
X25787500Y-11500000D03*
%TD*%
D17*
%TO.C,C9*%
X26500000Y-9550000D03*
X26500000Y-7650000D03*
%TD*%
D13*
%TO.C,H1*%
X2500000Y-2500000D03*
%TD*%
%TO.C,H4*%
X31500000Y-26500000D03*
%TD*%
D24*
%TO.C,D3*%
X7062500Y-1800000D03*
X8937500Y-1800000D03*
%TD*%
D17*
%TO.C,C4*%
X12200000Y-12000000D03*
X12200000Y-10100000D03*
%TD*%
D13*
%TO.C,H3*%
X2500000Y-26500000D03*
%TD*%
D25*
%TO.C,J3*%
X19000000Y-3200000D03*
D26*
X21540000Y-3200000D03*
%TD*%
D15*
%TO.C,L2*%
X13000000Y-18712500D03*
X13000000Y-20287500D03*
%TD*%
D14*
%TO.C,C7*%
X21050000Y-14500000D03*
X22950000Y-14500000D03*
%TD*%
D27*
%TO.C,C12*%
X15500000Y-6225000D03*
X15500000Y-7775000D03*
%TD*%
D28*
%TO.C,L3*%
X19000000Y-12012500D03*
X19000000Y-10437500D03*
%TD*%
D27*
%TO.C,C2*%
X5800000Y-16225000D03*
X5800000Y-17775000D03*
%TD*%
D29*
%TO.C,JP1*%
X26650000Y-5000000D03*
D30*
X25350000Y-5000000D03*
%TD*%
D12*
%TO.C,R1*%
X6200000Y-12050000D03*
X6200000Y-10400000D03*
%TD*%
D17*
%TO.C,C5*%
X9800000Y-12000000D03*
X9800000Y-10100000D03*
%TD*%
%TO.C,C10*%
X24000000Y-9550000D03*
X24000000Y-7650000D03*
%TD*%
D11*
%TO.C,C11*%
X13000000Y-6050000D03*
X13000000Y-7950000D03*
%TD*%
D12*
%TO.C,R2*%
X7800000Y-12050000D03*
X7800000Y-10400000D03*
%TD*%
M02*
