%TF.GenerationSoftware,KiCad,Pcbnew,10.0.6*%
%TF.CreationDate,2026-09-08T15:26:31+05:30*%
%TF.ProjectId,lna_fm_98mhz,6c6e615f-666d-45f3-9938-6d687a2e6b69,rev?*%
%TF.SameCoordinates,Original*%
%TF.FileFunction,Copper,L2,Bot*%
%TF.FilePolarity,Positive*%
%FSLAX46Y46*%
G04 Gerber Fmt 4.6, Leading zero omitted, Abs format (unit mm)*
G04 Created by KiCad (PCBNEW 10.0.6) date 2026-09-08 15:26:31*
%MOMM*%
%LPD*%
G01*
G04 APERTURE LIST*
G04 Aperture macros list*
%AMRoundRect*
0 Rectangle with rounded corners*
0 $1 Rounding radius*
0 $2 $3 $4 $5 $6 $7 $8 $9 X,Y pos of 4 corners*
0 Add a 4 corners polygon primitive as box body*
4,1,4,$2,$3,$4,$5,$6,$7,$8,$9,$2,$3,0*
0 Add four circle primitives for the rounded corners*
1,1,$1+$1,$2,$3*
1,1,$1+$1,$4,$5*
1,1,$1+$1,$6,$7*
1,1,$1+$1,$8,$9*
0 Add four rect primitives between the rounded corners*
20,1,$1+$1,$2,$3,$4,$5,0*
20,1,$1+$1,$4,$5,$6,$7,0*
20,1,$1+$1,$6,$7,$8,$9,0*
20,1,$1+$1,$8,$9,$2,$3,0*%
G04 Aperture macros list end*
%TA.AperFunction,ComponentPad*%
%ADD10C,4.400000*%
%TD*%
%TA.AperFunction,SMDPad,CuDef*%
%ADD11RoundRect,0.250000X1.600000X-0.425000X1.600000X0.425000X-1.600000X0.425000X-1.600000X-0.425000X0*%
%TD*%
%TA.AperFunction,SMDPad,CuDef*%
%ADD12RoundRect,0.250000X-1.600000X0.425000X-1.600000X-0.425000X1.600000X-0.425000X1.600000X0.425000X0*%
%TD*%
%TA.AperFunction,ComponentPad*%
%ADD13R,1.700000X1.700000*%
%TD*%
%TA.AperFunction,ComponentPad*%
%ADD14C,1.700000*%
%TD*%
%TA.AperFunction,ViaPad*%
%ADD15C,0.600000*%
%TD*%
G04 APERTURE END LIST*
D10*
%TO.P,H2,1*%
%TO.N,GND*%
X31500000Y-2500000D03*
%TD*%
D11*
%TO.P,J2,2*%
%TO.N,GND*%
X31650000Y-11675000D03*
X31650000Y-17325000D03*
%TD*%
D12*
%TO.P,J1,2*%
%TO.N,GND*%
X2350000Y-17325000D03*
X2350000Y-11675000D03*
%TD*%
D10*
%TO.P,H1,1*%
%TO.N,GND*%
X2500000Y-2500000D03*
%TD*%
%TO.P,H4,1*%
%TO.N,GND*%
X31500000Y-26500000D03*
%TD*%
%TO.P,H3,1*%
%TO.N,GND*%
X2500000Y-26500000D03*
%TD*%
D13*
%TO.P,J3,1*%
%TO.N,/BAT_IN*%
X19000000Y-3200000D03*
D14*
%TO.P,J3,2*%
%TO.N,GND*%
X21540000Y-3200000D03*
%TD*%
D15*
%TO.N,GND*%
X6000000Y-27000000D03*
X25250000Y-7650000D03*
X21000000Y-12000000D03*
X9800000Y-8500000D03*
X1500000Y-6000000D03*
X2000000Y-17000000D03*
X12200000Y-8500000D03*
X13000000Y-26000000D03*
X23000000Y-27000000D03*
X29500000Y-27000000D03*
X28500000Y-12000000D03*
X1500000Y-20000000D03*
X32500000Y-20000000D03*
X21000000Y-17000000D03*
X7800000Y-19500000D03*
X1500000Y-23000000D03*
X19000000Y-20500000D03*
X1500000Y-9000000D03*
X26000000Y-17000000D03*
X15500000Y-27000000D03*
X16500000Y-17000000D03*
X32500000Y-23000000D03*
X4000000Y-1000000D03*
X19000000Y-27000000D03*
X4000000Y-17000000D03*
X10000000Y-27000000D03*
X15500000Y-9500000D03*
X2000000Y-12000000D03*
X5800000Y-19500000D03*
X5500000Y-1800000D03*
X23500000Y-17000000D03*
X14562000Y-8500000D03*
X16500000Y-12000000D03*
X32500000Y-9000000D03*
X13000000Y-1000000D03*
X13000000Y-9500000D03*
X26500000Y-27000000D03*
X9800000Y-17500000D03*
X28500000Y-17000000D03*
X7800000Y-8500000D03*
X22500000Y-12000000D03*
%TD*%
%TA.AperFunction,Conductor*%
%TO.N,GND*%
G36*
X33958691Y-19407D02*
G01*
X33994655Y-68907D01*
X33999500Y-99500D01*
X33999500Y-28900500D01*
X33980593Y-28958691D01*
X33931093Y-28994655D01*
X33900500Y-28999500D01*
X99500Y-28999500D01*
X41309Y-28980593D01*
X5345Y-28931093D01*
X500Y-28900500D01*
X500Y-2302129D01*
X17649500Y-2302129D01*
X17649500Y-4097866D01*
X17649501Y-4097870D01*
X17655908Y-4157480D01*
X17655909Y-4157485D01*
X17706202Y-4292329D01*
X17792450Y-4407541D01*
X17792454Y-4407546D01*
X17792457Y-4407548D01*
X17792458Y-4407549D01*
X17907670Y-4493797D01*
X18042511Y-4544089D01*
X18042512Y-4544089D01*
X18042517Y-4544091D01*
X18102127Y-4550500D01*
X19897872Y-4550499D01*
X19957483Y-4544091D01*
X20024907Y-4518943D01*
X20092329Y-4493797D01*
X20092329Y-4493796D01*
X20092331Y-4493796D01*
X20207546Y-4407546D01*
X20293796Y-4292331D01*
X20344091Y-4157483D01*
X20350500Y-4097873D01*
X20350499Y-2302128D01*
X20344091Y-2242517D01*
X20344089Y-2242511D01*
X20293797Y-2107670D01*
X20207549Y-1992458D01*
X20207548Y-1992457D01*
X20207546Y-1992454D01*
X20207541Y-1992450D01*
X20092329Y-1906202D01*
X19957488Y-1855910D01*
X19957483Y-1855909D01*
X19957481Y-1855908D01*
X19957477Y-1855908D01*
X19926249Y-1852550D01*
X19897873Y-1849500D01*
X19897870Y-1849500D01*
X18102133Y-1849500D01*
X18102129Y-1849500D01*
X18102128Y-1849501D01*
X18094949Y-1850272D01*
X18042519Y-1855908D01*
X18042514Y-1855909D01*
X17907670Y-1906202D01*
X17792458Y-1992450D01*
X17792450Y-1992458D01*
X17706202Y-2107670D01*
X17655910Y-2242511D01*
X17655908Y-2242522D01*
X17649500Y-2302129D01*
X500Y-2302129D01*
X500Y-99500D01*
X19407Y-41309D01*
X68907Y-5345D01*
X99500Y-500D01*
X33900500Y-500D01*
X33958691Y-19407D01*
G37*
%TD.AperFunction*%
%TD*%
M02*
