M48
; DRILL file KiCad 10.0.6 date 2026-09-08T15:26:32
; FORMAT={-:-/ absolute / metric / decimal}
; #@! TF.CreationDate,2026-09-08T15:26:32+05:30
; #@! TF.GenerationSoftware,Kicad,Pcbnew,10.0.6
; #@! TF.FileFunction,MixedPlating,1,2
FMAT,2
METRIC
; #@! TA.AperFunction,Plated,PTH,ViaDrill
T1C0.300
; #@! TA.AperFunction,Plated,PTH,ComponentDrill
T2C1.000
; #@! TA.AperFunction,Plated,PTH,ComponentDrill
T3C2.200
%
G90
G05
T1
X1.5Y-6.0
X1.5Y-9.0
X1.5Y-20.0
X1.5Y-23.0
X2.0Y-12.0
X2.0Y-17.0
X4.0Y-1.0
X4.0Y-17.0
X5.5Y-1.8
X5.8Y-19.5
X6.0Y-27.0
X7.8Y-8.5
X7.8Y-19.5
X9.8Y-8.5
X9.8Y-17.5
X10.0Y-27.0
X12.2Y-8.5
X13.0Y-1.0
X13.0Y-9.5
X13.0Y-26.0
X14.562Y-8.5
X15.5Y-9.5
X15.5Y-27.0
X16.5Y-12.0
X16.5Y-17.0
X19.0Y-20.5
X19.0Y-27.0
X21.0Y-12.0
X21.0Y-17.0
X22.5Y-12.0
X23.0Y-27.0
X23.5Y-17.0
X25.25Y-7.65
X26.0Y-17.0
X26.5Y-27.0
X28.5Y-12.0
X28.5Y-17.0
X29.5Y-27.0
X32.5Y-9.0
X32.5Y-20.0
X32.5Y-23.0
T2
X19.0Y-3.2
X21.54Y-3.2
T3
X2.5Y-2.5
X2.5Y-26.5
X31.5Y-2.5
X31.5Y-26.5
M30
