%TF.GenerationSoftware,KiCad,Pcbnew,10.0.6*%
%TF.CreationDate,2026-09-08T01:50:45+05:30*%
%TF.ProjectId,lna_fm_98mhz,6c6e615f-666d-45f3-9938-6d687a2e6b69,rev?*%
%TF.SameCoordinates,Original*%
%TF.FileFunction,Legend,Top*%
%TF.FilePolarity,Positive*%
%FSLAX46Y46*%
G04 Gerber Fmt 4.6, Leading zero omitted, Abs format (unit mm)*
G04 Created by KiCad (PCBNEW 10.0.6) date 2026-09-08 01:50:45*
%MOMM*%
%LPD*%
G01*
G04 APERTURE LIST*
%ADD10C,0.150000*%
%ADD11C,0.180000*%
%ADD12C,0.130000*%
%ADD13C,0.120000*%
G04 APERTURE END LIST*
D10*
X2996428Y-23885427D02*
X2996428Y-23035427D01*
X3401190Y-23885427D02*
X3401190Y-23035427D01*
X3401190Y-23035427D02*
X3886905Y-23885427D01*
X3886905Y-23885427D02*
X3886905Y-23035427D01*
X5344047Y-23035427D02*
X4939285Y-23035427D01*
X4939285Y-23035427D02*
X4898809Y-23440189D01*
X4898809Y-23440189D02*
X4939285Y-23399712D01*
X4939285Y-23399712D02*
X5020238Y-23359236D01*
X5020238Y-23359236D02*
X5222619Y-23359236D01*
X5222619Y-23359236D02*
X5303571Y-23399712D01*
X5303571Y-23399712D02*
X5344047Y-23440189D01*
X5344047Y-23440189D02*
X5384524Y-23521141D01*
X5384524Y-23521141D02*
X5384524Y-23723522D01*
X5384524Y-23723522D02*
X5344047Y-23804474D01*
X5344047Y-23804474D02*
X5303571Y-23844951D01*
X5303571Y-23844951D02*
X5222619Y-23885427D01*
X5222619Y-23885427D02*
X5020238Y-23885427D01*
X5020238Y-23885427D02*
X4939285Y-23844951D01*
X4939285Y-23844951D02*
X4898809Y-23804474D01*
X5910714Y-23035427D02*
X5991667Y-23035427D01*
X5991667Y-23035427D02*
X6072619Y-23075903D01*
X6072619Y-23075903D02*
X6113095Y-23116379D01*
X6113095Y-23116379D02*
X6153571Y-23197331D01*
X6153571Y-23197331D02*
X6194048Y-23359236D01*
X6194048Y-23359236D02*
X6194048Y-23561617D01*
X6194048Y-23561617D02*
X6153571Y-23723522D01*
X6153571Y-23723522D02*
X6113095Y-23804474D01*
X6113095Y-23804474D02*
X6072619Y-23844951D01*
X6072619Y-23844951D02*
X5991667Y-23885427D01*
X5991667Y-23885427D02*
X5910714Y-23885427D01*
X5910714Y-23885427D02*
X5829762Y-23844951D01*
X5829762Y-23844951D02*
X5789286Y-23804474D01*
X5789286Y-23804474D02*
X5748809Y-23723522D01*
X5748809Y-23723522D02*
X5708333Y-23561617D01*
X5708333Y-23561617D02*
X5708333Y-23359236D01*
X5708333Y-23359236D02*
X5748809Y-23197331D01*
X5748809Y-23197331D02*
X5789286Y-23116379D01*
X5789286Y-23116379D02*
X5829762Y-23075903D01*
X5829762Y-23075903D02*
X5910714Y-23035427D01*
X7044048Y-23885427D02*
X6760714Y-23480665D01*
X6558333Y-23885427D02*
X6558333Y-23035427D01*
X6558333Y-23035427D02*
X6882143Y-23035427D01*
X6882143Y-23035427D02*
X6963095Y-23075903D01*
X6963095Y-23075903D02*
X7003572Y-23116379D01*
X7003572Y-23116379D02*
X7044048Y-23197331D01*
X7044048Y-23197331D02*
X7044048Y-23318760D01*
X7044048Y-23318760D02*
X7003572Y-23399712D01*
X7003572Y-23399712D02*
X6963095Y-23440189D01*
X6963095Y-23440189D02*
X6882143Y-23480665D01*
X6882143Y-23480665D02*
X6558333Y-23480665D01*
X7326191Y-575903D02*
X7245238Y-535427D01*
X7245238Y-535427D02*
X7123810Y-535427D01*
X7123810Y-535427D02*
X7002381Y-575903D01*
X7002381Y-575903D02*
X6921429Y-656855D01*
X6921429Y-656855D02*
X6880952Y-737808D01*
X6880952Y-737808D02*
X6840476Y-899712D01*
X6840476Y-899712D02*
X6840476Y-1021141D01*
X6840476Y-1021141D02*
X6880952Y-1183046D01*
X6880952Y-1183046D02*
X6921429Y-1263998D01*
X6921429Y-1263998D02*
X7002381Y-1344951D01*
X7002381Y-1344951D02*
X7123810Y-1385427D01*
X7123810Y-1385427D02*
X7204762Y-1385427D01*
X7204762Y-1385427D02*
X7326191Y-1344951D01*
X7326191Y-1344951D02*
X7366667Y-1304474D01*
X7366667Y-1304474D02*
X7366667Y-1021141D01*
X7366667Y-1021141D02*
X7204762Y-1021141D01*
X7730952Y-1385427D02*
X7730952Y-535427D01*
X7730952Y-535427D02*
X8216667Y-1385427D01*
X8216667Y-1385427D02*
X8216667Y-535427D01*
X8621428Y-1385427D02*
X8621428Y-535427D01*
X8621428Y-535427D02*
X8823809Y-535427D01*
X8823809Y-535427D02*
X8945238Y-575903D01*
X8945238Y-575903D02*
X9026190Y-656855D01*
X9026190Y-656855D02*
X9066667Y-737808D01*
X9066667Y-737808D02*
X9107143Y-899712D01*
X9107143Y-899712D02*
X9107143Y-1021141D01*
X9107143Y-1021141D02*
X9066667Y-1183046D01*
X9066667Y-1183046D02*
X9026190Y-1263998D01*
X9026190Y-1263998D02*
X8945238Y-1344951D01*
X8945238Y-1344951D02*
X8823809Y-1385427D01*
X8823809Y-1385427D02*
X8621428Y-1385427D01*
X9471428Y-1061617D02*
X10119048Y-1061617D01*
X12386429Y-940189D02*
X12507857Y-980665D01*
X12507857Y-980665D02*
X12548334Y-1021141D01*
X12548334Y-1021141D02*
X12588810Y-1102093D01*
X12588810Y-1102093D02*
X12588810Y-1223522D01*
X12588810Y-1223522D02*
X12548334Y-1304474D01*
X12548334Y-1304474D02*
X12507857Y-1344951D01*
X12507857Y-1344951D02*
X12426905Y-1385427D01*
X12426905Y-1385427D02*
X12103095Y-1385427D01*
X12103095Y-1385427D02*
X12103095Y-535427D01*
X12103095Y-535427D02*
X12386429Y-535427D01*
X12386429Y-535427D02*
X12467381Y-575903D01*
X12467381Y-575903D02*
X12507857Y-616379D01*
X12507857Y-616379D02*
X12548334Y-697331D01*
X12548334Y-697331D02*
X12548334Y-778284D01*
X12548334Y-778284D02*
X12507857Y-859236D01*
X12507857Y-859236D02*
X12467381Y-899712D01*
X12467381Y-899712D02*
X12386429Y-940189D01*
X12386429Y-940189D02*
X12103095Y-940189D01*
X12912619Y-1142570D02*
X13317381Y-1142570D01*
X12831667Y-1385427D02*
X13115000Y-535427D01*
X13115000Y-535427D02*
X13398334Y-1385427D01*
X13560238Y-535427D02*
X14045952Y-535427D01*
X13803095Y-1385427D02*
X13803095Y-535427D01*
X14329285Y-1061617D02*
X14976905Y-1061617D01*
X14653095Y-1385427D02*
X14653095Y-737808D01*
X17373809Y-24440189D02*
X17495237Y-24480665D01*
X17495237Y-24480665D02*
X17535714Y-24521141D01*
X17535714Y-24521141D02*
X17576190Y-24602093D01*
X17576190Y-24602093D02*
X17576190Y-24723522D01*
X17576190Y-24723522D02*
X17535714Y-24804474D01*
X17535714Y-24804474D02*
X17495237Y-24844951D01*
X17495237Y-24844951D02*
X17414285Y-24885427D01*
X17414285Y-24885427D02*
X17090475Y-24885427D01*
X17090475Y-24885427D02*
X17090475Y-24035427D01*
X17090475Y-24035427D02*
X17373809Y-24035427D01*
X17373809Y-24035427D02*
X17454761Y-24075903D01*
X17454761Y-24075903D02*
X17495237Y-24116379D01*
X17495237Y-24116379D02*
X17535714Y-24197331D01*
X17535714Y-24197331D02*
X17535714Y-24278284D01*
X17535714Y-24278284D02*
X17495237Y-24359236D01*
X17495237Y-24359236D02*
X17454761Y-24399712D01*
X17454761Y-24399712D02*
X17373809Y-24440189D01*
X17373809Y-24440189D02*
X17090475Y-24440189D01*
X17940475Y-24885427D02*
X17940475Y-24035427D01*
X18304761Y-24642570D02*
X18709523Y-24642570D01*
X18223809Y-24885427D02*
X18507142Y-24035427D01*
X18507142Y-24035427D02*
X18790476Y-24885427D01*
X19033332Y-24844951D02*
X19154761Y-24885427D01*
X19154761Y-24885427D02*
X19357142Y-24885427D01*
X19357142Y-24885427D02*
X19438094Y-24844951D01*
X19438094Y-24844951D02*
X19478570Y-24804474D01*
X19478570Y-24804474D02*
X19519047Y-24723522D01*
X19519047Y-24723522D02*
X19519047Y-24642570D01*
X19519047Y-24642570D02*
X19478570Y-24561617D01*
X19478570Y-24561617D02*
X19438094Y-24521141D01*
X19438094Y-24521141D02*
X19357142Y-24480665D01*
X19357142Y-24480665D02*
X19195237Y-24440189D01*
X19195237Y-24440189D02*
X19114285Y-24399712D01*
X19114285Y-24399712D02*
X19073808Y-24359236D01*
X19073808Y-24359236D02*
X19033332Y-24278284D01*
X19033332Y-24278284D02*
X19033332Y-24197331D01*
X19033332Y-24197331D02*
X19073808Y-24116379D01*
X19073808Y-24116379D02*
X19114285Y-24075903D01*
X19114285Y-24075903D02*
X19195237Y-24035427D01*
X19195237Y-24035427D02*
X19397618Y-24035427D01*
X19397618Y-24035427D02*
X19519047Y-24075903D01*
X19883332Y-24561617D02*
X20530952Y-24561617D01*
X20814285Y-24035427D02*
X21299999Y-24035427D01*
X21057142Y-24885427D02*
X21057142Y-24035427D01*
X21583332Y-24440189D02*
X21866666Y-24440189D01*
X21988094Y-24885427D02*
X21583332Y-24885427D01*
X21583332Y-24885427D02*
X21583332Y-24035427D01*
X21583332Y-24035427D02*
X21988094Y-24035427D01*
X22352380Y-24440189D02*
X22635714Y-24440189D01*
X22757142Y-24885427D02*
X22352380Y-24885427D01*
X22352380Y-24885427D02*
X22352380Y-24035427D01*
X22352380Y-24035427D02*
X22757142Y-24035427D01*
X23769047Y-24440189D02*
X24052381Y-24440189D01*
X24173809Y-24885427D02*
X23769047Y-24885427D01*
X23769047Y-24885427D02*
X23769047Y-24035427D01*
X23769047Y-24035427D02*
X24173809Y-24035427D01*
X24538095Y-24885427D02*
X24538095Y-24035427D01*
X24538095Y-24035427D02*
X25023810Y-24885427D01*
X25023810Y-24885427D02*
X25023810Y-24035427D01*
X25388095Y-24642570D02*
X25792857Y-24642570D01*
X25307143Y-24885427D02*
X25590476Y-24035427D01*
X25590476Y-24035427D02*
X25873810Y-24885427D01*
X26440476Y-24440189D02*
X26561904Y-24480665D01*
X26561904Y-24480665D02*
X26602381Y-24521141D01*
X26602381Y-24521141D02*
X26642857Y-24602093D01*
X26642857Y-24602093D02*
X26642857Y-24723522D01*
X26642857Y-24723522D02*
X26602381Y-24804474D01*
X26602381Y-24804474D02*
X26561904Y-24844951D01*
X26561904Y-24844951D02*
X26480952Y-24885427D01*
X26480952Y-24885427D02*
X26157142Y-24885427D01*
X26157142Y-24885427D02*
X26157142Y-24035427D01*
X26157142Y-24035427D02*
X26440476Y-24035427D01*
X26440476Y-24035427D02*
X26521428Y-24075903D01*
X26521428Y-24075903D02*
X26561904Y-24116379D01*
X26561904Y-24116379D02*
X26602381Y-24197331D01*
X26602381Y-24197331D02*
X26602381Y-24278284D01*
X26602381Y-24278284D02*
X26561904Y-24359236D01*
X26561904Y-24359236D02*
X26521428Y-24399712D01*
X26521428Y-24399712D02*
X26440476Y-24440189D01*
X26440476Y-24440189D02*
X26157142Y-24440189D01*
X27411904Y-24885427D02*
X27007142Y-24885427D01*
X27007142Y-24885427D02*
X27007142Y-24035427D01*
X27695237Y-24440189D02*
X27978571Y-24440189D01*
X28099999Y-24885427D02*
X27695237Y-24885427D01*
X27695237Y-24885427D02*
X27695237Y-24035427D01*
X27695237Y-24035427D02*
X28099999Y-24035427D01*
X28464285Y-24885427D02*
X28464285Y-24035427D01*
X28464285Y-24035427D02*
X28666666Y-24035427D01*
X28666666Y-24035427D02*
X28788095Y-24075903D01*
X28788095Y-24075903D02*
X28869047Y-24156855D01*
X28869047Y-24156855D02*
X28909524Y-24237808D01*
X28909524Y-24237808D02*
X28950000Y-24399712D01*
X28950000Y-24399712D02*
X28950000Y-24521141D01*
X28950000Y-24521141D02*
X28909524Y-24683046D01*
X28909524Y-24683046D02*
X28869047Y-24763998D01*
X28869047Y-24763998D02*
X28788095Y-24844951D01*
X28788095Y-24844951D02*
X28666666Y-24885427D01*
X28666666Y-24885427D02*
X28464285Y-24885427D01*
X37591666Y-20535427D02*
X37753571Y-20535427D01*
X37753571Y-20535427D02*
X37834523Y-20575903D01*
X37834523Y-20575903D02*
X37915476Y-20656855D01*
X37915476Y-20656855D02*
X37955952Y-20818760D01*
X37955952Y-20818760D02*
X37955952Y-21102093D01*
X37955952Y-21102093D02*
X37915476Y-21263998D01*
X37915476Y-21263998D02*
X37834523Y-21344951D01*
X37834523Y-21344951D02*
X37753571Y-21385427D01*
X37753571Y-21385427D02*
X37591666Y-21385427D01*
X37591666Y-21385427D02*
X37510714Y-21344951D01*
X37510714Y-21344951D02*
X37429761Y-21263998D01*
X37429761Y-21263998D02*
X37389285Y-21102093D01*
X37389285Y-21102093D02*
X37389285Y-20818760D01*
X37389285Y-20818760D02*
X37429761Y-20656855D01*
X37429761Y-20656855D02*
X37510714Y-20575903D01*
X37510714Y-20575903D02*
X37591666Y-20535427D01*
X38320237Y-20535427D02*
X38320237Y-21223522D01*
X38320237Y-21223522D02*
X38360714Y-21304474D01*
X38360714Y-21304474D02*
X38401190Y-21344951D01*
X38401190Y-21344951D02*
X38482142Y-21385427D01*
X38482142Y-21385427D02*
X38644047Y-21385427D01*
X38644047Y-21385427D02*
X38724999Y-21344951D01*
X38724999Y-21344951D02*
X38765476Y-21304474D01*
X38765476Y-21304474D02*
X38805952Y-21223522D01*
X38805952Y-21223522D02*
X38805952Y-20535427D01*
X39089285Y-20535427D02*
X39574999Y-20535427D01*
X39332142Y-21385427D02*
X39332142Y-20535427D01*
X40910713Y-20535427D02*
X40505951Y-20535427D01*
X40505951Y-20535427D02*
X40465475Y-20940189D01*
X40465475Y-20940189D02*
X40505951Y-20899712D01*
X40505951Y-20899712D02*
X40586904Y-20859236D01*
X40586904Y-20859236D02*
X40789285Y-20859236D01*
X40789285Y-20859236D02*
X40870237Y-20899712D01*
X40870237Y-20899712D02*
X40910713Y-20940189D01*
X40910713Y-20940189D02*
X40951190Y-21021141D01*
X40951190Y-21021141D02*
X40951190Y-21223522D01*
X40951190Y-21223522D02*
X40910713Y-21304474D01*
X40910713Y-21304474D02*
X40870237Y-21344951D01*
X40870237Y-21344951D02*
X40789285Y-21385427D01*
X40789285Y-21385427D02*
X40586904Y-21385427D01*
X40586904Y-21385427D02*
X40505951Y-21344951D01*
X40505951Y-21344951D02*
X40465475Y-21304474D01*
X41477380Y-20535427D02*
X41558333Y-20535427D01*
X41558333Y-20535427D02*
X41639285Y-20575903D01*
X41639285Y-20575903D02*
X41679761Y-20616379D01*
X41679761Y-20616379D02*
X41720237Y-20697331D01*
X41720237Y-20697331D02*
X41760714Y-20859236D01*
X41760714Y-20859236D02*
X41760714Y-21061617D01*
X41760714Y-21061617D02*
X41720237Y-21223522D01*
X41720237Y-21223522D02*
X41679761Y-21304474D01*
X41679761Y-21304474D02*
X41639285Y-21344951D01*
X41639285Y-21344951D02*
X41558333Y-21385427D01*
X41558333Y-21385427D02*
X41477380Y-21385427D01*
X41477380Y-21385427D02*
X41396428Y-21344951D01*
X41396428Y-21344951D02*
X41355952Y-21304474D01*
X41355952Y-21304474D02*
X41315475Y-21223522D01*
X41315475Y-21223522D02*
X41274999Y-21061617D01*
X41274999Y-21061617D02*
X41274999Y-20859236D01*
X41274999Y-20859236D02*
X41315475Y-20697331D01*
X41315475Y-20697331D02*
X41355952Y-20616379D01*
X41355952Y-20616379D02*
X41396428Y-20575903D01*
X41396428Y-20575903D02*
X41477380Y-20535427D01*
X42610714Y-21385427D02*
X42327380Y-20980665D01*
X42124999Y-21385427D02*
X42124999Y-20535427D01*
X42124999Y-20535427D02*
X42448809Y-20535427D01*
X42448809Y-20535427D02*
X42529761Y-20575903D01*
X42529761Y-20575903D02*
X42570238Y-20616379D01*
X42570238Y-20616379D02*
X42610714Y-20697331D01*
X42610714Y-20697331D02*
X42610714Y-20818760D01*
X42610714Y-20818760D02*
X42570238Y-20899712D01*
X42570238Y-20899712D02*
X42529761Y-20940189D01*
X42529761Y-20940189D02*
X42448809Y-20980665D01*
X42448809Y-20980665D02*
X42124999Y-20980665D01*
X17835714Y-28408557D02*
X17835714Y-27508557D01*
X17835714Y-27508557D02*
X18135714Y-28151414D01*
X18135714Y-28151414D02*
X18435714Y-27508557D01*
X18435714Y-27508557D02*
X18435714Y-28408557D01*
X18864285Y-28408557D02*
X18864285Y-27508557D01*
X18864285Y-27508557D02*
X19164285Y-28151414D01*
X19164285Y-28151414D02*
X19464285Y-27508557D01*
X19464285Y-27508557D02*
X19464285Y-28408557D01*
X20192856Y-27937128D02*
X20321428Y-27979985D01*
X20321428Y-27979985D02*
X20364285Y-28022842D01*
X20364285Y-28022842D02*
X20407142Y-28108557D01*
X20407142Y-28108557D02*
X20407142Y-28237128D01*
X20407142Y-28237128D02*
X20364285Y-28322842D01*
X20364285Y-28322842D02*
X20321428Y-28365700D01*
X20321428Y-28365700D02*
X20235713Y-28408557D01*
X20235713Y-28408557D02*
X19892856Y-28408557D01*
X19892856Y-28408557D02*
X19892856Y-27508557D01*
X19892856Y-27508557D02*
X20192856Y-27508557D01*
X20192856Y-27508557D02*
X20278571Y-27551414D01*
X20278571Y-27551414D02*
X20321428Y-27594271D01*
X20321428Y-27594271D02*
X20364285Y-27679985D01*
X20364285Y-27679985D02*
X20364285Y-27765700D01*
X20364285Y-27765700D02*
X20321428Y-27851414D01*
X20321428Y-27851414D02*
X20278571Y-27894271D01*
X20278571Y-27894271D02*
X20192856Y-27937128D01*
X20192856Y-27937128D02*
X19892856Y-27937128D01*
X20664285Y-27508557D02*
X21178571Y-27508557D01*
X20921428Y-28408557D02*
X20921428Y-27508557D01*
X21907142Y-27508557D02*
X21478570Y-27508557D01*
X21478570Y-27508557D02*
X21435713Y-27937128D01*
X21435713Y-27937128D02*
X21478570Y-27894271D01*
X21478570Y-27894271D02*
X21564285Y-27851414D01*
X21564285Y-27851414D02*
X21778570Y-27851414D01*
X21778570Y-27851414D02*
X21864285Y-27894271D01*
X21864285Y-27894271D02*
X21907142Y-27937128D01*
X21907142Y-27937128D02*
X21949999Y-28022842D01*
X21949999Y-28022842D02*
X21949999Y-28237128D01*
X21949999Y-28237128D02*
X21907142Y-28322842D01*
X21907142Y-28322842D02*
X21864285Y-28365700D01*
X21864285Y-28365700D02*
X21778570Y-28408557D01*
X21778570Y-28408557D02*
X21564285Y-28408557D01*
X21564285Y-28408557D02*
X21478570Y-28365700D01*
X21478570Y-28365700D02*
X21435713Y-28322842D01*
X22807142Y-28408557D02*
X22292856Y-28408557D01*
X22549999Y-28408557D02*
X22549999Y-27508557D01*
X22549999Y-27508557D02*
X22464285Y-27637128D01*
X22464285Y-27637128D02*
X22378570Y-27722842D01*
X22378570Y-27722842D02*
X22292856Y-27765700D01*
X23107142Y-27508557D02*
X23707142Y-27508557D01*
X23707142Y-27508557D02*
X23321428Y-28408557D01*
X24092856Y-28408557D02*
X24264285Y-28408557D01*
X24264285Y-28408557D02*
X24349999Y-28365700D01*
X24349999Y-28365700D02*
X24392856Y-28322842D01*
X24392856Y-28322842D02*
X24478571Y-28194271D01*
X24478571Y-28194271D02*
X24521428Y-28022842D01*
X24521428Y-28022842D02*
X24521428Y-27679985D01*
X24521428Y-27679985D02*
X24478571Y-27594271D01*
X24478571Y-27594271D02*
X24435714Y-27551414D01*
X24435714Y-27551414D02*
X24349999Y-27508557D01*
X24349999Y-27508557D02*
X24178571Y-27508557D01*
X24178571Y-27508557D02*
X24092856Y-27551414D01*
X24092856Y-27551414D02*
X24049999Y-27594271D01*
X24049999Y-27594271D02*
X24007142Y-27679985D01*
X24007142Y-27679985D02*
X24007142Y-27894271D01*
X24007142Y-27894271D02*
X24049999Y-27979985D01*
X24049999Y-27979985D02*
X24092856Y-28022842D01*
X24092856Y-28022842D02*
X24178571Y-28065700D01*
X24178571Y-28065700D02*
X24349999Y-28065700D01*
X24349999Y-28065700D02*
X24435714Y-28022842D01*
X24435714Y-28022842D02*
X24478571Y-27979985D01*
X24478571Y-27979985D02*
X24521428Y-27894271D01*
X25849999Y-28751414D02*
X25807142Y-28708557D01*
X25807142Y-28708557D02*
X25721428Y-28579985D01*
X25721428Y-28579985D02*
X25678571Y-28494271D01*
X25678571Y-28494271D02*
X25635713Y-28365700D01*
X25635713Y-28365700D02*
X25592856Y-28151414D01*
X25592856Y-28151414D02*
X25592856Y-27979985D01*
X25592856Y-27979985D02*
X25635713Y-27765700D01*
X25635713Y-27765700D02*
X25678571Y-27637128D01*
X25678571Y-27637128D02*
X25721428Y-27551414D01*
X25721428Y-27551414D02*
X25807142Y-27422842D01*
X25807142Y-27422842D02*
X25849999Y-27379985D01*
X26707142Y-28322842D02*
X26664285Y-28365700D01*
X26664285Y-28365700D02*
X26535713Y-28408557D01*
X26535713Y-28408557D02*
X26449999Y-28408557D01*
X26449999Y-28408557D02*
X26321428Y-28365700D01*
X26321428Y-28365700D02*
X26235713Y-28279985D01*
X26235713Y-28279985D02*
X26192856Y-28194271D01*
X26192856Y-28194271D02*
X26149999Y-28022842D01*
X26149999Y-28022842D02*
X26149999Y-27894271D01*
X26149999Y-27894271D02*
X26192856Y-27722842D01*
X26192856Y-27722842D02*
X26235713Y-27637128D01*
X26235713Y-27637128D02*
X26321428Y-27551414D01*
X26321428Y-27551414D02*
X26449999Y-27508557D01*
X26449999Y-27508557D02*
X26535713Y-27508557D01*
X26535713Y-27508557D02*
X26664285Y-27551414D01*
X26664285Y-27551414D02*
X26707142Y-27594271D01*
X27392856Y-27937128D02*
X27521428Y-27979985D01*
X27521428Y-27979985D02*
X27564285Y-28022842D01*
X27564285Y-28022842D02*
X27607142Y-28108557D01*
X27607142Y-28108557D02*
X27607142Y-28237128D01*
X27607142Y-28237128D02*
X27564285Y-28322842D01*
X27564285Y-28322842D02*
X27521428Y-28365700D01*
X27521428Y-28365700D02*
X27435713Y-28408557D01*
X27435713Y-28408557D02*
X27092856Y-28408557D01*
X27092856Y-28408557D02*
X27092856Y-27508557D01*
X27092856Y-27508557D02*
X27392856Y-27508557D01*
X27392856Y-27508557D02*
X27478571Y-27551414D01*
X27478571Y-27551414D02*
X27521428Y-27594271D01*
X27521428Y-27594271D02*
X27564285Y-27679985D01*
X27564285Y-27679985D02*
X27564285Y-27765700D01*
X27564285Y-27765700D02*
X27521428Y-27851414D01*
X27521428Y-27851414D02*
X27478571Y-27894271D01*
X27478571Y-27894271D02*
X27392856Y-27937128D01*
X27392856Y-27937128D02*
X27092856Y-27937128D01*
X27907142Y-28751414D02*
X27949999Y-28708557D01*
X27949999Y-28708557D02*
X28035713Y-28579985D01*
X28035713Y-28579985D02*
X28078571Y-28494271D01*
X28078571Y-28494271D02*
X28121428Y-28365700D01*
X28121428Y-28365700D02*
X28164285Y-28151414D01*
X28164285Y-28151414D02*
X28164285Y-27979985D01*
X28164285Y-27979985D02*
X28121428Y-27765700D01*
X28121428Y-27765700D02*
X28078571Y-27637128D01*
X28078571Y-27637128D02*
X28035713Y-27551414D01*
X28035713Y-27551414D02*
X27949999Y-27422842D01*
X27949999Y-27422842D02*
X27907142Y-27379985D01*
D11*
X16657142Y-26745782D02*
X16885713Y-26745782D01*
X16885713Y-26745782D02*
X16999999Y-26688640D01*
X16999999Y-26688640D02*
X17057142Y-26631497D01*
X17057142Y-26631497D02*
X17171427Y-26460068D01*
X17171427Y-26460068D02*
X17228570Y-26231497D01*
X17228570Y-26231497D02*
X17228570Y-25774354D01*
X17228570Y-25774354D02*
X17171427Y-25660068D01*
X17171427Y-25660068D02*
X17114285Y-25602925D01*
X17114285Y-25602925D02*
X16999999Y-25545782D01*
X16999999Y-25545782D02*
X16771427Y-25545782D01*
X16771427Y-25545782D02*
X16657142Y-25602925D01*
X16657142Y-25602925D02*
X16599999Y-25660068D01*
X16599999Y-25660068D02*
X16542856Y-25774354D01*
X16542856Y-25774354D02*
X16542856Y-26060068D01*
X16542856Y-26060068D02*
X16599999Y-26174354D01*
X16599999Y-26174354D02*
X16657142Y-26231497D01*
X16657142Y-26231497D02*
X16771427Y-26288640D01*
X16771427Y-26288640D02*
X16999999Y-26288640D01*
X16999999Y-26288640D02*
X17114285Y-26231497D01*
X17114285Y-26231497D02*
X17171427Y-26174354D01*
X17171427Y-26174354D02*
X17228570Y-26060068D01*
X17914284Y-26060068D02*
X17799999Y-26002925D01*
X17799999Y-26002925D02*
X17742856Y-25945782D01*
X17742856Y-25945782D02*
X17685713Y-25831497D01*
X17685713Y-25831497D02*
X17685713Y-25774354D01*
X17685713Y-25774354D02*
X17742856Y-25660068D01*
X17742856Y-25660068D02*
X17799999Y-25602925D01*
X17799999Y-25602925D02*
X17914284Y-25545782D01*
X17914284Y-25545782D02*
X18142856Y-25545782D01*
X18142856Y-25545782D02*
X18257142Y-25602925D01*
X18257142Y-25602925D02*
X18314284Y-25660068D01*
X18314284Y-25660068D02*
X18371427Y-25774354D01*
X18371427Y-25774354D02*
X18371427Y-25831497D01*
X18371427Y-25831497D02*
X18314284Y-25945782D01*
X18314284Y-25945782D02*
X18257142Y-26002925D01*
X18257142Y-26002925D02*
X18142856Y-26060068D01*
X18142856Y-26060068D02*
X17914284Y-26060068D01*
X17914284Y-26060068D02*
X17799999Y-26117211D01*
X17799999Y-26117211D02*
X17742856Y-26174354D01*
X17742856Y-26174354D02*
X17685713Y-26288640D01*
X17685713Y-26288640D02*
X17685713Y-26517211D01*
X17685713Y-26517211D02*
X17742856Y-26631497D01*
X17742856Y-26631497D02*
X17799999Y-26688640D01*
X17799999Y-26688640D02*
X17914284Y-26745782D01*
X17914284Y-26745782D02*
X18142856Y-26745782D01*
X18142856Y-26745782D02*
X18257142Y-26688640D01*
X18257142Y-26688640D02*
X18314284Y-26631497D01*
X18314284Y-26631497D02*
X18371427Y-26517211D01*
X18371427Y-26517211D02*
X18371427Y-26288640D01*
X18371427Y-26288640D02*
X18314284Y-26174354D01*
X18314284Y-26174354D02*
X18257142Y-26117211D01*
X18257142Y-26117211D02*
X18142856Y-26060068D01*
X18885713Y-26745782D02*
X18885713Y-25545782D01*
X18885713Y-25545782D02*
X19285713Y-26402925D01*
X19285713Y-26402925D02*
X19685713Y-25545782D01*
X19685713Y-25545782D02*
X19685713Y-26745782D01*
X20257142Y-26745782D02*
X20257142Y-25545782D01*
X20257142Y-26117211D02*
X20942856Y-26117211D01*
X20942856Y-26745782D02*
X20942856Y-25545782D01*
X21399999Y-25945782D02*
X22028571Y-25945782D01*
X22028571Y-25945782D02*
X21399999Y-26745782D01*
X21399999Y-26745782D02*
X22028571Y-26745782D01*
X23800000Y-26117211D02*
X23400000Y-26117211D01*
X23400000Y-26745782D02*
X23400000Y-25545782D01*
X23400000Y-25545782D02*
X23971428Y-25545782D01*
X24428571Y-26745782D02*
X24428571Y-25545782D01*
X24428571Y-25545782D02*
X24828571Y-26402925D01*
X24828571Y-26402925D02*
X25228571Y-25545782D01*
X25228571Y-25545782D02*
X25228571Y-26745782D01*
X27285714Y-26745782D02*
X26714286Y-26745782D01*
X26714286Y-26745782D02*
X26714286Y-25545782D01*
X27685715Y-26745782D02*
X27685715Y-25545782D01*
X27685715Y-25545782D02*
X28371429Y-26745782D01*
X28371429Y-26745782D02*
X28371429Y-25545782D01*
X28885715Y-26402925D02*
X29457144Y-26402925D01*
X28771429Y-26745782D02*
X29171429Y-25545782D01*
X29171429Y-25545782D02*
X29571429Y-26745782D01*
D12*
X34963335Y-10133333D02*
X34963335Y-10514285D01*
X34963335Y-10514285D02*
X34163335Y-10514285D01*
X34430001Y-9523809D02*
X34963335Y-9523809D01*
X34125240Y-9714285D02*
X34696668Y-9904762D01*
X34696668Y-9904762D02*
X34696668Y-9409523D01*
X10163335Y-17633333D02*
X10163335Y-18014285D01*
X10163335Y-18014285D02*
X9363335Y-18014285D01*
X10163335Y-16947619D02*
X10163335Y-17404762D01*
X10163335Y-17176190D02*
X9363335Y-17176190D01*
X9363335Y-17176190D02*
X9477620Y-17252381D01*
X9477620Y-17252381D02*
X9553811Y-17328571D01*
X9553811Y-17328571D02*
X9591906Y-17404762D01*
X22687144Y-8014285D02*
X22725240Y-8052381D01*
X22725240Y-8052381D02*
X22763335Y-8166666D01*
X22763335Y-8166666D02*
X22763335Y-8242857D01*
X22763335Y-8242857D02*
X22725240Y-8357143D01*
X22725240Y-8357143D02*
X22649049Y-8433333D01*
X22649049Y-8433333D02*
X22572859Y-8471428D01*
X22572859Y-8471428D02*
X22420478Y-8509524D01*
X22420478Y-8509524D02*
X22306192Y-8509524D01*
X22306192Y-8509524D02*
X22153811Y-8471428D01*
X22153811Y-8471428D02*
X22077620Y-8433333D01*
X22077620Y-8433333D02*
X22001430Y-8357143D01*
X22001430Y-8357143D02*
X21963335Y-8242857D01*
X21963335Y-8242857D02*
X21963335Y-8166666D01*
X21963335Y-8166666D02*
X22001430Y-8052381D01*
X22001430Y-8052381D02*
X22039525Y-8014285D01*
X22763335Y-7252381D02*
X22763335Y-7709524D01*
X22763335Y-7480952D02*
X21963335Y-7480952D01*
X21963335Y-7480952D02*
X22077620Y-7557143D01*
X22077620Y-7557143D02*
X22153811Y-7633333D01*
X22153811Y-7633333D02*
X22191906Y-7709524D01*
X22763335Y-6490476D02*
X22763335Y-6947619D01*
X22763335Y-6719047D02*
X21963335Y-6719047D01*
X21963335Y-6719047D02*
X22077620Y-6795238D01*
X22077620Y-6795238D02*
X22153811Y-6871428D01*
X22153811Y-6871428D02*
X22191906Y-6947619D01*
X11366667Y-14587144D02*
X11328571Y-14625240D01*
X11328571Y-14625240D02*
X11214286Y-14663335D01*
X11214286Y-14663335D02*
X11138095Y-14663335D01*
X11138095Y-14663335D02*
X11023809Y-14625240D01*
X11023809Y-14625240D02*
X10947619Y-14549049D01*
X10947619Y-14549049D02*
X10909524Y-14472859D01*
X10909524Y-14472859D02*
X10871428Y-14320478D01*
X10871428Y-14320478D02*
X10871428Y-14206192D01*
X10871428Y-14206192D02*
X10909524Y-14053811D01*
X10909524Y-14053811D02*
X10947619Y-13977620D01*
X10947619Y-13977620D02*
X11023809Y-13901430D01*
X11023809Y-13901430D02*
X11138095Y-13863335D01*
X11138095Y-13863335D02*
X11214286Y-13863335D01*
X11214286Y-13863335D02*
X11328571Y-13901430D01*
X11328571Y-13901430D02*
X11366667Y-13939525D01*
X12128571Y-14663335D02*
X11671428Y-14663335D01*
X11900000Y-14663335D02*
X11900000Y-13863335D01*
X11900000Y-13863335D02*
X11823809Y-13977620D01*
X11823809Y-13977620D02*
X11747619Y-14053811D01*
X11747619Y-14053811D02*
X11671428Y-14091906D01*
X5487144Y-18633332D02*
X5525240Y-18671428D01*
X5525240Y-18671428D02*
X5563335Y-18785713D01*
X5563335Y-18785713D02*
X5563335Y-18861904D01*
X5563335Y-18861904D02*
X5525240Y-18976190D01*
X5525240Y-18976190D02*
X5449049Y-19052380D01*
X5449049Y-19052380D02*
X5372859Y-19090475D01*
X5372859Y-19090475D02*
X5220478Y-19128571D01*
X5220478Y-19128571D02*
X5106192Y-19128571D01*
X5106192Y-19128571D02*
X4953811Y-19090475D01*
X4953811Y-19090475D02*
X4877620Y-19052380D01*
X4877620Y-19052380D02*
X4801430Y-18976190D01*
X4801430Y-18976190D02*
X4763335Y-18861904D01*
X4763335Y-18861904D02*
X4763335Y-18785713D01*
X4763335Y-18785713D02*
X4801430Y-18671428D01*
X4801430Y-18671428D02*
X4839525Y-18633332D01*
X4839525Y-18328571D02*
X4801430Y-18290475D01*
X4801430Y-18290475D02*
X4763335Y-18214285D01*
X4763335Y-18214285D02*
X4763335Y-18023809D01*
X4763335Y-18023809D02*
X4801430Y-17947618D01*
X4801430Y-17947618D02*
X4839525Y-17909523D01*
X4839525Y-17909523D02*
X4915716Y-17871428D01*
X4915716Y-17871428D02*
X4991906Y-17871428D01*
X4991906Y-17871428D02*
X5106192Y-17909523D01*
X5106192Y-17909523D02*
X5563335Y-18366666D01*
X5563335Y-18366666D02*
X5563335Y-17871428D01*
X13787144Y-12933332D02*
X13825240Y-12971428D01*
X13825240Y-12971428D02*
X13863335Y-13085713D01*
X13863335Y-13085713D02*
X13863335Y-13161904D01*
X13863335Y-13161904D02*
X13825240Y-13276190D01*
X13825240Y-13276190D02*
X13749049Y-13352380D01*
X13749049Y-13352380D02*
X13672859Y-13390475D01*
X13672859Y-13390475D02*
X13520478Y-13428571D01*
X13520478Y-13428571D02*
X13406192Y-13428571D01*
X13406192Y-13428571D02*
X13253811Y-13390475D01*
X13253811Y-13390475D02*
X13177620Y-13352380D01*
X13177620Y-13352380D02*
X13101430Y-13276190D01*
X13101430Y-13276190D02*
X13063335Y-13161904D01*
X13063335Y-13161904D02*
X13063335Y-13085713D01*
X13063335Y-13085713D02*
X13101430Y-12971428D01*
X13101430Y-12971428D02*
X13139525Y-12933332D01*
X13330001Y-12247618D02*
X13863335Y-12247618D01*
X13025240Y-12438094D02*
X13596668Y-12628571D01*
X13596668Y-12628571D02*
X13596668Y-12133332D01*
X38866667Y-11787144D02*
X38828571Y-11825240D01*
X38828571Y-11825240D02*
X38714286Y-11863335D01*
X38714286Y-11863335D02*
X38638095Y-11863335D01*
X38638095Y-11863335D02*
X38523809Y-11825240D01*
X38523809Y-11825240D02*
X38447619Y-11749049D01*
X38447619Y-11749049D02*
X38409524Y-11672859D01*
X38409524Y-11672859D02*
X38371428Y-11520478D01*
X38371428Y-11520478D02*
X38371428Y-11406192D01*
X38371428Y-11406192D02*
X38409524Y-11253811D01*
X38409524Y-11253811D02*
X38447619Y-11177620D01*
X38447619Y-11177620D02*
X38523809Y-11101430D01*
X38523809Y-11101430D02*
X38638095Y-11063335D01*
X38638095Y-11063335D02*
X38714286Y-11063335D01*
X38714286Y-11063335D02*
X38828571Y-11101430D01*
X38828571Y-11101430D02*
X38866667Y-11139525D01*
X39247619Y-11863335D02*
X39400000Y-11863335D01*
X39400000Y-11863335D02*
X39476190Y-11825240D01*
X39476190Y-11825240D02*
X39514286Y-11787144D01*
X39514286Y-11787144D02*
X39590476Y-11672859D01*
X39590476Y-11672859D02*
X39628571Y-11520478D01*
X39628571Y-11520478D02*
X39628571Y-11215716D01*
X39628571Y-11215716D02*
X39590476Y-11139525D01*
X39590476Y-11139525D02*
X39552381Y-11101430D01*
X39552381Y-11101430D02*
X39476190Y-11063335D01*
X39476190Y-11063335D02*
X39323809Y-11063335D01*
X39323809Y-11063335D02*
X39247619Y-11101430D01*
X39247619Y-11101430D02*
X39209524Y-11139525D01*
X39209524Y-11139525D02*
X39171428Y-11215716D01*
X39171428Y-11215716D02*
X39171428Y-11406192D01*
X39171428Y-11406192D02*
X39209524Y-11482382D01*
X39209524Y-11482382D02*
X39247619Y-11520478D01*
X39247619Y-11520478D02*
X39323809Y-11558573D01*
X39323809Y-11558573D02*
X39476190Y-11558573D01*
X39476190Y-11558573D02*
X39552381Y-11520478D01*
X39552381Y-11520478D02*
X39590476Y-11482382D01*
X39590476Y-11482382D02*
X39628571Y-11406192D01*
X32563335Y-2466666D02*
X33134763Y-2466666D01*
X33134763Y-2466666D02*
X33249049Y-2504761D01*
X33249049Y-2504761D02*
X33325240Y-2580952D01*
X33325240Y-2580952D02*
X33363335Y-2695237D01*
X33363335Y-2695237D02*
X33363335Y-2771428D01*
X33363335Y-2085713D02*
X32563335Y-2085713D01*
X32563335Y-2085713D02*
X32563335Y-1780951D01*
X32563335Y-1780951D02*
X32601430Y-1704761D01*
X32601430Y-1704761D02*
X32639525Y-1666666D01*
X32639525Y-1666666D02*
X32715716Y-1628570D01*
X32715716Y-1628570D02*
X32830001Y-1628570D01*
X32830001Y-1628570D02*
X32906192Y-1666666D01*
X32906192Y-1666666D02*
X32944287Y-1704761D01*
X32944287Y-1704761D02*
X32982382Y-1780951D01*
X32982382Y-1780951D02*
X32982382Y-2085713D01*
X33363335Y-866666D02*
X33363335Y-1323809D01*
X33363335Y-1095237D02*
X32563335Y-1095237D01*
X32563335Y-1095237D02*
X32677620Y-1171428D01*
X32677620Y-1171428D02*
X32753811Y-1247618D01*
X32753811Y-1247618D02*
X32791906Y-1323809D01*
X36363335Y-8390475D02*
X35563335Y-8390475D01*
X35563335Y-8390475D02*
X35563335Y-8199999D01*
X35563335Y-8199999D02*
X35601430Y-8085713D01*
X35601430Y-8085713D02*
X35677620Y-8009523D01*
X35677620Y-8009523D02*
X35753811Y-7971428D01*
X35753811Y-7971428D02*
X35906192Y-7933332D01*
X35906192Y-7933332D02*
X36020478Y-7933332D01*
X36020478Y-7933332D02*
X36172859Y-7971428D01*
X36172859Y-7971428D02*
X36249049Y-8009523D01*
X36249049Y-8009523D02*
X36325240Y-8085713D01*
X36325240Y-8085713D02*
X36363335Y-8199999D01*
X36363335Y-8199999D02*
X36363335Y-8390475D01*
X35639525Y-7628571D02*
X35601430Y-7590475D01*
X35601430Y-7590475D02*
X35563335Y-7514285D01*
X35563335Y-7514285D02*
X35563335Y-7323809D01*
X35563335Y-7323809D02*
X35601430Y-7247618D01*
X35601430Y-7247618D02*
X35639525Y-7209523D01*
X35639525Y-7209523D02*
X35715716Y-7171428D01*
X35715716Y-7171428D02*
X35791906Y-7171428D01*
X35791906Y-7171428D02*
X35906192Y-7209523D01*
X35906192Y-7209523D02*
X36363335Y-7666666D01*
X36363335Y-7666666D02*
X36363335Y-7171428D01*
X17909524Y-5563335D02*
X17909524Y-4763335D01*
X17909524Y-4763335D02*
X18100000Y-4763335D01*
X18100000Y-4763335D02*
X18214286Y-4801430D01*
X18214286Y-4801430D02*
X18290476Y-4877620D01*
X18290476Y-4877620D02*
X18328571Y-4953811D01*
X18328571Y-4953811D02*
X18366667Y-5106192D01*
X18366667Y-5106192D02*
X18366667Y-5220478D01*
X18366667Y-5220478D02*
X18328571Y-5372859D01*
X18328571Y-5372859D02*
X18290476Y-5449049D01*
X18290476Y-5449049D02*
X18214286Y-5525240D01*
X18214286Y-5525240D02*
X18100000Y-5563335D01*
X18100000Y-5563335D02*
X17909524Y-5563335D01*
X19128571Y-5563335D02*
X18671428Y-5563335D01*
X18900000Y-5563335D02*
X18900000Y-4763335D01*
X18900000Y-4763335D02*
X18823809Y-4877620D01*
X18823809Y-4877620D02*
X18747619Y-4953811D01*
X18747619Y-4953811D02*
X18671428Y-4991906D01*
X16363335Y-24633332D02*
X15982382Y-24899999D01*
X16363335Y-25090475D02*
X15563335Y-25090475D01*
X15563335Y-25090475D02*
X15563335Y-24785713D01*
X15563335Y-24785713D02*
X15601430Y-24709523D01*
X15601430Y-24709523D02*
X15639525Y-24671428D01*
X15639525Y-24671428D02*
X15715716Y-24633332D01*
X15715716Y-24633332D02*
X15830001Y-24633332D01*
X15830001Y-24633332D02*
X15906192Y-24671428D01*
X15906192Y-24671428D02*
X15944287Y-24709523D01*
X15944287Y-24709523D02*
X15982382Y-24785713D01*
X15982382Y-24785713D02*
X15982382Y-25090475D01*
X15563335Y-24366666D02*
X15563335Y-23871428D01*
X15563335Y-23871428D02*
X15868097Y-24138094D01*
X15868097Y-24138094D02*
X15868097Y-24023809D01*
X15868097Y-24023809D02*
X15906192Y-23947618D01*
X15906192Y-23947618D02*
X15944287Y-23909523D01*
X15944287Y-23909523D02*
X16020478Y-23871428D01*
X16020478Y-23871428D02*
X16210954Y-23871428D01*
X16210954Y-23871428D02*
X16287144Y-23909523D01*
X16287144Y-23909523D02*
X16325240Y-23947618D01*
X16325240Y-23947618D02*
X16363335Y-24023809D01*
X16363335Y-24023809D02*
X16363335Y-24252380D01*
X16363335Y-24252380D02*
X16325240Y-24328571D01*
X16325240Y-24328571D02*
X16287144Y-24366666D01*
X5163335Y-8633332D02*
X4782382Y-8899999D01*
X5163335Y-9090475D02*
X4363335Y-9090475D01*
X4363335Y-9090475D02*
X4363335Y-8785713D01*
X4363335Y-8785713D02*
X4401430Y-8709523D01*
X4401430Y-8709523D02*
X4439525Y-8671428D01*
X4439525Y-8671428D02*
X4515716Y-8633332D01*
X4515716Y-8633332D02*
X4630001Y-8633332D01*
X4630001Y-8633332D02*
X4706192Y-8671428D01*
X4706192Y-8671428D02*
X4744287Y-8709523D01*
X4744287Y-8709523D02*
X4782382Y-8785713D01*
X4782382Y-8785713D02*
X4782382Y-9090475D01*
X5163335Y-7871428D02*
X5163335Y-8328571D01*
X5163335Y-8099999D02*
X4363335Y-8099999D01*
X4363335Y-8099999D02*
X4477620Y-8176190D01*
X4477620Y-8176190D02*
X4553811Y-8252380D01*
X4553811Y-8252380D02*
X4591906Y-8328571D01*
X11287144Y-12933332D02*
X11325240Y-12971428D01*
X11325240Y-12971428D02*
X11363335Y-13085713D01*
X11363335Y-13085713D02*
X11363335Y-13161904D01*
X11363335Y-13161904D02*
X11325240Y-13276190D01*
X11325240Y-13276190D02*
X11249049Y-13352380D01*
X11249049Y-13352380D02*
X11172859Y-13390475D01*
X11172859Y-13390475D02*
X11020478Y-13428571D01*
X11020478Y-13428571D02*
X10906192Y-13428571D01*
X10906192Y-13428571D02*
X10753811Y-13390475D01*
X10753811Y-13390475D02*
X10677620Y-13352380D01*
X10677620Y-13352380D02*
X10601430Y-13276190D01*
X10601430Y-13276190D02*
X10563335Y-13161904D01*
X10563335Y-13161904D02*
X10563335Y-13085713D01*
X10563335Y-13085713D02*
X10601430Y-12971428D01*
X10601430Y-12971428D02*
X10639525Y-12933332D01*
X10563335Y-12209523D02*
X10563335Y-12590475D01*
X10563335Y-12590475D02*
X10944287Y-12628571D01*
X10944287Y-12628571D02*
X10906192Y-12590475D01*
X10906192Y-12590475D02*
X10868097Y-12514285D01*
X10868097Y-12514285D02*
X10868097Y-12323809D01*
X10868097Y-12323809D02*
X10906192Y-12247618D01*
X10906192Y-12247618D02*
X10944287Y-12209523D01*
X10944287Y-12209523D02*
X11020478Y-12171428D01*
X11020478Y-12171428D02*
X11210954Y-12171428D01*
X11210954Y-12171428D02*
X11287144Y-12209523D01*
X11287144Y-12209523D02*
X11325240Y-12247618D01*
X11325240Y-12247618D02*
X11363335Y-12323809D01*
X11363335Y-12323809D02*
X11363335Y-12514285D01*
X11363335Y-12514285D02*
X11325240Y-12590475D01*
X11325240Y-12590475D02*
X11287144Y-12628571D01*
X18087144Y-10633332D02*
X18125240Y-10671428D01*
X18125240Y-10671428D02*
X18163335Y-10785713D01*
X18163335Y-10785713D02*
X18163335Y-10861904D01*
X18163335Y-10861904D02*
X18125240Y-10976190D01*
X18125240Y-10976190D02*
X18049049Y-11052380D01*
X18049049Y-11052380D02*
X17972859Y-11090475D01*
X17972859Y-11090475D02*
X17820478Y-11128571D01*
X17820478Y-11128571D02*
X17706192Y-11128571D01*
X17706192Y-11128571D02*
X17553811Y-11090475D01*
X17553811Y-11090475D02*
X17477620Y-11052380D01*
X17477620Y-11052380D02*
X17401430Y-10976190D01*
X17401430Y-10976190D02*
X17363335Y-10861904D01*
X17363335Y-10861904D02*
X17363335Y-10785713D01*
X17363335Y-10785713D02*
X17401430Y-10671428D01*
X17401430Y-10671428D02*
X17439525Y-10633332D01*
X17363335Y-10366666D02*
X17363335Y-9871428D01*
X17363335Y-9871428D02*
X17668097Y-10138094D01*
X17668097Y-10138094D02*
X17668097Y-10023809D01*
X17668097Y-10023809D02*
X17706192Y-9947618D01*
X17706192Y-9947618D02*
X17744287Y-9909523D01*
X17744287Y-9909523D02*
X17820478Y-9871428D01*
X17820478Y-9871428D02*
X18010954Y-9871428D01*
X18010954Y-9871428D02*
X18087144Y-9909523D01*
X18087144Y-9909523D02*
X18125240Y-9947618D01*
X18125240Y-9947618D02*
X18163335Y-10023809D01*
X18163335Y-10023809D02*
X18163335Y-10252380D01*
X18163335Y-10252380D02*
X18125240Y-10328571D01*
X18125240Y-10328571D02*
X18087144Y-10366666D01*
X8863335Y-12933332D02*
X8482382Y-13199999D01*
X8863335Y-13390475D02*
X8063335Y-13390475D01*
X8063335Y-13390475D02*
X8063335Y-13085713D01*
X8063335Y-13085713D02*
X8101430Y-13009523D01*
X8101430Y-13009523D02*
X8139525Y-12971428D01*
X8139525Y-12971428D02*
X8215716Y-12933332D01*
X8215716Y-12933332D02*
X8330001Y-12933332D01*
X8330001Y-12933332D02*
X8406192Y-12971428D01*
X8406192Y-12971428D02*
X8444287Y-13009523D01*
X8444287Y-13009523D02*
X8482382Y-13085713D01*
X8482382Y-13085713D02*
X8482382Y-13390475D01*
X8139525Y-12628571D02*
X8101430Y-12590475D01*
X8101430Y-12590475D02*
X8063335Y-12514285D01*
X8063335Y-12514285D02*
X8063335Y-12323809D01*
X8063335Y-12323809D02*
X8101430Y-12247618D01*
X8101430Y-12247618D02*
X8139525Y-12209523D01*
X8139525Y-12209523D02*
X8215716Y-12171428D01*
X8215716Y-12171428D02*
X8291906Y-12171428D01*
X8291906Y-12171428D02*
X8406192Y-12209523D01*
X8406192Y-12209523D02*
X8863335Y-12666666D01*
X8863335Y-12666666D02*
X8863335Y-12171428D01*
X25366667Y-17487144D02*
X25328571Y-17525240D01*
X25328571Y-17525240D02*
X25214286Y-17563335D01*
X25214286Y-17563335D02*
X25138095Y-17563335D01*
X25138095Y-17563335D02*
X25023809Y-17525240D01*
X25023809Y-17525240D02*
X24947619Y-17449049D01*
X24947619Y-17449049D02*
X24909524Y-17372859D01*
X24909524Y-17372859D02*
X24871428Y-17220478D01*
X24871428Y-17220478D02*
X24871428Y-17106192D01*
X24871428Y-17106192D02*
X24909524Y-16953811D01*
X24909524Y-16953811D02*
X24947619Y-16877620D01*
X24947619Y-16877620D02*
X25023809Y-16801430D01*
X25023809Y-16801430D02*
X25138095Y-16763335D01*
X25138095Y-16763335D02*
X25214286Y-16763335D01*
X25214286Y-16763335D02*
X25328571Y-16801430D01*
X25328571Y-16801430D02*
X25366667Y-16839525D01*
X25633333Y-16763335D02*
X26166667Y-16763335D01*
X26166667Y-16763335D02*
X25823809Y-17563335D01*
X16363335Y-20133333D02*
X16363335Y-20514285D01*
X16363335Y-20514285D02*
X15563335Y-20514285D01*
X15639525Y-19904762D02*
X15601430Y-19866666D01*
X15601430Y-19866666D02*
X15563335Y-19790476D01*
X15563335Y-19790476D02*
X15563335Y-19600000D01*
X15563335Y-19600000D02*
X15601430Y-19523809D01*
X15601430Y-19523809D02*
X15639525Y-19485714D01*
X15639525Y-19485714D02*
X15715716Y-19447619D01*
X15715716Y-19447619D02*
X15791906Y-19447619D01*
X15791906Y-19447619D02*
X15906192Y-19485714D01*
X15906192Y-19485714D02*
X16363335Y-19942857D01*
X16363335Y-19942857D02*
X16363335Y-19447619D01*
X22787144Y-18633332D02*
X22825240Y-18671428D01*
X22825240Y-18671428D02*
X22863335Y-18785713D01*
X22863335Y-18785713D02*
X22863335Y-18861904D01*
X22863335Y-18861904D02*
X22825240Y-18976190D01*
X22825240Y-18976190D02*
X22749049Y-19052380D01*
X22749049Y-19052380D02*
X22672859Y-19090475D01*
X22672859Y-19090475D02*
X22520478Y-19128571D01*
X22520478Y-19128571D02*
X22406192Y-19128571D01*
X22406192Y-19128571D02*
X22253811Y-19090475D01*
X22253811Y-19090475D02*
X22177620Y-19052380D01*
X22177620Y-19052380D02*
X22101430Y-18976190D01*
X22101430Y-18976190D02*
X22063335Y-18861904D01*
X22063335Y-18861904D02*
X22063335Y-18785713D01*
X22063335Y-18785713D02*
X22101430Y-18671428D01*
X22101430Y-18671428D02*
X22139525Y-18633332D01*
X22063335Y-17947618D02*
X22063335Y-18099999D01*
X22063335Y-18099999D02*
X22101430Y-18176190D01*
X22101430Y-18176190D02*
X22139525Y-18214285D01*
X22139525Y-18214285D02*
X22253811Y-18290475D01*
X22253811Y-18290475D02*
X22406192Y-18328571D01*
X22406192Y-18328571D02*
X22710954Y-18328571D01*
X22710954Y-18328571D02*
X22787144Y-18290475D01*
X22787144Y-18290475D02*
X22825240Y-18252380D01*
X22825240Y-18252380D02*
X22863335Y-18176190D01*
X22863335Y-18176190D02*
X22863335Y-18023809D01*
X22863335Y-18023809D02*
X22825240Y-17947618D01*
X22825240Y-17947618D02*
X22787144Y-17909523D01*
X22787144Y-17909523D02*
X22710954Y-17871428D01*
X22710954Y-17871428D02*
X22520478Y-17871428D01*
X22520478Y-17871428D02*
X22444287Y-17909523D01*
X22444287Y-17909523D02*
X22406192Y-17947618D01*
X22406192Y-17947618D02*
X22368097Y-18023809D01*
X22368097Y-18023809D02*
X22368097Y-18176190D01*
X22368097Y-18176190D02*
X22406192Y-18252380D01*
X22406192Y-18252380D02*
X22444287Y-18290475D01*
X22444287Y-18290475D02*
X22520478Y-18328571D01*
X22763335Y-10133333D02*
X22763335Y-10514285D01*
X22763335Y-10514285D02*
X21963335Y-10514285D01*
X21963335Y-9942857D02*
X21963335Y-9447619D01*
X21963335Y-9447619D02*
X22268097Y-9714285D01*
X22268097Y-9714285D02*
X22268097Y-9600000D01*
X22268097Y-9600000D02*
X22306192Y-9523809D01*
X22306192Y-9523809D02*
X22344287Y-9485714D01*
X22344287Y-9485714D02*
X22420478Y-9447619D01*
X22420478Y-9447619D02*
X22610954Y-9447619D01*
X22610954Y-9447619D02*
X22687144Y-9485714D01*
X22687144Y-9485714D02*
X22725240Y-9523809D01*
X22725240Y-9523809D02*
X22763335Y-9600000D01*
X22763335Y-9600000D02*
X22763335Y-9828571D01*
X22763335Y-9828571D02*
X22725240Y-9904762D01*
X22725240Y-9904762D02*
X22687144Y-9942857D01*
X27087144Y-5314285D02*
X27125240Y-5352381D01*
X27125240Y-5352381D02*
X27163335Y-5466666D01*
X27163335Y-5466666D02*
X27163335Y-5542857D01*
X27163335Y-5542857D02*
X27125240Y-5657143D01*
X27125240Y-5657143D02*
X27049049Y-5733333D01*
X27049049Y-5733333D02*
X26972859Y-5771428D01*
X26972859Y-5771428D02*
X26820478Y-5809524D01*
X26820478Y-5809524D02*
X26706192Y-5809524D01*
X26706192Y-5809524D02*
X26553811Y-5771428D01*
X26553811Y-5771428D02*
X26477620Y-5733333D01*
X26477620Y-5733333D02*
X26401430Y-5657143D01*
X26401430Y-5657143D02*
X26363335Y-5542857D01*
X26363335Y-5542857D02*
X26363335Y-5466666D01*
X26363335Y-5466666D02*
X26401430Y-5352381D01*
X26401430Y-5352381D02*
X26439525Y-5314285D01*
X27163335Y-4552381D02*
X27163335Y-5009524D01*
X27163335Y-4780952D02*
X26363335Y-4780952D01*
X26363335Y-4780952D02*
X26477620Y-4857143D01*
X26477620Y-4857143D02*
X26553811Y-4933333D01*
X26553811Y-4933333D02*
X26591906Y-5009524D01*
X26439525Y-4247619D02*
X26401430Y-4209523D01*
X26401430Y-4209523D02*
X26363335Y-4133333D01*
X26363335Y-4133333D02*
X26363335Y-3942857D01*
X26363335Y-3942857D02*
X26401430Y-3866666D01*
X26401430Y-3866666D02*
X26439525Y-3828571D01*
X26439525Y-3828571D02*
X26515716Y-3790476D01*
X26515716Y-3790476D02*
X26591906Y-3790476D01*
X26591906Y-3790476D02*
X26706192Y-3828571D01*
X26706192Y-3828571D02*
X27163335Y-4285714D01*
X27163335Y-4285714D02*
X27163335Y-3790476D01*
X18923809Y-17239525D02*
X18847619Y-17201430D01*
X18847619Y-17201430D02*
X18771428Y-17125240D01*
X18771428Y-17125240D02*
X18657142Y-17010954D01*
X18657142Y-17010954D02*
X18580952Y-16972859D01*
X18580952Y-16972859D02*
X18504761Y-16972859D01*
X18542857Y-17163335D02*
X18466666Y-17125240D01*
X18466666Y-17125240D02*
X18390476Y-17049049D01*
X18390476Y-17049049D02*
X18352380Y-16896668D01*
X18352380Y-16896668D02*
X18352380Y-16630001D01*
X18352380Y-16630001D02*
X18390476Y-16477620D01*
X18390476Y-16477620D02*
X18466666Y-16401430D01*
X18466666Y-16401430D02*
X18542857Y-16363335D01*
X18542857Y-16363335D02*
X18695238Y-16363335D01*
X18695238Y-16363335D02*
X18771428Y-16401430D01*
X18771428Y-16401430D02*
X18847619Y-16477620D01*
X18847619Y-16477620D02*
X18885714Y-16630001D01*
X18885714Y-16630001D02*
X18885714Y-16896668D01*
X18885714Y-16896668D02*
X18847619Y-17049049D01*
X18847619Y-17049049D02*
X18771428Y-17125240D01*
X18771428Y-17125240D02*
X18695238Y-17163335D01*
X18695238Y-17163335D02*
X18542857Y-17163335D01*
X19647618Y-17163335D02*
X19190475Y-17163335D01*
X19419047Y-17163335D02*
X19419047Y-16363335D01*
X19419047Y-16363335D02*
X19342856Y-16477620D01*
X19342856Y-16477620D02*
X19266666Y-16553811D01*
X19266666Y-16553811D02*
X19190475Y-16591906D01*
X38985714Y-6287144D02*
X38947618Y-6325240D01*
X38947618Y-6325240D02*
X38833333Y-6363335D01*
X38833333Y-6363335D02*
X38757142Y-6363335D01*
X38757142Y-6363335D02*
X38642856Y-6325240D01*
X38642856Y-6325240D02*
X38566666Y-6249049D01*
X38566666Y-6249049D02*
X38528571Y-6172859D01*
X38528571Y-6172859D02*
X38490475Y-6020478D01*
X38490475Y-6020478D02*
X38490475Y-5906192D01*
X38490475Y-5906192D02*
X38528571Y-5753811D01*
X38528571Y-5753811D02*
X38566666Y-5677620D01*
X38566666Y-5677620D02*
X38642856Y-5601430D01*
X38642856Y-5601430D02*
X38757142Y-5563335D01*
X38757142Y-5563335D02*
X38833333Y-5563335D01*
X38833333Y-5563335D02*
X38947618Y-5601430D01*
X38947618Y-5601430D02*
X38985714Y-5639525D01*
X39747618Y-6363335D02*
X39290475Y-6363335D01*
X39519047Y-6363335D02*
X39519047Y-5563335D01*
X39519047Y-5563335D02*
X39442856Y-5677620D01*
X39442856Y-5677620D02*
X39366666Y-5753811D01*
X39366666Y-5753811D02*
X39290475Y-5791906D01*
X40242857Y-5563335D02*
X40319047Y-5563335D01*
X40319047Y-5563335D02*
X40395238Y-5601430D01*
X40395238Y-5601430D02*
X40433333Y-5639525D01*
X40433333Y-5639525D02*
X40471428Y-5715716D01*
X40471428Y-5715716D02*
X40509523Y-5868097D01*
X40509523Y-5868097D02*
X40509523Y-6058573D01*
X40509523Y-6058573D02*
X40471428Y-6210954D01*
X40471428Y-6210954D02*
X40433333Y-6287144D01*
X40433333Y-6287144D02*
X40395238Y-6325240D01*
X40395238Y-6325240D02*
X40319047Y-6363335D01*
X40319047Y-6363335D02*
X40242857Y-6363335D01*
X40242857Y-6363335D02*
X40166666Y-6325240D01*
X40166666Y-6325240D02*
X40128571Y-6287144D01*
X40128571Y-6287144D02*
X40090476Y-6210954D01*
X40090476Y-6210954D02*
X40052380Y-6058573D01*
X40052380Y-6058573D02*
X40052380Y-5868097D01*
X40052380Y-5868097D02*
X40090476Y-5715716D01*
X40090476Y-5715716D02*
X40128571Y-5639525D01*
X40128571Y-5639525D02*
X40166666Y-5601430D01*
X40166666Y-5601430D02*
X40242857Y-5563335D01*
X32163335Y-10090475D02*
X31363335Y-10090475D01*
X31363335Y-10090475D02*
X31363335Y-9899999D01*
X31363335Y-9899999D02*
X31401430Y-9785713D01*
X31401430Y-9785713D02*
X31477620Y-9709523D01*
X31477620Y-9709523D02*
X31553811Y-9671428D01*
X31553811Y-9671428D02*
X31706192Y-9633332D01*
X31706192Y-9633332D02*
X31820478Y-9633332D01*
X31820478Y-9633332D02*
X31972859Y-9671428D01*
X31972859Y-9671428D02*
X32049049Y-9709523D01*
X32049049Y-9709523D02*
X32125240Y-9785713D01*
X32125240Y-9785713D02*
X32163335Y-9899999D01*
X32163335Y-9899999D02*
X32163335Y-10090475D01*
X31363335Y-9366666D02*
X31363335Y-8871428D01*
X31363335Y-8871428D02*
X31668097Y-9138094D01*
X31668097Y-9138094D02*
X31668097Y-9023809D01*
X31668097Y-9023809D02*
X31706192Y-8947618D01*
X31706192Y-8947618D02*
X31744287Y-8909523D01*
X31744287Y-8909523D02*
X31820478Y-8871428D01*
X31820478Y-8871428D02*
X32010954Y-8871428D01*
X32010954Y-8871428D02*
X32087144Y-8909523D01*
X32087144Y-8909523D02*
X32125240Y-8947618D01*
X32125240Y-8947618D02*
X32163335Y-9023809D01*
X32163335Y-9023809D02*
X32163335Y-9252380D01*
X32163335Y-9252380D02*
X32125240Y-9328571D01*
X32125240Y-9328571D02*
X32087144Y-9366666D01*
X31563335Y-6133332D02*
X31182382Y-6399999D01*
X31563335Y-6590475D02*
X30763335Y-6590475D01*
X30763335Y-6590475D02*
X30763335Y-6285713D01*
X30763335Y-6285713D02*
X30801430Y-6209523D01*
X30801430Y-6209523D02*
X30839525Y-6171428D01*
X30839525Y-6171428D02*
X30915716Y-6133332D01*
X30915716Y-6133332D02*
X31030001Y-6133332D01*
X31030001Y-6133332D02*
X31106192Y-6171428D01*
X31106192Y-6171428D02*
X31144287Y-6209523D01*
X31144287Y-6209523D02*
X31182382Y-6285713D01*
X31182382Y-6285713D02*
X31182382Y-6590475D01*
X31030001Y-5447618D02*
X31563335Y-5447618D01*
X30725240Y-5638094D02*
X31296668Y-5828571D01*
X31296668Y-5828571D02*
X31296668Y-5333332D01*
%TO.C,L4*%
D13*
X35490000Y-10162779D02*
X35490000Y-9837221D01*
X36510000Y-10162779D02*
X36510000Y-9837221D01*
%TO.C,L1*%
X7990000Y-17337221D02*
X7990000Y-17662779D01*
X9010000Y-17337221D02*
X9010000Y-17662779D01*
%TO.C,C11*%
X23265000Y-7238748D02*
X23265000Y-7761252D01*
X24735000Y-7238748D02*
X24735000Y-7761252D01*
%TO.C,C1*%
X11238748Y-15215000D02*
X11761252Y-15215000D01*
X11238748Y-16685000D02*
X11761252Y-16685000D01*
%TO.C,C2*%
X5990000Y-17359420D02*
X5990000Y-17640580D01*
X7010000Y-17359420D02*
X7010000Y-17640580D01*
%TO.C,C4*%
X12765000Y-10761252D02*
X12765000Y-10238748D01*
X14235000Y-10761252D02*
X14235000Y-10238748D01*
%TO.C,C9*%
X38738748Y-9265000D02*
X39261252Y-9265000D01*
X38738748Y-10735000D02*
X39261252Y-10735000D01*
%TO.C,JP1*%
X32000000Y-3600000D02*
X34000000Y-3600000D01*
X32000000Y-6400000D02*
X32000000Y-3600000D01*
X34000000Y-3600000D02*
X34000000Y-6400000D01*
X34000000Y-6400000D02*
X32000000Y-6400000D01*
%TO.C,D2*%
X35000000Y-2640000D02*
X35000000Y-6650000D01*
X37000000Y-2640000D02*
X35000000Y-2640000D01*
X37000000Y-2640000D02*
X37000000Y-6650000D01*
%TO.C,D1*%
X20860000Y-2500000D02*
X16850000Y-2500000D01*
X20860000Y-4500000D02*
X16850000Y-4500000D01*
X20860000Y-4500000D02*
X20860000Y-2500000D01*
%TO.C,R3*%
X14152500Y-24262742D02*
X14152500Y-24737258D01*
X15197500Y-24262742D02*
X15197500Y-24737258D01*
%TO.C,R1*%
X5477500Y-8737258D02*
X5477500Y-8262742D01*
X6522500Y-8737258D02*
X6522500Y-8262742D01*
%TO.C,C5*%
X10265000Y-10761252D02*
X10265000Y-10238748D01*
X11735000Y-10761252D02*
X11735000Y-10238748D01*
%TO.C,C3*%
X15327000Y-10761252D02*
X15327000Y-10238748D01*
X16797000Y-10761252D02*
X16797000Y-10238748D01*
%TO.C,R2*%
X7977500Y-10737258D02*
X7977500Y-10262742D01*
X9022500Y-10737258D02*
X9022500Y-10262742D01*
%TO.C,C7*%
X25238748Y-14265000D02*
X25761252Y-14265000D01*
X25238748Y-15735000D02*
X25761252Y-15735000D01*
%TO.C,J2*%
X41140000Y-14750000D02*
X41140000Y-15250000D01*
X41140000Y-15250000D02*
X41640000Y-15000000D01*
X41640000Y-15000000D02*
X41140000Y-14750000D01*
X42190000Y-14160000D02*
X42190000Y-13050000D01*
X42190000Y-16950000D02*
X42190000Y-15840000D01*
X45440000Y-14160000D02*
X45440000Y-13050000D01*
X45440000Y-16950000D02*
X45440000Y-15840000D01*
%TO.C,J1*%
X560000Y-13050000D02*
X560000Y-14160000D01*
X560000Y-15840000D02*
X560000Y-16950000D01*
X3810000Y-13050000D02*
X3810000Y-14160000D01*
X3810000Y-15840000D02*
X3810000Y-16950000D01*
X4360000Y-15000000D02*
X4860000Y-15250000D01*
X4860000Y-14750000D02*
X4360000Y-15000000D01*
X4860000Y-15250000D02*
X4860000Y-14750000D01*
%TO.C,L2*%
X14165000Y-19837221D02*
X14165000Y-20162779D01*
X15185000Y-19837221D02*
X15185000Y-20162779D01*
%TO.C,C6*%
X20265000Y-18238748D02*
X20265000Y-18761252D01*
X21735000Y-18238748D02*
X21735000Y-18761252D01*
%TO.C,J3*%
X9620000Y-2120000D02*
X9620000Y-4880000D01*
X12270000Y-2120000D02*
X9620000Y-2120000D01*
X12270000Y-2120000D02*
X12270000Y-4880000D01*
X12270000Y-4880000D02*
X9620000Y-4880000D01*
X13540000Y-2120000D02*
X14920000Y-2120000D01*
X14920000Y-2120000D02*
X14920000Y-3500000D01*
%TO.C,L3*%
X20490000Y-10162779D02*
X20490000Y-9837221D01*
X21510000Y-10162779D02*
X21510000Y-9837221D01*
%TO.C,C12*%
X26065000Y-7238748D02*
X26065000Y-7761252D01*
X27535000Y-7238748D02*
X27535000Y-7761252D01*
%TO.C,Q1*%
X16240000Y-13440000D02*
X17760000Y-13440000D01*
X16240000Y-13490000D02*
X16240000Y-13440000D01*
X16240000Y-15390000D02*
X16240000Y-14610000D01*
X16240000Y-16560000D02*
X16240000Y-16510000D01*
X17760000Y-13440000D02*
X17760000Y-14440000D01*
X17760000Y-15560000D02*
X17760000Y-16560000D01*
X17760000Y-16560000D02*
X16240000Y-16560000D01*
X15700000Y-14620000D02*
X15940000Y-14950000D01*
X15460000Y-14950000D01*
X15700000Y-14620000D01*
G36*
X15940000Y-14950000D02*
G01*
X15460000Y-14950000D01*
X15700000Y-14620000D01*
X15940000Y-14950000D01*
G37*
%TO.C,C10*%
X38738748Y-6765000D02*
X39261252Y-6765000D01*
X38738748Y-8235000D02*
X39261252Y-8235000D01*
%TO.C,D3*%
X28540000Y-8500000D02*
X28540000Y-11185000D01*
X28540000Y-11185000D02*
X30460000Y-11185000D01*
X30460000Y-11185000D02*
X30460000Y-8500000D01*
%TO.C,R4*%
X28977500Y-5762742D02*
X28977500Y-6237258D01*
X30022500Y-5762742D02*
X30022500Y-6237258D01*
%TD*%
M02*
