M48
; DRILL file KiCad 10.0.6 date 2026-09-07T03:31:09
; FORMAT={-:-/ absolute / metric / decimal}
; #@! TF.CreationDate,2026-09-07T03:31:09+05:30
; #@! TF.GenerationSoftware,Kicad,Pcbnew,10.0.6
; #@! TF.FileFunction,MixedPlating,1,2
FMAT,2
METRIC
; #@! TA.AperFunction,Plated,PTH,ViaDrill
T1C0.300
; #@! TA.AperFunction,Plated,PTH,ComponentDrill
T2C1.000
; #@! TA.AperFunction,Plated,PTH,ComponentDrill
T3C2.200
%
G90
G05
T1
X1.5Y-5.0
X1.5Y-9.0
X1.5Y-21.0
X1.5Y-25.0
X2.0Y-12.5
X2.0Y-17.5
X2.0Y-21.5
X3.5Y-10.0
X3.5Y-20.0
X4.0Y-1.5
X4.0Y-28.5
X4.5Y-12.5
X4.5Y-17.5
X5.0Y-21.5
X6.5Y-17.5
X7.0Y-12.5
X8.0Y-26.5
X8.5Y-3.5
X8.5Y-7.8
X8.5Y-20.5
X9.5Y-12.5
X10.0Y-28.5
X11.0Y-7.8
X11.5Y-18.5
X12.0Y-12.5
X12.0Y-21.5
X13.5Y-7.8
X14.675Y-27.0
X16.0Y-21.5
X16.0Y-28.5
X16.062Y-7.8
X18.0Y-1.5
X18.0Y-26.5
X18.5Y-12.5
X18.5Y-17.5
X21.0Y-21.5
X22.0Y-1.5
X22.0Y-26.5
X22.0Y-28.5
X23.5Y-12.5
X23.5Y-17.5
X24.0Y-10.0
X25.0Y-21.5
X25.8Y-12.5
X25.8Y-17.5
X26.0Y-1.5
X26.0Y-26.5
X26.8Y-10.0
X28.0Y-12.5
X28.0Y-17.5
X28.0Y-28.5
X29.0Y-21.5
X29.5Y-12.0
X30.0Y-1.5
X30.0Y-26.5
X30.5Y-17.5
X31.0Y-12.5
X33.0Y-17.5
X33.0Y-21.5
X33.5Y-12.5
X34.0Y-1.5
X34.0Y-26.5
X34.0Y-28.5
X35.5Y-17.5
X37.0Y-21.5
X38.0Y-1.5
X38.0Y-17.5
X38.0Y-26.5
X38.5Y-12.5
X40.0Y-28.5
X40.5Y-17.5
X41.0Y-12.5
X41.0Y-21.5
X41.5Y-7.5
X41.5Y-10.0
X42.5Y-10.0
X42.5Y-20.0
X43.0Y-17.5
X43.5Y-12.5
X44.0Y-21.5
X44.5Y-5.0
X44.5Y-9.0
X44.5Y-17.5
X44.5Y-21.0
X44.5Y-25.0
T2
X11.0Y-3.5
X13.54Y-3.5
T3
X3.5Y-3.5
X3.5Y-26.5
X42.5Y-3.5
X42.5Y-26.5
M30
