%TF.GenerationSoftware,KiCad,Pcbnew,10.0.6*%
%TF.CreationDate,2026-09-08T02:44:29+05:30*%
%TF.ProjectId,lna_fm_98mhz,6c6e615f-666d-45f3-9938-6d687a2e6b69,rev?*%
%TF.SameCoordinates,Original*%
%TF.FileFunction,Copper,L2,Bot*%
%TF.FilePolarity,Positive*%
%FSLAX46Y46*%
G04 Gerber Fmt 4.6, Leading zero omitted, Abs format (unit mm)*
G04 Created by KiCad (PCBNEW 10.0.6) date 2026-09-08 02:44:29*
%MOMM*%
%LPD*%
G01*
G04 APERTURE LIST*
G04 Aperture macros list*
%AMRoundRect*
0 Rectangle with rounded corners*
0 $1 Rounding radius*
0 $2 $3 $4 $5 $6 $7 $8 $9 X,Y pos of 4 corners*
0 Add a 4 corners polygon primitive as box body*
4,1,4,$2,$3,$4,$5,$6,$7,$8,$9,$2,$3,0*
0 Add four circle primitives for the rounded corners*
1,1,$1+$1,$2,$3*
1,1,$1+$1,$4,$5*
1,1,$1+$1,$6,$7*
1,1,$1+$1,$8,$9*
0 Add four rect primitives between the rounded corners*
20,1,$1+$1,$2,$3,$4,$5,0*
20,1,$1+$1,$4,$5,$6,$7,0*
20,1,$1+$1,$6,$7,$8,$9,0*
20,1,$1+$1,$8,$9,$2,$3,0*%
G04 Aperture macros list end*
%TA.AperFunction,ComponentPad*%
%ADD10C,4.400000*%
%TD*%
%TA.AperFunction,ComponentPad*%
%ADD11R,1.700000X1.700000*%
%TD*%
%TA.AperFunction,ComponentPad*%
%ADD12C,1.700000*%
%TD*%
%TA.AperFunction,SMDPad,CuDef*%
%ADD13RoundRect,0.250000X1.600000X-0.425000X1.600000X0.425000X-1.600000X0.425000X-1.600000X-0.425000X0*%
%TD*%
%TA.AperFunction,SMDPad,CuDef*%
%ADD14RoundRect,0.250000X-1.600000X0.425000X-1.600000X-0.425000X1.600000X-0.425000X1.600000X0.425000X0*%
%TD*%
%TA.AperFunction,ViaPad*%
%ADD15C,0.600000*%
%TD*%
G04 APERTURE END LIST*
D10*
%TO.P,H4,1*%
%TO.N,GND*%
X42500000Y-26500000D03*
%TD*%
%TO.P,H2,1*%
%TO.N,GND*%
X42500000Y-3500000D03*
%TD*%
%TO.P,H3,1*%
%TO.N,GND*%
X3500000Y-26500000D03*
%TD*%
D11*
%TO.P,J3,1*%
%TO.N,/BAT_IN*%
X19000000Y-3500000D03*
D12*
%TO.P,J3,2*%
%TO.N,GND*%
X21540000Y-3500000D03*
%TD*%
D10*
%TO.P,H1,1*%
%TO.N,GND*%
X3500000Y-3500000D03*
%TD*%
D13*
%TO.P,J2,2*%
%TO.N,GND*%
X43650000Y-12175000D03*
X43650000Y-17825000D03*
%TD*%
D14*
%TO.P,J1,2*%
%TO.N,GND*%
X2350000Y-17825000D03*
X2350000Y-12175000D03*
%TD*%
D15*
%TO.N,GND*%
X44000000Y-21500000D03*
X25000000Y-21500000D03*
X16000000Y-21500000D03*
X22000000Y-28500000D03*
X22000000Y-26500000D03*
X2000000Y-21500000D03*
X26000000Y-26500000D03*
X33000000Y-21500000D03*
X29000000Y-21500000D03*
X1500000Y-25000000D03*
X9500000Y-12500000D03*
X3500000Y-20000000D03*
X1500000Y-21000000D03*
X8500000Y-20500000D03*
X2000000Y-12500000D03*
X18500000Y-17500000D03*
X44500000Y-9000000D03*
X41500000Y-10000000D03*
X38000000Y-26500000D03*
X26800000Y-10000000D03*
X12000000Y-12500000D03*
X11000000Y-7800000D03*
X41500000Y-7500000D03*
X8000000Y-26500000D03*
X38500000Y-12500000D03*
X23500000Y-12500000D03*
X37000000Y-21500000D03*
X3500000Y-10000000D03*
X33000000Y-17500000D03*
X5000000Y-21500000D03*
X40500000Y-17500000D03*
X15500000Y-1500000D03*
X25800000Y-17500000D03*
X12000000Y-21500000D03*
X7000000Y-12500000D03*
X30000000Y-26500000D03*
X4000000Y-1500000D03*
X42500000Y-10000000D03*
X34000000Y-26500000D03*
X41000000Y-12500000D03*
X23500000Y-17500000D03*
X27000000Y-1500000D03*
X40000000Y-28500000D03*
X31000000Y-12500000D03*
X34000000Y-1500000D03*
X41000000Y-21500000D03*
X44500000Y-25000000D03*
X14675000Y-27000000D03*
X16000000Y-28500000D03*
X43000000Y-17500000D03*
X44500000Y-17500000D03*
X1500000Y-9000000D03*
X6500000Y-20000000D03*
X10000000Y-28500000D03*
X28000000Y-17500000D03*
X33500000Y-12500000D03*
X34000000Y-28500000D03*
X21000000Y-21500000D03*
X35500000Y-17500000D03*
X24000000Y-10000000D03*
X43500000Y-12500000D03*
X2000000Y-17500000D03*
X28000000Y-28500000D03*
X25800000Y-12500000D03*
X13500000Y-7800000D03*
X4000000Y-28500000D03*
X18500000Y-12500000D03*
X30000000Y-1500000D03*
X8500000Y-7800000D03*
X38000000Y-17500000D03*
X4500000Y-12500000D03*
X44500000Y-21000000D03*
X30500000Y-17500000D03*
X44500000Y-5000000D03*
X1500000Y-5000000D03*
X16062000Y-7800000D03*
X7000000Y-2000000D03*
X18000000Y-26500000D03*
X11500000Y-18500000D03*
X28000000Y-12500000D03*
X4500000Y-17500000D03*
X38000000Y-1500000D03*
X42500000Y-20000000D03*
%TD*%
%TA.AperFunction,Conductor*%
%TO.N,GND*%
G36*
X45958691Y-19407D02*
G01*
X45994655Y-68907D01*
X45999500Y-99500D01*
X45999500Y-29900500D01*
X45980593Y-29958691D01*
X45931093Y-29994655D01*
X45900500Y-29999500D01*
X99500Y-29999500D01*
X41309Y-29980593D01*
X5345Y-29931093D01*
X500Y-29900500D01*
X500Y-2602129D01*
X17649500Y-2602129D01*
X17649500Y-4397866D01*
X17649501Y-4397870D01*
X17655908Y-4457480D01*
X17655909Y-4457485D01*
X17706202Y-4592329D01*
X17792450Y-4707541D01*
X17792454Y-4707546D01*
X17792457Y-4707548D01*
X17792458Y-4707549D01*
X17907670Y-4793797D01*
X18042511Y-4844089D01*
X18042512Y-4844089D01*
X18042517Y-4844091D01*
X18102127Y-4850500D01*
X19897872Y-4850499D01*
X19957483Y-4844091D01*
X20030764Y-4816759D01*
X20092329Y-4793797D01*
X20092329Y-4793796D01*
X20092331Y-4793796D01*
X20207546Y-4707546D01*
X20293796Y-4592331D01*
X20344091Y-4457483D01*
X20350500Y-4397873D01*
X20350499Y-4362971D01*
X20369405Y-4304783D01*
X20414237Y-4272208D01*
X21057037Y-3629407D01*
X21074075Y-3692993D01*
X21139901Y-3807007D01*
X21232993Y-3900099D01*
X21347007Y-3965925D01*
X21410589Y-3982962D01*
X20778282Y-4615269D01*
X20778282Y-4615270D01*
X20832440Y-4654619D01*
X20832446Y-4654623D01*
X21021784Y-4751095D01*
X21223878Y-4816759D01*
X21433750Y-4850000D01*
X21646250Y-4850000D01*
X21856121Y-4816759D01*
X22058215Y-4751095D01*
X22247556Y-4654620D01*
X22301716Y-4615270D01*
X21669408Y-3982962D01*
X21732993Y-3965925D01*
X21847007Y-3900099D01*
X21940099Y-3807007D01*
X22005925Y-3692993D01*
X22022962Y-3629408D01*
X22655270Y-4261716D01*
X22694620Y-4207556D01*
X22791095Y-4018215D01*
X22856759Y-3816121D01*
X22890000Y-3606250D01*
X22890000Y-3393749D01*
X22856759Y-3183878D01*
X22791095Y-2981784D01*
X22694623Y-2792446D01*
X22694619Y-2792440D01*
X22655270Y-2738282D01*
X22655269Y-2738282D01*
X22022962Y-3370589D01*
X22005925Y-3307007D01*
X21940099Y-3192993D01*
X21847007Y-3099901D01*
X21732993Y-3034075D01*
X21669407Y-3017037D01*
X22301716Y-2384729D01*
X22301716Y-2384728D01*
X22247559Y-2345380D01*
X22247553Y-2345376D01*
X22058215Y-2248904D01*
X21856121Y-2183240D01*
X21646250Y-2150000D01*
X21433750Y-2150000D01*
X21223878Y-2183240D01*
X21021784Y-2248904D01*
X20832446Y-2345376D01*
X20832442Y-2345378D01*
X20778282Y-2384728D01*
X21410591Y-3017037D01*
X21347007Y-3034075D01*
X21232993Y-3099901D01*
X21139901Y-3192993D01*
X21074075Y-3307007D01*
X21057037Y-3370591D01*
X20411077Y-2724631D01*
X20397771Y-2721437D01*
X20358035Y-2674911D01*
X20350499Y-2637026D01*
X20350499Y-2602133D01*
X20350499Y-2602128D01*
X20344091Y-2542517D01*
X20344089Y-2542511D01*
X20312217Y-2457056D01*
X20293796Y-2407669D01*
X20207549Y-2292458D01*
X20207548Y-2292457D01*
X20207546Y-2292454D01*
X20149371Y-2248904D01*
X20092329Y-2206202D01*
X19957488Y-2155910D01*
X19957483Y-2155909D01*
X19957481Y-2155908D01*
X19957477Y-2155908D01*
X19926249Y-2152550D01*
X19897873Y-2149500D01*
X19897870Y-2149500D01*
X18102133Y-2149500D01*
X18102129Y-2149500D01*
X18102128Y-2149501D01*
X18097486Y-2150000D01*
X18042519Y-2155908D01*
X18042514Y-2155909D01*
X17907670Y-2206202D01*
X17792458Y-2292450D01*
X17792450Y-2292458D01*
X17706202Y-2407670D01*
X17655910Y-2542511D01*
X17655908Y-2542522D01*
X17649500Y-2602129D01*
X500Y-2602129D01*
X500Y-99500D01*
X19407Y-41309D01*
X68907Y-5345D01*
X99500Y-500D01*
X45900500Y-500D01*
X45958691Y-19407D01*
G37*
%TD.AperFunction*%
%TD*%
M02*
