%TF.GenerationSoftware,KiCad,Pcbnew,10.0.6*%
%TF.CreationDate,2026-09-07T22:54:20+05:30*%
%TF.ProjectId,lna_fm_98mhz,6c6e615f-666d-45f3-9938-6d687a2e6b69,rev?*%
%TF.SameCoordinates,Original*%
%TF.FileFunction,Legend,Top*%
%TF.FilePolarity,Positive*%
%FSLAX46Y46*%
G04 Gerber Fmt 4.6, Leading zero omitted, Abs format (unit mm)*
G04 Created by KiCad (PCBNEW 10.0.6) date 2026-09-07 22:54:20*
%MOMM*%
%LPD*%
G01*
G04 APERTURE LIST*
%ADD10C,0.150000*%
%ADD11C,0.180000*%
%ADD12C,0.120000*%
G04 APERTURE END LIST*
D10*
X2996428Y-23885427D02*
X2996428Y-23035427D01*
X3401190Y-23885427D02*
X3401190Y-23035427D01*
X3401190Y-23035427D02*
X3886905Y-23885427D01*
X3886905Y-23885427D02*
X3886905Y-23035427D01*
X5344047Y-23035427D02*
X4939285Y-23035427D01*
X4939285Y-23035427D02*
X4898809Y-23440189D01*
X4898809Y-23440189D02*
X4939285Y-23399712D01*
X4939285Y-23399712D02*
X5020238Y-23359236D01*
X5020238Y-23359236D02*
X5222619Y-23359236D01*
X5222619Y-23359236D02*
X5303571Y-23399712D01*
X5303571Y-23399712D02*
X5344047Y-23440189D01*
X5344047Y-23440189D02*
X5384524Y-23521141D01*
X5384524Y-23521141D02*
X5384524Y-23723522D01*
X5384524Y-23723522D02*
X5344047Y-23804474D01*
X5344047Y-23804474D02*
X5303571Y-23844951D01*
X5303571Y-23844951D02*
X5222619Y-23885427D01*
X5222619Y-23885427D02*
X5020238Y-23885427D01*
X5020238Y-23885427D02*
X4939285Y-23844951D01*
X4939285Y-23844951D02*
X4898809Y-23804474D01*
X5910714Y-23035427D02*
X5991667Y-23035427D01*
X5991667Y-23035427D02*
X6072619Y-23075903D01*
X6072619Y-23075903D02*
X6113095Y-23116379D01*
X6113095Y-23116379D02*
X6153571Y-23197331D01*
X6153571Y-23197331D02*
X6194048Y-23359236D01*
X6194048Y-23359236D02*
X6194048Y-23561617D01*
X6194048Y-23561617D02*
X6153571Y-23723522D01*
X6153571Y-23723522D02*
X6113095Y-23804474D01*
X6113095Y-23804474D02*
X6072619Y-23844951D01*
X6072619Y-23844951D02*
X5991667Y-23885427D01*
X5991667Y-23885427D02*
X5910714Y-23885427D01*
X5910714Y-23885427D02*
X5829762Y-23844951D01*
X5829762Y-23844951D02*
X5789286Y-23804474D01*
X5789286Y-23804474D02*
X5748809Y-23723522D01*
X5748809Y-23723522D02*
X5708333Y-23561617D01*
X5708333Y-23561617D02*
X5708333Y-23359236D01*
X5708333Y-23359236D02*
X5748809Y-23197331D01*
X5748809Y-23197331D02*
X5789286Y-23116379D01*
X5789286Y-23116379D02*
X5829762Y-23075903D01*
X5829762Y-23075903D02*
X5910714Y-23035427D01*
X7044048Y-23885427D02*
X6760714Y-23480665D01*
X6558333Y-23885427D02*
X6558333Y-23035427D01*
X6558333Y-23035427D02*
X6882143Y-23035427D01*
X6882143Y-23035427D02*
X6963095Y-23075903D01*
X6963095Y-23075903D02*
X7003572Y-23116379D01*
X7003572Y-23116379D02*
X7044048Y-23197331D01*
X7044048Y-23197331D02*
X7044048Y-23318760D01*
X7044048Y-23318760D02*
X7003572Y-23399712D01*
X7003572Y-23399712D02*
X6963095Y-23440189D01*
X6963095Y-23440189D02*
X6882143Y-23480665D01*
X6882143Y-23480665D02*
X6558333Y-23480665D01*
X7326191Y-575903D02*
X7245238Y-535427D01*
X7245238Y-535427D02*
X7123810Y-535427D01*
X7123810Y-535427D02*
X7002381Y-575903D01*
X7002381Y-575903D02*
X6921429Y-656855D01*
X6921429Y-656855D02*
X6880952Y-737808D01*
X6880952Y-737808D02*
X6840476Y-899712D01*
X6840476Y-899712D02*
X6840476Y-1021141D01*
X6840476Y-1021141D02*
X6880952Y-1183046D01*
X6880952Y-1183046D02*
X6921429Y-1263998D01*
X6921429Y-1263998D02*
X7002381Y-1344951D01*
X7002381Y-1344951D02*
X7123810Y-1385427D01*
X7123810Y-1385427D02*
X7204762Y-1385427D01*
X7204762Y-1385427D02*
X7326191Y-1344951D01*
X7326191Y-1344951D02*
X7366667Y-1304474D01*
X7366667Y-1304474D02*
X7366667Y-1021141D01*
X7366667Y-1021141D02*
X7204762Y-1021141D01*
X7730952Y-1385427D02*
X7730952Y-535427D01*
X7730952Y-535427D02*
X8216667Y-1385427D01*
X8216667Y-1385427D02*
X8216667Y-535427D01*
X8621428Y-1385427D02*
X8621428Y-535427D01*
X8621428Y-535427D02*
X8823809Y-535427D01*
X8823809Y-535427D02*
X8945238Y-575903D01*
X8945238Y-575903D02*
X9026190Y-656855D01*
X9026190Y-656855D02*
X9066667Y-737808D01*
X9066667Y-737808D02*
X9107143Y-899712D01*
X9107143Y-899712D02*
X9107143Y-1021141D01*
X9107143Y-1021141D02*
X9066667Y-1183046D01*
X9066667Y-1183046D02*
X9026190Y-1263998D01*
X9026190Y-1263998D02*
X8945238Y-1344951D01*
X8945238Y-1344951D02*
X8823809Y-1385427D01*
X8823809Y-1385427D02*
X8621428Y-1385427D01*
X9471428Y-1061617D02*
X10119048Y-1061617D01*
X12386429Y-940189D02*
X12507857Y-980665D01*
X12507857Y-980665D02*
X12548334Y-1021141D01*
X12548334Y-1021141D02*
X12588810Y-1102093D01*
X12588810Y-1102093D02*
X12588810Y-1223522D01*
X12588810Y-1223522D02*
X12548334Y-1304474D01*
X12548334Y-1304474D02*
X12507857Y-1344951D01*
X12507857Y-1344951D02*
X12426905Y-1385427D01*
X12426905Y-1385427D02*
X12103095Y-1385427D01*
X12103095Y-1385427D02*
X12103095Y-535427D01*
X12103095Y-535427D02*
X12386429Y-535427D01*
X12386429Y-535427D02*
X12467381Y-575903D01*
X12467381Y-575903D02*
X12507857Y-616379D01*
X12507857Y-616379D02*
X12548334Y-697331D01*
X12548334Y-697331D02*
X12548334Y-778284D01*
X12548334Y-778284D02*
X12507857Y-859236D01*
X12507857Y-859236D02*
X12467381Y-899712D01*
X12467381Y-899712D02*
X12386429Y-940189D01*
X12386429Y-940189D02*
X12103095Y-940189D01*
X12912619Y-1142570D02*
X13317381Y-1142570D01*
X12831667Y-1385427D02*
X13115000Y-535427D01*
X13115000Y-535427D02*
X13398334Y-1385427D01*
X13560238Y-535427D02*
X14045952Y-535427D01*
X13803095Y-1385427D02*
X13803095Y-535427D01*
X14329285Y-1061617D02*
X14976905Y-1061617D01*
X14653095Y-1385427D02*
X14653095Y-737808D01*
X17373809Y-24440189D02*
X17495237Y-24480665D01*
X17495237Y-24480665D02*
X17535714Y-24521141D01*
X17535714Y-24521141D02*
X17576190Y-24602093D01*
X17576190Y-24602093D02*
X17576190Y-24723522D01*
X17576190Y-24723522D02*
X17535714Y-24804474D01*
X17535714Y-24804474D02*
X17495237Y-24844951D01*
X17495237Y-24844951D02*
X17414285Y-24885427D01*
X17414285Y-24885427D02*
X17090475Y-24885427D01*
X17090475Y-24885427D02*
X17090475Y-24035427D01*
X17090475Y-24035427D02*
X17373809Y-24035427D01*
X17373809Y-24035427D02*
X17454761Y-24075903D01*
X17454761Y-24075903D02*
X17495237Y-24116379D01*
X17495237Y-24116379D02*
X17535714Y-24197331D01*
X17535714Y-24197331D02*
X17535714Y-24278284D01*
X17535714Y-24278284D02*
X17495237Y-24359236D01*
X17495237Y-24359236D02*
X17454761Y-24399712D01*
X17454761Y-24399712D02*
X17373809Y-24440189D01*
X17373809Y-24440189D02*
X17090475Y-24440189D01*
X17940475Y-24885427D02*
X17940475Y-24035427D01*
X18304761Y-24642570D02*
X18709523Y-24642570D01*
X18223809Y-24885427D02*
X18507142Y-24035427D01*
X18507142Y-24035427D02*
X18790476Y-24885427D01*
X19033332Y-24844951D02*
X19154761Y-24885427D01*
X19154761Y-24885427D02*
X19357142Y-24885427D01*
X19357142Y-24885427D02*
X19438094Y-24844951D01*
X19438094Y-24844951D02*
X19478570Y-24804474D01*
X19478570Y-24804474D02*
X19519047Y-24723522D01*
X19519047Y-24723522D02*
X19519047Y-24642570D01*
X19519047Y-24642570D02*
X19478570Y-24561617D01*
X19478570Y-24561617D02*
X19438094Y-24521141D01*
X19438094Y-24521141D02*
X19357142Y-24480665D01*
X19357142Y-24480665D02*
X19195237Y-24440189D01*
X19195237Y-24440189D02*
X19114285Y-24399712D01*
X19114285Y-24399712D02*
X19073808Y-24359236D01*
X19073808Y-24359236D02*
X19033332Y-24278284D01*
X19033332Y-24278284D02*
X19033332Y-24197331D01*
X19033332Y-24197331D02*
X19073808Y-24116379D01*
X19073808Y-24116379D02*
X19114285Y-24075903D01*
X19114285Y-24075903D02*
X19195237Y-24035427D01*
X19195237Y-24035427D02*
X19397618Y-24035427D01*
X19397618Y-24035427D02*
X19519047Y-24075903D01*
X19883332Y-24561617D02*
X20530952Y-24561617D01*
X20814285Y-24035427D02*
X21299999Y-24035427D01*
X21057142Y-24885427D02*
X21057142Y-24035427D01*
X21583332Y-24440189D02*
X21866666Y-24440189D01*
X21988094Y-24885427D02*
X21583332Y-24885427D01*
X21583332Y-24885427D02*
X21583332Y-24035427D01*
X21583332Y-24035427D02*
X21988094Y-24035427D01*
X22352380Y-24440189D02*
X22635714Y-24440189D01*
X22757142Y-24885427D02*
X22352380Y-24885427D01*
X22352380Y-24885427D02*
X22352380Y-24035427D01*
X22352380Y-24035427D02*
X22757142Y-24035427D01*
X23769047Y-24440189D02*
X24052381Y-24440189D01*
X24173809Y-24885427D02*
X23769047Y-24885427D01*
X23769047Y-24885427D02*
X23769047Y-24035427D01*
X23769047Y-24035427D02*
X24173809Y-24035427D01*
X24538095Y-24885427D02*
X24538095Y-24035427D01*
X24538095Y-24035427D02*
X25023810Y-24885427D01*
X25023810Y-24885427D02*
X25023810Y-24035427D01*
X25388095Y-24642570D02*
X25792857Y-24642570D01*
X25307143Y-24885427D02*
X25590476Y-24035427D01*
X25590476Y-24035427D02*
X25873810Y-24885427D01*
X26440476Y-24440189D02*
X26561904Y-24480665D01*
X26561904Y-24480665D02*
X26602381Y-24521141D01*
X26602381Y-24521141D02*
X26642857Y-24602093D01*
X26642857Y-24602093D02*
X26642857Y-24723522D01*
X26642857Y-24723522D02*
X26602381Y-24804474D01*
X26602381Y-24804474D02*
X26561904Y-24844951D01*
X26561904Y-24844951D02*
X26480952Y-24885427D01*
X26480952Y-24885427D02*
X26157142Y-24885427D01*
X26157142Y-24885427D02*
X26157142Y-24035427D01*
X26157142Y-24035427D02*
X26440476Y-24035427D01*
X26440476Y-24035427D02*
X26521428Y-24075903D01*
X26521428Y-24075903D02*
X26561904Y-24116379D01*
X26561904Y-24116379D02*
X26602381Y-24197331D01*
X26602381Y-24197331D02*
X26602381Y-24278284D01*
X26602381Y-24278284D02*
X26561904Y-24359236D01*
X26561904Y-24359236D02*
X26521428Y-24399712D01*
X26521428Y-24399712D02*
X26440476Y-24440189D01*
X26440476Y-24440189D02*
X26157142Y-24440189D01*
X27411904Y-24885427D02*
X27007142Y-24885427D01*
X27007142Y-24885427D02*
X27007142Y-24035427D01*
X27695237Y-24440189D02*
X27978571Y-24440189D01*
X28099999Y-24885427D02*
X27695237Y-24885427D01*
X27695237Y-24885427D02*
X27695237Y-24035427D01*
X27695237Y-24035427D02*
X28099999Y-24035427D01*
X28464285Y-24885427D02*
X28464285Y-24035427D01*
X28464285Y-24035427D02*
X28666666Y-24035427D01*
X28666666Y-24035427D02*
X28788095Y-24075903D01*
X28788095Y-24075903D02*
X28869047Y-24156855D01*
X28869047Y-24156855D02*
X28909524Y-24237808D01*
X28909524Y-24237808D02*
X28950000Y-24399712D01*
X28950000Y-24399712D02*
X28950000Y-24521141D01*
X28950000Y-24521141D02*
X28909524Y-24683046D01*
X28909524Y-24683046D02*
X28869047Y-24763998D01*
X28869047Y-24763998D02*
X28788095Y-24844951D01*
X28788095Y-24844951D02*
X28666666Y-24885427D01*
X28666666Y-24885427D02*
X28464285Y-24885427D01*
X37591666Y-20535427D02*
X37753571Y-20535427D01*
X37753571Y-20535427D02*
X37834523Y-20575903D01*
X37834523Y-20575903D02*
X37915476Y-20656855D01*
X37915476Y-20656855D02*
X37955952Y-20818760D01*
X37955952Y-20818760D02*
X37955952Y-21102093D01*
X37955952Y-21102093D02*
X37915476Y-21263998D01*
X37915476Y-21263998D02*
X37834523Y-21344951D01*
X37834523Y-21344951D02*
X37753571Y-21385427D01*
X37753571Y-21385427D02*
X37591666Y-21385427D01*
X37591666Y-21385427D02*
X37510714Y-21344951D01*
X37510714Y-21344951D02*
X37429761Y-21263998D01*
X37429761Y-21263998D02*
X37389285Y-21102093D01*
X37389285Y-21102093D02*
X37389285Y-20818760D01*
X37389285Y-20818760D02*
X37429761Y-20656855D01*
X37429761Y-20656855D02*
X37510714Y-20575903D01*
X37510714Y-20575903D02*
X37591666Y-20535427D01*
X38320237Y-20535427D02*
X38320237Y-21223522D01*
X38320237Y-21223522D02*
X38360714Y-21304474D01*
X38360714Y-21304474D02*
X38401190Y-21344951D01*
X38401190Y-21344951D02*
X38482142Y-21385427D01*
X38482142Y-21385427D02*
X38644047Y-21385427D01*
X38644047Y-21385427D02*
X38724999Y-21344951D01*
X38724999Y-21344951D02*
X38765476Y-21304474D01*
X38765476Y-21304474D02*
X38805952Y-21223522D01*
X38805952Y-21223522D02*
X38805952Y-20535427D01*
X39089285Y-20535427D02*
X39574999Y-20535427D01*
X39332142Y-21385427D02*
X39332142Y-20535427D01*
X40910713Y-20535427D02*
X40505951Y-20535427D01*
X40505951Y-20535427D02*
X40465475Y-20940189D01*
X40465475Y-20940189D02*
X40505951Y-20899712D01*
X40505951Y-20899712D02*
X40586904Y-20859236D01*
X40586904Y-20859236D02*
X40789285Y-20859236D01*
X40789285Y-20859236D02*
X40870237Y-20899712D01*
X40870237Y-20899712D02*
X40910713Y-20940189D01*
X40910713Y-20940189D02*
X40951190Y-21021141D01*
X40951190Y-21021141D02*
X40951190Y-21223522D01*
X40951190Y-21223522D02*
X40910713Y-21304474D01*
X40910713Y-21304474D02*
X40870237Y-21344951D01*
X40870237Y-21344951D02*
X40789285Y-21385427D01*
X40789285Y-21385427D02*
X40586904Y-21385427D01*
X40586904Y-21385427D02*
X40505951Y-21344951D01*
X40505951Y-21344951D02*
X40465475Y-21304474D01*
X41477380Y-20535427D02*
X41558333Y-20535427D01*
X41558333Y-20535427D02*
X41639285Y-20575903D01*
X41639285Y-20575903D02*
X41679761Y-20616379D01*
X41679761Y-20616379D02*
X41720237Y-20697331D01*
X41720237Y-20697331D02*
X41760714Y-20859236D01*
X41760714Y-20859236D02*
X41760714Y-21061617D01*
X41760714Y-21061617D02*
X41720237Y-21223522D01*
X41720237Y-21223522D02*
X41679761Y-21304474D01*
X41679761Y-21304474D02*
X41639285Y-21344951D01*
X41639285Y-21344951D02*
X41558333Y-21385427D01*
X41558333Y-21385427D02*
X41477380Y-21385427D01*
X41477380Y-21385427D02*
X41396428Y-21344951D01*
X41396428Y-21344951D02*
X41355952Y-21304474D01*
X41355952Y-21304474D02*
X41315475Y-21223522D01*
X41315475Y-21223522D02*
X41274999Y-21061617D01*
X41274999Y-21061617D02*
X41274999Y-20859236D01*
X41274999Y-20859236D02*
X41315475Y-20697331D01*
X41315475Y-20697331D02*
X41355952Y-20616379D01*
X41355952Y-20616379D02*
X41396428Y-20575903D01*
X41396428Y-20575903D02*
X41477380Y-20535427D01*
X42610714Y-21385427D02*
X42327380Y-20980665D01*
X42124999Y-21385427D02*
X42124999Y-20535427D01*
X42124999Y-20535427D02*
X42448809Y-20535427D01*
X42448809Y-20535427D02*
X42529761Y-20575903D01*
X42529761Y-20575903D02*
X42570238Y-20616379D01*
X42570238Y-20616379D02*
X42610714Y-20697331D01*
X42610714Y-20697331D02*
X42610714Y-20818760D01*
X42610714Y-20818760D02*
X42570238Y-20899712D01*
X42570238Y-20899712D02*
X42529761Y-20940189D01*
X42529761Y-20940189D02*
X42448809Y-20980665D01*
X42448809Y-20980665D02*
X42124999Y-20980665D01*
X17835714Y-28408557D02*
X17835714Y-27508557D01*
X17835714Y-27508557D02*
X18135714Y-28151414D01*
X18135714Y-28151414D02*
X18435714Y-27508557D01*
X18435714Y-27508557D02*
X18435714Y-28408557D01*
X18864285Y-28408557D02*
X18864285Y-27508557D01*
X18864285Y-27508557D02*
X19164285Y-28151414D01*
X19164285Y-28151414D02*
X19464285Y-27508557D01*
X19464285Y-27508557D02*
X19464285Y-28408557D01*
X20192856Y-27937128D02*
X20321428Y-27979985D01*
X20321428Y-27979985D02*
X20364285Y-28022842D01*
X20364285Y-28022842D02*
X20407142Y-28108557D01*
X20407142Y-28108557D02*
X20407142Y-28237128D01*
X20407142Y-28237128D02*
X20364285Y-28322842D01*
X20364285Y-28322842D02*
X20321428Y-28365700D01*
X20321428Y-28365700D02*
X20235713Y-28408557D01*
X20235713Y-28408557D02*
X19892856Y-28408557D01*
X19892856Y-28408557D02*
X19892856Y-27508557D01*
X19892856Y-27508557D02*
X20192856Y-27508557D01*
X20192856Y-27508557D02*
X20278571Y-27551414D01*
X20278571Y-27551414D02*
X20321428Y-27594271D01*
X20321428Y-27594271D02*
X20364285Y-27679985D01*
X20364285Y-27679985D02*
X20364285Y-27765700D01*
X20364285Y-27765700D02*
X20321428Y-27851414D01*
X20321428Y-27851414D02*
X20278571Y-27894271D01*
X20278571Y-27894271D02*
X20192856Y-27937128D01*
X20192856Y-27937128D02*
X19892856Y-27937128D01*
X20664285Y-27508557D02*
X21178571Y-27508557D01*
X20921428Y-28408557D02*
X20921428Y-27508557D01*
X21907142Y-27508557D02*
X21478570Y-27508557D01*
X21478570Y-27508557D02*
X21435713Y-27937128D01*
X21435713Y-27937128D02*
X21478570Y-27894271D01*
X21478570Y-27894271D02*
X21564285Y-27851414D01*
X21564285Y-27851414D02*
X21778570Y-27851414D01*
X21778570Y-27851414D02*
X21864285Y-27894271D01*
X21864285Y-27894271D02*
X21907142Y-27937128D01*
X21907142Y-27937128D02*
X21949999Y-28022842D01*
X21949999Y-28022842D02*
X21949999Y-28237128D01*
X21949999Y-28237128D02*
X21907142Y-28322842D01*
X21907142Y-28322842D02*
X21864285Y-28365700D01*
X21864285Y-28365700D02*
X21778570Y-28408557D01*
X21778570Y-28408557D02*
X21564285Y-28408557D01*
X21564285Y-28408557D02*
X21478570Y-28365700D01*
X21478570Y-28365700D02*
X21435713Y-28322842D01*
X22807142Y-28408557D02*
X22292856Y-28408557D01*
X22549999Y-28408557D02*
X22549999Y-27508557D01*
X22549999Y-27508557D02*
X22464285Y-27637128D01*
X22464285Y-27637128D02*
X22378570Y-27722842D01*
X22378570Y-27722842D02*
X22292856Y-27765700D01*
X23107142Y-27508557D02*
X23707142Y-27508557D01*
X23707142Y-27508557D02*
X23321428Y-28408557D01*
X24092856Y-28408557D02*
X24264285Y-28408557D01*
X24264285Y-28408557D02*
X24349999Y-28365700D01*
X24349999Y-28365700D02*
X24392856Y-28322842D01*
X24392856Y-28322842D02*
X24478571Y-28194271D01*
X24478571Y-28194271D02*
X24521428Y-28022842D01*
X24521428Y-28022842D02*
X24521428Y-27679985D01*
X24521428Y-27679985D02*
X24478571Y-27594271D01*
X24478571Y-27594271D02*
X24435714Y-27551414D01*
X24435714Y-27551414D02*
X24349999Y-27508557D01*
X24349999Y-27508557D02*
X24178571Y-27508557D01*
X24178571Y-27508557D02*
X24092856Y-27551414D01*
X24092856Y-27551414D02*
X24049999Y-27594271D01*
X24049999Y-27594271D02*
X24007142Y-27679985D01*
X24007142Y-27679985D02*
X24007142Y-27894271D01*
X24007142Y-27894271D02*
X24049999Y-27979985D01*
X24049999Y-27979985D02*
X24092856Y-28022842D01*
X24092856Y-28022842D02*
X24178571Y-28065700D01*
X24178571Y-28065700D02*
X24349999Y-28065700D01*
X24349999Y-28065700D02*
X24435714Y-28022842D01*
X24435714Y-28022842D02*
X24478571Y-27979985D01*
X24478571Y-27979985D02*
X24521428Y-27894271D01*
X25849999Y-28751414D02*
X25807142Y-28708557D01*
X25807142Y-28708557D02*
X25721428Y-28579985D01*
X25721428Y-28579985D02*
X25678571Y-28494271D01*
X25678571Y-28494271D02*
X25635713Y-28365700D01*
X25635713Y-28365700D02*
X25592856Y-28151414D01*
X25592856Y-28151414D02*
X25592856Y-27979985D01*
X25592856Y-27979985D02*
X25635713Y-27765700D01*
X25635713Y-27765700D02*
X25678571Y-27637128D01*
X25678571Y-27637128D02*
X25721428Y-27551414D01*
X25721428Y-27551414D02*
X25807142Y-27422842D01*
X25807142Y-27422842D02*
X25849999Y-27379985D01*
X26707142Y-28322842D02*
X26664285Y-28365700D01*
X26664285Y-28365700D02*
X26535713Y-28408557D01*
X26535713Y-28408557D02*
X26449999Y-28408557D01*
X26449999Y-28408557D02*
X26321428Y-28365700D01*
X26321428Y-28365700D02*
X26235713Y-28279985D01*
X26235713Y-28279985D02*
X26192856Y-28194271D01*
X26192856Y-28194271D02*
X26149999Y-28022842D01*
X26149999Y-28022842D02*
X26149999Y-27894271D01*
X26149999Y-27894271D02*
X26192856Y-27722842D01*
X26192856Y-27722842D02*
X26235713Y-27637128D01*
X26235713Y-27637128D02*
X26321428Y-27551414D01*
X26321428Y-27551414D02*
X26449999Y-27508557D01*
X26449999Y-27508557D02*
X26535713Y-27508557D01*
X26535713Y-27508557D02*
X26664285Y-27551414D01*
X26664285Y-27551414D02*
X26707142Y-27594271D01*
X27392856Y-27937128D02*
X27521428Y-27979985D01*
X27521428Y-27979985D02*
X27564285Y-28022842D01*
X27564285Y-28022842D02*
X27607142Y-28108557D01*
X27607142Y-28108557D02*
X27607142Y-28237128D01*
X27607142Y-28237128D02*
X27564285Y-28322842D01*
X27564285Y-28322842D02*
X27521428Y-28365700D01*
X27521428Y-28365700D02*
X27435713Y-28408557D01*
X27435713Y-28408557D02*
X27092856Y-28408557D01*
X27092856Y-28408557D02*
X27092856Y-27508557D01*
X27092856Y-27508557D02*
X27392856Y-27508557D01*
X27392856Y-27508557D02*
X27478571Y-27551414D01*
X27478571Y-27551414D02*
X27521428Y-27594271D01*
X27521428Y-27594271D02*
X27564285Y-27679985D01*
X27564285Y-27679985D02*
X27564285Y-27765700D01*
X27564285Y-27765700D02*
X27521428Y-27851414D01*
X27521428Y-27851414D02*
X27478571Y-27894271D01*
X27478571Y-27894271D02*
X27392856Y-27937128D01*
X27392856Y-27937128D02*
X27092856Y-27937128D01*
X27907142Y-28751414D02*
X27949999Y-28708557D01*
X27949999Y-28708557D02*
X28035713Y-28579985D01*
X28035713Y-28579985D02*
X28078571Y-28494271D01*
X28078571Y-28494271D02*
X28121428Y-28365700D01*
X28121428Y-28365700D02*
X28164285Y-28151414D01*
X28164285Y-28151414D02*
X28164285Y-27979985D01*
X28164285Y-27979985D02*
X28121428Y-27765700D01*
X28121428Y-27765700D02*
X28078571Y-27637128D01*
X28078571Y-27637128D02*
X28035713Y-27551414D01*
X28035713Y-27551414D02*
X27949999Y-27422842D01*
X27949999Y-27422842D02*
X27907142Y-27379985D01*
D11*
X16657142Y-26745782D02*
X16885713Y-26745782D01*
X16885713Y-26745782D02*
X16999999Y-26688640D01*
X16999999Y-26688640D02*
X17057142Y-26631497D01*
X17057142Y-26631497D02*
X17171427Y-26460068D01*
X17171427Y-26460068D02*
X17228570Y-26231497D01*
X17228570Y-26231497D02*
X17228570Y-25774354D01*
X17228570Y-25774354D02*
X17171427Y-25660068D01*
X17171427Y-25660068D02*
X17114285Y-25602925D01*
X17114285Y-25602925D02*
X16999999Y-25545782D01*
X16999999Y-25545782D02*
X16771427Y-25545782D01*
X16771427Y-25545782D02*
X16657142Y-25602925D01*
X16657142Y-25602925D02*
X16599999Y-25660068D01*
X16599999Y-25660068D02*
X16542856Y-25774354D01*
X16542856Y-25774354D02*
X16542856Y-26060068D01*
X16542856Y-26060068D02*
X16599999Y-26174354D01*
X16599999Y-26174354D02*
X16657142Y-26231497D01*
X16657142Y-26231497D02*
X16771427Y-26288640D01*
X16771427Y-26288640D02*
X16999999Y-26288640D01*
X16999999Y-26288640D02*
X17114285Y-26231497D01*
X17114285Y-26231497D02*
X17171427Y-26174354D01*
X17171427Y-26174354D02*
X17228570Y-26060068D01*
X17914284Y-26060068D02*
X17799999Y-26002925D01*
X17799999Y-26002925D02*
X17742856Y-25945782D01*
X17742856Y-25945782D02*
X17685713Y-25831497D01*
X17685713Y-25831497D02*
X17685713Y-25774354D01*
X17685713Y-25774354D02*
X17742856Y-25660068D01*
X17742856Y-25660068D02*
X17799999Y-25602925D01*
X17799999Y-25602925D02*
X17914284Y-25545782D01*
X17914284Y-25545782D02*
X18142856Y-25545782D01*
X18142856Y-25545782D02*
X18257142Y-25602925D01*
X18257142Y-25602925D02*
X18314284Y-25660068D01*
X18314284Y-25660068D02*
X18371427Y-25774354D01*
X18371427Y-25774354D02*
X18371427Y-25831497D01*
X18371427Y-25831497D02*
X18314284Y-25945782D01*
X18314284Y-25945782D02*
X18257142Y-26002925D01*
X18257142Y-26002925D02*
X18142856Y-26060068D01*
X18142856Y-26060068D02*
X17914284Y-26060068D01*
X17914284Y-26060068D02*
X17799999Y-26117211D01*
X17799999Y-26117211D02*
X17742856Y-26174354D01*
X17742856Y-26174354D02*
X17685713Y-26288640D01*
X17685713Y-26288640D02*
X17685713Y-26517211D01*
X17685713Y-26517211D02*
X17742856Y-26631497D01*
X17742856Y-26631497D02*
X17799999Y-26688640D01*
X17799999Y-26688640D02*
X17914284Y-26745782D01*
X17914284Y-26745782D02*
X18142856Y-26745782D01*
X18142856Y-26745782D02*
X18257142Y-26688640D01*
X18257142Y-26688640D02*
X18314284Y-26631497D01*
X18314284Y-26631497D02*
X18371427Y-26517211D01*
X18371427Y-26517211D02*
X18371427Y-26288640D01*
X18371427Y-26288640D02*
X18314284Y-26174354D01*
X18314284Y-26174354D02*
X18257142Y-26117211D01*
X18257142Y-26117211D02*
X18142856Y-26060068D01*
X18885713Y-26745782D02*
X18885713Y-25545782D01*
X18885713Y-25545782D02*
X19285713Y-26402925D01*
X19285713Y-26402925D02*
X19685713Y-25545782D01*
X19685713Y-25545782D02*
X19685713Y-26745782D01*
X20257142Y-26745782D02*
X20257142Y-25545782D01*
X20257142Y-26117211D02*
X20942856Y-26117211D01*
X20942856Y-26745782D02*
X20942856Y-25545782D01*
X21399999Y-25945782D02*
X22028571Y-25945782D01*
X22028571Y-25945782D02*
X21399999Y-26745782D01*
X21399999Y-26745782D02*
X22028571Y-26745782D01*
X23800000Y-26117211D02*
X23400000Y-26117211D01*
X23400000Y-26745782D02*
X23400000Y-25545782D01*
X23400000Y-25545782D02*
X23971428Y-25545782D01*
X24428571Y-26745782D02*
X24428571Y-25545782D01*
X24428571Y-25545782D02*
X24828571Y-26402925D01*
X24828571Y-26402925D02*
X25228571Y-25545782D01*
X25228571Y-25545782D02*
X25228571Y-26745782D01*
X27285714Y-26745782D02*
X26714286Y-26745782D01*
X26714286Y-26745782D02*
X26714286Y-25545782D01*
X27685715Y-26745782D02*
X27685715Y-25545782D01*
X27685715Y-25545782D02*
X28371429Y-26745782D01*
X28371429Y-26745782D02*
X28371429Y-25545782D01*
X28885715Y-26402925D02*
X29457144Y-26402925D01*
X28771429Y-26745782D02*
X29171429Y-25545782D01*
X29171429Y-25545782D02*
X29571429Y-26745782D01*
%TO.C,R3*%
D12*
X14152500Y-24262742D02*
X14152500Y-24737258D01*
X15197500Y-24262742D02*
X15197500Y-24737258D01*
%TO.C,C2*%
X5990000Y-17359420D02*
X5990000Y-17640580D01*
X7010000Y-17359420D02*
X7010000Y-17640580D01*
%TO.C,R2*%
X7977500Y-10737258D02*
X7977500Y-10262742D01*
X9022500Y-10737258D02*
X9022500Y-10262742D01*
%TO.C,L3*%
X20490000Y-10162779D02*
X20490000Y-9837221D01*
X21510000Y-10162779D02*
X21510000Y-9837221D01*
%TO.C,J3*%
X9620000Y-2120000D02*
X9620000Y-4880000D01*
X12270000Y-2120000D02*
X9620000Y-2120000D01*
X12270000Y-2120000D02*
X12270000Y-4880000D01*
X12270000Y-4880000D02*
X9620000Y-4880000D01*
X13540000Y-2120000D02*
X14920000Y-2120000D01*
X14920000Y-2120000D02*
X14920000Y-3500000D01*
%TO.C,C6*%
X20265000Y-18238748D02*
X20265000Y-18761252D01*
X21735000Y-18238748D02*
X21735000Y-18761252D01*
%TO.C,R4*%
X28977500Y-5762742D02*
X28977500Y-6237258D01*
X30022500Y-5762742D02*
X30022500Y-6237258D01*
%TO.C,L4*%
X35490000Y-10162779D02*
X35490000Y-9837221D01*
X36510000Y-10162779D02*
X36510000Y-9837221D01*
%TO.C,C9*%
X38738748Y-9265000D02*
X39261252Y-9265000D01*
X38738748Y-10735000D02*
X39261252Y-10735000D01*
%TO.C,C1*%
X11238748Y-15215000D02*
X11761252Y-15215000D01*
X11238748Y-16685000D02*
X11761252Y-16685000D01*
%TO.C,J2*%
X41140000Y-14750000D02*
X41140000Y-15250000D01*
X41140000Y-15250000D02*
X41640000Y-15000000D01*
X41640000Y-15000000D02*
X41140000Y-14750000D01*
X42190000Y-14160000D02*
X42190000Y-13050000D01*
X42190000Y-16950000D02*
X42190000Y-15840000D01*
X45440000Y-14160000D02*
X45440000Y-13050000D01*
X45440000Y-16950000D02*
X45440000Y-15840000D01*
%TO.C,D1*%
X20860000Y-2500000D02*
X16850000Y-2500000D01*
X20860000Y-4500000D02*
X16850000Y-4500000D01*
X20860000Y-4500000D02*
X20860000Y-2500000D01*
%TO.C,D3*%
X28540000Y-8500000D02*
X28540000Y-11185000D01*
X28540000Y-11185000D02*
X30460000Y-11185000D01*
X30460000Y-11185000D02*
X30460000Y-8500000D01*
%TO.C,C5*%
X10265000Y-10761252D02*
X10265000Y-10238748D01*
X11735000Y-10761252D02*
X11735000Y-10238748D01*
%TO.C,J1*%
X560000Y-13050000D02*
X560000Y-14160000D01*
X560000Y-15840000D02*
X560000Y-16950000D01*
X3810000Y-13050000D02*
X3810000Y-14160000D01*
X3810000Y-15840000D02*
X3810000Y-16950000D01*
X4360000Y-15000000D02*
X4860000Y-15250000D01*
X4860000Y-14750000D02*
X4360000Y-15000000D01*
X4860000Y-15250000D02*
X4860000Y-14750000D01*
%TO.C,Q1*%
X16240000Y-13440000D02*
X17760000Y-13440000D01*
X16240000Y-13490000D02*
X16240000Y-13440000D01*
X16240000Y-15390000D02*
X16240000Y-14610000D01*
X16240000Y-16560000D02*
X16240000Y-16510000D01*
X17760000Y-13440000D02*
X17760000Y-14440000D01*
X17760000Y-15560000D02*
X17760000Y-16560000D01*
X17760000Y-16560000D02*
X16240000Y-16560000D01*
X15700000Y-14620000D02*
X15940000Y-14950000D01*
X15460000Y-14950000D01*
X15700000Y-14620000D01*
G36*
X15940000Y-14950000D02*
G01*
X15460000Y-14950000D01*
X15700000Y-14620000D01*
X15940000Y-14950000D01*
G37*
%TO.C,D2*%
X35000000Y-2640000D02*
X35000000Y-6650000D01*
X37000000Y-2640000D02*
X35000000Y-2640000D01*
X37000000Y-2640000D02*
X37000000Y-6650000D01*
%TO.C,C12*%
X26065000Y-7238748D02*
X26065000Y-7761252D01*
X27535000Y-7238748D02*
X27535000Y-7761252D01*
%TO.C,L1*%
X7990000Y-17337221D02*
X7990000Y-17662779D01*
X9010000Y-17337221D02*
X9010000Y-17662779D01*
%TO.C,C11*%
X23265000Y-7238748D02*
X23265000Y-7761252D01*
X24735000Y-7238748D02*
X24735000Y-7761252D01*
%TO.C,C3*%
X15327000Y-10761252D02*
X15327000Y-10238748D01*
X16797000Y-10761252D02*
X16797000Y-10238748D01*
%TO.C,C7*%
X25238748Y-14265000D02*
X25761252Y-14265000D01*
X25238748Y-15735000D02*
X25761252Y-15735000D01*
%TO.C,C10*%
X38738748Y-6765000D02*
X39261252Y-6765000D01*
X38738748Y-8235000D02*
X39261252Y-8235000D01*
%TO.C,R1*%
X5477500Y-8737258D02*
X5477500Y-8262742D01*
X6522500Y-8737258D02*
X6522500Y-8262742D01*
%TO.C,JP1*%
X32000000Y-3600000D02*
X34000000Y-3600000D01*
X32000000Y-6400000D02*
X32000000Y-3600000D01*
X34000000Y-3600000D02*
X34000000Y-6400000D01*
X34000000Y-6400000D02*
X32000000Y-6400000D01*
%TO.C,L2*%
X14165000Y-19837221D02*
X14165000Y-20162779D01*
X15185000Y-19837221D02*
X15185000Y-20162779D01*
%TO.C,C4*%
X12765000Y-10761252D02*
X12765000Y-10238748D01*
X14235000Y-10761252D02*
X14235000Y-10238748D01*
%TD*%
M02*
