%TF.GenerationSoftware,KiCad,Pcbnew,10.0.6*%
%TF.CreationDate,2026-09-08T17:57:05+05:30*%
%TF.ProjectId,lna_fm_98mhz,6c6e615f-666d-45f3-9938-6d687a2e6b69,rev?*%
%TF.SameCoordinates,Original*%
%TF.FileFunction,Legend,Top*%
%TF.FilePolarity,Positive*%
%FSLAX46Y46*%
G04 Gerber Fmt 4.6, Leading zero omitted, Abs format (unit mm)*
G04 Created by KiCad (PCBNEW 10.0.6) date 2026-09-08 17:57:05*
%MOMM*%
%LPD*%
G01*
G04 APERTURE LIST*
%ADD10C,0.130000*%
%ADD11C,0.150000*%
%ADD12C,0.120000*%
G04 APERTURE END LIST*
D10*
X2614286Y-9863335D02*
X2614286Y-9063335D01*
X2995238Y-9863335D02*
X2995238Y-9063335D01*
X2995238Y-9063335D02*
X3452381Y-9863335D01*
X3452381Y-9863335D02*
X3452381Y-9063335D01*
X4823809Y-9063335D02*
X4442857Y-9063335D01*
X4442857Y-9063335D02*
X4404761Y-9444287D01*
X4404761Y-9444287D02*
X4442857Y-9406192D01*
X4442857Y-9406192D02*
X4519047Y-9368097D01*
X4519047Y-9368097D02*
X4709523Y-9368097D01*
X4709523Y-9368097D02*
X4785714Y-9406192D01*
X4785714Y-9406192D02*
X4823809Y-9444287D01*
X4823809Y-9444287D02*
X4861904Y-9520478D01*
X4861904Y-9520478D02*
X4861904Y-9710954D01*
X4861904Y-9710954D02*
X4823809Y-9787144D01*
X4823809Y-9787144D02*
X4785714Y-9825240D01*
X4785714Y-9825240D02*
X4709523Y-9863335D01*
X4709523Y-9863335D02*
X4519047Y-9863335D01*
X4519047Y-9863335D02*
X4442857Y-9825240D01*
X4442857Y-9825240D02*
X4404761Y-9787144D01*
X5357143Y-9063335D02*
X5433333Y-9063335D01*
X5433333Y-9063335D02*
X5509524Y-9101430D01*
X5509524Y-9101430D02*
X5547619Y-9139525D01*
X5547619Y-9139525D02*
X5585714Y-9215716D01*
X5585714Y-9215716D02*
X5623809Y-9368097D01*
X5623809Y-9368097D02*
X5623809Y-9558573D01*
X5623809Y-9558573D02*
X5585714Y-9710954D01*
X5585714Y-9710954D02*
X5547619Y-9787144D01*
X5547619Y-9787144D02*
X5509524Y-9825240D01*
X5509524Y-9825240D02*
X5433333Y-9863335D01*
X5433333Y-9863335D02*
X5357143Y-9863335D01*
X5357143Y-9863335D02*
X5280952Y-9825240D01*
X5280952Y-9825240D02*
X5242857Y-9787144D01*
X5242857Y-9787144D02*
X5204762Y-9710954D01*
X5204762Y-9710954D02*
X5166666Y-9558573D01*
X5166666Y-9558573D02*
X5166666Y-9368097D01*
X5166666Y-9368097D02*
X5204762Y-9215716D01*
X5204762Y-9215716D02*
X5242857Y-9139525D01*
X5242857Y-9139525D02*
X5280952Y-9101430D01*
X5280952Y-9101430D02*
X5357143Y-9063335D01*
X6423810Y-9863335D02*
X6157143Y-9482382D01*
X5966667Y-9863335D02*
X5966667Y-9063335D01*
X5966667Y-9063335D02*
X6271429Y-9063335D01*
X6271429Y-9063335D02*
X6347619Y-9101430D01*
X6347619Y-9101430D02*
X6385714Y-9139525D01*
X6385714Y-9139525D02*
X6423810Y-9215716D01*
X6423810Y-9215716D02*
X6423810Y-9330001D01*
X6423810Y-9330001D02*
X6385714Y-9406192D01*
X6385714Y-9406192D02*
X6347619Y-9444287D01*
X6347619Y-9444287D02*
X6271429Y-9482382D01*
X6271429Y-9482382D02*
X5966667Y-9482382D01*
X16925238Y-1258573D02*
X17534762Y-1258573D01*
X17230000Y-1563335D02*
X17230000Y-953811D01*
X16639523Y-5744287D02*
X16753809Y-5782382D01*
X16753809Y-5782382D02*
X16791904Y-5820478D01*
X16791904Y-5820478D02*
X16830000Y-5896668D01*
X16830000Y-5896668D02*
X16830000Y-6010954D01*
X16830000Y-6010954D02*
X16791904Y-6087144D01*
X16791904Y-6087144D02*
X16753809Y-6125240D01*
X16753809Y-6125240D02*
X16677619Y-6163335D01*
X16677619Y-6163335D02*
X16372857Y-6163335D01*
X16372857Y-6163335D02*
X16372857Y-5363335D01*
X16372857Y-5363335D02*
X16639523Y-5363335D01*
X16639523Y-5363335D02*
X16715714Y-5401430D01*
X16715714Y-5401430D02*
X16753809Y-5439525D01*
X16753809Y-5439525D02*
X16791904Y-5515716D01*
X16791904Y-5515716D02*
X16791904Y-5591906D01*
X16791904Y-5591906D02*
X16753809Y-5668097D01*
X16753809Y-5668097D02*
X16715714Y-5706192D01*
X16715714Y-5706192D02*
X16639523Y-5744287D01*
X16639523Y-5744287D02*
X16372857Y-5744287D01*
X17134761Y-5934763D02*
X17515714Y-5934763D01*
X17058571Y-6163335D02*
X17325238Y-5363335D01*
X17325238Y-5363335D02*
X17591904Y-6163335D01*
X17744285Y-5363335D02*
X18201428Y-5363335D01*
X17972856Y-6163335D02*
X17972856Y-5363335D01*
X19465238Y-1258573D02*
X20074762Y-1258573D01*
X19160476Y-5401430D02*
X19084286Y-5363335D01*
X19084286Y-5363335D02*
X18970000Y-5363335D01*
X18970000Y-5363335D02*
X18855714Y-5401430D01*
X18855714Y-5401430D02*
X18779524Y-5477620D01*
X18779524Y-5477620D02*
X18741429Y-5553811D01*
X18741429Y-5553811D02*
X18703333Y-5706192D01*
X18703333Y-5706192D02*
X18703333Y-5820478D01*
X18703333Y-5820478D02*
X18741429Y-5972859D01*
X18741429Y-5972859D02*
X18779524Y-6049049D01*
X18779524Y-6049049D02*
X18855714Y-6125240D01*
X18855714Y-6125240D02*
X18970000Y-6163335D01*
X18970000Y-6163335D02*
X19046191Y-6163335D01*
X19046191Y-6163335D02*
X19160476Y-6125240D01*
X19160476Y-6125240D02*
X19198572Y-6087144D01*
X19198572Y-6087144D02*
X19198572Y-5820478D01*
X19198572Y-5820478D02*
X19046191Y-5820478D01*
X19541429Y-6163335D02*
X19541429Y-5363335D01*
X19541429Y-5363335D02*
X19998572Y-6163335D01*
X19998572Y-6163335D02*
X19998572Y-5363335D01*
X20379524Y-6163335D02*
X20379524Y-5363335D01*
X20379524Y-5363335D02*
X20570000Y-5363335D01*
X20570000Y-5363335D02*
X20684286Y-5401430D01*
X20684286Y-5401430D02*
X20760476Y-5477620D01*
X20760476Y-5477620D02*
X20798571Y-5553811D01*
X20798571Y-5553811D02*
X20836667Y-5706192D01*
X20836667Y-5706192D02*
X20836667Y-5820478D01*
X20836667Y-5820478D02*
X20798571Y-5972859D01*
X20798571Y-5972859D02*
X20760476Y-6049049D01*
X20760476Y-6049049D02*
X20684286Y-6125240D01*
X20684286Y-6125240D02*
X20570000Y-6163335D01*
X20570000Y-6163335D02*
X20379524Y-6163335D01*
X21119047Y-27144287D02*
X21233333Y-27182382D01*
X21233333Y-27182382D02*
X21271428Y-27220478D01*
X21271428Y-27220478D02*
X21309524Y-27296668D01*
X21309524Y-27296668D02*
X21309524Y-27410954D01*
X21309524Y-27410954D02*
X21271428Y-27487144D01*
X21271428Y-27487144D02*
X21233333Y-27525240D01*
X21233333Y-27525240D02*
X21157143Y-27563335D01*
X21157143Y-27563335D02*
X20852381Y-27563335D01*
X20852381Y-27563335D02*
X20852381Y-26763335D01*
X20852381Y-26763335D02*
X21119047Y-26763335D01*
X21119047Y-26763335D02*
X21195238Y-26801430D01*
X21195238Y-26801430D02*
X21233333Y-26839525D01*
X21233333Y-26839525D02*
X21271428Y-26915716D01*
X21271428Y-26915716D02*
X21271428Y-26991906D01*
X21271428Y-26991906D02*
X21233333Y-27068097D01*
X21233333Y-27068097D02*
X21195238Y-27106192D01*
X21195238Y-27106192D02*
X21119047Y-27144287D01*
X21119047Y-27144287D02*
X20852381Y-27144287D01*
X21652381Y-27563335D02*
X21652381Y-26763335D01*
X21995237Y-27334763D02*
X22376190Y-27334763D01*
X21919047Y-27563335D02*
X22185714Y-26763335D01*
X22185714Y-26763335D02*
X22452380Y-27563335D01*
X22680951Y-27525240D02*
X22795237Y-27563335D01*
X22795237Y-27563335D02*
X22985713Y-27563335D01*
X22985713Y-27563335D02*
X23061904Y-27525240D01*
X23061904Y-27525240D02*
X23099999Y-27487144D01*
X23099999Y-27487144D02*
X23138094Y-27410954D01*
X23138094Y-27410954D02*
X23138094Y-27334763D01*
X23138094Y-27334763D02*
X23099999Y-27258573D01*
X23099999Y-27258573D02*
X23061904Y-27220478D01*
X23061904Y-27220478D02*
X22985713Y-27182382D01*
X22985713Y-27182382D02*
X22833332Y-27144287D01*
X22833332Y-27144287D02*
X22757142Y-27106192D01*
X22757142Y-27106192D02*
X22719047Y-27068097D01*
X22719047Y-27068097D02*
X22680951Y-26991906D01*
X22680951Y-26991906D02*
X22680951Y-26915716D01*
X22680951Y-26915716D02*
X22719047Y-26839525D01*
X22719047Y-26839525D02*
X22757142Y-26801430D01*
X22757142Y-26801430D02*
X22833332Y-26763335D01*
X22833332Y-26763335D02*
X23023809Y-26763335D01*
X23023809Y-26763335D02*
X23138094Y-26801430D01*
X23480952Y-27258573D02*
X24090476Y-27258573D01*
X24357142Y-26763335D02*
X24814285Y-26763335D01*
X24585713Y-27563335D02*
X24585713Y-26763335D01*
X25080952Y-27144287D02*
X25347618Y-27144287D01*
X25461904Y-27563335D02*
X25080952Y-27563335D01*
X25080952Y-27563335D02*
X25080952Y-26763335D01*
X25080952Y-26763335D02*
X25461904Y-26763335D01*
X25804762Y-27144287D02*
X26071428Y-27144287D01*
X26185714Y-27563335D02*
X25804762Y-27563335D01*
X25804762Y-27563335D02*
X25804762Y-26763335D01*
X25804762Y-26763335D02*
X26185714Y-26763335D01*
X27733333Y-7563335D02*
X27885714Y-7563335D01*
X27885714Y-7563335D02*
X27961904Y-7601430D01*
X27961904Y-7601430D02*
X28038095Y-7677620D01*
X28038095Y-7677620D02*
X28076190Y-7830001D01*
X28076190Y-7830001D02*
X28076190Y-8096668D01*
X28076190Y-8096668D02*
X28038095Y-8249049D01*
X28038095Y-8249049D02*
X27961904Y-8325240D01*
X27961904Y-8325240D02*
X27885714Y-8363335D01*
X27885714Y-8363335D02*
X27733333Y-8363335D01*
X27733333Y-8363335D02*
X27657142Y-8325240D01*
X27657142Y-8325240D02*
X27580952Y-8249049D01*
X27580952Y-8249049D02*
X27542856Y-8096668D01*
X27542856Y-8096668D02*
X27542856Y-7830001D01*
X27542856Y-7830001D02*
X27580952Y-7677620D01*
X27580952Y-7677620D02*
X27657142Y-7601430D01*
X27657142Y-7601430D02*
X27733333Y-7563335D01*
X28419047Y-7563335D02*
X28419047Y-8210954D01*
X28419047Y-8210954D02*
X28457142Y-8287144D01*
X28457142Y-8287144D02*
X28495237Y-8325240D01*
X28495237Y-8325240D02*
X28571428Y-8363335D01*
X28571428Y-8363335D02*
X28723809Y-8363335D01*
X28723809Y-8363335D02*
X28799999Y-8325240D01*
X28799999Y-8325240D02*
X28838094Y-8287144D01*
X28838094Y-8287144D02*
X28876190Y-8210954D01*
X28876190Y-8210954D02*
X28876190Y-7563335D01*
X29142856Y-7563335D02*
X29599999Y-7563335D01*
X29371427Y-8363335D02*
X29371427Y-7563335D01*
X30857142Y-7563335D02*
X30476190Y-7563335D01*
X30476190Y-7563335D02*
X30438094Y-7944287D01*
X30438094Y-7944287D02*
X30476190Y-7906192D01*
X30476190Y-7906192D02*
X30552380Y-7868097D01*
X30552380Y-7868097D02*
X30742856Y-7868097D01*
X30742856Y-7868097D02*
X30819047Y-7906192D01*
X30819047Y-7906192D02*
X30857142Y-7944287D01*
X30857142Y-7944287D02*
X30895237Y-8020478D01*
X30895237Y-8020478D02*
X30895237Y-8210954D01*
X30895237Y-8210954D02*
X30857142Y-8287144D01*
X30857142Y-8287144D02*
X30819047Y-8325240D01*
X30819047Y-8325240D02*
X30742856Y-8363335D01*
X30742856Y-8363335D02*
X30552380Y-8363335D01*
X30552380Y-8363335D02*
X30476190Y-8325240D01*
X30476190Y-8325240D02*
X30438094Y-8287144D01*
X31390476Y-7563335D02*
X31466666Y-7563335D01*
X31466666Y-7563335D02*
X31542857Y-7601430D01*
X31542857Y-7601430D02*
X31580952Y-7639525D01*
X31580952Y-7639525D02*
X31619047Y-7715716D01*
X31619047Y-7715716D02*
X31657142Y-7868097D01*
X31657142Y-7868097D02*
X31657142Y-8058573D01*
X31657142Y-8058573D02*
X31619047Y-8210954D01*
X31619047Y-8210954D02*
X31580952Y-8287144D01*
X31580952Y-8287144D02*
X31542857Y-8325240D01*
X31542857Y-8325240D02*
X31466666Y-8363335D01*
X31466666Y-8363335D02*
X31390476Y-8363335D01*
X31390476Y-8363335D02*
X31314285Y-8325240D01*
X31314285Y-8325240D02*
X31276190Y-8287144D01*
X31276190Y-8287144D02*
X31238095Y-8210954D01*
X31238095Y-8210954D02*
X31199999Y-8058573D01*
X31199999Y-8058573D02*
X31199999Y-7868097D01*
X31199999Y-7868097D02*
X31238095Y-7715716D01*
X31238095Y-7715716D02*
X31276190Y-7639525D01*
X31276190Y-7639525D02*
X31314285Y-7601430D01*
X31314285Y-7601430D02*
X31390476Y-7563335D01*
X32457143Y-8363335D02*
X32190476Y-7982382D01*
X32000000Y-8363335D02*
X32000000Y-7563335D01*
X32000000Y-7563335D02*
X32304762Y-7563335D01*
X32304762Y-7563335D02*
X32380952Y-7601430D01*
X32380952Y-7601430D02*
X32419047Y-7639525D01*
X32419047Y-7639525D02*
X32457143Y-7715716D01*
X32457143Y-7715716D02*
X32457143Y-7830001D01*
X32457143Y-7830001D02*
X32419047Y-7906192D01*
X32419047Y-7906192D02*
X32380952Y-7944287D01*
X32380952Y-7944287D02*
X32304762Y-7982382D01*
X32304762Y-7982382D02*
X32000000Y-7982382D01*
X18622617Y-26186467D02*
X18622617Y-25336467D01*
X18622617Y-25336467D02*
X18905951Y-25943610D01*
X18905951Y-25943610D02*
X19189284Y-25336467D01*
X19189284Y-25336467D02*
X19189284Y-26186467D01*
X19594046Y-26186467D02*
X19594046Y-25336467D01*
X19594046Y-25336467D02*
X19877380Y-25943610D01*
X19877380Y-25943610D02*
X20160713Y-25336467D01*
X20160713Y-25336467D02*
X20160713Y-26186467D01*
X20848809Y-25741229D02*
X20970237Y-25781705D01*
X20970237Y-25781705D02*
X21010714Y-25822181D01*
X21010714Y-25822181D02*
X21051190Y-25903133D01*
X21051190Y-25903133D02*
X21051190Y-26024562D01*
X21051190Y-26024562D02*
X21010714Y-26105514D01*
X21010714Y-26105514D02*
X20970237Y-26145991D01*
X20970237Y-26145991D02*
X20889285Y-26186467D01*
X20889285Y-26186467D02*
X20565475Y-26186467D01*
X20565475Y-26186467D02*
X20565475Y-25336467D01*
X20565475Y-25336467D02*
X20848809Y-25336467D01*
X20848809Y-25336467D02*
X20929761Y-25376943D01*
X20929761Y-25376943D02*
X20970237Y-25417419D01*
X20970237Y-25417419D02*
X21010714Y-25498371D01*
X21010714Y-25498371D02*
X21010714Y-25579324D01*
X21010714Y-25579324D02*
X20970237Y-25660276D01*
X20970237Y-25660276D02*
X20929761Y-25700752D01*
X20929761Y-25700752D02*
X20848809Y-25741229D01*
X20848809Y-25741229D02*
X20565475Y-25741229D01*
X21294047Y-25336467D02*
X21779761Y-25336467D01*
X21536904Y-26186467D02*
X21536904Y-25336467D01*
X22467856Y-25336467D02*
X22063094Y-25336467D01*
X22063094Y-25336467D02*
X22022618Y-25741229D01*
X22022618Y-25741229D02*
X22063094Y-25700752D01*
X22063094Y-25700752D02*
X22144047Y-25660276D01*
X22144047Y-25660276D02*
X22346428Y-25660276D01*
X22346428Y-25660276D02*
X22427380Y-25700752D01*
X22427380Y-25700752D02*
X22467856Y-25741229D01*
X22467856Y-25741229D02*
X22508333Y-25822181D01*
X22508333Y-25822181D02*
X22508333Y-26024562D01*
X22508333Y-26024562D02*
X22467856Y-26105514D01*
X22467856Y-26105514D02*
X22427380Y-26145991D01*
X22427380Y-26145991D02*
X22346428Y-26186467D01*
X22346428Y-26186467D02*
X22144047Y-26186467D01*
X22144047Y-26186467D02*
X22063094Y-26145991D01*
X22063094Y-26145991D02*
X22022618Y-26105514D01*
X23317857Y-26186467D02*
X22832142Y-26186467D01*
X23074999Y-26186467D02*
X23074999Y-25336467D01*
X23074999Y-25336467D02*
X22994047Y-25457895D01*
X22994047Y-25457895D02*
X22913095Y-25538848D01*
X22913095Y-25538848D02*
X22832142Y-25579324D01*
X23601190Y-25336467D02*
X24167857Y-25336467D01*
X24167857Y-25336467D02*
X23803571Y-26186467D01*
X24532143Y-26186467D02*
X24694047Y-26186467D01*
X24694047Y-26186467D02*
X24775000Y-26145991D01*
X24775000Y-26145991D02*
X24815476Y-26105514D01*
X24815476Y-26105514D02*
X24896428Y-25984086D01*
X24896428Y-25984086D02*
X24936905Y-25822181D01*
X24936905Y-25822181D02*
X24936905Y-25498371D01*
X24936905Y-25498371D02*
X24896428Y-25417419D01*
X24896428Y-25417419D02*
X24855952Y-25376943D01*
X24855952Y-25376943D02*
X24775000Y-25336467D01*
X24775000Y-25336467D02*
X24613095Y-25336467D01*
X24613095Y-25336467D02*
X24532143Y-25376943D01*
X24532143Y-25376943D02*
X24491666Y-25417419D01*
X24491666Y-25417419D02*
X24451190Y-25498371D01*
X24451190Y-25498371D02*
X24451190Y-25700752D01*
X24451190Y-25700752D02*
X24491666Y-25781705D01*
X24491666Y-25781705D02*
X24532143Y-25822181D01*
X24532143Y-25822181D02*
X24613095Y-25862657D01*
X24613095Y-25862657D02*
X24775000Y-25862657D01*
X24775000Y-25862657D02*
X24855952Y-25822181D01*
X24855952Y-25822181D02*
X24896428Y-25781705D01*
X24896428Y-25781705D02*
X24936905Y-25700752D01*
X26191667Y-26510276D02*
X26151190Y-26469800D01*
X26151190Y-26469800D02*
X26070238Y-26348371D01*
X26070238Y-26348371D02*
X26029762Y-26267419D01*
X26029762Y-26267419D02*
X25989286Y-26145991D01*
X25989286Y-26145991D02*
X25948809Y-25943610D01*
X25948809Y-25943610D02*
X25948809Y-25781705D01*
X25948809Y-25781705D02*
X25989286Y-25579324D01*
X25989286Y-25579324D02*
X26029762Y-25457895D01*
X26029762Y-25457895D02*
X26070238Y-25376943D01*
X26070238Y-25376943D02*
X26151190Y-25255514D01*
X26151190Y-25255514D02*
X26191667Y-25215038D01*
X27001191Y-26105514D02*
X26960715Y-26145991D01*
X26960715Y-26145991D02*
X26839286Y-26186467D01*
X26839286Y-26186467D02*
X26758334Y-26186467D01*
X26758334Y-26186467D02*
X26636905Y-26145991D01*
X26636905Y-26145991D02*
X26555953Y-26065038D01*
X26555953Y-26065038D02*
X26515476Y-25984086D01*
X26515476Y-25984086D02*
X26475000Y-25822181D01*
X26475000Y-25822181D02*
X26475000Y-25700752D01*
X26475000Y-25700752D02*
X26515476Y-25538848D01*
X26515476Y-25538848D02*
X26555953Y-25457895D01*
X26555953Y-25457895D02*
X26636905Y-25376943D01*
X26636905Y-25376943D02*
X26758334Y-25336467D01*
X26758334Y-25336467D02*
X26839286Y-25336467D01*
X26839286Y-25336467D02*
X26960715Y-25376943D01*
X26960715Y-25376943D02*
X27001191Y-25417419D01*
X27648810Y-25741229D02*
X27770238Y-25781705D01*
X27770238Y-25781705D02*
X27810715Y-25822181D01*
X27810715Y-25822181D02*
X27851191Y-25903133D01*
X27851191Y-25903133D02*
X27851191Y-26024562D01*
X27851191Y-26024562D02*
X27810715Y-26105514D01*
X27810715Y-26105514D02*
X27770238Y-26145991D01*
X27770238Y-26145991D02*
X27689286Y-26186467D01*
X27689286Y-26186467D02*
X27365476Y-26186467D01*
X27365476Y-26186467D02*
X27365476Y-25336467D01*
X27365476Y-25336467D02*
X27648810Y-25336467D01*
X27648810Y-25336467D02*
X27729762Y-25376943D01*
X27729762Y-25376943D02*
X27770238Y-25417419D01*
X27770238Y-25417419D02*
X27810715Y-25498371D01*
X27810715Y-25498371D02*
X27810715Y-25579324D01*
X27810715Y-25579324D02*
X27770238Y-25660276D01*
X27770238Y-25660276D02*
X27729762Y-25700752D01*
X27729762Y-25700752D02*
X27648810Y-25741229D01*
X27648810Y-25741229D02*
X27365476Y-25741229D01*
X28134524Y-26510276D02*
X28175000Y-26469800D01*
X28175000Y-26469800D02*
X28255953Y-26348371D01*
X28255953Y-26348371D02*
X28296429Y-26267419D01*
X28296429Y-26267419D02*
X28336905Y-26145991D01*
X28336905Y-26145991D02*
X28377381Y-25943610D01*
X28377381Y-25943610D02*
X28377381Y-25781705D01*
X28377381Y-25781705D02*
X28336905Y-25579324D01*
X28336905Y-25579324D02*
X28296429Y-25457895D01*
X28296429Y-25457895D02*
X28255953Y-25376943D01*
X28255953Y-25376943D02*
X28175000Y-25255514D01*
X28175000Y-25255514D02*
X28134524Y-25215038D01*
D11*
X18214285Y-24654819D02*
X18404761Y-24654819D01*
X18404761Y-24654819D02*
X18499999Y-24607200D01*
X18499999Y-24607200D02*
X18547618Y-24559580D01*
X18547618Y-24559580D02*
X18642856Y-24416723D01*
X18642856Y-24416723D02*
X18690475Y-24226247D01*
X18690475Y-24226247D02*
X18690475Y-23845295D01*
X18690475Y-23845295D02*
X18642856Y-23750057D01*
X18642856Y-23750057D02*
X18595237Y-23702438D01*
X18595237Y-23702438D02*
X18499999Y-23654819D01*
X18499999Y-23654819D02*
X18309523Y-23654819D01*
X18309523Y-23654819D02*
X18214285Y-23702438D01*
X18214285Y-23702438D02*
X18166666Y-23750057D01*
X18166666Y-23750057D02*
X18119047Y-23845295D01*
X18119047Y-23845295D02*
X18119047Y-24083390D01*
X18119047Y-24083390D02*
X18166666Y-24178628D01*
X18166666Y-24178628D02*
X18214285Y-24226247D01*
X18214285Y-24226247D02*
X18309523Y-24273866D01*
X18309523Y-24273866D02*
X18499999Y-24273866D01*
X18499999Y-24273866D02*
X18595237Y-24226247D01*
X18595237Y-24226247D02*
X18642856Y-24178628D01*
X18642856Y-24178628D02*
X18690475Y-24083390D01*
X19261904Y-24083390D02*
X19166666Y-24035771D01*
X19166666Y-24035771D02*
X19119047Y-23988152D01*
X19119047Y-23988152D02*
X19071428Y-23892914D01*
X19071428Y-23892914D02*
X19071428Y-23845295D01*
X19071428Y-23845295D02*
X19119047Y-23750057D01*
X19119047Y-23750057D02*
X19166666Y-23702438D01*
X19166666Y-23702438D02*
X19261904Y-23654819D01*
X19261904Y-23654819D02*
X19452380Y-23654819D01*
X19452380Y-23654819D02*
X19547618Y-23702438D01*
X19547618Y-23702438D02*
X19595237Y-23750057D01*
X19595237Y-23750057D02*
X19642856Y-23845295D01*
X19642856Y-23845295D02*
X19642856Y-23892914D01*
X19642856Y-23892914D02*
X19595237Y-23988152D01*
X19595237Y-23988152D02*
X19547618Y-24035771D01*
X19547618Y-24035771D02*
X19452380Y-24083390D01*
X19452380Y-24083390D02*
X19261904Y-24083390D01*
X19261904Y-24083390D02*
X19166666Y-24131009D01*
X19166666Y-24131009D02*
X19119047Y-24178628D01*
X19119047Y-24178628D02*
X19071428Y-24273866D01*
X19071428Y-24273866D02*
X19071428Y-24464342D01*
X19071428Y-24464342D02*
X19119047Y-24559580D01*
X19119047Y-24559580D02*
X19166666Y-24607200D01*
X19166666Y-24607200D02*
X19261904Y-24654819D01*
X19261904Y-24654819D02*
X19452380Y-24654819D01*
X19452380Y-24654819D02*
X19547618Y-24607200D01*
X19547618Y-24607200D02*
X19595237Y-24559580D01*
X19595237Y-24559580D02*
X19642856Y-24464342D01*
X19642856Y-24464342D02*
X19642856Y-24273866D01*
X19642856Y-24273866D02*
X19595237Y-24178628D01*
X19595237Y-24178628D02*
X19547618Y-24131009D01*
X19547618Y-24131009D02*
X19452380Y-24083390D01*
X20071428Y-24654819D02*
X20071428Y-23654819D01*
X20071428Y-23654819D02*
X20404761Y-24369104D01*
X20404761Y-24369104D02*
X20738094Y-23654819D01*
X20738094Y-23654819D02*
X20738094Y-24654819D01*
X21214285Y-24654819D02*
X21214285Y-23654819D01*
X21214285Y-24131009D02*
X21785713Y-24131009D01*
X21785713Y-24654819D02*
X21785713Y-23654819D01*
X22166666Y-23988152D02*
X22690475Y-23988152D01*
X22690475Y-23988152D02*
X22166666Y-24654819D01*
X22166666Y-24654819D02*
X22690475Y-24654819D01*
X24166666Y-24131009D02*
X23833333Y-24131009D01*
X23833333Y-24654819D02*
X23833333Y-23654819D01*
X23833333Y-23654819D02*
X24309523Y-23654819D01*
X24690476Y-24654819D02*
X24690476Y-23654819D01*
X24690476Y-23654819D02*
X25023809Y-24369104D01*
X25023809Y-24369104D02*
X25357142Y-23654819D01*
X25357142Y-23654819D02*
X25357142Y-24654819D01*
X27071428Y-24654819D02*
X26595238Y-24654819D01*
X26595238Y-24654819D02*
X26595238Y-23654819D01*
X27404762Y-24654819D02*
X27404762Y-23654819D01*
X27404762Y-23654819D02*
X27976190Y-24654819D01*
X27976190Y-24654819D02*
X27976190Y-23654819D01*
X28404762Y-24369104D02*
X28880952Y-24369104D01*
X28309524Y-24654819D02*
X28642857Y-23654819D01*
X28642857Y-23654819D02*
X28976190Y-24654819D01*
D10*
X12487144Y-16433332D02*
X12525240Y-16471428D01*
X12525240Y-16471428D02*
X12563335Y-16585713D01*
X12563335Y-16585713D02*
X12563335Y-16661904D01*
X12563335Y-16661904D02*
X12525240Y-16776190D01*
X12525240Y-16776190D02*
X12449049Y-16852380D01*
X12449049Y-16852380D02*
X12372859Y-16890475D01*
X12372859Y-16890475D02*
X12220478Y-16928571D01*
X12220478Y-16928571D02*
X12106192Y-16928571D01*
X12106192Y-16928571D02*
X11953811Y-16890475D01*
X11953811Y-16890475D02*
X11877620Y-16852380D01*
X11877620Y-16852380D02*
X11801430Y-16776190D01*
X11801430Y-16776190D02*
X11763335Y-16661904D01*
X11763335Y-16661904D02*
X11763335Y-16585713D01*
X11763335Y-16585713D02*
X11801430Y-16471428D01*
X11801430Y-16471428D02*
X11839525Y-16433332D01*
X12030001Y-15747618D02*
X12563335Y-15747618D01*
X11725240Y-15938094D02*
X12296668Y-16128571D01*
X12296668Y-16128571D02*
X12296668Y-15633332D01*
X17423809Y-18939525D02*
X17347619Y-18901430D01*
X17347619Y-18901430D02*
X17271428Y-18825240D01*
X17271428Y-18825240D02*
X17157142Y-18710954D01*
X17157142Y-18710954D02*
X17080952Y-18672859D01*
X17080952Y-18672859D02*
X17004761Y-18672859D01*
X17042857Y-18863335D02*
X16966666Y-18825240D01*
X16966666Y-18825240D02*
X16890476Y-18749049D01*
X16890476Y-18749049D02*
X16852380Y-18596668D01*
X16852380Y-18596668D02*
X16852380Y-18330001D01*
X16852380Y-18330001D02*
X16890476Y-18177620D01*
X16890476Y-18177620D02*
X16966666Y-18101430D01*
X16966666Y-18101430D02*
X17042857Y-18063335D01*
X17042857Y-18063335D02*
X17195238Y-18063335D01*
X17195238Y-18063335D02*
X17271428Y-18101430D01*
X17271428Y-18101430D02*
X17347619Y-18177620D01*
X17347619Y-18177620D02*
X17385714Y-18330001D01*
X17385714Y-18330001D02*
X17385714Y-18596668D01*
X17385714Y-18596668D02*
X17347619Y-18749049D01*
X17347619Y-18749049D02*
X17271428Y-18825240D01*
X17271428Y-18825240D02*
X17195238Y-18863335D01*
X17195238Y-18863335D02*
X17042857Y-18863335D01*
X18147618Y-18863335D02*
X17690475Y-18863335D01*
X17919047Y-18863335D02*
X17919047Y-18063335D01*
X17919047Y-18063335D02*
X17842856Y-18177620D01*
X17842856Y-18177620D02*
X17766666Y-18253811D01*
X17766666Y-18253811D02*
X17690475Y-18291906D01*
X11963335Y-22133333D02*
X11963335Y-22514285D01*
X11963335Y-22514285D02*
X11163335Y-22514285D01*
X11239525Y-21904762D02*
X11201430Y-21866666D01*
X11201430Y-21866666D02*
X11163335Y-21790476D01*
X11163335Y-21790476D02*
X11163335Y-21600000D01*
X11163335Y-21600000D02*
X11201430Y-21523809D01*
X11201430Y-21523809D02*
X11239525Y-21485714D01*
X11239525Y-21485714D02*
X11315716Y-21447619D01*
X11315716Y-21447619D02*
X11391906Y-21447619D01*
X11391906Y-21447619D02*
X11506192Y-21485714D01*
X11506192Y-21485714D02*
X11963335Y-21942857D01*
X11963335Y-21942857D02*
X11963335Y-21447619D01*
X21866667Y-18787144D02*
X21828571Y-18825240D01*
X21828571Y-18825240D02*
X21714286Y-18863335D01*
X21714286Y-18863335D02*
X21638095Y-18863335D01*
X21638095Y-18863335D02*
X21523809Y-18825240D01*
X21523809Y-18825240D02*
X21447619Y-18749049D01*
X21447619Y-18749049D02*
X21409524Y-18672859D01*
X21409524Y-18672859D02*
X21371428Y-18520478D01*
X21371428Y-18520478D02*
X21371428Y-18406192D01*
X21371428Y-18406192D02*
X21409524Y-18253811D01*
X21409524Y-18253811D02*
X21447619Y-18177620D01*
X21447619Y-18177620D02*
X21523809Y-18101430D01*
X21523809Y-18101430D02*
X21638095Y-18063335D01*
X21638095Y-18063335D02*
X21714286Y-18063335D01*
X21714286Y-18063335D02*
X21828571Y-18101430D01*
X21828571Y-18101430D02*
X21866667Y-18139525D01*
X22133333Y-18063335D02*
X22666667Y-18063335D01*
X22666667Y-18063335D02*
X22323809Y-18863335D01*
X12409524Y-1363335D02*
X12409524Y-563335D01*
X12409524Y-563335D02*
X12600000Y-563335D01*
X12600000Y-563335D02*
X12714286Y-601430D01*
X12714286Y-601430D02*
X12790476Y-677620D01*
X12790476Y-677620D02*
X12828571Y-753811D01*
X12828571Y-753811D02*
X12866667Y-906192D01*
X12866667Y-906192D02*
X12866667Y-1020478D01*
X12866667Y-1020478D02*
X12828571Y-1172859D01*
X12828571Y-1172859D02*
X12790476Y-1249049D01*
X12790476Y-1249049D02*
X12714286Y-1325240D01*
X12714286Y-1325240D02*
X12600000Y-1363335D01*
X12600000Y-1363335D02*
X12409524Y-1363335D01*
X13628571Y-1363335D02*
X13171428Y-1363335D01*
X13400000Y-1363335D02*
X13400000Y-563335D01*
X13400000Y-563335D02*
X13323809Y-677620D01*
X13323809Y-677620D02*
X13247619Y-753811D01*
X13247619Y-753811D02*
X13171428Y-791906D01*
X5363335Y-13633332D02*
X4982382Y-13899999D01*
X5363335Y-14090475D02*
X4563335Y-14090475D01*
X4563335Y-14090475D02*
X4563335Y-13785713D01*
X4563335Y-13785713D02*
X4601430Y-13709523D01*
X4601430Y-13709523D02*
X4639525Y-13671428D01*
X4639525Y-13671428D02*
X4715716Y-13633332D01*
X4715716Y-13633332D02*
X4830001Y-13633332D01*
X4830001Y-13633332D02*
X4906192Y-13671428D01*
X4906192Y-13671428D02*
X4944287Y-13709523D01*
X4944287Y-13709523D02*
X4982382Y-13785713D01*
X4982382Y-13785713D02*
X4982382Y-14090475D01*
X5363335Y-12871428D02*
X5363335Y-13328571D01*
X5363335Y-13099999D02*
X4563335Y-13099999D01*
X4563335Y-13099999D02*
X4677620Y-13176190D01*
X4677620Y-13176190D02*
X4753811Y-13252380D01*
X4753811Y-13252380D02*
X4791906Y-13328571D01*
X10087144Y-10133332D02*
X10125240Y-10171428D01*
X10125240Y-10171428D02*
X10163335Y-10285713D01*
X10163335Y-10285713D02*
X10163335Y-10361904D01*
X10163335Y-10361904D02*
X10125240Y-10476190D01*
X10125240Y-10476190D02*
X10049049Y-10552380D01*
X10049049Y-10552380D02*
X9972859Y-10590475D01*
X9972859Y-10590475D02*
X9820478Y-10628571D01*
X9820478Y-10628571D02*
X9706192Y-10628571D01*
X9706192Y-10628571D02*
X9553811Y-10590475D01*
X9553811Y-10590475D02*
X9477620Y-10552380D01*
X9477620Y-10552380D02*
X9401430Y-10476190D01*
X9401430Y-10476190D02*
X9363335Y-10361904D01*
X9363335Y-10361904D02*
X9363335Y-10285713D01*
X9363335Y-10285713D02*
X9401430Y-10171428D01*
X9401430Y-10171428D02*
X9439525Y-10133332D01*
X9363335Y-9409523D02*
X9363335Y-9790475D01*
X9363335Y-9790475D02*
X9744287Y-9828571D01*
X9744287Y-9828571D02*
X9706192Y-9790475D01*
X9706192Y-9790475D02*
X9668097Y-9714285D01*
X9668097Y-9714285D02*
X9668097Y-9523809D01*
X9668097Y-9523809D02*
X9706192Y-9447618D01*
X9706192Y-9447618D02*
X9744287Y-9409523D01*
X9744287Y-9409523D02*
X9820478Y-9371428D01*
X9820478Y-9371428D02*
X10010954Y-9371428D01*
X10010954Y-9371428D02*
X10087144Y-9409523D01*
X10087144Y-9409523D02*
X10125240Y-9447618D01*
X10125240Y-9447618D02*
X10163335Y-9523809D01*
X10163335Y-9523809D02*
X10163335Y-9714285D01*
X10163335Y-9714285D02*
X10125240Y-9790475D01*
X10125240Y-9790475D02*
X10087144Y-9828571D01*
X5209524Y-4863335D02*
X5209524Y-4063335D01*
X5209524Y-4063335D02*
X5400000Y-4063335D01*
X5400000Y-4063335D02*
X5514286Y-4101430D01*
X5514286Y-4101430D02*
X5590476Y-4177620D01*
X5590476Y-4177620D02*
X5628571Y-4253811D01*
X5628571Y-4253811D02*
X5666667Y-4406192D01*
X5666667Y-4406192D02*
X5666667Y-4520478D01*
X5666667Y-4520478D02*
X5628571Y-4672859D01*
X5628571Y-4672859D02*
X5590476Y-4749049D01*
X5590476Y-4749049D02*
X5514286Y-4825240D01*
X5514286Y-4825240D02*
X5400000Y-4863335D01*
X5400000Y-4863335D02*
X5209524Y-4863335D01*
X5933333Y-4063335D02*
X6428571Y-4063335D01*
X6428571Y-4063335D02*
X6161905Y-4368097D01*
X6161905Y-4368097D02*
X6276190Y-4368097D01*
X6276190Y-4368097D02*
X6352381Y-4406192D01*
X6352381Y-4406192D02*
X6390476Y-4444287D01*
X6390476Y-4444287D02*
X6428571Y-4520478D01*
X6428571Y-4520478D02*
X6428571Y-4710954D01*
X6428571Y-4710954D02*
X6390476Y-4787144D01*
X6390476Y-4787144D02*
X6352381Y-4825240D01*
X6352381Y-4825240D02*
X6276190Y-4863335D01*
X6276190Y-4863335D02*
X6047619Y-4863335D01*
X6047619Y-4863335D02*
X5971428Y-4825240D01*
X5971428Y-4825240D02*
X5933333Y-4787144D01*
X16287144Y-13683332D02*
X16325240Y-13721428D01*
X16325240Y-13721428D02*
X16363335Y-13835713D01*
X16363335Y-13835713D02*
X16363335Y-13911904D01*
X16363335Y-13911904D02*
X16325240Y-14026190D01*
X16325240Y-14026190D02*
X16249049Y-14102380D01*
X16249049Y-14102380D02*
X16172859Y-14140475D01*
X16172859Y-14140475D02*
X16020478Y-14178571D01*
X16020478Y-14178571D02*
X15906192Y-14178571D01*
X15906192Y-14178571D02*
X15753811Y-14140475D01*
X15753811Y-14140475D02*
X15677620Y-14102380D01*
X15677620Y-14102380D02*
X15601430Y-14026190D01*
X15601430Y-14026190D02*
X15563335Y-13911904D01*
X15563335Y-13911904D02*
X15563335Y-13835713D01*
X15563335Y-13835713D02*
X15601430Y-13721428D01*
X15601430Y-13721428D02*
X15639525Y-13683332D01*
X15563335Y-13416666D02*
X15563335Y-12921428D01*
X15563335Y-12921428D02*
X15868097Y-13188094D01*
X15868097Y-13188094D02*
X15868097Y-13073809D01*
X15868097Y-13073809D02*
X15906192Y-12997618D01*
X15906192Y-12997618D02*
X15944287Y-12959523D01*
X15944287Y-12959523D02*
X16020478Y-12921428D01*
X16020478Y-12921428D02*
X16210954Y-12921428D01*
X16210954Y-12921428D02*
X16287144Y-12959523D01*
X16287144Y-12959523D02*
X16325240Y-12997618D01*
X16325240Y-12997618D02*
X16363335Y-13073809D01*
X16363335Y-13073809D02*
X16363335Y-13302380D01*
X16363335Y-13302380D02*
X16325240Y-13378571D01*
X16325240Y-13378571D02*
X16287144Y-13416666D01*
X7763335Y-5633332D02*
X7382382Y-5899999D01*
X7763335Y-6090475D02*
X6963335Y-6090475D01*
X6963335Y-6090475D02*
X6963335Y-5785713D01*
X6963335Y-5785713D02*
X7001430Y-5709523D01*
X7001430Y-5709523D02*
X7039525Y-5671428D01*
X7039525Y-5671428D02*
X7115716Y-5633332D01*
X7115716Y-5633332D02*
X7230001Y-5633332D01*
X7230001Y-5633332D02*
X7306192Y-5671428D01*
X7306192Y-5671428D02*
X7344287Y-5709523D01*
X7344287Y-5709523D02*
X7382382Y-5785713D01*
X7382382Y-5785713D02*
X7382382Y-6090475D01*
X7230001Y-4947618D02*
X7763335Y-4947618D01*
X6925240Y-5138094D02*
X7496668Y-5328571D01*
X7496668Y-5328571D02*
X7496668Y-4833332D01*
X24866666Y-15863335D02*
X24485714Y-15863335D01*
X24485714Y-15863335D02*
X24485714Y-15063335D01*
X25476190Y-15330001D02*
X25476190Y-15863335D01*
X25285714Y-15025240D02*
X25095237Y-15596668D01*
X25095237Y-15596668D02*
X25590476Y-15596668D01*
X28833333Y-6063335D02*
X28833333Y-6634763D01*
X28833333Y-6634763D02*
X28795238Y-6749049D01*
X28795238Y-6749049D02*
X28719047Y-6825240D01*
X28719047Y-6825240D02*
X28604762Y-6863335D01*
X28604762Y-6863335D02*
X28528571Y-6863335D01*
X29214286Y-6863335D02*
X29214286Y-6063335D01*
X29214286Y-6063335D02*
X29519048Y-6063335D01*
X29519048Y-6063335D02*
X29595238Y-6101430D01*
X29595238Y-6101430D02*
X29633333Y-6139525D01*
X29633333Y-6139525D02*
X29671429Y-6215716D01*
X29671429Y-6215716D02*
X29671429Y-6330001D01*
X29671429Y-6330001D02*
X29633333Y-6406192D01*
X29633333Y-6406192D02*
X29595238Y-6444287D01*
X29595238Y-6444287D02*
X29519048Y-6482382D01*
X29519048Y-6482382D02*
X29214286Y-6482382D01*
X30433333Y-6863335D02*
X29976190Y-6863335D01*
X30204762Y-6863335D02*
X30204762Y-6063335D01*
X30204762Y-6063335D02*
X30128571Y-6177620D01*
X30128571Y-6177620D02*
X30052381Y-6253811D01*
X30052381Y-6253811D02*
X29976190Y-6291906D01*
X9563335Y-20633333D02*
X9563335Y-21014285D01*
X9563335Y-21014285D02*
X8763335Y-21014285D01*
X9563335Y-19947619D02*
X9563335Y-20404762D01*
X9563335Y-20176190D02*
X8763335Y-20176190D01*
X8763335Y-20176190D02*
X8877620Y-20252381D01*
X8877620Y-20252381D02*
X8953811Y-20328571D01*
X8953811Y-20328571D02*
X8991906Y-20404762D01*
X20863335Y-13833333D02*
X20863335Y-14214285D01*
X20863335Y-14214285D02*
X20063335Y-14214285D01*
X20063335Y-13642857D02*
X20063335Y-13147619D01*
X20063335Y-13147619D02*
X20368097Y-13414285D01*
X20368097Y-13414285D02*
X20368097Y-13300000D01*
X20368097Y-13300000D02*
X20406192Y-13223809D01*
X20406192Y-13223809D02*
X20444287Y-13185714D01*
X20444287Y-13185714D02*
X20520478Y-13147619D01*
X20520478Y-13147619D02*
X20710954Y-13147619D01*
X20710954Y-13147619D02*
X20787144Y-13185714D01*
X20787144Y-13185714D02*
X20825240Y-13223809D01*
X20825240Y-13223809D02*
X20863335Y-13300000D01*
X20863335Y-13300000D02*
X20863335Y-13528571D01*
X20863335Y-13528571D02*
X20825240Y-13604762D01*
X20825240Y-13604762D02*
X20787144Y-13642857D01*
X17787144Y-10514285D02*
X17825240Y-10552381D01*
X17825240Y-10552381D02*
X17863335Y-10666666D01*
X17863335Y-10666666D02*
X17863335Y-10742857D01*
X17863335Y-10742857D02*
X17825240Y-10857143D01*
X17825240Y-10857143D02*
X17749049Y-10933333D01*
X17749049Y-10933333D02*
X17672859Y-10971428D01*
X17672859Y-10971428D02*
X17520478Y-11009524D01*
X17520478Y-11009524D02*
X17406192Y-11009524D01*
X17406192Y-11009524D02*
X17253811Y-10971428D01*
X17253811Y-10971428D02*
X17177620Y-10933333D01*
X17177620Y-10933333D02*
X17101430Y-10857143D01*
X17101430Y-10857143D02*
X17063335Y-10742857D01*
X17063335Y-10742857D02*
X17063335Y-10666666D01*
X17063335Y-10666666D02*
X17101430Y-10552381D01*
X17101430Y-10552381D02*
X17139525Y-10514285D01*
X17863335Y-9752381D02*
X17863335Y-10209524D01*
X17863335Y-9980952D02*
X17063335Y-9980952D01*
X17063335Y-9980952D02*
X17177620Y-10057143D01*
X17177620Y-10057143D02*
X17253811Y-10133333D01*
X17253811Y-10133333D02*
X17291906Y-10209524D01*
X17139525Y-9447619D02*
X17101430Y-9409523D01*
X17101430Y-9409523D02*
X17063335Y-9333333D01*
X17063335Y-9333333D02*
X17063335Y-9142857D01*
X17063335Y-9142857D02*
X17101430Y-9066666D01*
X17101430Y-9066666D02*
X17139525Y-9028571D01*
X17139525Y-9028571D02*
X17215716Y-8990476D01*
X17215716Y-8990476D02*
X17291906Y-8990476D01*
X17291906Y-8990476D02*
X17406192Y-9028571D01*
X17406192Y-9028571D02*
X17863335Y-9485714D01*
X17863335Y-9485714D02*
X17863335Y-8990476D01*
X6087144Y-24333332D02*
X6125240Y-24371428D01*
X6125240Y-24371428D02*
X6163335Y-24485713D01*
X6163335Y-24485713D02*
X6163335Y-24561904D01*
X6163335Y-24561904D02*
X6125240Y-24676190D01*
X6125240Y-24676190D02*
X6049049Y-24752380D01*
X6049049Y-24752380D02*
X5972859Y-24790475D01*
X5972859Y-24790475D02*
X5820478Y-24828571D01*
X5820478Y-24828571D02*
X5706192Y-24828571D01*
X5706192Y-24828571D02*
X5553811Y-24790475D01*
X5553811Y-24790475D02*
X5477620Y-24752380D01*
X5477620Y-24752380D02*
X5401430Y-24676190D01*
X5401430Y-24676190D02*
X5363335Y-24561904D01*
X5363335Y-24561904D02*
X5363335Y-24485713D01*
X5363335Y-24485713D02*
X5401430Y-24371428D01*
X5401430Y-24371428D02*
X5439525Y-24333332D01*
X5439525Y-24028571D02*
X5401430Y-23990475D01*
X5401430Y-23990475D02*
X5363335Y-23914285D01*
X5363335Y-23914285D02*
X5363335Y-23723809D01*
X5363335Y-23723809D02*
X5401430Y-23647618D01*
X5401430Y-23647618D02*
X5439525Y-23609523D01*
X5439525Y-23609523D02*
X5515716Y-23571428D01*
X5515716Y-23571428D02*
X5591906Y-23571428D01*
X5591906Y-23571428D02*
X5706192Y-23609523D01*
X5706192Y-23609523D02*
X6163335Y-24066666D01*
X6163335Y-24066666D02*
X6163335Y-23571428D01*
X11687144Y-9014285D02*
X11725240Y-9052381D01*
X11725240Y-9052381D02*
X11763335Y-9166666D01*
X11763335Y-9166666D02*
X11763335Y-9242857D01*
X11763335Y-9242857D02*
X11725240Y-9357143D01*
X11725240Y-9357143D02*
X11649049Y-9433333D01*
X11649049Y-9433333D02*
X11572859Y-9471428D01*
X11572859Y-9471428D02*
X11420478Y-9509524D01*
X11420478Y-9509524D02*
X11306192Y-9509524D01*
X11306192Y-9509524D02*
X11153811Y-9471428D01*
X11153811Y-9471428D02*
X11077620Y-9433333D01*
X11077620Y-9433333D02*
X11001430Y-9357143D01*
X11001430Y-9357143D02*
X10963335Y-9242857D01*
X10963335Y-9242857D02*
X10963335Y-9166666D01*
X10963335Y-9166666D02*
X11001430Y-9052381D01*
X11001430Y-9052381D02*
X11039525Y-9014285D01*
X11763335Y-8252381D02*
X11763335Y-8709524D01*
X11763335Y-8480952D02*
X10963335Y-8480952D01*
X10963335Y-8480952D02*
X11077620Y-8557143D01*
X11077620Y-8557143D02*
X11153811Y-8633333D01*
X11153811Y-8633333D02*
X11191906Y-8709524D01*
X11763335Y-7490476D02*
X11763335Y-7947619D01*
X11763335Y-7719047D02*
X10963335Y-7719047D01*
X10963335Y-7719047D02*
X11077620Y-7795238D01*
X11077620Y-7795238D02*
X11153811Y-7871428D01*
X11153811Y-7871428D02*
X11191906Y-7947619D01*
X22487144Y-11614285D02*
X22525240Y-11652381D01*
X22525240Y-11652381D02*
X22563335Y-11766666D01*
X22563335Y-11766666D02*
X22563335Y-11842857D01*
X22563335Y-11842857D02*
X22525240Y-11957143D01*
X22525240Y-11957143D02*
X22449049Y-12033333D01*
X22449049Y-12033333D02*
X22372859Y-12071428D01*
X22372859Y-12071428D02*
X22220478Y-12109524D01*
X22220478Y-12109524D02*
X22106192Y-12109524D01*
X22106192Y-12109524D02*
X21953811Y-12071428D01*
X21953811Y-12071428D02*
X21877620Y-12033333D01*
X21877620Y-12033333D02*
X21801430Y-11957143D01*
X21801430Y-11957143D02*
X21763335Y-11842857D01*
X21763335Y-11842857D02*
X21763335Y-11766666D01*
X21763335Y-11766666D02*
X21801430Y-11652381D01*
X21801430Y-11652381D02*
X21839525Y-11614285D01*
X22563335Y-10852381D02*
X22563335Y-11309524D01*
X22563335Y-11080952D02*
X21763335Y-11080952D01*
X21763335Y-11080952D02*
X21877620Y-11157143D01*
X21877620Y-11157143D02*
X21953811Y-11233333D01*
X21953811Y-11233333D02*
X21991906Y-11309524D01*
X21763335Y-10357142D02*
X21763335Y-10280952D01*
X21763335Y-10280952D02*
X21801430Y-10204761D01*
X21801430Y-10204761D02*
X21839525Y-10166666D01*
X21839525Y-10166666D02*
X21915716Y-10128571D01*
X21915716Y-10128571D02*
X22068097Y-10090476D01*
X22068097Y-10090476D02*
X22258573Y-10090476D01*
X22258573Y-10090476D02*
X22410954Y-10128571D01*
X22410954Y-10128571D02*
X22487144Y-10166666D01*
X22487144Y-10166666D02*
X22525240Y-10204761D01*
X22525240Y-10204761D02*
X22563335Y-10280952D01*
X22563335Y-10280952D02*
X22563335Y-10357142D01*
X22563335Y-10357142D02*
X22525240Y-10433333D01*
X22525240Y-10433333D02*
X22487144Y-10471428D01*
X22487144Y-10471428D02*
X22410954Y-10509523D01*
X22410954Y-10509523D02*
X22258573Y-10547619D01*
X22258573Y-10547619D02*
X22068097Y-10547619D01*
X22068097Y-10547619D02*
X21915716Y-10509523D01*
X21915716Y-10509523D02*
X21839525Y-10471428D01*
X21839525Y-10471428D02*
X21801430Y-10433333D01*
X21801430Y-10433333D02*
X21763335Y-10357142D01*
X8163335Y-16433332D02*
X7782382Y-16699999D01*
X8163335Y-16890475D02*
X7363335Y-16890475D01*
X7363335Y-16890475D02*
X7363335Y-16585713D01*
X7363335Y-16585713D02*
X7401430Y-16509523D01*
X7401430Y-16509523D02*
X7439525Y-16471428D01*
X7439525Y-16471428D02*
X7515716Y-16433332D01*
X7515716Y-16433332D02*
X7630001Y-16433332D01*
X7630001Y-16433332D02*
X7706192Y-16471428D01*
X7706192Y-16471428D02*
X7744287Y-16509523D01*
X7744287Y-16509523D02*
X7782382Y-16585713D01*
X7782382Y-16585713D02*
X7782382Y-16890475D01*
X7439525Y-16128571D02*
X7401430Y-16090475D01*
X7401430Y-16090475D02*
X7363335Y-16014285D01*
X7363335Y-16014285D02*
X7363335Y-15823809D01*
X7363335Y-15823809D02*
X7401430Y-15747618D01*
X7401430Y-15747618D02*
X7439525Y-15709523D01*
X7439525Y-15709523D02*
X7515716Y-15671428D01*
X7515716Y-15671428D02*
X7591906Y-15671428D01*
X7591906Y-15671428D02*
X7706192Y-15709523D01*
X7706192Y-15709523D02*
X8163335Y-16166666D01*
X8163335Y-16166666D02*
X8163335Y-15671428D01*
X11963335Y-25133332D02*
X11582382Y-25399999D01*
X11963335Y-25590475D02*
X11163335Y-25590475D01*
X11163335Y-25590475D02*
X11163335Y-25285713D01*
X11163335Y-25285713D02*
X11201430Y-25209523D01*
X11201430Y-25209523D02*
X11239525Y-25171428D01*
X11239525Y-25171428D02*
X11315716Y-25133332D01*
X11315716Y-25133332D02*
X11430001Y-25133332D01*
X11430001Y-25133332D02*
X11506192Y-25171428D01*
X11506192Y-25171428D02*
X11544287Y-25209523D01*
X11544287Y-25209523D02*
X11582382Y-25285713D01*
X11582382Y-25285713D02*
X11582382Y-25590475D01*
X11163335Y-24866666D02*
X11163335Y-24371428D01*
X11163335Y-24371428D02*
X11468097Y-24638094D01*
X11468097Y-24638094D02*
X11468097Y-24523809D01*
X11468097Y-24523809D02*
X11506192Y-24447618D01*
X11506192Y-24447618D02*
X11544287Y-24409523D01*
X11544287Y-24409523D02*
X11620478Y-24371428D01*
X11620478Y-24371428D02*
X11810954Y-24371428D01*
X11810954Y-24371428D02*
X11887144Y-24409523D01*
X11887144Y-24409523D02*
X11925240Y-24447618D01*
X11925240Y-24447618D02*
X11963335Y-24523809D01*
X11963335Y-24523809D02*
X11963335Y-24752380D01*
X11963335Y-24752380D02*
X11925240Y-24828571D01*
X11925240Y-24828571D02*
X11887144Y-24866666D01*
X21087144Y-20633332D02*
X21125240Y-20671428D01*
X21125240Y-20671428D02*
X21163335Y-20785713D01*
X21163335Y-20785713D02*
X21163335Y-20861904D01*
X21163335Y-20861904D02*
X21125240Y-20976190D01*
X21125240Y-20976190D02*
X21049049Y-21052380D01*
X21049049Y-21052380D02*
X20972859Y-21090475D01*
X20972859Y-21090475D02*
X20820478Y-21128571D01*
X20820478Y-21128571D02*
X20706192Y-21128571D01*
X20706192Y-21128571D02*
X20553811Y-21090475D01*
X20553811Y-21090475D02*
X20477620Y-21052380D01*
X20477620Y-21052380D02*
X20401430Y-20976190D01*
X20401430Y-20976190D02*
X20363335Y-20861904D01*
X20363335Y-20861904D02*
X20363335Y-20785713D01*
X20363335Y-20785713D02*
X20401430Y-20671428D01*
X20401430Y-20671428D02*
X20439525Y-20633332D01*
X20363335Y-19947618D02*
X20363335Y-20099999D01*
X20363335Y-20099999D02*
X20401430Y-20176190D01*
X20401430Y-20176190D02*
X20439525Y-20214285D01*
X20439525Y-20214285D02*
X20553811Y-20290475D01*
X20553811Y-20290475D02*
X20706192Y-20328571D01*
X20706192Y-20328571D02*
X21010954Y-20328571D01*
X21010954Y-20328571D02*
X21087144Y-20290475D01*
X21087144Y-20290475D02*
X21125240Y-20252380D01*
X21125240Y-20252380D02*
X21163335Y-20176190D01*
X21163335Y-20176190D02*
X21163335Y-20023809D01*
X21163335Y-20023809D02*
X21125240Y-19947618D01*
X21125240Y-19947618D02*
X21087144Y-19909523D01*
X21087144Y-19909523D02*
X21010954Y-19871428D01*
X21010954Y-19871428D02*
X20820478Y-19871428D01*
X20820478Y-19871428D02*
X20744287Y-19909523D01*
X20744287Y-19909523D02*
X20706192Y-19947618D01*
X20706192Y-19947618D02*
X20668097Y-20023809D01*
X20668097Y-20023809D02*
X20668097Y-20176190D01*
X20668097Y-20176190D02*
X20706192Y-20252380D01*
X20706192Y-20252380D02*
X20744287Y-20290475D01*
X20744287Y-20290475D02*
X20820478Y-20328571D01*
X25409524Y-2663335D02*
X25409524Y-1863335D01*
X25409524Y-1863335D02*
X25600000Y-1863335D01*
X25600000Y-1863335D02*
X25714286Y-1901430D01*
X25714286Y-1901430D02*
X25790476Y-1977620D01*
X25790476Y-1977620D02*
X25828571Y-2053811D01*
X25828571Y-2053811D02*
X25866667Y-2206192D01*
X25866667Y-2206192D02*
X25866667Y-2320478D01*
X25866667Y-2320478D02*
X25828571Y-2472859D01*
X25828571Y-2472859D02*
X25790476Y-2549049D01*
X25790476Y-2549049D02*
X25714286Y-2625240D01*
X25714286Y-2625240D02*
X25600000Y-2663335D01*
X25600000Y-2663335D02*
X25409524Y-2663335D01*
X26171428Y-1939525D02*
X26209524Y-1901430D01*
X26209524Y-1901430D02*
X26285714Y-1863335D01*
X26285714Y-1863335D02*
X26476190Y-1863335D01*
X26476190Y-1863335D02*
X26552381Y-1901430D01*
X26552381Y-1901430D02*
X26590476Y-1939525D01*
X26590476Y-1939525D02*
X26628571Y-2015716D01*
X26628571Y-2015716D02*
X26628571Y-2091906D01*
X26628571Y-2091906D02*
X26590476Y-2206192D01*
X26590476Y-2206192D02*
X26133333Y-2663335D01*
X26133333Y-2663335D02*
X26628571Y-2663335D01*
X10366667Y-16787144D02*
X10328571Y-16825240D01*
X10328571Y-16825240D02*
X10214286Y-16863335D01*
X10214286Y-16863335D02*
X10138095Y-16863335D01*
X10138095Y-16863335D02*
X10023809Y-16825240D01*
X10023809Y-16825240D02*
X9947619Y-16749049D01*
X9947619Y-16749049D02*
X9909524Y-16672859D01*
X9909524Y-16672859D02*
X9871428Y-16520478D01*
X9871428Y-16520478D02*
X9871428Y-16406192D01*
X9871428Y-16406192D02*
X9909524Y-16253811D01*
X9909524Y-16253811D02*
X9947619Y-16177620D01*
X9947619Y-16177620D02*
X10023809Y-16101430D01*
X10023809Y-16101430D02*
X10138095Y-16063335D01*
X10138095Y-16063335D02*
X10214286Y-16063335D01*
X10214286Y-16063335D02*
X10328571Y-16101430D01*
X10328571Y-16101430D02*
X10366667Y-16139525D01*
X11128571Y-16863335D02*
X10671428Y-16863335D01*
X10900000Y-16863335D02*
X10900000Y-16063335D01*
X10900000Y-16063335D02*
X10823809Y-16177620D01*
X10823809Y-16177620D02*
X10747619Y-16253811D01*
X10747619Y-16253811D02*
X10671428Y-16291906D01*
X28487144Y-11233332D02*
X28525240Y-11271428D01*
X28525240Y-11271428D02*
X28563335Y-11385713D01*
X28563335Y-11385713D02*
X28563335Y-11461904D01*
X28563335Y-11461904D02*
X28525240Y-11576190D01*
X28525240Y-11576190D02*
X28449049Y-11652380D01*
X28449049Y-11652380D02*
X28372859Y-11690475D01*
X28372859Y-11690475D02*
X28220478Y-11728571D01*
X28220478Y-11728571D02*
X28106192Y-11728571D01*
X28106192Y-11728571D02*
X27953811Y-11690475D01*
X27953811Y-11690475D02*
X27877620Y-11652380D01*
X27877620Y-11652380D02*
X27801430Y-11576190D01*
X27801430Y-11576190D02*
X27763335Y-11461904D01*
X27763335Y-11461904D02*
X27763335Y-11385713D01*
X27763335Y-11385713D02*
X27801430Y-11271428D01*
X27801430Y-11271428D02*
X27839525Y-11233332D01*
X28563335Y-10852380D02*
X28563335Y-10699999D01*
X28563335Y-10699999D02*
X28525240Y-10623809D01*
X28525240Y-10623809D02*
X28487144Y-10585713D01*
X28487144Y-10585713D02*
X28372859Y-10509523D01*
X28372859Y-10509523D02*
X28220478Y-10471428D01*
X28220478Y-10471428D02*
X27915716Y-10471428D01*
X27915716Y-10471428D02*
X27839525Y-10509523D01*
X27839525Y-10509523D02*
X27801430Y-10547618D01*
X27801430Y-10547618D02*
X27763335Y-10623809D01*
X27763335Y-10623809D02*
X27763335Y-10776190D01*
X27763335Y-10776190D02*
X27801430Y-10852380D01*
X27801430Y-10852380D02*
X27839525Y-10890475D01*
X27839525Y-10890475D02*
X27915716Y-10928571D01*
X27915716Y-10928571D02*
X28106192Y-10928571D01*
X28106192Y-10928571D02*
X28182382Y-10890475D01*
X28182382Y-10890475D02*
X28220478Y-10852380D01*
X28220478Y-10852380D02*
X28258573Y-10776190D01*
X28258573Y-10776190D02*
X28258573Y-10623809D01*
X28258573Y-10623809D02*
X28220478Y-10547618D01*
X28220478Y-10547618D02*
X28182382Y-10509523D01*
X28182382Y-10509523D02*
X28106192Y-10471428D01*
%TO.C,C4*%
D12*
X11465000Y-13811252D02*
X11465000Y-13288748D01*
X12935000Y-13811252D02*
X12935000Y-13288748D01*
%TO.C,Q1*%
X14740000Y-15440000D02*
X16260000Y-15440000D01*
X14740000Y-15490000D02*
X14740000Y-15440000D01*
X14740000Y-17390000D02*
X14740000Y-16610000D01*
X14740000Y-18560000D02*
X14740000Y-18510000D01*
X16260000Y-15440000D02*
X16260000Y-16440000D01*
X16260000Y-17560000D02*
X16260000Y-18560000D01*
X16260000Y-18560000D02*
X14740000Y-18560000D01*
X14200000Y-16620000D02*
X14440000Y-16950000D01*
X13960000Y-16950000D01*
X14200000Y-16620000D01*
G36*
X14440000Y-16950000D02*
G01*
X13960000Y-16950000D01*
X14200000Y-16620000D01*
X14440000Y-16950000D01*
G37*
%TO.C,L2*%
X12490000Y-21837221D02*
X12490000Y-22162779D01*
X13510000Y-21837221D02*
X13510000Y-22162779D01*
%TO.C,C7*%
X21738748Y-16265000D02*
X22261252Y-16265000D01*
X21738748Y-17735000D02*
X22261252Y-17735000D01*
%TO.C,J1*%
X560000Y-15050000D02*
X560000Y-16160000D01*
X560000Y-17840000D02*
X560000Y-18950000D01*
X3810000Y-15050000D02*
X3810000Y-16160000D01*
X3810000Y-17840000D02*
X3810000Y-18950000D01*
X4360000Y-17000000D02*
X4860000Y-17250000D01*
X4860000Y-16750000D02*
X4360000Y-17000000D01*
X4860000Y-17250000D02*
X4860000Y-16750000D01*
%TO.C,D1*%
X10640000Y-2200000D02*
X10640000Y-4200000D01*
X10640000Y-2200000D02*
X14650000Y-2200000D01*
X10640000Y-4200000D02*
X14650000Y-4200000D01*
%TO.C,R1*%
X5677500Y-13962258D02*
X5677500Y-13487742D01*
X6722500Y-13962258D02*
X6722500Y-13487742D01*
%TO.C,C5*%
X9065000Y-13811252D02*
X9065000Y-13288748D01*
X10535000Y-13811252D02*
X10535000Y-13288748D01*
%TO.C,D3*%
X6315000Y-1540000D02*
X6315000Y-3460000D01*
X6315000Y-3460000D02*
X9000000Y-3460000D01*
X9000000Y-1540000D02*
X6315000Y-1540000D01*
%TO.C,C3*%
X13827000Y-13811252D02*
X13827000Y-13288748D01*
X15297000Y-13811252D02*
X15297000Y-13288748D01*
%TO.C,R4*%
X8427500Y-5737258D02*
X8427500Y-5262742D01*
X9472500Y-5737258D02*
X9472500Y-5262742D01*
%TO.C,L4*%
X24837221Y-13490000D02*
X25162779Y-13490000D01*
X24837221Y-14510000D02*
X25162779Y-14510000D01*
%TO.C,JP1*%
X24600000Y-6800000D02*
X24600000Y-6200000D01*
X25300000Y-5500000D02*
X26700000Y-5500000D01*
X26700000Y-7500000D02*
X25300000Y-7500000D01*
X27400000Y-6200000D02*
X27400000Y-6800000D01*
X24600000Y-6200000D02*
G75*
G02*
X25300000Y-5500000I700000J0D01*
G01*
X25300000Y-7500000D02*
G75*
G02*
X24600000Y-6800000I0J700000D01*
G01*
X26700000Y-5500000D02*
G75*
G02*
X27400000Y-6200000I1J-699999D01*
G01*
X27400000Y-6800000D02*
G75*
G02*
X26700000Y-7500000I-699999J-1D01*
G01*
%TO.C,L1*%
X7290000Y-20337221D02*
X7290000Y-20662779D01*
X8310000Y-20337221D02*
X8310000Y-20662779D01*
%TO.C,L3*%
X18490000Y-13887779D02*
X18490000Y-13562221D01*
X19510000Y-13887779D02*
X19510000Y-13562221D01*
%TO.C,C12*%
X14990000Y-8359420D02*
X14990000Y-8640580D01*
X16010000Y-8359420D02*
X16010000Y-8640580D01*
%TO.C,C2*%
X5290000Y-20359420D02*
X5290000Y-20640580D01*
X6310000Y-20359420D02*
X6310000Y-20640580D01*
%TO.C,C11*%
X12265000Y-8238748D02*
X12265000Y-8761252D01*
X13735000Y-8238748D02*
X13735000Y-8761252D01*
%TO.C,C10*%
X23265000Y-11361252D02*
X23265000Y-10838748D01*
X24735000Y-11361252D02*
X24735000Y-10838748D01*
%TO.C,J2*%
X29140000Y-16750000D02*
X29140000Y-17250000D01*
X29140000Y-17250000D02*
X29640000Y-17000000D01*
X29640000Y-17000000D02*
X29140000Y-16750000D01*
X30190000Y-16160000D02*
X30190000Y-15050000D01*
X30190000Y-18950000D02*
X30190000Y-17840000D01*
X33440000Y-16160000D02*
X33440000Y-15050000D01*
X33440000Y-18950000D02*
X33440000Y-17840000D01*
%TO.C,R2*%
X7277500Y-13962258D02*
X7277500Y-13487742D01*
X8322500Y-13962258D02*
X8322500Y-13487742D01*
%TO.C,R3*%
X12477500Y-24762742D02*
X12477500Y-25237258D01*
X13522500Y-24762742D02*
X13522500Y-25237258D01*
%TO.C,C6*%
X18265000Y-20238748D02*
X18265000Y-20761252D01*
X19735000Y-20238748D02*
X19735000Y-20761252D01*
%TO.C,D2*%
X23640000Y-3000000D02*
X23640000Y-5000000D01*
X23640000Y-3000000D02*
X27650000Y-3000000D01*
X23640000Y-5000000D02*
X27650000Y-5000000D01*
%TO.C,J3*%
X17120000Y-4580000D02*
X17120000Y-3200000D01*
X18500000Y-4580000D02*
X17120000Y-4580000D01*
X19770000Y-1820000D02*
X22420000Y-1820000D01*
X19770000Y-4580000D02*
X19770000Y-1820000D01*
X19770000Y-4580000D02*
X22420000Y-4580000D01*
X22420000Y-4580000D02*
X22420000Y-1820000D01*
%TO.C,C1*%
X10238748Y-17215000D02*
X10761252Y-17215000D01*
X10238748Y-18685000D02*
X10761252Y-18685000D01*
%TO.C,C9*%
X25765000Y-11361252D02*
X25765000Y-10838748D01*
X27235000Y-11361252D02*
X27235000Y-10838748D01*
%TD*%
M02*
