%TF.GenerationSoftware,KiCad,Pcbnew,10.0.6*%
%TF.CreationDate,2026-09-08T01:02:30+05:30*%
%TF.ProjectId,lna_fm_98mhz,6c6e615f-666d-45f3-9938-6d687a2e6b69,rev?*%
%TF.SameCoordinates,Original*%
%TF.FileFunction,Copper,L1,Top*%
%TF.FilePolarity,Positive*%
%FSLAX46Y46*%
G04 Gerber Fmt 4.6, Leading zero omitted, Abs format (unit mm)*
G04 Created by KiCad (PCBNEW 10.0.6) date 2026-09-08 01:02:30*
%MOMM*%
%LPD*%
G01*
G04 APERTURE LIST*
G04 Aperture macros list*
%AMRoundRect*
0 Rectangle with rounded corners*
0 $1 Rounding radius*
0 $2 $3 $4 $5 $6 $7 $8 $9 X,Y pos of 4 corners*
0 Add a 4 corners polygon primitive as box body*
4,1,4,$2,$3,$4,$5,$6,$7,$8,$9,$2,$3,0*
0 Add four circle primitives for the rounded corners*
1,1,$1+$1,$2,$3*
1,1,$1+$1,$4,$5*
1,1,$1+$1,$6,$7*
1,1,$1+$1,$8,$9*
0 Add four rect primitives between the rounded corners*
20,1,$1+$1,$2,$3,$4,$5,0*
20,1,$1+$1,$4,$5,$6,$7,0*
20,1,$1+$1,$6,$7,$8,$9,0*
20,1,$1+$1,$8,$9,$2,$3,0*%
G04 Aperture macros list end*
%TA.AperFunction,SMDPad,CuDef*%
%ADD10RoundRect,0.243750X0.456250X-0.243750X0.456250X0.243750X-0.456250X0.243750X-0.456250X-0.243750X0*%
%TD*%
%TA.AperFunction,ComponentPad*%
%ADD11C,4.400000*%
%TD*%
%TA.AperFunction,SMDPad,CuDef*%
%ADD12RoundRect,0.250000X1.350000X-0.385000X1.350000X0.385000X-1.350000X0.385000X-1.350000X-0.385000X0*%
%TD*%
%TA.AperFunction,SMDPad,CuDef*%
%ADD13RoundRect,0.250000X1.600000X-0.425000X1.600000X0.425000X-1.600000X0.425000X-1.600000X-0.425000X0*%
%TD*%
%TA.AperFunction,SMDPad,CuDef*%
%ADD14RoundRect,0.225000X0.225000X0.375000X-0.225000X0.375000X-0.225000X-0.375000X0.225000X-0.375000X0*%
%TD*%
%TA.AperFunction,SMDPad,CuDef*%
%ADD15RoundRect,0.250000X-0.475000X0.250000X-0.475000X-0.250000X0.475000X-0.250000X0.475000X0.250000X0*%
%TD*%
%TA.AperFunction,SMDPad,CuDef*%
%ADD16RoundRect,0.250000X-0.250000X-0.475000X0.250000X-0.475000X0.250000X0.475000X-0.250000X0.475000X0*%
%TD*%
%TA.AperFunction,SMDPad,CuDef*%
%ADD17RoundRect,0.200000X0.275000X-0.200000X0.275000X0.200000X-0.275000X0.200000X-0.275000X-0.200000X0*%
%TD*%
%TA.AperFunction,SMDPad,CuDef*%
%ADD18RoundRect,0.250000X0.475000X-0.250000X0.475000X0.250000X-0.475000X0.250000X-0.475000X-0.250000X0*%
%TD*%
%TA.AperFunction,SMDPad,CuDef*%
%ADD19RoundRect,0.200000X-0.275000X0.200000X-0.275000X-0.200000X0.275000X-0.200000X0.275000X0.200000X0*%
%TD*%
%TA.AperFunction,SMDPad,CuDef*%
%ADD20RoundRect,0.218750X0.256250X-0.218750X0.256250X0.218750X-0.256250X0.218750X-0.256250X-0.218750X0*%
%TD*%
%TA.AperFunction,SMDPad,CuDef*%
%ADD21RoundRect,0.225000X-0.250000X0.225000X-0.250000X-0.225000X0.250000X-0.225000X0.250000X0.225000X0*%
%TD*%
%TA.AperFunction,ComponentPad*%
%ADD22R,1.700000X1.700000*%
%TD*%
%TA.AperFunction,ComponentPad*%
%ADD23C,1.700000*%
%TD*%
%TA.AperFunction,SMDPad,CuDef*%
%ADD24RoundRect,0.150000X-0.587500X-0.150000X0.587500X-0.150000X0.587500X0.150000X-0.587500X0.150000X0*%
%TD*%
%TA.AperFunction,SMDPad,CuDef*%
%ADD25RoundRect,0.225000X-0.375000X0.225000X-0.375000X-0.225000X0.375000X-0.225000X0.375000X0.225000X0*%
%TD*%
%TA.AperFunction,SMDPad,CuDef*%
%ADD26RoundRect,0.218750X-0.256250X0.218750X-0.256250X-0.218750X0.256250X-0.218750X0.256250X0.218750X0*%
%TD*%
%TA.AperFunction,SMDPad,CuDef*%
%ADD27RoundRect,0.250000X-1.350000X0.385000X-1.350000X-0.385000X1.350000X-0.385000X1.350000X0.385000X0*%
%TD*%
%TA.AperFunction,SMDPad,CuDef*%
%ADD28RoundRect,0.250000X-1.600000X0.425000X-1.600000X-0.425000X1.600000X-0.425000X1.600000X0.425000X0*%
%TD*%
%TA.AperFunction,SMDPad,CuDef*%
%ADD29R,1.500000X1.000000*%
%TD*%
%TA.AperFunction,ViaPad*%
%ADD30C,0.600000*%
%TD*%
%TA.AperFunction,Conductor*%
%ADD31C,0.400000*%
%TD*%
%TA.AperFunction,Conductor*%
%ADD32C,0.500000*%
%TD*%
%TA.AperFunction,Conductor*%
%ADD33C,0.600000*%
%TD*%
%TA.AperFunction,Conductor*%
%ADD34C,1.500000*%
%TD*%
%TA.AperFunction,Conductor*%
%ADD35C,0.350000*%
%TD*%
G04 APERTURE END LIST*
D10*
%TO.P,D3,1*%
%TO.N,GND*%
X29500000Y-10437500D03*
%TO.P,D3,2*%
%TO.N,Net-(D3-Pad2)*%
X29500000Y-8562500D03*
%TD*%
D11*
%TO.P,H4,1*%
%TO.N,GND*%
X42500000Y-26500000D03*
%TD*%
D12*
%TO.P,J2,1*%
%TO.N,/RF_OUT_50R*%
X43900000Y-15000000D03*
D13*
%TO.P,J2,2*%
%TO.N,GND*%
X43650000Y-12175000D03*
X43650000Y-17825000D03*
%TD*%
D14*
%TO.P,D1,1*%
%TO.N,VCC*%
X20150000Y-3500000D03*
%TO.P,D1,2*%
%TO.N,/BAT_IN*%
X16850000Y-3500000D03*
%TD*%
D15*
%TO.P,C11,1*%
%TO.N,VCC*%
X24000000Y-6550000D03*
%TO.P,C11,2*%
%TO.N,GND*%
X24000000Y-8450000D03*
%TD*%
D16*
%TO.P,C10,1*%
%TO.N,/BIAS_TEE_DC*%
X38050000Y-7500000D03*
%TO.P,C10,2*%
%TO.N,GND*%
X39950000Y-7500000D03*
%TD*%
D17*
%TO.P,R1,1*%
%TO.N,/BASE*%
X6000000Y-9325000D03*
%TO.P,R1,2*%
%TO.N,VCC*%
X6000000Y-7675000D03*
%TD*%
D18*
%TO.P,C5,1*%
%TO.N,/BASE*%
X11000000Y-11450000D03*
%TO.P,C5,2*%
%TO.N,GND*%
X11000000Y-9550000D03*
%TD*%
D16*
%TO.P,C1,1*%
%TO.N,/RF_IN_50R*%
X10550000Y-15950000D03*
%TO.P,C1,2*%
%TO.N,/EMITTER*%
X12450000Y-15950000D03*
%TD*%
D19*
%TO.P,R4,1*%
%TO.N,VCC*%
X29500000Y-5175000D03*
%TO.P,R4,2*%
%TO.N,Net-(D3-Pad2)*%
X29500000Y-6825000D03*
%TD*%
D20*
%TO.P,L3,1*%
%TO.N,/COLLECTOR*%
X21000000Y-10787500D03*
%TO.P,L3,2*%
%TO.N,VCC*%
X21000000Y-9212500D03*
%TD*%
%TO.P,L4,1*%
%TO.N,/RF_OUT_50R*%
X36000000Y-10787500D03*
%TO.P,L4,2*%
%TO.N,/BIAS_TEE_DC*%
X36000000Y-9212500D03*
%TD*%
D21*
%TO.P,C2,1*%
%TO.N,/RF_IN_50R*%
X6500000Y-16725000D03*
%TO.P,C2,2*%
%TO.N,GND*%
X6500000Y-18275000D03*
%TD*%
D11*
%TO.P,H1,1*%
%TO.N,GND*%
X3500000Y-3500000D03*
%TD*%
D22*
%TO.P,J3,1*%
%TO.N,/BAT_IN*%
X13540000Y-3500000D03*
D23*
%TO.P,J3,2*%
%TO.N,GND*%
X11000000Y-3500000D03*
%TD*%
D18*
%TO.P,C4,1*%
%TO.N,/BASE*%
X13500000Y-11450000D03*
%TO.P,C4,2*%
%TO.N,GND*%
X13500000Y-9550000D03*
%TD*%
D16*
%TO.P,C9,1*%
%TO.N,/BIAS_TEE_DC*%
X38050000Y-10000000D03*
%TO.P,C9,2*%
%TO.N,GND*%
X39950000Y-10000000D03*
%TD*%
D15*
%TO.P,C12,1*%
%TO.N,VCC*%
X26800000Y-6550000D03*
%TO.P,C12,2*%
%TO.N,GND*%
X26800000Y-8450000D03*
%TD*%
D24*
%TO.P,Q1,1*%
%TO.N,/BASE*%
X16062500Y-14050000D03*
%TO.P,Q1,2*%
%TO.N,/EMITTER*%
X16062500Y-15950000D03*
%TO.P,Q1,3*%
%TO.N,/COLLECTOR*%
X17937500Y-15000000D03*
%TD*%
D25*
%TO.P,D2,1*%
%TO.N,VCC*%
X36000000Y-3350000D03*
%TO.P,D2,2*%
%TO.N,/BIAS_TEE_DC*%
X36000000Y-6650000D03*
%TD*%
D17*
%TO.P,R2,1*%
%TO.N,/BASE*%
X8500000Y-11325000D03*
%TO.P,R2,2*%
%TO.N,GND*%
X8500000Y-9675000D03*
%TD*%
D26*
%TO.P,L2,1*%
%TO.N,/EMITTER*%
X14675000Y-19212500D03*
%TO.P,L2,2*%
%TO.N,Net-(L2-Pad2)*%
X14675000Y-20787500D03*
%TD*%
D18*
%TO.P,C3,1*%
%TO.N,/BASE*%
X16062000Y-11450000D03*
%TO.P,C3,2*%
%TO.N,GND*%
X16062000Y-9550000D03*
%TD*%
D26*
%TO.P,L1,1*%
%TO.N,/RF_IN_50R*%
X8500000Y-16712500D03*
%TO.P,L1,2*%
%TO.N,GND*%
X8500000Y-18287500D03*
%TD*%
D16*
%TO.P,C7,1*%
%TO.N,/COLLECTOR*%
X24550000Y-15000000D03*
%TO.P,C7,2*%
%TO.N,/RF_OUT_50R*%
X26450000Y-15000000D03*
%TD*%
D27*
%TO.P,J1,1*%
%TO.N,/RF_IN_50R*%
X2100000Y-15000000D03*
D28*
%TO.P,J1,2*%
%TO.N,GND*%
X2350000Y-17825000D03*
X2350000Y-12175000D03*
%TD*%
D29*
%TO.P,JP1,1*%
%TO.N,/BIAS_TEE_DC*%
X33000000Y-5650000D03*
%TO.P,JP1,2*%
%TO.N,VCC*%
X33000000Y-4350000D03*
%TD*%
D11*
%TO.P,H2,1*%
%TO.N,GND*%
X42500000Y-3500000D03*
%TD*%
%TO.P,H3,1*%
%TO.N,GND*%
X3500000Y-26500000D03*
%TD*%
D15*
%TO.P,C6,1*%
%TO.N,/COLLECTOR*%
X21000000Y-17550000D03*
%TO.P,C6,2*%
%TO.N,GND*%
X21000000Y-19450000D03*
%TD*%
D19*
%TO.P,R3,1*%
%TO.N,Net-(L2-Pad2)*%
X14675000Y-23675000D03*
%TO.P,R3,2*%
%TO.N,GND*%
X14675000Y-25325000D03*
%TD*%
D30*
%TO.N,GND*%
X42500000Y-10000000D03*
X22000000Y-26500000D03*
X23500000Y-17500000D03*
X28000000Y-17500000D03*
X30000000Y-26500000D03*
X2000000Y-17500000D03*
X8000000Y-26500000D03*
X35500000Y-17500000D03*
X37000000Y-21500000D03*
X12000000Y-12500000D03*
X1500000Y-21000000D03*
X31000000Y-12500000D03*
X11500000Y-18500000D03*
X44000000Y-21500000D03*
X43000000Y-17500000D03*
X18000000Y-26500000D03*
X42500000Y-20000000D03*
X22000000Y-1500000D03*
X16062000Y-7800000D03*
X22000000Y-28500000D03*
X23500000Y-12500000D03*
X1500000Y-9000000D03*
X6500000Y-20000000D03*
X7000000Y-12500000D03*
X18500000Y-12500000D03*
X28000000Y-12500000D03*
X4000000Y-28500000D03*
X4000000Y-1500000D03*
X29500000Y-12000000D03*
X25800000Y-12500000D03*
X38000000Y-26500000D03*
X26800000Y-10000000D03*
X18500000Y-17500000D03*
X2000000Y-12500000D03*
X34000000Y-26500000D03*
X44500000Y-9000000D03*
X29000000Y-21500000D03*
X4500000Y-12500000D03*
X3500000Y-10000000D03*
X21000000Y-21500000D03*
X16000000Y-28500000D03*
X26000000Y-1500000D03*
X41500000Y-7500000D03*
X44500000Y-21000000D03*
X41000000Y-21500000D03*
X38000000Y-1500000D03*
X18000000Y-1500000D03*
X33000000Y-17500000D03*
X4500000Y-17500000D03*
X38000000Y-17500000D03*
X11000000Y-7800000D03*
X43500000Y-12500000D03*
X44500000Y-17500000D03*
X40500000Y-17500000D03*
X13500000Y-7800000D03*
X30500000Y-17500000D03*
X44500000Y-5000000D03*
X28000000Y-28500000D03*
X30000000Y-1500000D03*
X12000000Y-21500000D03*
X8500000Y-3500000D03*
X25800000Y-17500000D03*
X44500000Y-25000000D03*
X33500000Y-12500000D03*
X41500000Y-10000000D03*
X25000000Y-21500000D03*
X38500000Y-12500000D03*
X5000000Y-21500000D03*
X1500000Y-5000000D03*
X41000000Y-12500000D03*
X1500000Y-25000000D03*
X3500000Y-20000000D03*
X8500000Y-20500000D03*
X24000000Y-10000000D03*
X8500000Y-7800000D03*
X34000000Y-1500000D03*
X10000000Y-28500000D03*
X40000000Y-28500000D03*
X16000000Y-21500000D03*
X33000000Y-21500000D03*
X9500000Y-12500000D03*
X26000000Y-26500000D03*
X14675000Y-27000000D03*
X2000000Y-21500000D03*
X34000000Y-28500000D03*
%TD*%
%TO.N,GND*%
D31*
X8500000Y-9675000D02*
X8500000Y-7800000D01*
X16062000Y-9550000D02*
X16062000Y-7800000D01*
X11000000Y-9550000D02*
X11000000Y-7800000D01*
X6500000Y-18275000D02*
X6500000Y-20000000D01*
X11000000Y-3500000D02*
X8500000Y-3500000D01*
X8500000Y-18287500D02*
X8500000Y-20500000D01*
X24000000Y-8450000D02*
X24000000Y-10000000D01*
X39950000Y-7500000D02*
X41500000Y-7500000D01*
X13500000Y-9550000D02*
X13500000Y-7800000D01*
X39950000Y-10000000D02*
X41500000Y-10000000D01*
X29500000Y-10437500D02*
X29500000Y-12000000D01*
X14675000Y-25325000D02*
X14675000Y-27000000D01*
X26800000Y-8450000D02*
X26800000Y-10000000D01*
X21000000Y-19450000D02*
X21000000Y-21500000D01*
%TO.N,VCC*%
X33000000Y-4350000D02*
X33000000Y-4500000D01*
D32*
X21000000Y-9212500D02*
X21000000Y-4500000D01*
D31*
X20150000Y-6200000D02*
X20150000Y-4500000D01*
X6000000Y-6200000D02*
X20150000Y-6200000D01*
D32*
X24000000Y-6550000D02*
X24000000Y-4500000D01*
X29500000Y-5175000D02*
X29500000Y-4500000D01*
X36000000Y-3350000D02*
X36000000Y-4500000D01*
D33*
X20150000Y-4500000D02*
X36000000Y-4500000D01*
X20150000Y-3500000D02*
X20150000Y-4500000D01*
D31*
X6000000Y-7675000D02*
X6000000Y-6200000D01*
D32*
X26800000Y-6550000D02*
X26800000Y-4500000D01*
%TO.N,/RF_IN_50R*%
D33*
X8500000Y-15000000D02*
X9450000Y-15950000D01*
X9450000Y-15950000D02*
X10550000Y-15950000D01*
D34*
X2100000Y-15000000D02*
X8500000Y-15000000D01*
D33*
X8500000Y-15000000D02*
X8500000Y-16712499D01*
X6500000Y-15000000D02*
X6500000Y-16725000D01*
%TO.N,/RF_OUT_50R*%
D32*
X36000000Y-15000000D02*
X36000000Y-10787500D01*
D34*
X26450000Y-15000000D02*
X43900000Y-15000000D01*
%TO.N,/EMITTER*%
D32*
X12450000Y-15950000D02*
X16062500Y-15950000D01*
D31*
X14675000Y-15950000D02*
X14675000Y-19212500D01*
%TO.N,/BASE*%
X11000000Y-11450000D02*
X8500000Y-11325000D01*
X8500000Y-11325000D02*
X6000000Y-11325000D01*
X6000000Y-11325000D02*
X6000000Y-9325000D01*
D32*
X16062500Y-14050000D02*
X16062000Y-11450000D01*
D31*
X16062000Y-11450000D02*
X13500000Y-11450000D01*
X13500000Y-11450000D02*
X11000000Y-11450000D01*
%TO.N,/COLLECTOR*%
D32*
X21000000Y-15000000D02*
X21000000Y-10787500D01*
X17937500Y-15000000D02*
X24550000Y-15000000D01*
X21000000Y-15000000D02*
X21000000Y-17550000D01*
%TO.N,/BIAS_TEE_DC*%
D31*
X36000000Y-6650000D02*
X33000000Y-5650000D01*
X36000000Y-9212500D02*
X38050000Y-9212500D01*
X38050000Y-9212500D02*
X38050000Y-10000000D01*
X36000000Y-9212500D02*
X36000000Y-6650000D01*
X38050000Y-10000000D02*
X38050000Y-7500000D01*
%TO.N,/BAT_IN*%
D33*
X13540000Y-3500000D02*
X16850000Y-3500000D01*
%TO.N,Net-(L2-Pad2)*%
D31*
X14675000Y-20787500D02*
X14675000Y-23675000D01*
%TO.N,Net-(D3-Pad2)*%
D35*
X29500000Y-6825000D02*
X29500000Y-8562500D01*
%TD*%
%TA.AperFunction,Conductor*%
%TO.N,GND*%
G36*
X20208691Y-15769407D02*
G01*
X20244655Y-15818907D01*
X20249500Y-15849500D01*
X20249500Y-16532894D01*
X20230593Y-16591085D01*
X20202473Y-16617155D01*
X20056345Y-16707287D01*
X19932285Y-16831347D01*
X19840187Y-16980663D01*
X19785000Y-17147205D01*
X19774500Y-17249983D01*
X19774500Y-17850016D01*
X19784999Y-17952788D01*
X19785000Y-17952795D01*
X19785001Y-17952797D01*
X19808926Y-18024999D01*
X19840187Y-18119336D01*
X19932285Y-18268652D01*
X19932286Y-18268653D01*
X19932288Y-18268656D01*
X20056344Y-18392712D01*
X20056346Y-18392713D01*
X20056347Y-18392714D01*
X20094152Y-18416032D01*
X20133753Y-18462673D01*
X20138377Y-18523683D01*
X20106257Y-18575759D01*
X20094154Y-18584553D01*
X20056659Y-18607680D01*
X19932680Y-18731659D01*
X19840643Y-18880875D01*
X19785493Y-19047306D01*
X19775000Y-19150012D01*
X19775000Y-19199999D01*
X19775001Y-19200000D01*
X22224998Y-19200000D01*
X22224999Y-19199999D01*
X22224999Y-19150013D01*
X22214507Y-19047312D01*
X22214504Y-19047300D01*
X22159356Y-18880875D01*
X22067319Y-18731659D01*
X21943339Y-18607679D01*
X21905846Y-18584553D01*
X21866245Y-18537912D01*
X21861622Y-18476902D01*
X21893743Y-18424826D01*
X21905838Y-18416037D01*
X21943656Y-18392712D01*
X22067712Y-18268656D01*
X22159814Y-18119334D01*
X22214999Y-17952797D01*
X22225500Y-17850009D01*
X22225499Y-17249992D01*
X22225499Y-17249991D01*
X22225499Y-17249983D01*
X22215000Y-17147211D01*
X22214999Y-17147209D01*
X22214999Y-17147203D01*
X22159814Y-16980666D01*
X22067712Y-16831344D01*
X21943656Y-16707288D01*
X21799028Y-16618081D01*
X21797527Y-16617155D01*
X21757926Y-16570514D01*
X21750500Y-16532894D01*
X21750500Y-15849500D01*
X21769407Y-15791309D01*
X21818907Y-15755345D01*
X21849500Y-15750500D01*
X23532895Y-15750500D01*
X23591086Y-15769407D01*
X23617156Y-15797528D01*
X23707285Y-15943652D01*
X23707286Y-15943653D01*
X23707288Y-15943656D01*
X23831344Y-16067712D01*
X23831346Y-16067713D01*
X23831347Y-16067714D01*
X23834752Y-16069814D01*
X23980666Y-16159814D01*
X24147203Y-16214999D01*
X24249991Y-16225500D01*
X24850008Y-16225499D01*
X24850016Y-16225499D01*
X24952788Y-16215000D01*
X24952788Y-16214999D01*
X24952797Y-16214999D01*
X25119334Y-16159814D01*
X25268656Y-16067712D01*
X25392712Y-15943656D01*
X25415667Y-15906438D01*
X25462306Y-15866837D01*
X25523316Y-15862212D01*
X25569932Y-15888406D01*
X25570302Y-15888776D01*
X25584558Y-15906807D01*
X25607284Y-15943651D01*
X25607286Y-15943653D01*
X25607288Y-15943656D01*
X25731344Y-16067712D01*
X25731346Y-16067713D01*
X25731347Y-16067714D01*
X25734752Y-16069814D01*
X25880666Y-16159814D01*
X26047203Y-16214999D01*
X26149991Y-16225500D01*
X26185945Y-16225499D01*
X26201430Y-16226717D01*
X26270159Y-16237603D01*
X26351581Y-16250500D01*
X26351583Y-16250500D01*
X43998420Y-16250500D01*
X44192821Y-16219710D01*
X44192822Y-16219709D01*
X44192826Y-16219709D01*
X44380025Y-16158884D01*
X44404744Y-16146288D01*
X44449688Y-16135499D01*
X45300016Y-16135499D01*
X45402788Y-16125000D01*
X45402788Y-16124999D01*
X45402797Y-16124999D01*
X45569334Y-16069814D01*
X45718656Y-15977712D01*
X45830498Y-15865869D01*
X45885013Y-15838094D01*
X45945445Y-15847665D01*
X45988710Y-15890930D01*
X45999500Y-15935875D01*
X45999500Y-29900500D01*
X45980593Y-29958691D01*
X45931093Y-29994655D01*
X45900500Y-29999500D01*
X99500Y-29999500D01*
X41309Y-29980593D01*
X5345Y-29931093D01*
X500Y-29900500D01*
X500Y-25575001D01*
X13700001Y-25575001D01*
X13700001Y-25581582D01*
X13706408Y-25652103D01*
X13706410Y-25652109D01*
X13756979Y-25814392D01*
X13756982Y-25814400D01*
X13844924Y-25959872D01*
X13965127Y-26080075D01*
X14110599Y-26168017D01*
X14110607Y-26168020D01*
X14272889Y-26218589D01*
X14272895Y-26218591D01*
X14343424Y-26224999D01*
X14424999Y-26224998D01*
X14425000Y-26224998D01*
X14425000Y-25575001D01*
X14925000Y-25575001D01*
X14925000Y-26224998D01*
X14925001Y-26224999D01*
X15006566Y-26224999D01*
X15006582Y-26224998D01*
X15077103Y-26218591D01*
X15077109Y-26218589D01*
X15239392Y-26168020D01*
X15239400Y-26168017D01*
X15384872Y-26080075D01*
X15505075Y-25959872D01*
X15593017Y-25814400D01*
X15593020Y-25814392D01*
X15643589Y-25652110D01*
X15643591Y-25652104D01*
X15649999Y-25581581D01*
X15650000Y-25581568D01*
X15650000Y-25575001D01*
X15649999Y-25575000D01*
X14925001Y-25575000D01*
X14925000Y-25575001D01*
X14425000Y-25575001D01*
X14424999Y-25575000D01*
X13700002Y-25575000D01*
X13700001Y-25575001D01*
X500Y-25575001D01*
X500Y-18525001D01*
X5525001Y-18525001D01*
X5525001Y-18548322D01*
X5535142Y-18647597D01*
X5535145Y-18647609D01*
X5588454Y-18808487D01*
X5677425Y-18952729D01*
X5797270Y-19072574D01*
X5941512Y-19161545D01*
X6102396Y-19214856D01*
X6201677Y-19224999D01*
X6250000Y-19224998D01*
X6250000Y-18525001D01*
X6750000Y-18525001D01*
X6750000Y-19224998D01*
X6750001Y-19224999D01*
X6798322Y-19224999D01*
X6897597Y-19214857D01*
X6897609Y-19214854D01*
X7058487Y-19161545D01*
X7202729Y-19072574D01*
X7322574Y-18952729D01*
X7414575Y-18803576D01*
X7417185Y-18805186D01*
X7450275Y-18769189D01*
X7510251Y-18757085D01*
X7565887Y-18782546D01*
X7584213Y-18807578D01*
X7584880Y-18807167D01*
X7676112Y-18955077D01*
X7794922Y-19073887D01*
X7937924Y-19162092D01*
X8097419Y-19214943D01*
X8195849Y-19224999D01*
X8249999Y-19224998D01*
X8250000Y-19224998D01*
X8250000Y-18537501D01*
X8750000Y-18537501D01*
X8750000Y-19224998D01*
X8750001Y-19224999D01*
X8804150Y-19224999D01*
X8902574Y-19214944D01*
X8902586Y-19214941D01*
X9062075Y-19162092D01*
X9205077Y-19073887D01*
X9323887Y-18955077D01*
X9412092Y-18812075D01*
X9464943Y-18652580D01*
X9475000Y-18554151D01*
X9475000Y-18537501D01*
X9474999Y-18537500D01*
X8750001Y-18537500D01*
X8750000Y-18537501D01*
X8250000Y-18537501D01*
X8249999Y-18537500D01*
X7473507Y-18537500D01*
X7435035Y-18525000D01*
X6750001Y-18525000D01*
X6750000Y-18525001D01*
X6250000Y-18525001D01*
X6249999Y-18525000D01*
X5525002Y-18525000D01*
X5525001Y-18525001D01*
X500Y-18525001D01*
X500Y-15935875D01*
X19407Y-15877684D01*
X68907Y-15841720D01*
X130093Y-15841720D01*
X169501Y-15865869D01*
X281344Y-15977712D01*
X430666Y-16069814D01*
X597203Y-16124999D01*
X699991Y-16135500D01*
X1550312Y-16135499D01*
X1595255Y-16146288D01*
X1619975Y-16158884D01*
X1807174Y-16219709D01*
X1807175Y-16219709D01*
X1807178Y-16219710D01*
X2001580Y-16250500D01*
X2001583Y-16250500D01*
X5435421Y-16250500D01*
X5493612Y-16269407D01*
X5529576Y-16318907D01*
X5533908Y-16359562D01*
X5524500Y-16451647D01*
X5524500Y-16998352D01*
X5534649Y-17097699D01*
X5534650Y-17097706D01*
X5534651Y-17097708D01*
X5538663Y-17109814D01*
X5587998Y-17258700D01*
X5632514Y-17330870D01*
X5677032Y-17403044D01*
X5704339Y-17430351D01*
X5732115Y-17484866D01*
X5722544Y-17545298D01*
X5704339Y-17570355D01*
X5677430Y-17597264D01*
X5677425Y-17597270D01*
X5588454Y-17741512D01*
X5535143Y-17902396D01*
X5525000Y-18001676D01*
X5525000Y-18024999D01*
X5525001Y-18025000D01*
X7526493Y-18025000D01*
X7564965Y-18037500D01*
X9474998Y-18037500D01*
X9474999Y-18037499D01*
X9474999Y-18020849D01*
X9464944Y-17922425D01*
X9464941Y-17922413D01*
X9412092Y-17762924D01*
X9323887Y-17619922D01*
X9274322Y-17570357D01*
X9246545Y-17515840D01*
X9256116Y-17455408D01*
X9274319Y-17430352D01*
X9324281Y-17380391D01*
X9412549Y-17237287D01*
X9465436Y-17077685D01*
X9473541Y-16998352D01*
X9475500Y-16979181D01*
X9475500Y-16866953D01*
X9494407Y-16808762D01*
X9543907Y-16772798D01*
X9605093Y-16772798D01*
X9654593Y-16808762D01*
X9658761Y-16814981D01*
X9707285Y-16893652D01*
X9707286Y-16893653D01*
X9707288Y-16893656D01*
X9831344Y-17017712D01*
X9980666Y-17109814D01*
X10147203Y-17164999D01*
X10249991Y-17175500D01*
X10850008Y-17175499D01*
X10850016Y-17175499D01*
X10952788Y-17165000D01*
X10952788Y-17164999D01*
X10952797Y-17164999D01*
X11119334Y-17109814D01*
X11268656Y-17017712D01*
X11392712Y-16893656D01*
X11415739Y-16856322D01*
X11462380Y-16816722D01*
X11523390Y-16812098D01*
X11575466Y-16844218D01*
X11584261Y-16856323D01*
X11607285Y-16893652D01*
X11607286Y-16893653D01*
X11607288Y-16893656D01*
X11731344Y-17017712D01*
X11880666Y-17109814D01*
X12047203Y-17164999D01*
X12149991Y-17175500D01*
X12750008Y-17175499D01*
X12750016Y-17175499D01*
X12852788Y-17165000D01*
X12852788Y-17164999D01*
X12852797Y-17164999D01*
X13019334Y-17109814D01*
X13168656Y-17017712D01*
X13292712Y-16893656D01*
X13382844Y-16747528D01*
X13429485Y-16707926D01*
X13467105Y-16700500D01*
X13875500Y-16700500D01*
X13933691Y-16719407D01*
X13969655Y-16768907D01*
X13974500Y-16799500D01*
X13974500Y-18379821D01*
X13955593Y-18438012D01*
X13945509Y-18449818D01*
X13850719Y-18544609D01*
X13837425Y-18566160D01*
X13762454Y-18687706D01*
X13762450Y-18687714D01*
X13709563Y-18847317D01*
X13699500Y-18945818D01*
X13699500Y-19479181D01*
X13709563Y-19577682D01*
X13762450Y-19737285D01*
X13762454Y-19737293D01*
X13770284Y-19749987D01*
X13850719Y-19880391D01*
X13900326Y-19929998D01*
X13928102Y-19984513D01*
X13918531Y-20044945D01*
X13900327Y-20070000D01*
X13850719Y-20119609D01*
X13850718Y-20119610D01*
X13850718Y-20119611D01*
X13762454Y-20262706D01*
X13762450Y-20262714D01*
X13709563Y-20422317D01*
X13699500Y-20520818D01*
X13699500Y-21054181D01*
X13709563Y-21152682D01*
X13762450Y-21312285D01*
X13762454Y-21312293D01*
X13802330Y-21376942D01*
X13850719Y-21455391D01*
X13945505Y-21550177D01*
X13973281Y-21604692D01*
X13974500Y-21620179D01*
X13974500Y-22868836D01*
X13955593Y-22927027D01*
X13945509Y-22938833D01*
X13844528Y-23039815D01*
X13844527Y-23039816D01*
X13756522Y-23185392D01*
X13756521Y-23185394D01*
X13705913Y-23347805D01*
X13699500Y-23418379D01*
X13699500Y-23931620D01*
X13705913Y-24002194D01*
X13756521Y-24164605D01*
X13756522Y-24164607D01*
X13821914Y-24272777D01*
X13844528Y-24310185D01*
X13964695Y-24430352D01*
X13992471Y-24484867D01*
X13982900Y-24545299D01*
X13964694Y-24570358D01*
X13844924Y-24690127D01*
X13756982Y-24835599D01*
X13756979Y-24835607D01*
X13706410Y-24997889D01*
X13706408Y-24997895D01*
X13700000Y-25068418D01*
X13700000Y-25074999D01*
X13700001Y-25075000D01*
X15649998Y-25075000D01*
X15649999Y-25074999D01*
X15649999Y-25068433D01*
X15649998Y-25068417D01*
X15643591Y-24997896D01*
X15643589Y-24997890D01*
X15593020Y-24835607D01*
X15593017Y-24835599D01*
X15505075Y-24690127D01*
X15385306Y-24570358D01*
X15357529Y-24515841D01*
X15367100Y-24455409D01*
X15385303Y-24430353D01*
X15505472Y-24310185D01*
X15593478Y-24164606D01*
X15644086Y-24002196D01*
X15650500Y-23931616D01*
X15650500Y-23418384D01*
X15644086Y-23347804D01*
X15593478Y-23185394D01*
X15505472Y-23039815D01*
X15404494Y-22938837D01*
X15376719Y-22884323D01*
X15375500Y-22868836D01*
X15375500Y-21620179D01*
X15394407Y-21561988D01*
X15404490Y-21550181D01*
X15499281Y-21455391D01*
X15587549Y-21312287D01*
X15640436Y-21152685D01*
X15643455Y-21123131D01*
X15650500Y-21054181D01*
X15650500Y-20520818D01*
X15640436Y-20422317D01*
X15640436Y-20422315D01*
X15587549Y-20262713D01*
X15499281Y-20119609D01*
X15449673Y-20070001D01*
X15421898Y-20015487D01*
X15431469Y-19955055D01*
X15449672Y-19929999D01*
X15499281Y-19880391D01*
X15587549Y-19737287D01*
X15599904Y-19700001D01*
X19775001Y-19700001D01*
X19775001Y-19749986D01*
X19785492Y-19852687D01*
X19785495Y-19852699D01*
X19840643Y-20019124D01*
X19932680Y-20168340D01*
X20056659Y-20292319D01*
X20205875Y-20384356D01*
X20372306Y-20439506D01*
X20475013Y-20449999D01*
X20749998Y-20449999D01*
X20750000Y-20449998D01*
X20750000Y-19700001D01*
X21250000Y-19700001D01*
X21250000Y-20449998D01*
X21250001Y-20449999D01*
X21524986Y-20449999D01*
X21627687Y-20439507D01*
X21627699Y-20439504D01*
X21794124Y-20384356D01*
X21943340Y-20292319D01*
X22067319Y-20168340D01*
X22159356Y-20019124D01*
X22214506Y-19852693D01*
X22225000Y-19749987D01*
X22225000Y-19700001D01*
X22224999Y-19700000D01*
X21250001Y-19700000D01*
X21250000Y-19700001D01*
X20750000Y-19700001D01*
X20749999Y-19700000D01*
X19775002Y-19700000D01*
X19775001Y-19700001D01*
X15599904Y-19700001D01*
X15640436Y-19577685D01*
X15643455Y-19548131D01*
X15650500Y-19479181D01*
X15650500Y-18945818D01*
X15640436Y-18847317D01*
X15640436Y-18847315D01*
X15587549Y-18687713D01*
X15499281Y-18544609D01*
X15404494Y-18449822D01*
X15376719Y-18395308D01*
X15375500Y-18379821D01*
X15375500Y-16849500D01*
X15394407Y-16791309D01*
X15443907Y-16755345D01*
X15474500Y-16750500D01*
X16715689Y-16750500D01*
X16715694Y-16750500D01*
X16752569Y-16747598D01*
X16910398Y-16701744D01*
X17051865Y-16618081D01*
X17168081Y-16501865D01*
X17251744Y-16360398D01*
X17297598Y-16202569D01*
X17300500Y-16165694D01*
X17300500Y-15899500D01*
X17319407Y-15841309D01*
X17368907Y-15805345D01*
X17399500Y-15800500D01*
X18590689Y-15800500D01*
X18590694Y-15800500D01*
X18627569Y-15797598D01*
X18732294Y-15767172D01*
X18776151Y-15754431D01*
X18803771Y-15750500D01*
X20150500Y-15750500D01*
X20208691Y-15769407D01*
G37*
%TD.AperFunction*%
%TA.AperFunction,Conductor*%
G36*
X45958691Y-19407D02*
G01*
X45994655Y-68907D01*
X45999500Y-99500D01*
X45999500Y-14064125D01*
X45980593Y-14122316D01*
X45931093Y-14158280D01*
X45869907Y-14158280D01*
X45830498Y-14134130D01*
X45718656Y-14022288D01*
X45718653Y-14022286D01*
X45718652Y-14022285D01*
X45569336Y-13930187D01*
X45569335Y-13930186D01*
X45569334Y-13930186D01*
X45402797Y-13875001D01*
X45402794Y-13875000D01*
X45300017Y-13864500D01*
X45300009Y-13864500D01*
X44449687Y-13864500D01*
X44404742Y-13853710D01*
X44380025Y-13841116D01*
X44192821Y-13780289D01*
X43998420Y-13749500D01*
X43998417Y-13749500D01*
X36849500Y-13749500D01*
X36791309Y-13730593D01*
X36755345Y-13681093D01*
X36750500Y-13650500D01*
X36750500Y-11570179D01*
X36769407Y-11511988D01*
X36779490Y-11500181D01*
X36824281Y-11455391D01*
X36912549Y-11312287D01*
X36965436Y-11152685D01*
X36974117Y-11067714D01*
X36975500Y-11054181D01*
X36975500Y-10916953D01*
X36994407Y-10858762D01*
X37043907Y-10822798D01*
X37105093Y-10822798D01*
X37154593Y-10858762D01*
X37158761Y-10864981D01*
X37207285Y-10943652D01*
X37207286Y-10943653D01*
X37207288Y-10943656D01*
X37331344Y-11067712D01*
X37480666Y-11159814D01*
X37647203Y-11214999D01*
X37749991Y-11225500D01*
X38350008Y-11225499D01*
X38350016Y-11225499D01*
X38452788Y-11215000D01*
X38452788Y-11214999D01*
X38452797Y-11214999D01*
X38619334Y-11159814D01*
X38768656Y-11067712D01*
X38892712Y-10943656D01*
X38916033Y-10905846D01*
X38962672Y-10866246D01*
X39023682Y-10861622D01*
X39075759Y-10893741D01*
X39084553Y-10905846D01*
X39107679Y-10943339D01*
X39231659Y-11067319D01*
X39380875Y-11159356D01*
X39547306Y-11214506D01*
X39650013Y-11224999D01*
X39700000Y-11224998D01*
X39700000Y-10250001D01*
X40200000Y-10250001D01*
X40200000Y-11224998D01*
X40200001Y-11224999D01*
X40249986Y-11224999D01*
X40352687Y-11214507D01*
X40352699Y-11214504D01*
X40519124Y-11159356D01*
X40668340Y-11067319D01*
X40792319Y-10943340D01*
X40884356Y-10794124D01*
X40939506Y-10627693D01*
X40950000Y-10524987D01*
X40950000Y-10250001D01*
X40949999Y-10250000D01*
X40200001Y-10250000D01*
X40200000Y-10250001D01*
X39700000Y-10250001D01*
X39700000Y-7750001D01*
X40200000Y-7750001D01*
X40200000Y-9749999D01*
X40200001Y-9750000D01*
X40949998Y-9750000D01*
X40949999Y-9749999D01*
X40949999Y-9475013D01*
X40939507Y-9372312D01*
X40939504Y-9372300D01*
X40884356Y-9205875D01*
X40792319Y-9056659D01*
X40668340Y-8932680D01*
X40519122Y-8840641D01*
X40517160Y-8839727D01*
X40516223Y-8838853D01*
X40514215Y-8837615D01*
X40514463Y-8837212D01*
X40472409Y-8798002D01*
X40460730Y-8737942D01*
X40486584Y-8682487D01*
X40514226Y-8662404D01*
X40514215Y-8662385D01*
X40514466Y-8662229D01*
X40517160Y-8660273D01*
X40519122Y-8659358D01*
X40668340Y-8567319D01*
X40792319Y-8443340D01*
X40884356Y-8294124D01*
X40939506Y-8127693D01*
X40950000Y-8024987D01*
X40950000Y-7750001D01*
X40949999Y-7750000D01*
X40200001Y-7750000D01*
X40200000Y-7750001D01*
X39700000Y-7750001D01*
X39700000Y-6275001D01*
X40200000Y-6275001D01*
X40200000Y-7249999D01*
X40200001Y-7250000D01*
X40949998Y-7250000D01*
X40949999Y-7249999D01*
X40949999Y-6975013D01*
X40939507Y-6872312D01*
X40939504Y-6872300D01*
X40884356Y-6705875D01*
X40792319Y-6556659D01*
X40668340Y-6432680D01*
X40519124Y-6340643D01*
X40352693Y-6285493D01*
X40249987Y-6275000D01*
X40200001Y-6275000D01*
X40200000Y-6275001D01*
X39700000Y-6275001D01*
X39700000Y-6274999D01*
X39650015Y-6275000D01*
X39650012Y-6275001D01*
X39547312Y-6285492D01*
X39547300Y-6285495D01*
X39380875Y-6340643D01*
X39231659Y-6432680D01*
X39107680Y-6556659D01*
X39084553Y-6594154D01*
X39037911Y-6633754D01*
X38976901Y-6638377D01*
X38924825Y-6606255D01*
X38916032Y-6594152D01*
X38892714Y-6556347D01*
X38892713Y-6556346D01*
X38892712Y-6556344D01*
X38768656Y-6432288D01*
X38768653Y-6432286D01*
X38768652Y-6432285D01*
X38619336Y-6340187D01*
X38619335Y-6340186D01*
X38619334Y-6340186D01*
X38452797Y-6285001D01*
X38452794Y-6285000D01*
X38350016Y-6274500D01*
X37749983Y-6274500D01*
X37647211Y-6284999D01*
X37647199Y-6285002D01*
X37480663Y-6340187D01*
X37331347Y-6432285D01*
X37331344Y-6432287D01*
X37331344Y-6432288D01*
X37269500Y-6494131D01*
X37214986Y-6521907D01*
X37154554Y-6512336D01*
X37111289Y-6469071D01*
X37100499Y-6424126D01*
X37100499Y-6376647D01*
X37090350Y-6277300D01*
X37090349Y-6277298D01*
X37090349Y-6277292D01*
X37037003Y-6116303D01*
X36947968Y-5971956D01*
X36828044Y-5852032D01*
X36760197Y-5810183D01*
X36683700Y-5762998D01*
X36522705Y-5709650D01*
X36423352Y-5699500D01*
X35576647Y-5699500D01*
X35477291Y-5709650D01*
X35466814Y-5713122D01*
X35405630Y-5713474D01*
X35404372Y-5713065D01*
X34745436Y-5493420D01*
X34696211Y-5457081D01*
X34677746Y-5398749D01*
X34697094Y-5340703D01*
X34746866Y-5305116D01*
X34776743Y-5300500D01*
X36078841Y-5300500D01*
X36078842Y-5300500D01*
X36233497Y-5269737D01*
X36379179Y-5209394D01*
X36510289Y-5121789D01*
X36621789Y-5010289D01*
X36709394Y-4879179D01*
X36769737Y-4733497D01*
X36800500Y-4578842D01*
X36800500Y-4421158D01*
X36769737Y-4266503D01*
X36769736Y-4266502D01*
X36768788Y-4261733D01*
X36770940Y-4261304D01*
X36771975Y-4208736D01*
X36808906Y-4159954D01*
X36813509Y-4156932D01*
X36828044Y-4147968D01*
X36947968Y-4028044D01*
X37037003Y-3883697D01*
X37090349Y-3722708D01*
X37100500Y-3623345D01*
X37100499Y-3076656D01*
X37100499Y-3076655D01*
X37100499Y-3076647D01*
X37090350Y-2977300D01*
X37090349Y-2977298D01*
X37090349Y-2977292D01*
X37037003Y-2816303D01*
X36947968Y-2671956D01*
X36828044Y-2552032D01*
X36796935Y-2532843D01*
X36683700Y-2462998D01*
X36522705Y-2409650D01*
X36423352Y-2399500D01*
X35576647Y-2399500D01*
X35477300Y-2409649D01*
X35477288Y-2409652D01*
X35316299Y-2462998D01*
X35171958Y-2552031D01*
X35171957Y-2552031D01*
X35052031Y-2671957D01*
X35052031Y-2671958D01*
X34962998Y-2816299D01*
X34909650Y-2977294D01*
X34899500Y-3076647D01*
X34899500Y-3076654D01*
X34899500Y-3076655D01*
X34899500Y-3349501D01*
X34899501Y-3600500D01*
X34880594Y-3658691D01*
X34831094Y-3694655D01*
X34800501Y-3699500D01*
X34296784Y-3699500D01*
X34238593Y-3680593D01*
X34204026Y-3635096D01*
X34193796Y-3607669D01*
X34193795Y-3607667D01*
X34107549Y-3492458D01*
X34107548Y-3492457D01*
X34107546Y-3492454D01*
X34107541Y-3492450D01*
X33992329Y-3406202D01*
X33857488Y-3355910D01*
X33857483Y-3355909D01*
X33857481Y-3355908D01*
X33857477Y-3355908D01*
X33826249Y-3352550D01*
X33797873Y-3349500D01*
X33797870Y-3349500D01*
X32202133Y-3349500D01*
X32202129Y-3349500D01*
X32202128Y-3349501D01*
X32194949Y-3350272D01*
X32142519Y-3355908D01*
X32142514Y-3355909D01*
X32007670Y-3406202D01*
X31892458Y-3492450D01*
X31892450Y-3492458D01*
X31806204Y-3607667D01*
X31806203Y-3607669D01*
X31795974Y-3635096D01*
X31757924Y-3683011D01*
X31703216Y-3699500D01*
X21199500Y-3699500D01*
X21141309Y-3680593D01*
X21105345Y-3631093D01*
X21100500Y-3600500D01*
X21100499Y-3076647D01*
X21090350Y-2977300D01*
X21090349Y-2977298D01*
X21090349Y-2977292D01*
X21037003Y-2816303D01*
X20947968Y-2671956D01*
X20828044Y-2552032D01*
X20796935Y-2532843D01*
X20683700Y-2462998D01*
X20522705Y-2409650D01*
X20423352Y-2399500D01*
X19876647Y-2399500D01*
X19777300Y-2409649D01*
X19777288Y-2409652D01*
X19616299Y-2462998D01*
X19471958Y-2552031D01*
X19471957Y-2552031D01*
X19352031Y-2671957D01*
X19352031Y-2671958D01*
X19262998Y-2816299D01*
X19209650Y-2977294D01*
X19199500Y-3076647D01*
X19199500Y-3923352D01*
X19209649Y-4022699D01*
X19209650Y-4022706D01*
X19209651Y-4022708D01*
X19211419Y-4028042D01*
X19262998Y-4183700D01*
X19334760Y-4300042D01*
X19349500Y-4352015D01*
X19349500Y-4578844D01*
X19380263Y-4733496D01*
X19380263Y-4733498D01*
X19441964Y-4882458D01*
X19449500Y-4920343D01*
X19449500Y-5400500D01*
X19430593Y-5458691D01*
X19381093Y-5494655D01*
X19350500Y-5499500D01*
X5931004Y-5499500D01*
X5795672Y-5526420D01*
X5795670Y-5526420D01*
X5668193Y-5579222D01*
X5668182Y-5579228D01*
X5553458Y-5655885D01*
X5455885Y-5753458D01*
X5379228Y-5868182D01*
X5379222Y-5868193D01*
X5326420Y-5995670D01*
X5326420Y-5995672D01*
X5299500Y-6131004D01*
X5299500Y-6868836D01*
X5280593Y-6927027D01*
X5270509Y-6938833D01*
X5218206Y-6991137D01*
X5169527Y-7039816D01*
X5081522Y-7185392D01*
X5081521Y-7185394D01*
X5030913Y-7347805D01*
X5024500Y-7418379D01*
X5024500Y-7931620D01*
X5030913Y-8002194D01*
X5081521Y-8164605D01*
X5081522Y-8164607D01*
X5144718Y-8269144D01*
X5169528Y-8310185D01*
X5289341Y-8429998D01*
X5317117Y-8484513D01*
X5307546Y-8544945D01*
X5289342Y-8570000D01*
X5199985Y-8659358D01*
X5169527Y-8689816D01*
X5081522Y-8835392D01*
X5081521Y-8835394D01*
X5030913Y-8997805D01*
X5024500Y-9068379D01*
X5024500Y-9581620D01*
X5030913Y-9652194D01*
X5081521Y-9814605D01*
X5081522Y-9814607D01*
X5146914Y-9922777D01*
X5169528Y-9960185D01*
X5270505Y-10061162D01*
X5298281Y-10115677D01*
X5299500Y-10131164D01*
X5299500Y-11393995D01*
X5326420Y-11529327D01*
X5326420Y-11529329D01*
X5379222Y-11656806D01*
X5379228Y-11656817D01*
X5455885Y-11771541D01*
X5553458Y-11869114D01*
X5668182Y-11945771D01*
X5668193Y-11945777D01*
X5715283Y-11965282D01*
X5795672Y-11998580D01*
X5931007Y-12025500D01*
X7693835Y-12025500D01*
X7752026Y-12044407D01*
X7763837Y-12054495D01*
X7788313Y-12078970D01*
X7789815Y-12080472D01*
X7935394Y-12168478D01*
X8097804Y-12219086D01*
X8168384Y-12225500D01*
X8168389Y-12225500D01*
X8831611Y-12225500D01*
X8831616Y-12225500D01*
X8902196Y-12219086D01*
X9064606Y-12168478D01*
X9210185Y-12080472D01*
X9210185Y-12080471D01*
X9212669Y-12078970D01*
X9268829Y-12064816D01*
X9835324Y-12093140D01*
X9892497Y-12114929D01*
X9914640Y-12140044D01*
X9932285Y-12168652D01*
X9932286Y-12168653D01*
X9932288Y-12168656D01*
X10056344Y-12292712D01*
X10205666Y-12384814D01*
X10372203Y-12439999D01*
X10474991Y-12450500D01*
X11525008Y-12450499D01*
X11525016Y-12450499D01*
X11627788Y-12440000D01*
X11627788Y-12439999D01*
X11627797Y-12439999D01*
X11794334Y-12384814D01*
X11943656Y-12292712D01*
X12056873Y-12179494D01*
X12111388Y-12151719D01*
X12126875Y-12150500D01*
X12373125Y-12150500D01*
X12431316Y-12169407D01*
X12443122Y-12179490D01*
X12556344Y-12292712D01*
X12705666Y-12384814D01*
X12872203Y-12439999D01*
X12974991Y-12450500D01*
X14025008Y-12450499D01*
X14025016Y-12450499D01*
X14127788Y-12440000D01*
X14127788Y-12439999D01*
X14127797Y-12439999D01*
X14294334Y-12384814D01*
X14443656Y-12292712D01*
X14556873Y-12179494D01*
X14611388Y-12151719D01*
X14626875Y-12150500D01*
X14935125Y-12150500D01*
X14993316Y-12169407D01*
X15005122Y-12179490D01*
X15118344Y-12292712D01*
X15118346Y-12292713D01*
X15118347Y-12292714D01*
X15264667Y-12382964D01*
X15304269Y-12429605D01*
X15311695Y-12467206D01*
X15311834Y-13195656D01*
X15292938Y-13253850D01*
X15243445Y-13289824D01*
X15240458Y-13290743D01*
X15214603Y-13298255D01*
X15073136Y-13381918D01*
X14956918Y-13498136D01*
X14873256Y-13639602D01*
X14827403Y-13797427D01*
X14827401Y-13797434D01*
X14824500Y-13834311D01*
X14824500Y-14265688D01*
X14827401Y-14302565D01*
X14827401Y-14302568D01*
X14827402Y-14302569D01*
X14873256Y-14460398D01*
X14956919Y-14601865D01*
X15073135Y-14718081D01*
X15214602Y-14801744D01*
X15372431Y-14847598D01*
X15409306Y-14850500D01*
X16600500Y-14850500D01*
X16658691Y-14869407D01*
X16694655Y-14918907D01*
X16699500Y-14949500D01*
X16699500Y-15050500D01*
X16680593Y-15108691D01*
X16631093Y-15144655D01*
X16600500Y-15149500D01*
X15409306Y-15149500D01*
X15396773Y-15150486D01*
X15372434Y-15152401D01*
X15372427Y-15152403D01*
X15223849Y-15195569D01*
X15196229Y-15199500D01*
X13467105Y-15199500D01*
X13408914Y-15180593D01*
X13382844Y-15152472D01*
X13292714Y-15006347D01*
X13292713Y-15006346D01*
X13292712Y-15006344D01*
X13168656Y-14882288D01*
X13168653Y-14882286D01*
X13168652Y-14882285D01*
X13019336Y-14790187D01*
X13019335Y-14790186D01*
X13019334Y-14790186D01*
X12852797Y-14735001D01*
X12852794Y-14735000D01*
X12750016Y-14724500D01*
X12149983Y-14724500D01*
X12047211Y-14734999D01*
X12047199Y-14735002D01*
X11880663Y-14790187D01*
X11731347Y-14882285D01*
X11607287Y-15006345D01*
X11584261Y-15043677D01*
X11537619Y-15083278D01*
X11476609Y-15087901D01*
X11424533Y-15055780D01*
X11415739Y-15043677D01*
X11392712Y-15006344D01*
X11268656Y-14882288D01*
X11268653Y-14882286D01*
X11268652Y-14882285D01*
X11119336Y-14790187D01*
X11119335Y-14790186D01*
X11119334Y-14790186D01*
X10952797Y-14735001D01*
X10952794Y-14735000D01*
X10850016Y-14724500D01*
X10249983Y-14724500D01*
X10147211Y-14734999D01*
X10147199Y-14735002D01*
X9980663Y-14790187D01*
X9881413Y-14851404D01*
X9821959Y-14865860D01*
X9765364Y-14842609D01*
X9733244Y-14790533D01*
X9731660Y-14782629D01*
X9719710Y-14707179D01*
X9719709Y-14707177D01*
X9719709Y-14707174D01*
X9658884Y-14519975D01*
X9569524Y-14344595D01*
X9453828Y-14185354D01*
X9314646Y-14046172D01*
X9155405Y-13930476D01*
X9155404Y-13930475D01*
X9155402Y-13930474D01*
X8980025Y-13841116D01*
X8792821Y-13780289D01*
X8598420Y-13749500D01*
X8598417Y-13749500D01*
X2001583Y-13749500D01*
X2001580Y-13749500D01*
X1807178Y-13780289D01*
X1619976Y-13841115D01*
X1595252Y-13853712D01*
X1550311Y-13864500D01*
X699983Y-13864500D01*
X597211Y-13874999D01*
X597199Y-13875002D01*
X430663Y-13930187D01*
X281347Y-14022285D01*
X281344Y-14022287D01*
X281344Y-14022288D01*
X169501Y-14134130D01*
X114987Y-14161906D01*
X54555Y-14152335D01*
X11290Y-14109070D01*
X500Y-14064125D01*
X500Y-3393749D01*
X9650000Y-3393749D01*
X9650000Y-3606250D01*
X9683240Y-3816121D01*
X9748904Y-4018215D01*
X9845376Y-4207553D01*
X9845380Y-4207559D01*
X9884728Y-4261716D01*
X9884729Y-4261716D01*
X10517037Y-3629407D01*
X10534075Y-3692993D01*
X10599901Y-3807007D01*
X10692993Y-3900099D01*
X10807007Y-3965925D01*
X10870589Y-3982962D01*
X10238282Y-4615269D01*
X10238282Y-4615270D01*
X10292440Y-4654619D01*
X10292446Y-4654623D01*
X10481784Y-4751095D01*
X10683878Y-4816759D01*
X10893750Y-4850000D01*
X11106250Y-4850000D01*
X11316121Y-4816759D01*
X11518215Y-4751095D01*
X11707556Y-4654620D01*
X11761716Y-4615270D01*
X11129408Y-3982962D01*
X11192993Y-3965925D01*
X11307007Y-3900099D01*
X11400099Y-3807007D01*
X11465925Y-3692993D01*
X11482962Y-3629408D01*
X12128916Y-4275362D01*
X12142222Y-4278556D01*
X12181962Y-4325079D01*
X12189500Y-4362968D01*
X12189500Y-4397867D01*
X12189501Y-4397870D01*
X12195908Y-4457480D01*
X12195909Y-4457485D01*
X12246202Y-4592329D01*
X12332450Y-4707541D01*
X12332454Y-4707546D01*
X12332457Y-4707548D01*
X12332458Y-4707549D01*
X12447670Y-4793797D01*
X12582511Y-4844089D01*
X12582512Y-4844089D01*
X12582517Y-4844091D01*
X12642127Y-4850500D01*
X14437872Y-4850499D01*
X14497483Y-4844091D01*
X14570764Y-4816759D01*
X14632329Y-4793797D01*
X14632329Y-4793796D01*
X14632331Y-4793796D01*
X14747546Y-4707546D01*
X14833796Y-4592331D01*
X14838827Y-4578844D01*
X14884089Y-4457488D01*
X14884090Y-4457485D01*
X14884091Y-4457483D01*
X14890500Y-4397873D01*
X14890500Y-4397867D01*
X14890642Y-4395223D01*
X14891868Y-4395288D01*
X14909407Y-4341309D01*
X14958907Y-4305345D01*
X14989500Y-4300500D01*
X15983481Y-4300500D01*
X16041672Y-4319407D01*
X16053478Y-4329490D01*
X16171956Y-4447968D01*
X16254085Y-4498626D01*
X16316299Y-4537001D01*
X16316300Y-4537001D01*
X16316303Y-4537003D01*
X16477292Y-4590349D01*
X16576655Y-4600500D01*
X17123344Y-4600499D01*
X17123352Y-4600499D01*
X17222699Y-4590350D01*
X17222699Y-4590349D01*
X17222708Y-4590349D01*
X17383697Y-4537003D01*
X17528044Y-4447968D01*
X17647968Y-4328044D01*
X17737003Y-4183697D01*
X17790349Y-4022708D01*
X17800500Y-3923345D01*
X17800499Y-3076656D01*
X17800499Y-3076655D01*
X17800499Y-3076647D01*
X17790350Y-2977300D01*
X17790349Y-2977298D01*
X17790349Y-2977292D01*
X17737003Y-2816303D01*
X17647968Y-2671956D01*
X17528044Y-2552032D01*
X17496935Y-2532843D01*
X17383700Y-2462998D01*
X17222705Y-2409650D01*
X17123352Y-2399500D01*
X16576647Y-2399500D01*
X16477300Y-2409649D01*
X16477288Y-2409652D01*
X16316299Y-2462998D01*
X16171958Y-2552031D01*
X16171957Y-2552031D01*
X16171956Y-2552031D01*
X16171956Y-2552032D01*
X16053482Y-2670505D01*
X15998968Y-2698281D01*
X15983481Y-2699500D01*
X14989499Y-2699500D01*
X14931308Y-2680593D01*
X14895344Y-2631093D01*
X14891172Y-2604751D01*
X14890641Y-2604780D01*
X14890499Y-2602147D01*
X14890499Y-2602128D01*
X14884091Y-2542517D01*
X14884089Y-2542511D01*
X14833797Y-2407670D01*
X14747549Y-2292458D01*
X14747548Y-2292457D01*
X14747546Y-2292454D01*
X14689371Y-2248904D01*
X14632329Y-2206202D01*
X14497488Y-2155910D01*
X14497483Y-2155909D01*
X14497481Y-2155908D01*
X14497477Y-2155908D01*
X14466249Y-2152550D01*
X14437873Y-2149500D01*
X14437870Y-2149500D01*
X12642133Y-2149500D01*
X12642129Y-2149500D01*
X12642128Y-2149501D01*
X12637486Y-2150000D01*
X12582519Y-2155908D01*
X12582514Y-2155909D01*
X12447670Y-2206202D01*
X12332458Y-2292450D01*
X12332450Y-2292458D01*
X12246202Y-2407670D01*
X12195910Y-2542511D01*
X12195908Y-2542522D01*
X12189500Y-2602129D01*
X12189500Y-2637026D01*
X12170593Y-2695217D01*
X12125763Y-2727787D01*
X11482962Y-3370589D01*
X11465925Y-3307007D01*
X11400099Y-3192993D01*
X11307007Y-3099901D01*
X11192993Y-3034075D01*
X11129407Y-3017037D01*
X11761716Y-2384729D01*
X11761716Y-2384728D01*
X11707559Y-2345380D01*
X11707553Y-2345376D01*
X11518215Y-2248904D01*
X11316121Y-2183240D01*
X11106250Y-2150000D01*
X10893750Y-2150000D01*
X10683878Y-2183240D01*
X10481784Y-2248904D01*
X10292446Y-2345376D01*
X10292442Y-2345378D01*
X10238282Y-2384728D01*
X10870591Y-3017037D01*
X10807007Y-3034075D01*
X10692993Y-3099901D01*
X10599901Y-3192993D01*
X10534075Y-3307007D01*
X10517037Y-3370591D01*
X9884728Y-2738282D01*
X9845378Y-2792442D01*
X9845376Y-2792446D01*
X9748904Y-2981784D01*
X9683240Y-3183878D01*
X9650000Y-3393749D01*
X500Y-3393749D01*
X500Y-99500D01*
X19407Y-41309D01*
X68907Y-5345D01*
X99500Y-500D01*
X45900500Y-500D01*
X45958691Y-19407D01*
G37*
%TD.AperFunction*%
%TA.AperFunction,Conductor*%
G36*
X20208691Y-6919407D02*
G01*
X20244655Y-6968907D01*
X20249500Y-6999500D01*
X20249500Y-8429820D01*
X20230593Y-8488011D01*
X20220504Y-8499823D01*
X20175722Y-8544605D01*
X20175720Y-8544608D01*
X20175719Y-8544609D01*
X20175718Y-8544611D01*
X20087454Y-8687706D01*
X20087450Y-8687714D01*
X20034563Y-8847317D01*
X20024500Y-8945818D01*
X20024500Y-9479181D01*
X20034563Y-9577682D01*
X20087450Y-9737285D01*
X20087454Y-9737293D01*
X20126133Y-9800000D01*
X20175719Y-9880391D01*
X20225326Y-9929998D01*
X20253102Y-9984513D01*
X20243531Y-10044945D01*
X20225327Y-10070000D01*
X20181113Y-10114215D01*
X20175718Y-10119610D01*
X20175718Y-10119611D01*
X20087454Y-10262706D01*
X20087450Y-10262714D01*
X20034563Y-10422317D01*
X20024500Y-10520818D01*
X20024500Y-11054181D01*
X20034563Y-11152682D01*
X20087450Y-11312285D01*
X20087454Y-11312293D01*
X20127330Y-11376942D01*
X20175719Y-11455391D01*
X20220505Y-11500177D01*
X20248281Y-11554692D01*
X20249500Y-11570179D01*
X20249500Y-14150500D01*
X20230593Y-14208691D01*
X20181093Y-14244655D01*
X20150500Y-14249500D01*
X18803771Y-14249500D01*
X18776151Y-14245569D01*
X18649216Y-14208691D01*
X18627569Y-14202402D01*
X18627568Y-14202401D01*
X18627565Y-14202401D01*
X18604140Y-14200558D01*
X18590694Y-14199500D01*
X18590689Y-14199500D01*
X17399500Y-14199500D01*
X17341309Y-14180593D01*
X17305345Y-14131093D01*
X17300500Y-14100500D01*
X17300500Y-13834311D01*
X17297598Y-13797434D01*
X17297598Y-13797431D01*
X17251744Y-13639602D01*
X17168081Y-13498135D01*
X17051865Y-13381919D01*
X16910398Y-13298256D01*
X16910395Y-13298255D01*
X16884211Y-13290647D01*
X16833607Y-13256255D01*
X16812883Y-13198686D01*
X16812834Y-13195645D01*
X16812694Y-12466999D01*
X16831590Y-12408809D01*
X16859717Y-12382726D01*
X17005656Y-12292712D01*
X17129712Y-12168656D01*
X17221814Y-12019334D01*
X17276999Y-11852797D01*
X17287500Y-11750009D01*
X17287499Y-11149992D01*
X17287499Y-11149983D01*
X17277000Y-11047211D01*
X17276999Y-11047209D01*
X17276999Y-11047203D01*
X17221814Y-10880666D01*
X17129712Y-10731344D01*
X17005656Y-10607288D01*
X17005653Y-10607286D01*
X17005652Y-10607285D01*
X16967847Y-10583967D01*
X16928245Y-10537326D01*
X16923622Y-10476315D01*
X16955743Y-10424239D01*
X16967847Y-10415445D01*
X17005340Y-10392319D01*
X17129319Y-10268340D01*
X17221356Y-10119124D01*
X17276506Y-9952693D01*
X17287000Y-9849987D01*
X17287000Y-9800001D01*
X17286999Y-9800000D01*
X14823521Y-9800000D01*
X14796484Y-9813775D01*
X14736052Y-9804201D01*
X14730270Y-9800000D01*
X9775002Y-9800000D01*
X9775001Y-9800001D01*
X9775001Y-9849986D01*
X9785492Y-9952687D01*
X9785495Y-9952699D01*
X9840643Y-10119124D01*
X9932680Y-10268340D01*
X10056659Y-10392319D01*
X10094152Y-10415445D01*
X10133754Y-10462086D01*
X10138377Y-10523097D01*
X10106256Y-10575173D01*
X10094153Y-10583966D01*
X10056348Y-10607284D01*
X10056342Y-10607288D01*
X9997738Y-10665892D01*
X9943221Y-10693668D01*
X9922792Y-10694763D01*
X9342599Y-10665754D01*
X9285425Y-10643965D01*
X9277539Y-10636882D01*
X9210306Y-10569649D01*
X9182529Y-10515132D01*
X9192100Y-10454700D01*
X9210307Y-10429641D01*
X9330073Y-10309875D01*
X9330074Y-10309873D01*
X9418017Y-10164400D01*
X9418020Y-10164392D01*
X9468589Y-10002110D01*
X9468591Y-10002104D01*
X9474999Y-9931581D01*
X9475000Y-9931568D01*
X9475000Y-9925001D01*
X9474999Y-9925000D01*
X7525002Y-9925000D01*
X7525001Y-9925001D01*
X7525001Y-9931582D01*
X7531408Y-10002103D01*
X7531410Y-10002109D01*
X7581979Y-10164392D01*
X7581982Y-10164400D01*
X7669924Y-10309872D01*
X7789693Y-10429641D01*
X7817470Y-10484158D01*
X7807899Y-10544590D01*
X7789694Y-10569647D01*
X7763840Y-10595502D01*
X7709324Y-10623281D01*
X7693835Y-10624500D01*
X6799500Y-10624500D01*
X6741309Y-10605593D01*
X6705345Y-10556093D01*
X6700500Y-10525500D01*
X6700500Y-10131164D01*
X6719407Y-10072973D01*
X6729490Y-10061166D01*
X6830472Y-9960185D01*
X6918478Y-9814606D01*
X6969086Y-9652196D01*
X6975500Y-9581616D01*
X6975500Y-9418418D01*
X7525000Y-9418418D01*
X7525000Y-9424999D01*
X7525001Y-9425000D01*
X8249999Y-9425000D01*
X8250000Y-9424999D01*
X8250000Y-8775001D01*
X8750000Y-8775001D01*
X8750000Y-9424999D01*
X8750001Y-9425000D01*
X9474998Y-9425000D01*
X9474999Y-9424999D01*
X9474999Y-9418433D01*
X9474998Y-9418417D01*
X9468591Y-9347896D01*
X9468589Y-9347890D01*
X9446485Y-9276954D01*
X9438090Y-9250012D01*
X9775000Y-9250012D01*
X9775000Y-9299999D01*
X9775001Y-9300000D01*
X10749999Y-9300000D01*
X10750000Y-9299999D01*
X10750000Y-8550001D01*
X11250000Y-8550001D01*
X11250000Y-9299999D01*
X11250001Y-9300000D01*
X13249999Y-9300000D01*
X13250000Y-9299999D01*
X13250000Y-8550001D01*
X13750000Y-8550001D01*
X13750000Y-9299999D01*
X13750001Y-9300000D01*
X14738477Y-9300000D01*
X14765509Y-9286225D01*
X14825941Y-9295795D01*
X14831729Y-9300000D01*
X15811999Y-9300000D01*
X15812000Y-9299999D01*
X15812000Y-8550001D01*
X16312000Y-8550001D01*
X16312000Y-9299999D01*
X16312001Y-9300000D01*
X17286998Y-9300000D01*
X17286999Y-9299999D01*
X17286999Y-9250013D01*
X17276507Y-9147312D01*
X17276504Y-9147300D01*
X17221356Y-8980875D01*
X17129319Y-8831659D01*
X17005340Y-8707680D01*
X16856124Y-8615643D01*
X16689693Y-8560493D01*
X16586987Y-8550000D01*
X16312001Y-8550000D01*
X16312000Y-8550001D01*
X15812000Y-8550001D01*
X15811999Y-8550000D01*
X15537013Y-8550000D01*
X15434312Y-8560492D01*
X15434300Y-8560495D01*
X15267875Y-8615643D01*
X15118659Y-8707680D01*
X14994680Y-8831659D01*
X14902643Y-8980875D01*
X14874975Y-9064372D01*
X14838723Y-9113662D01*
X14780423Y-9132230D01*
X14722344Y-9112984D01*
X14687025Y-9064372D01*
X14659356Y-8980875D01*
X14567319Y-8831659D01*
X14443340Y-8707680D01*
X14294124Y-8615643D01*
X14127693Y-8560493D01*
X14024987Y-8550000D01*
X13750001Y-8550000D01*
X13750000Y-8550001D01*
X13250000Y-8550001D01*
X13249999Y-8550000D01*
X12975013Y-8550000D01*
X12872312Y-8560492D01*
X12872300Y-8560495D01*
X12705875Y-8615643D01*
X12556659Y-8707680D01*
X12432680Y-8831659D01*
X12340641Y-8980877D01*
X12339725Y-8982844D01*
X12338850Y-8983781D01*
X12337615Y-8985785D01*
X12337213Y-8985537D01*
X12297998Y-9027593D01*
X12237937Y-9039268D01*
X12182483Y-9013411D01*
X12162403Y-8985773D01*
X12162385Y-8985785D01*
X12162234Y-8985541D01*
X12160275Y-8982844D01*
X12159358Y-8980877D01*
X12067319Y-8831659D01*
X11943340Y-8707680D01*
X11794124Y-8615643D01*
X11627693Y-8560493D01*
X11524987Y-8550000D01*
X11250001Y-8550000D01*
X11250000Y-8550001D01*
X10750000Y-8550001D01*
X10749999Y-8550000D01*
X10475013Y-8550000D01*
X10372312Y-8560492D01*
X10372300Y-8560495D01*
X10205875Y-8615643D01*
X10056659Y-8707680D01*
X9932680Y-8831659D01*
X9840643Y-8980875D01*
X9785493Y-9147306D01*
X9775000Y-9250012D01*
X9438090Y-9250012D01*
X9418020Y-9185606D01*
X9418017Y-9185599D01*
X9330075Y-9040127D01*
X9209872Y-8919924D01*
X9064400Y-8831982D01*
X9064392Y-8831979D01*
X8902110Y-8781410D01*
X8902104Y-8781408D01*
X8831581Y-8775000D01*
X8750001Y-8775000D01*
X8750000Y-8775001D01*
X8250000Y-8775001D01*
X8249998Y-8774999D01*
X8168434Y-8775000D01*
X8168417Y-8775001D01*
X8097896Y-8781408D01*
X8097890Y-8781410D01*
X7935607Y-8831979D01*
X7935599Y-8831982D01*
X7790127Y-8919924D01*
X7669924Y-9040127D01*
X7581982Y-9185599D01*
X7581979Y-9185607D01*
X7531410Y-9347889D01*
X7531408Y-9347895D01*
X7525000Y-9418418D01*
X6975500Y-9418418D01*
X6975500Y-9068384D01*
X6969086Y-8997804D01*
X6918478Y-8835394D01*
X6916415Y-8831982D01*
X6881968Y-8774999D01*
X6830472Y-8689815D01*
X6710658Y-8570001D01*
X6682883Y-8515487D01*
X6692454Y-8455055D01*
X6710657Y-8429999D01*
X6830472Y-8310185D01*
X6918478Y-8164606D01*
X6969086Y-8002196D01*
X6975500Y-7931616D01*
X6975500Y-7418384D01*
X6969086Y-7347804D01*
X6918478Y-7185394D01*
X6837061Y-7050715D01*
X6823138Y-6991137D01*
X6846893Y-6934751D01*
X6899255Y-6903098D01*
X6921784Y-6900500D01*
X20150500Y-6900500D01*
X20208691Y-6919407D01*
G37*
%TD.AperFunction*%
%TA.AperFunction,Conductor*%
G36*
X23208691Y-5319407D02*
G01*
X23244655Y-5368907D01*
X23249500Y-5399500D01*
X23249500Y-5532894D01*
X23230593Y-5591085D01*
X23202473Y-5617155D01*
X23056345Y-5707287D01*
X22932285Y-5831347D01*
X22840187Y-5980663D01*
X22785000Y-6147205D01*
X22774500Y-6249983D01*
X22774500Y-6850016D01*
X22784999Y-6952788D01*
X22785000Y-6952795D01*
X22785001Y-6952797D01*
X22827687Y-7081616D01*
X22840187Y-7119336D01*
X22932285Y-7268652D01*
X22932286Y-7268653D01*
X22932288Y-7268656D01*
X23056344Y-7392712D01*
X23056346Y-7392713D01*
X23056347Y-7392714D01*
X23094152Y-7416032D01*
X23133753Y-7462673D01*
X23138377Y-7523683D01*
X23106257Y-7575759D01*
X23094154Y-7584553D01*
X23056659Y-7607680D01*
X22932680Y-7731659D01*
X22840643Y-7880875D01*
X22785493Y-8047306D01*
X22775000Y-8150012D01*
X22775000Y-8199999D01*
X22775001Y-8200000D01*
X25224998Y-8200000D01*
X25224999Y-8199999D01*
X25224999Y-8150013D01*
X25214507Y-8047312D01*
X25214504Y-8047300D01*
X25159356Y-7880875D01*
X25067319Y-7731659D01*
X24943339Y-7607679D01*
X24905846Y-7584553D01*
X24866245Y-7537912D01*
X24861622Y-7476902D01*
X24893743Y-7424826D01*
X24905838Y-7416037D01*
X24943656Y-7392712D01*
X25067712Y-7268656D01*
X25159814Y-7119334D01*
X25214999Y-6952797D01*
X25225500Y-6850009D01*
X25225499Y-6249992D01*
X25225499Y-6249991D01*
X25225499Y-6249983D01*
X25215000Y-6147211D01*
X25214999Y-6147209D01*
X25214999Y-6147203D01*
X25159814Y-5980666D01*
X25067712Y-5831344D01*
X24943656Y-5707288D01*
X24874457Y-5664606D01*
X24797527Y-5617155D01*
X24757926Y-5570514D01*
X24750500Y-5532894D01*
X24750500Y-5399500D01*
X24769407Y-5341309D01*
X24818907Y-5305345D01*
X24849500Y-5300500D01*
X25950500Y-5300500D01*
X26008691Y-5319407D01*
X26044655Y-5368907D01*
X26049500Y-5399500D01*
X26049500Y-5532894D01*
X26030593Y-5591085D01*
X26002473Y-5617155D01*
X25856345Y-5707287D01*
X25732285Y-5831347D01*
X25640187Y-5980663D01*
X25585000Y-6147205D01*
X25574500Y-6249983D01*
X25574500Y-6850016D01*
X25584999Y-6952788D01*
X25585000Y-6952795D01*
X25585001Y-6952797D01*
X25627687Y-7081616D01*
X25640187Y-7119336D01*
X25732285Y-7268652D01*
X25732286Y-7268653D01*
X25732288Y-7268656D01*
X25856344Y-7392712D01*
X25856346Y-7392713D01*
X25856347Y-7392714D01*
X25894152Y-7416032D01*
X25933753Y-7462673D01*
X25938377Y-7523683D01*
X25906257Y-7575759D01*
X25894154Y-7584553D01*
X25856659Y-7607680D01*
X25732680Y-7731659D01*
X25640643Y-7880875D01*
X25585493Y-8047306D01*
X25575000Y-8150012D01*
X25575000Y-8199999D01*
X25575001Y-8200000D01*
X28024998Y-8200000D01*
X28024999Y-8199999D01*
X28024999Y-8150013D01*
X28014507Y-8047312D01*
X28014504Y-8047300D01*
X27959356Y-7880875D01*
X27867319Y-7731659D01*
X27743339Y-7607679D01*
X27705846Y-7584553D01*
X27666245Y-7537912D01*
X27661622Y-7476902D01*
X27693743Y-7424826D01*
X27705838Y-7416037D01*
X27743656Y-7392712D01*
X27867712Y-7268656D01*
X27959814Y-7119334D01*
X28014999Y-6952797D01*
X28025500Y-6850009D01*
X28025499Y-6249992D01*
X28025499Y-6249991D01*
X28025499Y-6249983D01*
X28015000Y-6147211D01*
X28014999Y-6147209D01*
X28014999Y-6147203D01*
X27959814Y-5980666D01*
X27867712Y-5831344D01*
X27743656Y-5707288D01*
X27674457Y-5664606D01*
X27597527Y-5617155D01*
X27557926Y-5570514D01*
X27550500Y-5532894D01*
X27550500Y-5399500D01*
X27569407Y-5341309D01*
X27618907Y-5305345D01*
X27649500Y-5300500D01*
X28425500Y-5300500D01*
X28483691Y-5319407D01*
X28519655Y-5368907D01*
X28524500Y-5399500D01*
X28524500Y-5431620D01*
X28530913Y-5502194D01*
X28581521Y-5664605D01*
X28581522Y-5664607D01*
X28635235Y-5753458D01*
X28669528Y-5810185D01*
X28789341Y-5929998D01*
X28817117Y-5984513D01*
X28807546Y-6044945D01*
X28789342Y-6070000D01*
X28728339Y-6131004D01*
X28669527Y-6189816D01*
X28581522Y-6335392D01*
X28581521Y-6335394D01*
X28530913Y-6497805D01*
X28524500Y-6568379D01*
X28524500Y-7081620D01*
X28530913Y-7152194D01*
X28581521Y-7314605D01*
X28581522Y-7314607D01*
X28628740Y-7392714D01*
X28669528Y-7460185D01*
X28713942Y-7504599D01*
X28741718Y-7559114D01*
X28732147Y-7619546D01*
X28695910Y-7658861D01*
X28578998Y-7730973D01*
X28455973Y-7853998D01*
X28364639Y-8002071D01*
X28309912Y-8167227D01*
X28299500Y-8269144D01*
X28299500Y-8855855D01*
X28309912Y-8957772D01*
X28364639Y-9122928D01*
X28415673Y-9205666D01*
X28455974Y-9271003D01*
X28578997Y-9394026D01*
X28614678Y-9416034D01*
X28654278Y-9462673D01*
X28658901Y-9523683D01*
X28626781Y-9575759D01*
X28614678Y-9584553D01*
X28579312Y-9606367D01*
X28456368Y-9729311D01*
X28365095Y-9877287D01*
X28310406Y-10042329D01*
X28300000Y-10144183D01*
X28300000Y-10187499D01*
X28300001Y-10187500D01*
X30699999Y-10187500D01*
X30700000Y-10187499D01*
X30700000Y-10144183D01*
X30689593Y-10042329D01*
X30634904Y-9877287D01*
X30543631Y-9729311D01*
X30420688Y-9606368D01*
X30385322Y-9584554D01*
X30345721Y-9537912D01*
X30341098Y-9476902D01*
X30373219Y-9424826D01*
X30385304Y-9416045D01*
X30421003Y-9394026D01*
X30544026Y-9271003D01*
X30635362Y-9122925D01*
X30690087Y-8957775D01*
X30697153Y-8888612D01*
X30700500Y-8855855D01*
X30700500Y-8269144D01*
X30690087Y-8167227D01*
X30690087Y-8167225D01*
X30635362Y-8002075D01*
X30544026Y-7853997D01*
X30421003Y-7730974D01*
X30304085Y-7658858D01*
X30264488Y-7612221D01*
X30259865Y-7551210D01*
X30286057Y-7504599D01*
X30330472Y-7460185D01*
X30418478Y-7314606D01*
X30469086Y-7152196D01*
X30475500Y-7081616D01*
X30475500Y-6568384D01*
X30469086Y-6497804D01*
X30418478Y-6335394D01*
X30330472Y-6189815D01*
X30210658Y-6070001D01*
X30182883Y-6015487D01*
X30192454Y-5955055D01*
X30210657Y-5929999D01*
X30330472Y-5810185D01*
X30418478Y-5664606D01*
X30469086Y-5502196D01*
X30475500Y-5431616D01*
X30475500Y-5399500D01*
X30494407Y-5341309D01*
X30543907Y-5305345D01*
X30574500Y-5300500D01*
X31650500Y-5300500D01*
X31708691Y-5319407D01*
X31744655Y-5368907D01*
X31749500Y-5399500D01*
X31749500Y-6197866D01*
X31749501Y-6197870D01*
X31755908Y-6257480D01*
X31755909Y-6257485D01*
X31806202Y-6392329D01*
X31885161Y-6497804D01*
X31892454Y-6507546D01*
X31892457Y-6507548D01*
X31892458Y-6507549D01*
X32007670Y-6593797D01*
X32142511Y-6644089D01*
X32142512Y-6644089D01*
X32142517Y-6644091D01*
X32202127Y-6650500D01*
X33770255Y-6650499D01*
X33801562Y-6655579D01*
X34863419Y-7009531D01*
X34912644Y-7045870D01*
X34926087Y-7072310D01*
X34962997Y-7183697D01*
X34962998Y-7183699D01*
X34962999Y-7183701D01*
X34994569Y-7234883D01*
X35052032Y-7328044D01*
X35171956Y-7447968D01*
X35171958Y-7447969D01*
X35171959Y-7447970D01*
X35252472Y-7497631D01*
X35292074Y-7544272D01*
X35299500Y-7581892D01*
X35299500Y-8379821D01*
X35280593Y-8438012D01*
X35270509Y-8449818D01*
X35220505Y-8499823D01*
X35175718Y-8544610D01*
X35175718Y-8544611D01*
X35087454Y-8687706D01*
X35087450Y-8687714D01*
X35034563Y-8847317D01*
X35024500Y-8945818D01*
X35024500Y-9479181D01*
X35034563Y-9577682D01*
X35087450Y-9737285D01*
X35087454Y-9737293D01*
X35126133Y-9800000D01*
X35175719Y-9880391D01*
X35225326Y-9929998D01*
X35253102Y-9984513D01*
X35243531Y-10044945D01*
X35225327Y-10070000D01*
X35181113Y-10114215D01*
X35175718Y-10119610D01*
X35175718Y-10119611D01*
X35087454Y-10262706D01*
X35087450Y-10262714D01*
X35034563Y-10422317D01*
X35024500Y-10520818D01*
X35024500Y-11054181D01*
X35034563Y-11152682D01*
X35087450Y-11312285D01*
X35087454Y-11312293D01*
X35127330Y-11376942D01*
X35175719Y-11455391D01*
X35220505Y-11500177D01*
X35248281Y-11554692D01*
X35249500Y-11570179D01*
X35249500Y-13650500D01*
X35230593Y-13708691D01*
X35181093Y-13744655D01*
X35150500Y-13749500D01*
X26351579Y-13749500D01*
X26201426Y-13773281D01*
X26185943Y-13774500D01*
X26149985Y-13774500D01*
X26149982Y-13774501D01*
X26047211Y-13784999D01*
X26047199Y-13785002D01*
X25880663Y-13840187D01*
X25731347Y-13932285D01*
X25607286Y-14056346D01*
X25584559Y-14093192D01*
X25570303Y-14111222D01*
X25569932Y-14111593D01*
X25515415Y-14139370D01*
X25454983Y-14129799D01*
X25415668Y-14093561D01*
X25392712Y-14056344D01*
X25268656Y-13932288D01*
X25268653Y-13932286D01*
X25268652Y-13932285D01*
X25119336Y-13840187D01*
X25119335Y-13840186D01*
X25119334Y-13840186D01*
X24952797Y-13785001D01*
X24952794Y-13785000D01*
X24850016Y-13774500D01*
X24249983Y-13774500D01*
X24147211Y-13784999D01*
X24147199Y-13785002D01*
X23980663Y-13840187D01*
X23831347Y-13932285D01*
X23707285Y-14056347D01*
X23617156Y-14202472D01*
X23570515Y-14242074D01*
X23532895Y-14249500D01*
X21849500Y-14249500D01*
X21791309Y-14230593D01*
X21755345Y-14181093D01*
X21750500Y-14150500D01*
X21750500Y-11570179D01*
X21769407Y-11511988D01*
X21779490Y-11500181D01*
X21824281Y-11455391D01*
X21912549Y-11312287D01*
X21965436Y-11152685D01*
X21974117Y-11067714D01*
X21975500Y-11054181D01*
X21975500Y-10687501D01*
X28300000Y-10687501D01*
X28300000Y-10730816D01*
X28310406Y-10832670D01*
X28365095Y-10997712D01*
X28456368Y-11145688D01*
X28579311Y-11268631D01*
X28727287Y-11359904D01*
X28892329Y-11414593D01*
X28994184Y-11425000D01*
X29249999Y-11425000D01*
X29250000Y-11424999D01*
X29250000Y-10687501D01*
X29750000Y-10687501D01*
X29750000Y-11424999D01*
X29750001Y-11425000D01*
X30005816Y-11425000D01*
X30107670Y-11414593D01*
X30272712Y-11359904D01*
X30420688Y-11268631D01*
X30543631Y-11145688D01*
X30634904Y-10997712D01*
X30689593Y-10832670D01*
X30700000Y-10730816D01*
X30700000Y-10687501D01*
X30699999Y-10687500D01*
X29750001Y-10687500D01*
X29750000Y-10687501D01*
X29250000Y-10687501D01*
X29249999Y-10687500D01*
X28300001Y-10687500D01*
X28300000Y-10687501D01*
X21975500Y-10687501D01*
X21975500Y-10520818D01*
X21965659Y-10424500D01*
X21965436Y-10422315D01*
X21912549Y-10262713D01*
X21904707Y-10250000D01*
X21894470Y-10233403D01*
X21824281Y-10119609D01*
X21774673Y-10070001D01*
X21746898Y-10015487D01*
X21756469Y-9955055D01*
X21774672Y-9929999D01*
X21824281Y-9880391D01*
X21912549Y-9737287D01*
X21965436Y-9577685D01*
X21974868Y-9485362D01*
X21975500Y-9479181D01*
X21975500Y-8945818D01*
X21965436Y-8847317D01*
X21965436Y-8847315D01*
X21916621Y-8700001D01*
X22775001Y-8700001D01*
X22775001Y-8749986D01*
X22785492Y-8852687D01*
X22785495Y-8852699D01*
X22840643Y-9019124D01*
X22932680Y-9168340D01*
X23056659Y-9292319D01*
X23205875Y-9384356D01*
X23372306Y-9439506D01*
X23475013Y-9449999D01*
X23749998Y-9449999D01*
X23750000Y-9449998D01*
X23750000Y-8700001D01*
X24250000Y-8700001D01*
X24250000Y-9449998D01*
X24250001Y-9449999D01*
X24524986Y-9449999D01*
X24627687Y-9439507D01*
X24627699Y-9439504D01*
X24794124Y-9384356D01*
X24943340Y-9292319D01*
X25067319Y-9168340D01*
X25159356Y-9019124D01*
X25214506Y-8852693D01*
X25225000Y-8749987D01*
X25225000Y-8700001D01*
X25575001Y-8700001D01*
X25575001Y-8749986D01*
X25585492Y-8852687D01*
X25585495Y-8852699D01*
X25640643Y-9019124D01*
X25732680Y-9168340D01*
X25856659Y-9292319D01*
X26005875Y-9384356D01*
X26172306Y-9439506D01*
X26275013Y-9449999D01*
X26549998Y-9449999D01*
X26550000Y-9449998D01*
X26550000Y-8700001D01*
X27050000Y-8700001D01*
X27050000Y-9449998D01*
X27050001Y-9449999D01*
X27324986Y-9449999D01*
X27427687Y-9439507D01*
X27427699Y-9439504D01*
X27594124Y-9384356D01*
X27743340Y-9292319D01*
X27867319Y-9168340D01*
X27959356Y-9019124D01*
X28014506Y-8852693D01*
X28025000Y-8749987D01*
X28025000Y-8700001D01*
X28024999Y-8700000D01*
X27050001Y-8700000D01*
X27050000Y-8700001D01*
X26550000Y-8700001D01*
X26549999Y-8700000D01*
X25575002Y-8700000D01*
X25575001Y-8700001D01*
X25225000Y-8700001D01*
X25224999Y-8700000D01*
X24250001Y-8700000D01*
X24250000Y-8700001D01*
X23750000Y-8700001D01*
X23749999Y-8700000D01*
X22775002Y-8700000D01*
X22775001Y-8700001D01*
X21916621Y-8700001D01*
X21912549Y-8687713D01*
X21824281Y-8544609D01*
X21824277Y-8544605D01*
X21779496Y-8499823D01*
X21751719Y-8445306D01*
X21750500Y-8429820D01*
X21750500Y-5399500D01*
X21769407Y-5341309D01*
X21818907Y-5305345D01*
X21849500Y-5300500D01*
X23150500Y-5300500D01*
X23208691Y-5319407D01*
G37*
%TD.AperFunction*%
%TD*%
M02*
