M48
; DRILL file KiCad 10.0.6 date 2026-09-08T17:57:05
; FORMAT={-:-/ absolute / metric / decimal}
; #@! TF.CreationDate,2026-09-08T17:57:05+05:30
; #@! TF.GenerationSoftware,Kicad,Pcbnew,10.0.6
; #@! TF.FileFunction,MixedPlating,1,2
FMAT,2
METRIC
; #@! TA.AperFunction,Plated,PTH,ViaDrill
T1C0.300
; #@! TA.AperFunction,Plated,PTH,ComponentDrill
T2C1.000
; #@! TA.AperFunction,Plated,PTH,ComponentDrill
T3C2.200
%
G90
G05
T1
X1.5Y-6.0
X1.5Y-9.0
X1.5Y-12.0
X1.5Y-22.0
X2.0Y-14.5
X2.0Y-19.5
X4.0Y-1.0
X4.0Y-19.5
X5.5Y-2.5
X5.8Y-23.0
X6.0Y-27.2
X7.8Y-11.0
X7.8Y-23.0
X9.5Y-27.2
X9.8Y-11.0
X9.8Y-20.0
X12.2Y-11.0
X13.0Y-1.0
X13.0Y-11.0
X13.0Y-27.2
X14.562Y-11.0
X15.5Y-11.0
X16.5Y-14.5
X16.5Y-19.5
X16.5Y-27.2
X19.0Y-23.0
X19.5Y-27.2
X21.0Y-14.5
X21.0Y-19.5
X22.0Y-1.0
X22.5Y-14.5
X23.0Y-27.2
X23.5Y-19.5
X25.25Y-10.15
X26.0Y-19.5
X26.5Y-27.2
X28.5Y-14.5
X28.5Y-19.5
X29.0Y-1.0
X32.5Y-6.0
X32.5Y-9.0
X32.5Y-12.0
X32.5Y-22.0
T2
X18.5Y-3.2
X21.04Y-3.2
T3
X3.0Y-3.0
X3.0Y-26.0
X31.0Y-3.0
X31.0Y-26.0
M30
